<svg xmlns="http://www.w3.org/2000/svg" viewBox="0 0 512 512"><g id="BACKGROUND"><path d="M455.773,378.234c16.644-.573,30.514-9.193,29.128-29.154-2.153-30.993-33.982-33.632-57.12-37.5-11.47-1.92-28.323.044-33.42-13.829-2.838-7.723-1.17-16.619,2.415-23.985a12.629,12.629,0,0,1,3.71-4.983c1.836-1.293,4.123-1.574,6.313-1.832a667.457,667.457,0,0,0,73.674-12.881c3.433-.8,7.06-1.743,9.525-4.4,2.6-2.8,3.371-6.939,3.893-10.834a180.016,180.016,0,0,0-3.221-65.12c-1.033-4.364-2.474-9.05-6.017-11.524-2.526-1.764-5.683-2.075-8.7-2.335-25.835-2.01-51.645-4.463-77.463-6.694-11.571-1-23.334-2.793-34.875-2.91-9.184-.094-19.8-1.438-25.835-9.513-7.122-9.525-4.957-25.107-14.226-32.378-4.894-3.839-11.511-4.019-17.648-4.039q-6.623,0-13.245-.033c-22.09-.1-44.179-.392-66.27-.3-9.406.042-18.707.416-27.941,2.462-8.331,1.845-15.459,6.635-18.4,14.807-7.151,19.9,9.77,33.5,16.789,50.232,3.647,8.695,4.612,19.28-.588,27.145-8.172,12.363-27.515,14.887-41.019,16.886-30.621,4.533-61.815,3.939-92.35,9.052-9.437,1.581-19,3.787-27.148,8.963C14.6,246.958,16.943,274.1,17.245,296.3a263.239,263.239,0,0,0,4.16,43.242c1.187,6.563,2.723,13.306,6.578,18.593,6.885,9.443,19.174,11.874,30.346,13.33,37.1,4.833,74.5,6.4,111.855,7.493Q312.947,383.141,455.773,378.234Z" style="fill:#ebf0fc"/></g><g id="OBJECTS"><path d="M189.706,161.565s26.418,41.83,30.822,72.651-19.814,50.636-28.621,44.031S189.706,161.565,189.706,161.565Z" style="fill:#4e6b12"/><path d="M345.294,216.859s-12.781,42.6-12.781,46.864l-46.865,10.651-2.13,12.781s57.516-6.39,61.776-10.651,19.172-48.994,19.172-48.994S358.075,216.859,345.294,216.859Z" style="fill:#ffb085"/><rect x="208.961" y="231.77" width="95.859" height="85.208" style="fill:#d8684e"/><polygon points="304.82 231.77 315.471 221.119 230.263 221.119 208.961 231.77 304.82 231.77" style="fill:#fda476"/><polygon points="315.471 221.119 315.471 306.327 304.82 316.978 304.82 231.77 315.471 221.119" style="fill:#a34733"/><path d="M251.565,258.693a.744.744,0,0,0,.745-.745V256.46a.745.745,0,1,0-1.489,0v1.488A.744.744,0,0,0,251.565,258.693Z" style="fill:#b0543f"/><path d="M261.987,257.2a.744.744,0,0,0,.744-.744v-1.489a.745.745,0,0,0-1.489,0v1.489A.744.744,0,0,0,261.987,257.2Z" style="fill:#b0543f"/><path d="M272.2,261.67a.744.744,0,0,0,.744-.744v-1.489a.744.744,0,1,0-1.488,0v1.489A.744.744,0,0,0,272.2,261.67Z" style="fill:#b0543f"/><path d="M264.964,260.182a.744.744,0,0,0,.745-.745v-1.489a.745.745,0,0,0-1.489,0v1.489A.744.744,0,0,0,264.964,260.182Z" style="fill:#b0543f"/><path d="M243.914,261.67a.744.744,0,0,0,.744-.744v-1.489a.744.744,0,0,0-1.488,0v1.489A.743.743,0,0,0,243.914,261.67Z" style="fill:#b0543f"/><path d="M269.43,257.2a.744.744,0,0,0,.745-.744v-1.489a.745.745,0,0,0-1.489,0v1.489A.744.744,0,0,0,269.43,257.2Z" style="fill:#b0543f"/><path d="M285.828,270.005a2.844,2.844,0,0,0-.341-.182c-.058-.026-.12-.049-.16-.072a.489.489,0,0,1,.032-.26c.032-.093.071-.187.109-.28a2.651,2.651,0,0,0,.267-1.1c-.02-.865-.658-1.621-1.9-2.245a12.531,12.531,0,0,0-1.272-.561.745.745,0,0,0-.526,1.393,10.8,10.8,0,0,1,1.125.5c.79.4,1.076.753,1.081.952a1.659,1.659,0,0,1-.153.492c-.052.123-.1.248-.145.375a1.643,1.643,0,0,0,.489,1.922,2.36,2.36,0,0,0,.422.235,1.591,1.591,0,0,1,.16.08c.077.051.026.16.022.167a1.459,1.459,0,0,1-.665.557,8.59,8.59,0,0,1-2.034.71,1.383,1.383,0,0,1-.5.065c-.167-.031-.312-.208-.6-.589a6.289,6.289,0,0,0-1.365-1.305,2.288,2.288,0,0,0-1.038-.447,2.715,2.715,0,0,0-1.192.179c-.078.025-.153.046-.228.067a3.6,3.6,0,0,0-.468-.047c-.029-.02-.047-.026-.079-.048-.087-.059-.174-.12-.266-.171a2.587,2.587,0,0,0-2.631.093,3.213,3.213,0,0,0-.344.278,2.016,2.016,0,0,1-.2.165,2.878,2.878,0,0,1-.923.3,5.949,5.949,0,0,1-3.466.067,1.757,1.757,0,0,0-1.475-.115,1.272,1.272,0,0,0-.548.509,11.25,11.25,0,0,1-4.207-.29l-2.229-.44a11.171,11.171,0,0,0-2.035-.269,11.669,11.669,0,0,0-1.669.145c-.271.038-.543.077-.814.1a8.591,8.591,0,0,1-1.243,0c-.264-.013-.528-.026-.8-.027a3.615,3.615,0,0,0-1.42.36l-.31.125a2.7,2.7,0,0,1-2.545-.234,3.752,3.752,0,0,1-.335-.382,2.135,2.135,0,0,0-3-.764,8.306,8.306,0,0,0-1.306.9c-.247.195-.494.391-.763.565a2.4,2.4,0,0,1-1.855.425,4.336,4.336,0,0,1-.461-.188,2.151,2.151,0,0,0-2.04-.154,2.305,2.305,0,0,0-.464.384.743.743,0,0,1-.743.025,1.681,1.681,0,0,1-.305-.356,2.28,2.28,0,0,0-1.118-.937,2.594,2.594,0,0,0-2.694,1.171,3.309,3.309,0,0,0-.3.951c-.02.1-.041.207-.067.308a.611.611,0,0,1-.3.439.76.76,0,0,1-.725-.176,1.064,1.064,0,0,1-.258-.785,1.274,1.274,0,0,1,.12-.617l.091-.157a2.158,2.158,0,0,0,.285-.6,2.283,2.283,0,0,0-.4-1.708,1.67,1.67,0,0,1-.16-.386.989.989,0,0,1,.563-.148,5,5,0,0,1,.6.021c.242.016.489.029.723.024a3.749,3.749,0,0,0,2.791-1.3c.117-.148.221-.308.325-.468.209-.327.337-.515.538-.586.241-.087,1.355-.417,1.538-.445a.734.734,0,0,0,.265-.072h38.922a2.872,2.872,0,0,0,2.87-2.872,13.521,13.521,0,0,0-13.5-13.5H249.439a13.521,13.521,0,0,0-13.5,13.5,2.862,2.862,0,0,0,1.353,2.427,3.829,3.829,0,0,0-.589.744,3.569,3.569,0,0,1-.237.345,2.262,2.262,0,0,1-1.667.743,5.326,5.326,0,0,1-.58-.022c-.255-.016-.508-.031-.762-.024a2.162,2.162,0,0,0-1.723.78,1.829,1.829,0,0,0,.115,2.035,1.625,1.625,0,0,1,.227.535,1.339,1.339,0,0,1-.114.2c-.05.084-.1.167-.145.251a2.706,2.706,0,0,0-.286,1.32,2.487,2.487,0,0,0,.7,1.826,2.281,2.281,0,0,0,1.585.639,1.966,1.966,0,0,0,.766-.149,2.037,2.037,0,0,0,1.157-1.425c.035-.132.063-.267.09-.4a2.027,2.027,0,0,1,.156-.545,1.276,1.276,0,0,1,.911-.454c.114.038.218.176.38.4a2.856,2.856,0,0,0,.667.708,2.22,2.22,0,0,0,2.552-.119c.056-.047.107-.1.244-.229a2.028,2.028,0,0,1,.686.226,6.262,6.262,0,0,0,.618.247,3.85,3.85,0,0,0,3.114-.593c.31-.2.593-.423.877-.647a7.085,7.085,0,0,1,1.077-.75,1.094,1.094,0,0,1,.512-.156c.2.016.347.177.641.539a5.294,5.294,0,0,0,.477.534,4.145,4.145,0,0,0,4.079.541l.362-.146a3.258,3.258,0,0,1,1.573-.222,10.413,10.413,0,0,0,1.457,0c.295-.028.588-.068.881-.111a10.31,10.31,0,0,1,1.447-.13,9.74,9.74,0,0,1,1.768.241l2.224.439a12.069,12.069,0,0,0,4.965.252,1.153,1.153,0,0,0,.734-.538c.084.029.2.078.326.129a7.219,7.219,0,0,0,4.274-.019,4.029,4.029,0,0,0,1.448-.528,3.616,3.616,0,0,0,.351-.283,1.9,1.9,0,0,1,.2-.163,1.1,1.1,0,0,1,1.045-.03,1.691,1.691,0,0,1,.163.107,2.166,2.166,0,0,0,.7.353,1.762,1.762,0,0,0,.714.032,2.228,2.228,0,0,1-.57,4.384H273.9a.744.744,0,1,0,0,1.488h2.977a3.713,3.713,0,0,1,.28,7.416l-1.242-1.242a.745.745,0,0,0-.527-.219H254.543a.744.744,0,0,0-.744.745v.744h-2.234a.745.745,0,0,0,0,1.489h2.773l7.266,4.36a.745.745,0,0,0,.383.106.733.733,0,0,0,.18-.022,52.355,52.355,0,0,1,8.752-1.467,10.42,10.42,0,0,1,4.133.666.742.742,0,0,0,1.024-.389l1.3-3.254h2.688a.531.531,0,0,1,.531.531,6.92,6.92,0,0,1-6.912,6.913H244.335a6.921,6.921,0,0,1-6.913-6.913.532.532,0,0,1,.533-.531h3.189a.747.747,0,0,0,.259-.052l2.053,4.107a.746.746,0,0,0,.547.4.683.683,0,0,0,.119.01.743.743,0,0,0,.526-.218l5.955-5.955a.745.745,0,0,0-.526-1.271h-8.933a.745.745,0,0,0-.666,1.078l.182.362a3.713,3.713,0,0,1,.484-7.395h28.288a.744.744,0,1,0,0-1.488H241.144a2.236,2.236,0,0,1-2.233-2.233.745.745,0,1,0-1.489,0,3.7,3.7,0,0,0,1.341,2.836,5.167,5.167,0,0,0-1.205,8.369,2.023,2.023,0,0,0-1.624,1.98,8.41,8.41,0,0,0,8.4,8.4h29.349a8.41,8.41,0,0,0,8.4-8.4,2.022,2.022,0,0,0-1.624-1.98,5.167,5.167,0,0,0-1.205-8.369,3.642,3.642,0,0,0,1.269-3.538,1.906,1.906,0,0,0,1.055.6,2.642,2.642,0,0,0,1.114-.082,9.982,9.982,0,0,0,2.39-.849,2.844,2.844,0,0,0,1.3-1.226A1.6,1.6,0,0,0,285.828,270.005Zm-36.389-18.756H268.58A12.03,12.03,0,0,1,280.6,263.265a1.382,1.382,0,0,1-.063.413v0a1.373,1.373,0,0,1-1.317.967h-40.41a1.385,1.385,0,0,1-1.383-1.383A12.031,12.031,0,0,1,249.439,251.249Zm25.525,37.758a13.764,13.764,0,0,0-4.045-.539,49.547,49.547,0,0,0-8.812,1.438l-6.82-4.093v-.323h19.79l.923.923ZM248.28,285.49l-3.955,3.955-1.977-3.955Z" style="fill:#b0543f"/><path d="M364.466,297.806s-8.521,72.427-6.391,95.859,49,93.729,49,93.729h25.562s-8.521-55.385-21.3-63.906l10.651-127.812Z" style="fill:#854c2a"/><path d="M443.283,316.978s0-19.172-8.521-23.432l-46.864,2.13-4.26,25.563s-25.563,78.817-25.563,112.9v8.521l21.3,44.734H411.33s-8.521-42.6-14.911-51.125c0,0,46.864-91.6,46.864-112.9Z" style="fill:#8b4f2c"/><path d="M396.419,436.269c6.39,8.521,14.911,51.125,14.911,51.125h12.749c-.668-25.059-12.749-53.255-12.749-53.255l3.055-7.637a13.651,13.651,0,0,0-3.055-3.014l1.768-21.21C404.019,421.413,396.419,436.269,396.419,436.269Z" style="fill:#6c3c21"/><path d="M384.984,317.016a1.073,1.073,0,0,0-1.309.746l-3.189,11.7c-.173.582-1.311,4.429-2.955,10.1-1.818-7.434-2.409-19.3-2.416-19.437A1.036,1.036,0,0,0,374,319.11a1.063,1.063,0,0,0-1.013,1.113c.03.675.8,16.15,3.459,23.089-5.189,18.021-13.683,48.336-15.167,58.724a1.065,1.065,0,0,0,.9,1.2,1.293,1.293,0,0,0,.152.01,1.065,1.065,0,0,0,1.052-.915c1.438-10.064,9.836-40.085,15.021-58.122a1.055,1.055,0,0,0,.265-.921c2.228-7.739,3.806-13.073,3.859-13.253l3.195-11.716A1.065,1.065,0,0,0,384.984,317.016Z" style="fill:#5d331b"/><path d="M410.263,483.8a1.068,1.068,0,0,1-1.053-.91c-3.137-21.31-13.663-45.953-13.769-46.2a1.066,1.066,0,0,1,.025-.9l10.651-21.3a1.065,1.065,0,0,1,1.906.953L397.59,436.307c1.464,3.5,10.788,26.3,13.73,46.271a1.069,1.069,0,0,1-.9,1.211A1.431,1.431,0,0,1,410.263,483.8Z" style="fill:#5d331b"/><path d="M355.945,169.994l-19.172,49s14.912,10.651,25.563,8.521L372.987,191.3S370.856,169.994,355.945,169.994Z" style="fill:#ffbf27"/><path d="M421.735,149.717c9.478,5.644,19.379,12.724,21.548,18.147,0,0-17.041,57.516-12.781,76.687,3.628,16.327,10.346,43.68,12.26,49.541a2.122,2.122,0,0,1-.958,2.493c-4.92,2.887-21.909,5.462-48,8.624a74.4,74.4,0,0,1-32.44-3.465l-3.472-1.157a2.122,2.122,0,0,1-1.374-2.607c2.466-8.477,11.931-46.278,10.075-55.559-2.13-10.651-14.911-17.041-14.911-29.823,0-3.4,4.57-10.653,8.52-17.041,3.9-6.308,2.955-16.9-1.793-22.6l-2.467-2.961s17.042-17.041,29.823-19.171h0C397.618,146.379,410.861,143.242,421.735,149.717Z" style="fill:#ffc946"/><path d="M383.638,146.562l2.806,11.225a7.678,7.678,0,0,0,7.45,5.817h0a7.68,7.68,0,0,0,4.764-1.654c3.665-2.887,10.542-9.137,10.542-15.388l-2.13-23.432Z" style="fill:#fc8862"/><path d="M376.989,56.126c-1.994-3.742-.569-8.442,1.775-11.975a27.815,27.815,0,0,1,7.334-7.313c1.279-.894,2.575-1.763,3.831-2.661,1.471-1.052,3.741-1.43,5.472-1.823a57.364,57.364,0,0,1,14.9-1.379,31.745,31.745,0,0,1,12.806,2.868,42.331,42.331,0,0,1,8.787,5.9,29.992,29.992,0,0,1,9.8,26.128c-.366,2.7-1.107,5.349-1.435,8.059-.646,5.32.766,9.659,5.608,12.244,2.209,1.18,4.624,2.175,6.245,4.084a9.829,9.829,0,0,1,1.47,9.187c-1.044,3.342-3.434,5.343-5.381,8.072a20.065,20.065,0,0,0-3.328,9.832,5.058,5.058,0,0,0,.275,2.494,4.888,4.888,0,0,0,1.882,1.922,6.969,6.969,0,0,0,4.159,1.381,3.309,3.309,0,0,0,3.148-2.639c2.114,4.107,1.952,9.656-1,13.209a13.2,13.2,0,0,1-3.236,2.732c-5.759,3.569-13.269,3.643-19.556,1.119s-11.424-7.395-15.25-12.986a22.862,22.862,0,0,1-2.843-5.315,20.822,20.822,0,0,1-.991-5.011,34.685,34.685,0,0,1,0-6.089,23.423,23.423,0,0,1,1.148-5.106c.764-2.3.506-4.79.24-7.2-.428-3.859-.877-7.793-2.49-11.325-2.819-6.173-8.79-10.273-14.8-13.418S383.1,65.4,378.014,60.91A4.567,4.567,0,0,1,376.989,56.126Z" style="fill:#591f04"/><path d="M445.48,133.057a20.744,20.744,0,0,1-15.937-8.2,13.269,13.269,0,0,1-2.768-6.52c-.618-6.356,4.9-11.7,5.907-18.006a13.354,13.354,0,0,0-2.971-10.613,13.823,13.823,0,0,1-2.594-3.371c-.72-1.729-.308-3.69-.009-5.539a42.209,42.209,0,0,0-1.352-19.189,16.236,16.236,0,0,0-3.831-7.015,16.184,16.184,0,0,0-5.533-3.229c-9.842-3.806-28.9-.486-39.728,3.961a7.506,7.506,0,0,0,.325.793,4.567,4.567,0,0,0,1.025,4.784c5.087,4.492,11.527,7.07,17.541,10.215s11.984,7.245,14.8,13.418c1.613,3.532,2.062,7.466,2.49,11.325.266,2.405.524,4.9-.24,7.2a23.41,23.41,0,0,0-1.148,5.106,34.685,34.685,0,0,0,0,6.089,20.822,20.822,0,0,0,.991,5.011,22.862,22.862,0,0,0,2.843,5.315c3.826,5.591,8.963,10.462,15.25,12.986s13.8,2.45,19.556-1.119a13.2,13.2,0,0,0,3.236-2.732,10.023,10.023,0,0,0,1.636-2.848A20.5,20.5,0,0,1,445.48,133.057Z" style="fill:#4a1803"/><path d="M372.925,63.183s-3.7-12.929,9.482-14.43,33.95,5.034,28.611,16.768S372.925,63.183,372.925,63.183Z" style="fill:#86b528"/><path d="M358.193,112.026s-8.281,3.08-10.924-20.131S369.227,57.333,386.51,57.5s31.5,11.375,33.187,26.145,5.735,31.409-15.568,33.835S358.193,112.026,358.193,112.026Z" style="fill:#7c2d08"/><path d="M408.931,105.81l-4.394.5c-15.376,1.751-37.4-15.767-37.4-15.767s-7.035,16.377-13.375,19.324l1.876,16.474c1.589,13.951,18.5,25.707,26.192,24.831l1.1-.125c10.165-1.157,22.751-14.313,23.313-27.327a11.038,11.038,0,0,0,7.83-11.821l-.25-2.2A4.421,4.421,0,0,0,408.931,105.81Z" style="fill:#ffcbab"/><path d="M405.392,108.1h1.824a4.809,4.809,0,0,1,4.809,4.809v0a6.245,6.245,0,0,1-6.245,6.245h-.387a0,0,0,0,1,0,0V108.1a0,0,0,0,1,0,0Z" transform="translate(-10.231 46.973) rotate(-6.497)" style="fill:#ffb085"/><path d="M367.891,97.133s6.852,10.491,33.544,9.275c-15.067-.576-34.3-15.865-34.3-15.865s-7.035,16.377-13.375,19.324l.751,6.59S364.748,108.616,367.891,97.133Z" style="fill:#ffb091"/><ellipse cx="381.375" cy="117.848" rx="2.211" ry="6.632" transform="translate(-10.885 43.907) rotate(-6.497)" style="fill:#591f04"/><ellipse cx="361.606" cy="120.099" rx="2.211" ry="6.632" transform="translate(-11.267 41.685) rotate(-6.497)" style="fill:#591f04"/><rect x="367.986" y="125.27" width="4.422" height="8.843" rx="2.211" transform="translate(-11.861 40.823) rotate(-6.213)" style="fill:#ff8056"/><path d="M379.227,144.794a9.063,9.063,0,0,1-7.566-2.412,3.451,3.451,0,0,1-1.033-1.673c-.19-1.667,9.468-6.143,13.673-4.933s-1.059,8.56-5.074,9.018Z" style="fill:#9e0100"/><path d="M374.291,144.088a9.956,9.956,0,0,0,4.936.706c3.118-.355,6.968-4.858,6.573-7.423C378.275,138.234,375.388,141.472,374.291,144.088Z" style="fill:#ce0200"/><path d="M380.584,104.732a17.412,17.412,0,0,1,7.406,1.4c.444.192.918.442,1.055.806a.73.73,0,0,1-.423.861,3.194,3.194,0,0,1-1.2.31,29.618,29.618,0,0,1-3.263.123c-2.5,0-5,.007-7.508-.057a5.1,5.1,0,0,1-1.718-.246c-2.229-.862.017-1.915,1.036-2.3A14.667,14.667,0,0,1,380.584,104.732Z" style="fill:#591f04"/><path d="M359.741,107.317a6.352,6.352,0,0,0-3.473,2.866,1.051,1.051,0,0,0-.157.9,1.066,1.066,0,0,0,.721.6,1.821,1.821,0,0,0,.864-.027,12.42,12.42,0,0,0,1.941-.659c1.437-.579,2.874-1.159,4.279-1.8a1.869,1.869,0,0,0,.85-.6c.8-1.221-1.075-1.556-1.873-1.632A7.567,7.567,0,0,0,359.741,107.317Z" style="fill:#591f04"/><path d="M395.305,122.937a8.843,8.843,0,1,0,2,17.573,8.747,8.747,0,0,0,2.576-.743,32.834,32.834,0,0,0,5.1-9.535A8.82,8.82,0,0,0,395.305,122.937Z" style="fill:#ff9896"/><path d="M367.875,136.074a7.717,7.717,0,0,0-11.375-5.917,30.871,30.871,0,0,0,8.49,12.832A7.711,7.711,0,0,0,367.875,136.074Z" style="fill:#ff9896"/><path d="M392.158,287.155c23.354-8.757,35.7-22.512,41.166-30.307-.988-4.2-1.915-8.232-2.7-11.775-5.084,6.643-18.424,23.754-23.549,27.171-3.613,2.408-26.962,6.858-46.582,10.272-1.641,6.914-3.17,12.724-3.967,15.464a2.122,2.122,0,0,0,1.374,2.607l3.472,1.157a78.934,78.934,0,0,0,8.621,2.327C372.42,294.952,377.251,292.746,392.158,287.155Z" style="fill:#f8b532"/><path d="M406.781,233.3a75.4,75.4,0,0,1-6.1-5.79L409.2,212.6c3.391-7.63,9.482-16.27,15.587-23.91-5.862,3.881-4.936,2.608-13.457,13.259-2.836,3.545-5.559,7.1-8.281,10.687a80.652,80.652,0,0,1-6.01,7.192c-1.784,1.857-3.941,4.334-6.539,4.938a16.119,16.119,0,0,1-3.853.261,14.384,14.384,0,0,1-2.814-.221,11.1,11.1,0,0,1-2.414-.868c-.412-.195-4.249-2.762-4.175-2.815-3.9,2.768-14.508,4.728-19.264,4.221a19.255,19.255,0,0,1-2.025-.336c3.923,5.857,9.322,10.82,10.641,17.415.707,3.536-.231,11.215-1.8,19.832,12.27-2.856,23.1-4.92,23.1-4.92Z" style="fill:#f8b532"/><path d="M382.71,225.964a1.028,1.028,0,0,1-.375-.069,15.4,15.4,0,0,1-5.442-3.623c-8.61-8.611,3.194-28.548,3.7-29.393a1.065,1.065,0,0,1,1.827,1.095c-.115.193-11.461,19.35-4.022,26.792a13.322,13.322,0,0,0,4.685,3.137,1.065,1.065,0,0,1-.374,2.061Z" style="fill:#e4a220"/><path d="M359.14,229.64a1.061,1.061,0,0,1-.591-.179c-7.025-4.683-8.728-20.089-4.582-27,6.195-10.326,7.489-16.55,7.5-16.613a1.065,1.065,0,0,1,2.089.414c-.052.264-1.35,6.607-7.764,17.294-3.555,5.926-2.034,20.147,3.938,24.129a1.065,1.065,0,0,1-.591,1.951Z" style="fill:#e4a220"/><path d="M386.444,157.787l-1.683-6.731c-10.945,2.425-24.5,14.8-27.966,18.114q15.993-4.083,32.176-7.374A7.642,7.642,0,0,1,386.444,157.787Z" style="fill:#ffbf27"/><path d="M411.33,227.51,387.9,257.333s-44.734,8.52-55.385,14.911v14.911s68.166-10.651,74.557-14.911,25.562-29.823,25.562-29.823S419.851,227.51,411.33,227.51Z" style="fill:#ffcbab"/><path d="M332.513,272.051s-6.933-2.311-11.555-2.311h-20.8s-4.622,0-2.311,4.622l13.865,2.311s-23.109,6.933-25.42,11.554,2.311,4.622,2.311,4.622-2.311,2.311-2.311,4.622,4.622,2.311,4.622,2.311a.7.7,0,0,0,.242.635,1.553,1.553,0,0,0,.581.32,7.52,7.52,0,0,0,5.108-.026.715.715,0,0,0,.225.688,1.289,1.289,0,0,0,.641.3,4.628,4.628,0,0,0,1.671-.032,14.746,14.746,0,0,0,4.406-1.452c1.908-.984,3.93-1.443,5.9-2.294a87.694,87.694,0,0,0,11.4-6.332c3.917-2.436,7.536-1.944,11.419-4.435Z" style="fill:#ffcbab"/><path d="M411.33,227.51,387.9,257.333a67.131,67.131,0,0,1,40.28-9.094c2.663-3.43,4.454-5.818,4.454-5.818S419.851,227.51,411.33,227.51Z" style="fill:#ffb085"/><path d="M289.909,291.948a.533.533,0,0,1-.223-1.017c.524-.239,12.887-5.893,18.2-7.221a.517.517,0,0,1,.645.387.53.53,0,0,1-.387.645c-5.217,1.305-17.886,7.1-18.013,7.158A.514.514,0,0,1,289.909,291.948Z" style="fill:#ffb085"/><path d="M292.039,298.339a.532.532,0,0,1-.237-1.009l17.041-8.521a.539.539,0,0,1,.714.239.532.532,0,0,1-.239.714l-17.042,8.521A.536.536,0,0,1,292.039,298.339Z" style="fill:#ffb085"/><path d="M298.43,300.469a.532.532,0,0,1-.238-1.009l12.782-6.39a.538.538,0,0,1,.713.239.531.531,0,0,1-.239.713l-12.781,6.391A.536.536,0,0,1,298.43,300.469Z" style="fill:#ffb085"/><path d="M443.283,167.864S417.721,193.427,409.2,212.6l-8.521,14.912s21.3,23.432,38.344,17.041c0,0,8.521-27.692,10.651-38.343C450.927,199.941,449.674,176.385,443.283,167.864Z" style="fill:#ffbf27"/><path d="M427.974,246.149a1.051,1.051,0,0,1-.158-.012c-3.748-.554-8.683-3.337-8.891-3.456-15.752-9.02-18.1-15.623-18.192-15.9a1.067,1.067,0,0,1,.038-.768c8.656-19.609,27.124-42.265,27.31-42.492a1.064,1.064,0,0,1,1.647,1.348c-.183.223-18.2,22.332-26.819,41.575.71,1.4,4.18,7,17.071,14.387.046.025,4.795,2.7,8.148,3.2a1.065,1.065,0,0,1-.154,2.118Z" style="fill:#e4a220"/><path d="M92.838,342.092s45.65,2.126,61.035,2.35l40.236-8.954s6.6,81.457,4.4,107.875-6.6,44.031-6.6,44.031H103.846S90.636,366.309,92.838,342.092Z" style="fill:#353433"/><path d="M165.489,148.356s22.015,4.4,26.418,15.411c0,0,15.411,147.5,6.6,173.922,0,0-6.6,17.612-41.829,17.612s-68.248-2.2-72.651-11.007,2.2-13.21,2.2-13.21-8.806-6.6-8.806-11.007-6.605-140.9-6.605-140.9,24.217-30.822,46.233-30.822Z" style="fill:#77a122"/><path d="M161.086,121.937v19.814s-2.339,4.4-14.035,4.4H123.659V108.728Z" style="fill:#ff7165"/><path d="M152.28,69.1h0A28.62,28.62,0,0,1,180.9,97.72v37.426a0,0,0,0,1,0,0h-57.24a0,0,0,0,1,0,0V97.72A28.62,28.62,0,0,1,152.28,69.1Z" transform="translate(304.559 204.247) rotate(-180)" style="fill:#ffae8d"/><ellipse cx="150.078" cy="95.519" rx="2.202" ry="6.605" transform="translate(-0.472 0.745) rotate(-0.284)" style="fill:#591f04"/><ellipse cx="173.425" cy="94.926" rx="2.202" ry="6.605" transform="matrix(1, -0.005, 0.005, 1, -0.469, 0.861)" style="fill:#591f04"/><path d="M164.7,108.179h0c1.215-.009,2.2-1.5,2.19-3.318l-.022-6.605c-.006-1.824-1-3.3-2.212-3.286h0c-1.216.009-2.2,1.5-2.191,3.319l.022,6.6C162.489,106.717,163.48,108.188,164.7,108.179Z" style="fill:#ff8056"/><path d="M155.769,86.208s-2.223-4.392-8.827-4.36-4.382,4.425-4.382,4.425Z" style="fill:#7c2d08"/><path d="M166.777,86.153a7.685,7.685,0,0,1,7.126-4.438c5.361-.027,4.371,5.175,4.371,5.175Z" style="fill:#7c2d08"/><path d="M169.121,115.333l-17.21.085s-2.811,11.487,5.794,11.445S169.121,115.333,169.121,115.333Z" style="fill:#9e0100"/><path d="M164.929,123.372a9.609,9.609,0,0,1-7.224,3.491c-5.744.028-6.4-5.071-6.2-8.472C158.08,118.812,162.282,121.012,164.929,123.372Z" style="fill:#e25f55"/><path d="M173.9,81.715a7.609,7.609,0,0,0-6.07,2.8H154.378a10.336,10.336,0,0,0-7.437-2.663c-3.743.019-4.648,1.437-4.732,2.663H139.07a4.4,4.4,0,0,0-4.4,4.4v17.613a8.806,8.806,0,0,1-8.806,8.806h-.807a28.583,28.583,0,0,1-1.395-8.806V69.1H180.9V84.511h-2.743C177.787,83.145,176.735,81.7,173.9,81.715Z" style="fill:#ff887d"/><path d="M146.941,81.848a10.336,10.336,0,0,1,7.437,2.663H142.209C142.293,83.285,143.2,81.867,146.941,81.848Z" style="fill:#3c0201"/><path d="M173.9,81.715c2.832-.014,3.884,1.43,4.254,2.8H167.833A7.609,7.609,0,0,1,173.9,81.715Z" style="fill:#3c0201"/><path d="M125.861,115.333a8.806,8.806,0,0,0,8.806-8.806v-1.98a11.015,11.015,0,1,1-6.267,17.739,28.49,28.49,0,0,1-1.9-3.382A10.878,10.878,0,0,1,125.861,115.333Z" style="fill:#ff887d"/><path d="M134.667,104.547v1.98a8.806,8.806,0,0,1-8.806,8.806A11.01,11.01,0,0,1,134.667,104.547Z" style="fill:#ff796d"/><path d="M169.892,115.333A11.007,11.007,0,0,1,180.9,104.325v2.2a28.479,28.479,0,0,1-6.265,17.843A10.987,10.987,0,0,1,169.892,115.333Z" style="fill:#ff887d"/><path d="M145.875,63.3H181.9l8.645,10.374a5.879,5.879,0,0,1,1.362,3.763h0a5.877,5.877,0,0,1-5.877,5.877H129.864v-4A16.011,16.011,0,0,1,145.875,63.3Z" style="fill:#6a0604"/><path d="M134.152,68.427a6.913,6.913,0,0,0,6.72,8.879h47.033a3.986,3.986,0,0,0,3.526-2.146,5.84,5.84,0,0,1-5.4,8.15H129.864v-4A15.935,15.935,0,0,1,134.152,68.427Z" style="fill:#550303"/><path d="M181.9,63.3H145.875a16.011,16.011,0,0,0-16.011,16.011V111.33a4,4,0,0,1-4,4h0c-16.58,0-34.024-16.844-34.024-33.424V67.3c0-19.9,20.132-40.028,40.028-40.028h14.01A36.025,36.025,0,0,1,181.9,63.3h0" style="fill:#77a122"/><path d="M105.567,89.715c7.582,0,13.729-8.669,13.729-13.93v-7.6c0-8.581,10.026-15.537,22.393-15.537H180.3A36.031,36.031,0,0,1,181.9,63.3H145.875a16.011,16.011,0,0,0-16.011,16.011V111.33a4,4,0,0,1-4,4c-16.3,0-33.416-16.044-34-32.563C92.155,87.854,98.169,89.715,105.567,89.715Z" style="fill:#5e8018"/><ellipse cx="111.949" cy="93.346" rx="5.388" ry="4.068" transform="translate(18.118 204.89) rotate(-89.752)" style="fill:#ebf0fc"/><path d="M105.847,93.32c-.019,4.463,2.7,8.094,6.067,8.108s6.118-3.592,6.137-8.055-2.7-8.094-6.067-8.109S105.866,88.856,105.847,93.32Zm2.034.009c.013-2.976,1.845-5.38,4.091-5.371s4.058,2.43,4.045,5.406-1.845,5.38-4.091,5.37S107.868,96.3,107.881,93.329Z" style="fill:#435e0f"/><path d="M124.81,38.216a7.408,7.408,0,0,1-1.524,3.568c-1.856,2.524-4.494,4.168-6.824,6.161-2.3,1.968-4.233,4.222-7.339,2.945-2.668-1.1-2.117-5.652-1.122-7.906a15.4,15.4,0,0,1,5.585-6.142c1.952-1.365,4.7-2.968,7.067-3.138A4.03,4.03,0,0,1,124.81,38.216Z" style="fill:#8bbd2a"/><path d="M197.613,279.7s7.446-5.131,12.94-6.72l24.723-7.151s5.494-1.589,4.337,4.7l-15.688,7.514s29.854.3,34.19,5-1.158,6.288-1.158,6.288,3.542,1.953,4.336,4.7-4.7,4.336-4.7,4.336a.871.871,0,0,1-.07.839,1.907,1.907,0,0,1-.58.579,9.306,9.306,0,0,1-6.081,1.726.885.885,0,0,1-.031.9,1.591,1.591,0,0,1-.658.578,5.7,5.7,0,0,1-2,.537,18.254,18.254,0,0,1-5.736-.211c-2.606-.514-5.168-.364-7.8-.7A108.569,108.569,0,0,1,217.905,299c-5.494-1.55-9.627.279-15.1-1.346Z" style="fill:#ffcbab"/><path d="M255.1,288.7a.659.659,0,0,0-.085-1.286c-.705-.1-17.346-2.575-24.118-2.326a.641.641,0,0,0-.634.682.658.658,0,0,0,.682.634c6.651-.244,23.7,2.29,23.874,2.315A.66.66,0,0,0,255.1,288.7Z" style="fill:#ffb085"/><path d="M254.764,297.028a.659.659,0,0,0-.065-1.281l-23.187-4.27a.667.667,0,0,0-.766.53.657.657,0,0,0,.529.766l23.188,4.269A.65.65,0,0,0,254.764,297.028Z" style="fill:#ffb085"/><path d="M247.9,301.757a.659.659,0,0,0-.065-1.281l-17.391-3.2a.667.667,0,0,0-.766.53.658.658,0,0,0,.53.766l17.391,3.2A.65.65,0,0,0,247.9,301.757Z" style="fill:#ffb085"/><path d="M145.675,154.961h6.6c4.045,32.363,6.23,105.562,6.559,117.247-2.119.1-4.237.216-6.357.295C156.328,244.444,145.675,154.961,145.675,154.961Z" style="fill:#bfc3cd"/><rect x="143.473" y="141.751" width="11.008" height="13.209" transform="translate(297.954 296.712) rotate(-180)" style="fill:#ebf0fc"/><polygon points="147.876 141.751 147.876 150.558 150.078 150.558 150.078 141.751 154.481 141.751 154.481 154.961 143.473 154.961 143.473 141.751 147.876 141.751" style="fill:#bfc3cd"/><path d="M169.892,315.674a90.89,90.89,0,0,0,13.477-.952,15.217,15.217,0,0,0,12.017-9.95,16.416,16.416,0,0,0,5.839-1.442c.06,15.7-.68,28.26-2.713,34.359,0,0-6.6,17.612-41.829,17.612s-68.248-2.2-72.651-11.007,2.2-13.21,2.2-13.21-8.806-6.6-8.806-11.007c0-.9-.274-7.264-.709-16.836a54.072,54.072,0,0,0,9.515,5.828C95.039,317.875,152.28,315.674,169.892,315.674Z" style="fill:#5e8018"/><path d="M86.233,309.069c8.806,8.806,66.047,6.6,83.659,6.6a90.89,90.89,0,0,0,13.477-.952,15.219,15.219,0,0,0,12.018-9.951,16.423,16.423,0,0,0,5.838-1.44c.06,15.7-.68,28.259-2.713,34.358,0,0-6.6,17.612-41.829,17.612s-68.248-2.2-72.651-11.007c-3.738-7.476.446-11.766,1.8-12.9,9.656,2.494,19.05,6.765,28.721,9.463,12.007,3.35,24.579,4.27,37.044,4.1a143.85,143.85,0,0,0,17.539-1.607,49.3,49.3,0,0,0,15.5-4.619,2.289,2.289,0,0,0,1.163-.941,1.872,1.872,0,0,0-.8-2.086c-1.5-1.2-3.565-1.339-5.485-1.35-6.994-.042-13.935.461-20.928-.185-2.8-.259-5.772-.761-7.824-2.681a1.83,1.83,0,0,1-.7-1.214c-.019-.818.863-1.332,1.639-1.593,3.072-1.033,6.385-.977,9.616-1.236s6.618-.929,9.041-3.083c.526-.468,1.022-1.24.625-1.821a1.627,1.627,0,0,0-1.375-.477q-9.947-.186-19.9-.034c-5.854.09-11.816.815-17.6.738q-11.484-.153-22.937-1.1c-11.065-.919-22.434-2.549-32-8.138-.118-2.738-.273-6.215-.458-10.289A54.072,54.072,0,0,0,86.233,309.069Z" style="fill:#4e6b12"/><path d="M201.281,296.881a3.434,3.434,0,0,1-1.195-2.32c-1.184-6.137.437-12.7-1.621-18.6a17.331,17.331,0,0,0-.726-1.72,37.315,37.315,0,0,1,5.176-.392s4.4,2.2,4.4,8.806c0,3.266,1.072,9.222-.5,14.144a26.381,26.381,0,0,1-3.38.453A3.479,3.479,0,0,1,201.281,296.881Z" style="fill:#ebf0fc"/><path d="M197.739,274.236a17.331,17.331,0,0,1,.726,1.72c2.058,5.9.437,12.468,1.621,18.6a3.434,3.434,0,0,0,1.195,2.32,3.479,3.479,0,0,0,2.156.366,26.381,26.381,0,0,0,3.38-.453c-1.609,5.033-5.982,8.985-17.111,7.872v-28.62A50.814,50.814,0,0,1,197.739,274.236Z" style="fill:#aeb2bb"/><path d="M145.675,154.961V139.55s-8.806-10.182-19.814-11.008c0,0-8.806,0-8.806,2.2v8.806s-4.4-2.2-4.4,2.2a22.783,22.783,0,0,0,2.2,8.807S130.264,154.961,145.675,154.961Z" style="fill:#77a122"/><path d="M152.28,154.961V139.55s2.2-3.486,8.806-3.945l2.022-.21a4.393,4.393,0,0,1,4.171,2.008c.9,1.416,1.572,3.188.411,4.348a5.126,5.126,0,0,1,2.2,4.4C169.892,148.356,167.69,154.961,152.28,154.961Z" style="fill:#5e8018"/><path d="M117.055,139.55v-.318c.887.921,1.768,1.848,2.729,2.692a8.146,8.146,0,0,0,2.062,1.407q1.273.591,2.553,1.174,5.112,2.333,10.286,4.533a11.6,11.6,0,0,0,2.892.937,5.9,5.9,0,0,0,2.156-.1.558.558,0,0,0,.421-.263c.075-.182-.052-.382-.182-.531a8.314,8.314,0,0,0-2.075-1.563c-7.14-4.24-14.926-7.716-20.842-13.5v-3.273c0-2.2,8.806-2.2,8.806-2.2,11.008.826,19.814,11.008,19.814,11.008v15.411c-15.411,0-30.822-4.4-30.822-4.4a22.783,22.783,0,0,1-2.2-8.807C112.652,137.348,117.055,139.55,117.055,139.55Z" style="fill:#5e8018"/><path d="M70.822,179.178s13.21-2.2,24.217,17.612,24.217,77.054,24.217,77.054,37.284-5.523,61.544-5.634a15.421,15.421,0,0,1,15.511,15.414V299.51a15.33,15.33,0,0,1-12.942,15.212,90.89,90.89,0,0,1-13.477.952c-17.612,0-74.853,2.2-83.659-6.6,0,0-19.814-8.806-22.015-24.217C63.233,277.96,48.807,198.992,70.822,179.178Z" style="fill:#77a122"/><path d="M154.481,304.666c27.208,0,22.893-24.943,19.52-36.3,2.346-.089,4.626-.144,6.8-.154a15.421,15.421,0,0,1,15.511,15.414V299.51a15.33,15.33,0,0,1-12.942,15.212,90.89,90.89,0,0,1-13.477.952c-17.612,0-74.853,2.2-83.659-6.6,0,0-19.814-8.806-22.015-24.217-.174-1.213-.766-4.69-1.5-9.65C71.826,301.426,121.4,304.666,154.481,304.666Z" style="fill:#5e8018"/><path d="M88.435,192.387s28.62,63.845,55.038,66.046,41.83,0,57.241-39.628" style="fill:none"/><path d="M180.8,268.21c-6.707.03-14.41.476-22.045,1.1-.075-2.551-.184-6.083-.326-10.374,16.217-.72,27.839-7.327,39.052-32.388,1.162,15.345,2.244,31.824,2.944,47.39a47.187,47.187,0,0,0-6.763,1.044A15.428,15.428,0,0,0,180.8,268.21Z" style="fill:#5e8018"/><path d="M143.473,258.433c3.457.288,6.721.5,9.825.56-.053,4.072-.215,7.735-.511,10.846-17.725,1.665-33.531,4-33.531,4s-6.128-26.546-13.513-49.74C116.237,240.494,130.133,257.322,143.473,258.433Z" style="fill:#5e8018"/><path d="M158.429,258.939c.142,4.291.251,7.823.326,10.374-2,.164-4,.341-5.968.526.3-3.111.458-6.774.511-10.846C155.061,259.029,156.768,259.013,158.429,258.939Z" style="fill:#a2a7ae"/><path d="M80.9,185.2a1.1,1.1,0,0,1,1.516-.348c.735.458,18.066,11.548,24.7,38.093,6.065,24.265,12.2,46.929,13.09,50.2,18.2-2.583,43.829-5.952,54.218-6.038,17.1-.2,20.676,6.8,20.816,7.093a1.093,1.093,0,0,1-.508,1.453,1.11,1.11,0,0,1-1.472-.488c-.03-.06-3.186-5.859-18.322-5.859-.164,0-.329,0-.5,0-16.378.136-73.158,8.843-73.73,8.931a1.1,1.1,0,1,1-.336-2.175c.811-.125,7.956-1.221,17.634-2.606-1.118-4.12-7.11-26.293-13.03-49.978-6.409-25.638-23.562-36.652-23.734-36.76A1.1,1.1,0,0,1,80.9,185.2Z" style="fill:#456110"/><path d="M161.319,314.845a7.249,7.249,0,0,0-3.732,2.421,3.047,3.047,0,0,0-.727,1.466c-.2,1.507,1.314,2.611,2.585,3.446s2.636,2.261,2.026,3.654a4.618,4.618,0,0,1-.915,1.167,6.721,6.721,0,0,0-1.722,4.436,3.381,3.381,0,0,0,.384,1.734,4.125,4.125,0,0,0,1.21,1.187c1.655,1.2,3.5,2.216,4.737,3.844s1.637,4.141.237,5.629c-.385.409-.872.707-1.28,1.093-1.339,1.269-1.634,3.28-1.633,5.125,0,2.781.563,5.7,2.368,7.816" style="fill:none"/><path d="M156.79,356.682c-1.735-1.455-1.724-4.13-1.172-6.326A19.16,19.16,0,0,1,158,344.8a3.462,3.462,0,0,0,.845-2.628c-.221-.781-.986-1.252-1.635-1.74a9.227,9.227,0,0,1-2.545-11.8,5.293,5.293,0,0,0,.6-1.29c.339-1.444-.879-2.727-1.873-3.828a8.99,8.99,0,0,1-2.553-5.038,4.458,4.458,0,0,1,2.636-4.635" style="fill:none"/><path d="M155.618,350.356A19.16,19.16,0,0,1,158,344.8a3.462,3.462,0,0,0,.845-2.628c-.221-.781-.986-1.252-1.635-1.74a9.227,9.227,0,0,1-2.545-11.8,5.293,5.293,0,0,0,.6-1.29c.339-1.444-.879-2.727-1.873-3.828a8.99,8.99,0,0,1-2.553-5.038,5.047,5.047,0,0,1,.486-2.6c2.8-.026,5.456-.058,7.907-.091a7.2,7.2,0,0,0-1.649,1.484,3.047,3.047,0,0,0-.727,1.466c-.2,1.507,1.314,2.611,2.585,3.446s2.635,2.261,2.026,3.654a4.618,4.618,0,0,1-.915,1.167,6.721,6.721,0,0,0-1.722,4.436,3.381,3.381,0,0,0,.384,1.734,4.138,4.138,0,0,0,1.21,1.187c1.655,1.2,3.5,2.216,4.737,3.844s1.637,4.141.237,5.629c-.385.409-.872.707-1.28,1.093-1.339,1.269-1.634,3.28-1.633,5.125a14.842,14.842,0,0,0,.835,5.027c-2.095.145-4.3.227-6.641.227h-.919A7.825,7.825,0,0,1,155.618,350.356Z" style="fill:#a2a7ae"/><path d="M161.322,327.448c-.384.031-.772.05-1.158.075a6.265,6.265,0,0,1,.392-.524,4.618,4.618,0,0,0,.915-1.167c.609-1.393-.756-2.82-2.026-3.654-.1-.067-.207-.139-.311-.209" style="fill:none"/><path d="M156.683,355.3q1.749,0,3.4-.059C158.98,355.279,157.849,355.3,156.683,355.3Z" style="fill:#4e6b12"/><path d="M155.571,315.828l-.3,0Z" style="fill:#4e6b12"/><path d="M159.16,315.783l-3.589.045Z" style="fill:#a2a7ae"/><path d="M151.329,315.873q2.026-.018,3.944-.041-1.918.022-3.944.041Z" style="fill:#a2a7ae"/><path d="M160.085,355.242l.1,0Z" style="fill:#a2a7ae"/><path d="M152.238,322.016c2.3-.025,4.6-.049,6.9-.047.1.07.209.142.311.209,1.27.834,2.635,2.261,2.026,3.654a4.618,4.618,0,0,1-.915,1.167,6.265,6.265,0,0,0-.392.524c-1.718.108-3.441.207-5.135.44a2.9,2.9,0,0,0,.24-.622c.339-1.444-.879-2.727-1.873-3.828A13.632,13.632,0,0,1,152.238,322.016Z" style="fill:#a2a7ae"/><path d="M160.32,334.27c.037.027.071.059.108.086,1.655,1.2,3.5,2.216,4.737,3.844s1.637,4.141.237,5.629c-.008.009-.019.015-.028.024-2.4.305-4.828.559-7.255.758a3.163,3.163,0,0,0,.728-2.438c-.221-.781-.986-1.252-1.635-1.74a9.324,9.324,0,0,1-3.471-5.428,9.068,9.068,0,0,1-.186-1.838,19.417,19.417,0,0,0,5.032,1.005C159.166,334.225,159.742,334.231,160.32,334.27Z" style="fill:#a2a7ae"/><path d="M158.834,331.435a3.381,3.381,0,0,0,.384,1.734,3.878,3.878,0,0,0,1.1,1.1c-.578-.039-1.154-.045-1.733-.1a19.417,19.417,0,0,1-5.032-1.005,9.305,9.305,0,0,1,1.112-4.536c.122-.222.249-.442.362-.668,1.694-.233,3.417-.332,5.135-.44A6.7,6.7,0,0,0,158.834,331.435Z" style="fill:#83868d"/><path d="M157.587,317.266a3.047,3.047,0,0,0-.727,1.466c-.184,1.387,1.081,2.429,2.274,3.237-2.3,0-4.6.022-6.9.047a7.582,7.582,0,0,1-1.4-3.541,5.047,5.047,0,0,1,.486-2.6q2.028-.018,3.944-.041l.3,0,3.589-.045h.076A7.2,7.2,0,0,0,157.587,317.266Z" style="fill:#83868d"/><path d="M164.122,344.922c-1.339,1.269-1.634,3.28-1.633,5.125a14.842,14.842,0,0,0,.835,5.027q-1.53.1-3.143.163l-.1,0q-1.655.058-3.4.059h-.919a7.825,7.825,0,0,1-.146-4.944A19.16,19.16,0,0,1,158,344.8c.039-.062.078-.128.117-.19,2.427-.2,4.857-.453,7.255-.758C164.993,344.248,164.521,344.544,164.122,344.922Z" style="fill:#83868d"/><path d="M158.884,372.914s17.613,0,22.016-8.806c0,0-13.21,63.845-11.008,81.457,1.877,15.016,14.954,26.818,25.591,23.154-1.838,11.718-3.576,18.675-3.576,18.675h-36.6S163.287,392.728,158.884,372.914Z" style="fill:#1f1e1c"/><path d="M267.307,61.354c-20.294,0-36.746,15.013-36.746,37.563s29.4,60.426,36.746,60.426,36.746-37.877,36.746-60.426S287.6,61.354,267.307,61.354Z" style="fill:#86b528"/><circle cx="267.307" cy="96.467" r="13.065" style="fill:#fff"/><circle cx="267.542" cy="171.059" r="5.326" style="fill:#86b528"/><circle cx="267.542" cy="192.361" r="5.326" style="fill:#86b528"/></g></svg>