<svg xmlns="http://www.w3.org/2000/svg" xmlns:xlink="http://www.w3.org/1999/xlink" viewBox="0 0 4680 3120"><defs><style>.cls-1{fill:#ffb000;}.cls-2{fill:#f9d4a6;}.cls-3{fill:#f9d4b0;}.cls-4{fill:#88acff;}.cls-5,.cls-7{fill:#fff;}.cls-5{opacity:0;}.cls-6{fill:#eef5ff;}.cls-8{fill:#5477cc;}.cls-9{fill:#5457cc;}.cls-10{fill:#f98b72;}.cls-11{clip-path:url(#clip-path);}.cls-12{fill:#ff7c00;}.cls-13{fill:#fff5cc;}.cls-14{fill:#01005c;}.cls-15{fill:#000029;}.cls-16{fill:#f70004;}.cls-17{clip-path:url(#clip-path-2);}.cls-18{fill:#56a9e2;}.cls-19{clip-path:url(#clip-path-3);}.cls-20{opacity:0.5;}.cls-21{fill:#900;}.cls-22{opacity:0.31;}.cls-23{fill:#21001c;}.cls-24{fill:#ffe39f;}.cls-25{clip-path:url(#clip-path-4);}.cls-26{fill:#f97a6f;}.cls-27{fill:#1a1a1a;}.cls-28{fill:#e80000;}.cls-29{fill:#d60000;}.cls-30{fill:#ff7900;}.cls-31{clip-path:url(#clip-path-5);}.cls-32{clip-path:url(#clip-path-6);}.cls-33{fill:#d30000;}.cls-34{clip-path:url(#clip-path-7);}.cls-35{clip-path:url(#clip-path-8);}.cls-36{clip-path:url(#clip-path-9);}.cls-37{clip-path:url(#clip-path-10);}.cls-38{opacity:0.58;}.cls-39{fill:red;}.cls-40{clip-path:url(#clip-path-11);}.cls-41{fill:#ffd29c;}.cls-42{fill:#891600;}.cls-43{fill:#730000;}.cls-44{fill:#e05f00;}.cls-45{opacity:0.6;}.cls-46{fill:#a42c00;}.cls-47{fill:#8cc63f;}.cls-48{fill:#249529;}.cls-49{fill:#ffd400;}.cls-50{fill:#ffffc4;}.cls-51{fill:#c8dfff;}.cls-52{fill:#def;}.cls-53{fill:gray;}.cls-54{fill:#33339a;}.cls-55{fill:#ff9e00;}</style><clipPath id="clip-path"><path class="cls-1" d="M1999.36,2450.56s8.36,66.92,8,109.24c-.27,34.63-8.55,69.55-7.33,87.28a10,10,0,0,0,9.86,9.3l296,5.34c21.49-3.84,36.52-23.77,33.75-45.42-.07-.56-.15-1.13-.24-1.7,0,0-5.56-36.61-79.56-37,0,0-20.93-2.25-33.46-9.3s-82.66-60.49-90.28-67.28-33.32-52.38-33.32-52.38Z"/></clipPath><clipPath id="clip-path-2"><path class="cls-1" d="M1721.16,2468.19s-34.4,182.48-33.18,200.2a10,10,0,0,0,9.86,9.31l320.93,5.94c21.49-3.84,36.53-23.77,33.75-45.42-.07-.56-.15-1.12-.24-1.69,0,0-5.55-36.61-79.56-37,0,0-20.93-2.26-33.46-9.31S1856.6,2529.75,1849,2523s-33.31-52.37-33.31-52.37Z"/></clipPath><clipPath id="clip-path-3"><path class="cls-1" d="M1362.44,1356.13s-77.31,9.39-105.36,21.08l4.68,485s199.64,14.59,355.48-41.51c0,0,24.36-27.45,28.45-39.72,0,0,40.32,34.48,133.24,51.42s129.15-9.35,146.09-50.84,17.53-97-50.25-135.57c-63.28-36-137.26-51.64-146.82-53.56a1.79,1.79,0,0,1-1.35-1.21c-3.84-12.13-42.24-130.46-93.76-183.66-54.35-56.09-123.68-44.39-123.68-44.39Z"/></clipPath><clipPath id="clip-path-4"><path class="cls-3" d="M1504.65,1172s1.75-5.45,5.65-5.65,6.23,10.52,7.4,17.34,4.09,26.49,12.27,30.78c0,0,4.87,44.22,2.54,64.48s-21.43,33.11-47.93,24.35c0,0-8.37,52,29.61,58.05,0,0-24,65.26-49.09,66.23,0,0-32.92-7-85.51-74,0,0,50.29-13.44,46.07-105.88a2.82,2.82,0,0,0-2-2.58c-4.63-1.49-16.58-6.27-20.74-16.86C1397.77,1215,1405,1208,1405,1208s8.57-8.32,20.78,4.93,19.48,17.4,33.5,15.07,23.9-18.45,27-40.26,6-23.38,9.35-23.64S1502.18,1167.5,1504.65,1172Z"/></clipPath><clipPath id="clip-path-5"><path class="cls-3" d="M1510.23,1583.07s27.28-61,37.92-78.44,20.52-23.37,28.32-21.55,11.68,10.9,8,22.33-9.35,25.4-3.38,27.51,23.64-10.62,36.62-27,19.22-24.67,19.22-24.67,7-10.91,16.63-7.8,8.57,16.37,4.67,25.46a15.35,15.35,0,0,1,12.73,7.27c4.67,7.53,1,23.12-3.38,30.91,0,0,12.47,1.82,9.09,18.44s-15.84,29.35-15.84,29.35,7.27,4.16,2.08,17.92-56.11,52.73-100,66.24Z"/></clipPath><clipPath id="clip-path-6"><path class="cls-1" d="M1262.8,1375.08s-58.9,10.89-85.78,93.45c-25.18,77.35-40.32,136.58-49.67,216.06s18.7,139.08,63.11,161.29,117.46,21.62,173,2.33,147.26-76,161.29-142-23.38-117.46-57.27-126.22-83.51-5.93-140.81,30c0,0,18.76-91.78,13.46-145.94S1289,1370.61,1262.8,1375.08Z"/></clipPath><clipPath id="clip-path-7"><path class="cls-4" d="M3696.75,2599.06s8.16,54.8,4.1,57.5c-3.64,2.43-216.78,4.85-260.6,5.33a8.4,8.4,0,0,1-8.5-8.62c.26-8.92,3.37-23.08,18.26-34.57,23.67-18.26,109.67-56.47,109.67-56.47l-.14-34.81Z"/></clipPath><clipPath id="clip-path-8"><path class="cls-4" d="M3299.2,2587.34s11.3,66.52,7.25,69.22c-3.64,2.43-216.79,4.85-260.6,5.33a8.4,8.4,0,0,1-8.51-8.62c.26-8.92,3.37-23.08,18.26-34.57,23.67-18.26,109.67-56.47,109.67-56.47l45.84-40.89Z"/></clipPath><clipPath id="clip-path-9"><path class="cls-4" d="M3226.45,1097.89s-35.46,4.26-62.4,43.32-53.87,90.23-53.87,90.23S2986.73,1084.18,2959.34,1086s-72.27,32.78-70,58.82,95.26,196.44,134.31,237.51,82.82,49.16,103,47.14,62.62-34.35,87.54-90.23l34.42-216Z"/></clipPath><clipPath id="clip-path-10"><path class="cls-4" d="M3569.7,1143.27s72.05,6.74,90.23,95,25.59,152.06,31.65,191.51,14.14,110.82,16.16,147.85c0,0,10.77,111.1-18.85,143.42s-98.31,34.34-127.94-2.69-5.39-171-4-204,2.69-62.62,2.69-62.62L3518.53,1317Z"/></clipPath><clipPath id="clip-path-11"><path class="cls-2" d="M3352.15,889.81s-13.47-4.49-25.44,23.64-21.65,79-18.61,105,30.28,36.21,47.34,30.53c0,0,14.36,67-43.7,59.85,0,0,.3,39.21,6.89,69.44s33.22,111.93,33.22,111.93,94.57-76.77,119.26-164.76c0,0-45.34-12.57-51.63-58.36-5.07-37-2.54-57-1.37-63.29a2.57,2.57,0,0,1,2.61-2.1,37.07,37.07,0,0,0,29.54-13.14,22.9,22.9,0,0,0,5.44-13.91c.15-4.75-1.2-10.21-7.18-13.05-12-5.69-25.22,4.49-27.69,8.53s-5.39,9.2-8.3,8.75-.45-12.79,2.47-20.42c0,0-29-7-31.13-48S3358.43,882,3352.15,889.81Z"/></clipPath></defs><title>10</title><g id="_10" data-name="10"><rect id="_10-2" data-name="10" class="cls-5" width="4680" height="3120"/><ellipse class="cls-6" cx="2386.41" cy="2679.1" rx="1366.1" ry="80.9"/><rect class="cls-7" x="1055.5" y="381.37" width="2615.97" height="1368.43"/><path class="cls-8" d="M1055.5,381.37l1307.2-1.92,1308.78-1.2h3.12v3.13L3675,1749.8v3.5h-3.5l-1308-.34-1308-1h-2.15v-2.15Zm0,0,2.16,1368.43-2.16-2.16,1308-1,1308-.34-3.51,3.51.38-1368.43,3.13,3.13-1307.19-1.21Z"/><path class="cls-8" d="M2363.49,381.37l.44,42.58.33,42.57.66,85.15.81,170.31c.33,56.77.35,113.53.52,170.3l.16,170.3-.15,170.31-.21,85.15-.31,85.15-.82,170.3-.65,85.15-.34,42.58-.44,42.58-.44-42.58-.33-42.58-.66-85.15-.82-170.3-.31-85.15-.21-85.15-.15-170.31.16-170.3c.17-56.77.2-113.53.52-170.3l.82-170.31.65-85.15.33-42.57Z"/><path class="cls-8" d="M1710.12,381.37l.44,42.58.33,42.57.66,85.15.81,170.31c.33,56.77.35,113.53.52,170.3l.16,170.3-.15,170.31-.21,85.15-.31,85.15-.82,170.3-.65,85.15-.34,42.58-.44,42.58-.44-42.58-.33-42.58-.66-85.15-.82-170.3-.31-85.15-.2-85.15-.16-170.31.16-170.3c.17-56.77.2-113.53.52-170.3l.82-170.31.65-85.15.33-42.57Z"/><path class="cls-8" d="M3022.36,381.37l.44,42.58.33,42.57.65,85.15L3024.6,722c.33,56.77.35,113.53.52,170.3l.16,170.3-.15,170.31-.21,85.15-.31,85.15-.82,170.3-.66,85.15-.33,42.58-.44,42.58-.44-42.58-.33-42.58-.66-85.15-.82-170.3-.31-85.15-.21-85.15-.15-170.31.16-170.3c.17-56.77.19-113.53.52-170.3l.82-170.31.65-85.15.33-42.57Z"/><polygon class="cls-8" points="1056.49 828.18 1219.59 827.41 1382.68 826.76 1708.88 825.94 2035.07 825.42 2361.26 825.26 2687.45 825.41 3013.64 825.93 3339.83 826.75 3502.92 827.4 3666.02 828.18 3502.92 828.95 3339.83 829.61 3013.64 830.43 2687.45 830.95 2361.26 831.1 2035.07 830.94 1708.88 830.42 1382.68 829.6 1219.59 828.95 1056.49 828.18"/><polygon class="cls-8" points="1056.49 1310.98 1219.59 1310.21 1382.68 1309.56 1708.88 1308.74 2035.07 1308.22 2361.26 1308.06 2687.45 1308.22 3013.64 1308.73 3339.83 1309.55 3502.92 1310.21 3666.02 1310.98 3502.92 1311.76 3339.83 1312.41 3013.64 1313.23 2687.45 1313.75 2361.26 1313.9 2035.07 1313.74 1708.88 1313.22 1382.68 1312.41 1219.59 1311.75 1056.49 1310.98"/><path class="cls-6" d="M1059,382.14h707.17S1674.3,1043.39,1059,1043.39Z"/><polygon class="cls-6" points="1058.97 1043.39 1246.41 1717.06 1058.97 1717.06 1058.97 1043.39"/><polygon class="cls-4" points="1058.97 1043.39 1152.69 1146 1179.96 1115.97 1058.97 1043.39"/><polygon class="cls-4" points="1058.97 1043.39 999.96 1115.97 1029.47 1133.63 1058.97 1043.39"/><path class="cls-6" d="M3675.4,382.32H2968.23s91.84,661.25,707.17,661.25Z"/><polygon class="cls-6" points="3675.39 1043.57 3487.96 1717.24 3675.39 1717.24 3675.39 1043.57"/><polygon class="cls-4" points="3675.39 1043.57 3581.68 1146.18 3554.41 1116.16 3675.39 1043.57"/><polygon class="cls-4" points="3675.39 1043.57 3734.41 1116.16 3704.9 1133.81 3675.39 1043.57"/><path class="cls-9" d="M1550.71,2292.45H1378.05v-122h-45.21s8.55,199.23-27.86,508.66h46.65s26.42-270.62,24.72-355.09h174.36Z"/><path class="cls-9" d="M1047.54,1530.05l246-6.3v-14.11s-.36-18.21,18.6-19,25,15.54,26.16,28.06,39.18,337.87,39.44,540.36h-44.37l-2.27-109.21s-156.42-4.55-210.46,8l-12.51-44.36s96.13-11.38,219-7.4c0,0-1.14-47.78-5.12-83.61,0,0-192,6.57-214.59,9l-12.93-42,224.67-12-4-58.58s-191.27,3.9-225,7.92l-16.7-43.76,237.76-9.1-7.39-65.41-236.29,5.49L1040.49,1546Z"/><path class="cls-4" d="M1020.63,1480.68a22.5,22.5,0,0,0-17.29,5c-4.88,4.08-9.52,11.43-6.08,24,6.26,22.75,48.92,175.19,65.41,315.11s31.86,274.17,12.52,524.44c0,0-15.93,197.95-55.75,329.91h46.65s59.15-245.72,59.15-493.72h425.47V2679.1h26.16V2088.68H1129.79s-10.24-203.63-33-326.49-46.36-235.88-62.57-272.57A17.67,17.67,0,0,0,1020.63,1480.68Z"/><path class="cls-9" d="M1576.87,2088.68V2679.1h18.74V2324.87H1794.4V2679.1h40.1V2088.68Zm216.67,203.77H1595.61V2185.8h197.93Z"/><polygon class="cls-4" points="1118.2 2342.74 1550.71 2342.74 1564.04 2342.74 1564.04 2374.35 1108.45 2374.35 1118.2 2342.74"/><rect class="cls-6" x="1108.45" y="2055.69" width="741.54" height="32.99" rx="16.5"/><path class="cls-3" d="M1876.1,1736s170.11-9.38,240,32.14c45.43,27,41.17,36.09,39.21,42.94-2.22,7.8-16,10.08-39,1.81s-63.92-20.95-73.38-17.4-25,11.07-23.34,14.91,25.45,15.24,36.88,21.52,4.25,23.2-10.85,22.6c-8.54-.34-50.91-4.39-60.54-7.52-13.35-4.35-51-26-51-26s-32.71,1.09-69.18,2.22Z"/><path class="cls-10" d="M1981.12,1737.15s-3,57.36-37.2,89.37l-27.52-10.06,32.36-81.42Z"/><path class="cls-1" d="M1999.36,2450.56s8.36,66.92,8,109.24c-.27,34.63-8.55,69.55-7.33,87.28a10,10,0,0,0,9.86,9.3l296,5.34c21.49-3.84,36.52-23.77,33.75-45.42-.07-.56-.15-1.13-.24-1.7,0,0-5.56-36.61-79.56-37,0,0-20.93-2.25-33.46-9.3s-82.66-60.49-90.28-67.28-33.32-52.38-33.32-52.38Z"/><g class="cls-11"><path class="cls-12" d="M2102.84,2448.65s7.15,45.09,9.1,55.91,97,75.7,97,75.7,19.36,9.18,29.3,11.81l26.42-27.42-135.3-133.18Z"/><path class="cls-13" d="M2244.87,2574.93s-23.08,12.55-16.24,75.6l.73,39.31,153.26-33.45-75.29-103.69Z"/><path class="cls-14" d="M2339.46,2614.6s2.07,25.41-30.31,29.61-324.23-4.08-324.23-4.08l81.09,79.23,286.67-47.29,11.42-61.66Z"/></g><path class="cls-15" d="M1814.67,1853.45c-28.77-8.07-233.44-32.72-233.44-32.72l-158.2,31.5,229.86,134.31S1973,2510.89,2005.44,2547c0,0,46.25-10.73,115.24-93.84C2120.68,2453.11,1882.6,1872.5,1814.67,1853.45Z"/><path class="cls-16" d="M2174.37,2523.48c-12.83,0-28.66-2.76-48-10.2l-1.73-.66.13-1.84a148.35,148.35,0,0,1,5-27c5.58-19.84,14.12-34.51,25.37-43.63,10.69-8.65,23.61-12,38.4-9.88,17.2,2.43,30.54,13.54,35.69,29.74a47.39,47.39,0,0,1-12.49,48.6C2209.71,2515.24,2196.52,2523.48,2174.37,2523.48Zm-44.47-14.19c49.09,18.32,73.29,5.23,83.4-4.3a42.36,42.36,0,0,0,11.16-43.44c-4.62-14.54-16.15-24.13-31.63-26.31-13.36-1.89-25,1.08-34.54,8.81C2136.13,2462,2130.84,2500.44,2129.9,2509.29Z"/><path class="cls-16" d="M2049.92,2579.58a37.38,37.38,0,0,1-10-1.34c-12.84-3.53-24-15-31.41-32.46a109.45,109.45,0,0,1-8-51.61c2.51-26.48,15.6-43.22,35-44.76,21.32-1.69,44.34,8.22,66.57,28.67a185.47,185.47,0,0,1,27.28,31.5l.83,1.27-.74,1.32a223.45,223.45,0,0,1-27.25,37.42C2084.09,2569.38,2066.23,2579.58,2049.92,2579.58Zm-9.65-125.36c-1.46,0-2.92.06-4.4.17-8.06.64-27.17,5.85-30.43,40.25-3,31.78,11,72,35.8,78.78,38.31,10.53,77.14-52.34,83-62.36C2118.38,2502.58,2082.8,2454.22,2040.27,2454.22Z"/><path class="cls-16" d="M2070,2609.59a2.5,2.5,0,0,1-2.48-2.22c-2.74-24.49-.46-58.55,25.94-81.67a77.46,77.46,0,0,1,33-17.15c1.93-.86,12.49-5.26,28.3-5.74s40,3.06,65.65,22.6a2.5,2.5,0,0,1-3,4c-24.43-18.58-47.31-22-62.22-21.59-16.18.44-26.75,5.36-26.85,5.41l-.3.14-.32.06a73,73,0,0,0-31.12,16.2c-19.76,17.43-27.87,43.4-24.09,77.21a2.5,2.5,0,0,1-2.21,2.76Z"/><path class="cls-1" d="M1721.16,2468.19s-34.4,182.48-33.18,200.2a10,10,0,0,0,9.86,9.31l320.93,5.94c21.49-3.84,36.53-23.77,33.75-45.42-.07-.56-.15-1.12-.24-1.69,0,0-5.55-36.61-79.56-37,0,0-20.93-2.26-33.46-9.31S1856.6,2529.75,1849,2523s-33.31-52.37-33.31-52.37Z"/><g class="cls-17"><path class="cls-12" d="M1815.67,2470.58s7.15,45.09,9.1,55.91,97,75.7,97,75.7,19.35,9.18,29.29,11.81l26.42-27.42-135.3-133.18Z"/><path class="cls-13" d="M1957.7,2596.85s-23.09,12.55-16.25,75.6l.73,39.32,153.27-33.45-75.3-103.7Z"/><path class="cls-14" d="M2052.28,2636.53s2.08,25.4-30.31,29.6-364.29-4.41-364.29-4.41l121.16,79.57L2065.51,2694l11.41-61.67Z"/></g><path class="cls-14" d="M1835.05,1884.44c-133-26.8-321.44-36.81-321.44-36.81l-231.14,11.74s-53.16,213.56,179.4,214.83c192.86,1.06,315.84-7,315.84-7s-49.73,311.89-76.62,454c10.13,3.25,95.53,29,167-3.79h0l98.11-491.91S1980.33,1913.72,1835.05,1884.44Z"/><path class="cls-16" d="M1914,2547.77c-14.73,0-33.92-4.54-58.16-18.47l-1.6-.92.41-1.8a146.92,146.92,0,0,1,9.11-25.88c8.57-18.74,19.27-31.92,31.8-39.19,11.89-6.9,25.17-8.2,39.47-3.85,16.61,5.05,28.08,18.09,30.67,34.89a47.38,47.38,0,0,1-19.83,46.09C1939.46,2543,1929.05,2547.77,1914,2547.77Zm-54-21.87c45.67,25.68,71.61,16.47,83.06,8.61a42.34,42.34,0,0,0,17.72-41.2c-2.32-15.07-12.23-26.32-27.19-30.87-12.91-3.92-24.85-2.78-35.49,3.38-14.44,8.38-24.14,24.67-29.73,36.86A150.28,150.28,0,0,0,1859.93,2525.9Z"/><path class="cls-16" d="M1776.41,2583.51a38.64,38.64,0,0,1-16-3.35c-12.14-5.46-21.38-18.57-26-36.91a109.62,109.62,0,0,1,0-52.24c6.56-25.78,22.07-40.28,41.49-38.83,21.33,1.61,42.55,15,61.36,38.6a185.94,185.94,0,0,1,22.1,35.33l.62,1.38-.93,1.18a222.8,222.8,0,0,1-32.7,32.78C1808.07,2576.07,1791.13,2583.51,1776.41,2583.51Zm-3-126.42c-9,0-26.33,4.27-34.19,35.15s-.27,72.79,23.23,83.36c36.21,16.31,84.28-39.82,91.66-48.81-4.68-9.61-34.15-66.26-78.62-69.62C1774.86,2457.12,1774.16,2457.09,1773.4,2457.09Z"/><path class="cls-16" d="M1785.66,2615.81h-.11a2.49,2.49,0,0,1-2.39-2.6c1.07-24.63,8.57-57.92,38.22-76.7a77.22,77.22,0,0,1,35.26-11.85c2-.55,13.15-3.28,28.85-1.31s39,9.18,61.37,32.45a2.5,2.5,0,1,1-3.6,3.46c-21.27-22.12-43.36-29-58.15-30.92-16.06-2-27.25,1.17-27.36,1.2l-.31.09h-.33a73.11,73.11,0,0,0-33.25,11.22c-22.22,14.17-34.23,38.58-35.7,72.56A2.51,2.51,0,0,1,1785.66,2615.81Z"/><path class="cls-18" d="M1359.45,1865.56a134.44,134.44,0,0,0-1.84,17.09,155.71,155.71,0,0,0,.14,17.15,123.33,123.33,0,0,0,6.55,33.44,97.36,97.36,0,0,0,7,15.44,85.38,85.38,0,0,0,9.83,13.73,83.36,83.36,0,0,0,26.89,20,116,116,0,0,0,32.28,9.62,158.73,158.73,0,0,0,16.88,1.72c5.66.3,11.44.44,17.15.66q34.38,1.18,68.78,2L1612,1998l68.83,1.3q68.82,1.26,137.65,2.27l17.2.28h.28l.37,0,.74.06a10.48,10.48,0,0,1,1.46.21,8.92,8.92,0,0,1,1.44.36,11.12,11.12,0,0,1,1.4.51,14.61,14.61,0,0,1,4.84,3.37,14.35,14.35,0,0,1,3.89,10.86,10.35,10.35,0,0,1-.18,1.47l-.13.72-.12.53-.47,2.09-.94,4.2-1.89,8.4-3.77,16.79-15.11,67.17-15.28,67.13-7.64,33.57-7.73,33.55q-30.84,134.19-63,268.09,27.56-134.93,56.94-269.45l7.27-33.65,7.35-33.63,14.72-67.26,14.88-67.22,3.73-16.8,1.86-8.4.93-4.21.47-2.1.11-.52,0-.34a3,3,0,0,0,.08-.67,6.32,6.32,0,0,0-1.76-4.87,6.5,6.5,0,0,0-2.18-1.5,2.72,2.72,0,0,0-.62-.23,3.53,3.53,0,0,0-.64-.16,3,3,0,0,0-.66-.09l-.34,0-.17,0h-.26l-17.21-.23q-68.85-1.17-137.69-2.72c-45.9-1.18-91.79-2.38-137.67-4.19-22.94-.89-45.88-1.82-68.82-3.05-5.74-.34-11.44-.58-17.23-1a163.37,163.37,0,0,1-17.32-2.1,119.09,119.09,0,0,1-33.25-10.62,87,87,0,0,1-27.51-21.47A88.18,88.18,0,0,1,1369,1950a95.27,95.27,0,0,1-6.79-16,123.7,123.7,0,0,1-5.67-34.08,157.53,157.53,0,0,1,.46-17.25A133.83,133.83,0,0,1,1359.45,1865.56Z"/><path class="cls-14" d="M1929.62,1706s23.07,11.92,32.42,20.1,6.88,45.27,0,63.89-17.53,46.75-36.23,46.75-61.17-7.79-61.17-7.79Z"/><path class="cls-1" d="M1362.44,1356.13s-77.31,9.39-105.36,21.08l4.68,485s199.64,14.59,355.48-41.51c0,0,24.36-27.45,28.45-39.72,0,0,40.32,34.48,133.24,51.42s129.15-9.35,146.09-50.84,17.53-97-50.25-135.57c-63.28-36-137.26-51.64-146.82-53.56a1.79,1.79,0,0,1-1.35-1.21c-3.84-12.13-42.24-130.46-93.76-183.66-54.35-56.09-123.68-44.39-123.68-44.39Z"/><g class="cls-19"><polygon class="cls-16" points="1576.46 1483.08 1300.11 1488.01 1321.95 1628.66 1568.5 1595.02 1576.46 1483.08"/><path class="cls-16" d="M1672.57,1439.7l-96.1,43.38,17.3,164.67s73.34-65.46,177.76-56.89Z"/><path class="cls-16" d="M1674,1798.62S1714.64,1688,1805,1595l96.62,48.08S1837.76,1756.84,1837,1855l-163-39.74Z"/><path class="cls-16" d="M1645.69,1781h0c7.6-13.49.59-33.31-7-53.18l-157.6,36-219.32,98.39,342.29,53.55,44.91-107.9Z"/><g class="cls-20"><path class="cls-21" d="M1925,1781.59s-21.47,53.33-173,6.38c-148.61-46.06-147.92-231.67-147.84-238.74-.06,4.61-1,83.79,2.92,98.54,4.09,15.2,24,60.19,31.56,80.06s14.61,39.7,7,53.18L1712.3,1864l232.62-14Z"/><path class="cls-21" d="M1604.2,1549.23v0Z"/></g><g class="cls-22"><path class="cls-21" d="M1526.1,1657.54s29.25,126.55-146.51,205l-79.48,63.31-38.35-63.66Z"/></g></g><path class="cls-23" d="M1510.3,1351.65c-8.19-2.63-19.68,0-19.68,0l12.05,13.89,11.52-4.15S1517.18,1353.86,1510.3,1351.65Z"/><g class="cls-22"><path class="cls-21" d="M1272.41,1375.21s77.61,8.31,82.24,147.41c0,0-10.88,58.13,47.14,48.36s91.89,24,91.89,24l-203.36,62.52Z"/></g><g class="cls-22"><path class="cls-21" d="M1340.16,1366.63s4,64.92,54.25,111.09c0,0,24.71-62.29,60-54.52C1454.39,1423.2,1382.91,1404,1340.16,1366.63Z"/></g><g class="cls-22"><path class="cls-21" d="M1474.69,1424.33s31.58-7.25,68.15,39.77c0,0,20.07-56.22,6.82-99.9C1549.66,1364.2,1495.36,1414.78,1474.69,1424.33Z"/></g><path class="cls-23" d="M1377.44,1341.91c-3.5,3.9,2.15,11.69,2.15,11.69l11.29,2.53,10.91-14.22S1381,1338,1377.44,1341.91Z"/><path class="cls-24" d="M1342.59,1178.17s-23.26,1.54-16.77-21.84a19.93,19.93,0,0,0,.26-8.83c-1-4.16-1.3-13.51,11.69-31.17s49.09-44.93,107.27-38.44,75.58,53,75.58,53Z"/><path class="cls-1" d="M1357.51,1195.81s-15.59-12.74-15.07-19.23,20.26-77.39,91.69-78.43c0,0,27.27-13.77,70.39,7s20.78,76.62,20.78,76.62Z"/><path class="cls-12" d="M1543.89,1216.07s16.47,12.21,25.82,40.91a60.63,60.63,0,0,0-14-16.76,194.94,194.94,0,0,1,10.39,37.92s-10.39,10.65-21,15.85c0,0-3.64-6-3.12-16.88,0,0-.88,12.84-.05,18.75a78,78,0,0,1-36.83,8.26l18.7-99.37,21.82,6.53Z"/><path class="cls-12" d="M1428.89,1302.3s-28.52-1.56-49.3-13.51a130.47,130.47,0,0,1,7.79-40.26s-10.65,22.86-13.51,38.19c0,0-36.62-12.73-47.79-34.81,0,0,17.14-14.64,26-37.58,0,0-15.32,12.79-27.79,4.79,0,0,13,5.21,24.94-14.37s23.11-42.19,40.78-59.85,88.88-38.44,127.81-6.49c0,0,16.86-1,18.42,18.7s5.45,57.09,21.29,56.33c0,0-5.45,6.26-15.32,3.41,0,0-5.58,1.56-12.21-2.34Z"/><path class="cls-3" d="M1504.65,1172s1.75-5.45,5.65-5.65,6.23,10.52,7.4,17.34,4.09,26.49,12.27,30.78c0,0,4.87,44.22,2.54,64.48s-21.43,33.11-47.93,24.35c0,0-8.37,52,29.61,58.05,0,0-24,65.26-49.09,66.23,0,0-32.92-7-85.51-74,0,0,50.29-13.44,46.07-105.88a2.82,2.82,0,0,0-2-2.58c-4.63-1.49-16.58-6.27-20.74-16.86C1397.77,1215,1405,1208,1405,1208s8.57-8.32,20.78,4.93,19.48,17.4,33.5,15.07,23.9-18.45,27-40.26,6-23.38,9.35-23.64S1502.18,1167.5,1504.65,1172Z"/><g class="cls-25"><path class="cls-10" d="M1454.39,1284s12.34,12.73,30.19,19l3.84,23.89S1461.92,1313.86,1454.39,1284Z"/></g><path class="cls-26" d="M1429.37,1238.9c-2.89,2.89-9.31,1.16-14.33-3.86s-6.75-11.44-3.86-14.33,9.31-1.16,14.33,3.86S1432.26,1236,1429.37,1238.9Z"/><path class="cls-12" d="M1429.11,1216.42a30.7,30.7,0,0,1,3.46,17.57c-1,10.13-11.69,48.83,8.83,57.4,0,0-13.24-6.14-4.93-37.49s21.82-28.74,21.82-28.74l-24.94-12.73Z"/><path d="M1507,1216.85a43.36,43.36,0,0,0,4.22,9.23,39.07,39.07,0,0,0,6.19,7.87,21.64,21.64,0,0,1,1.81,2,8.35,8.35,0,0,1,1.33,2.46,7,7,0,0,1-.54,5.48,13.26,13.26,0,0,1-3.43,4,21.3,21.3,0,0,1-4.39,2.73,26.13,26.13,0,0,0,3.87-3.3,13.77,13.77,0,0,0,2.86-4,5.94,5.94,0,0,0,.24-4.47,7.36,7.36,0,0,0-1.15-2,21.13,21.13,0,0,0-1.69-1.78,32.68,32.68,0,0,1-6.16-8.39A29.43,29.43,0,0,1,1507,1216.85Z"/><path d="M1470.79,1204.75s11.12-12,21.82,0C1492.61,1204.75,1481.27,1201.32,1470.79,1204.75Z"/><path d="M1476.44,1216.07s8.51-11.82,16.17,0C1492.61,1216.07,1482.56,1213.56,1476.44,1216.07Z"/><path d="M1490.45,1217.72a4.84,4.84,0,1,1-4.84-4.83A4.84,4.84,0,0,1,1490.45,1217.72Z"/><path d="M1514.76,1206.19s7.75-12,15.21,0C1530,1206.19,1522.06,1202.77,1514.76,1206.19Z"/><path d="M1515.82,1216.85s6.83-10.32,13,0C1528.8,1216.85,1520.74,1214.65,1515.82,1216.85Z"/><path d="M1527.38,1219.12a4.8,4.8,0,1,1-4.79-4.79A4.79,4.79,0,0,1,1527.38,1219.12Z"/><path d="M1490.45,1257a22.89,22.89,0,0,0,1.27,5.37,9.16,9.16,0,0,0,3,4.16,8.61,8.61,0,0,0,4.84,1.56,28.18,28.18,0,0,0,5.52-.38,13.94,13.94,0,0,1-5.52,1.6,8.58,8.58,0,0,1-5.77-1.53,9,9,0,0,1-3.19-5A12.66,12.66,0,0,1,1490.45,1257Z"/><path class="cls-27" d="M1543.89,1217.26a6.48,6.48,0,0,1-3.64-1.51,11.29,11.29,0,0,1-2.6-3,19.85,19.85,0,0,1-2.61-7.42c.47,1.22,1,2.43,1.49,3.6a30.57,30.57,0,0,0,1.78,3.41,14.2,14.2,0,0,0,2.33,3A8.22,8.22,0,0,0,1543.89,1217.26Z"/><path class="cls-28" d="M1521.8,1138.78a12.94,12.94,0,0,0-4.6-.17,25.29,25.29,0,0,0-4.49,1,36.54,36.54,0,0,0-4.3,1.63l-2.06,1-2,1.09-.5.27-.39-.46a60.27,60.27,0,0,0-14.69-12.35,43.61,43.61,0,0,0-8.68-3.79,32.09,32.09,0,0,0-9.21-1.27,52.49,52.49,0,0,0-9.37,1.23,44.61,44.61,0,0,0-8.84,3.18,47.79,47.79,0,0,0-14.69,11.61,55.51,55.51,0,0,0-5.59,7.67c-1.67,2.71-3.26,5.6-5,8.42a97.29,97.29,0,0,1-11.63,16.27,41.34,41.34,0,0,1-7.83,6.63,24.68,24.68,0,0,1-9.83,3.69,21.73,21.73,0,0,1-10.41-1.21,35.18,35.18,0,0,1-9-4.94l2.07-1.85a18.46,18.46,0,0,0,1.57,2.21c.57.75,1.23,1.43,1.87,2.12s1.35,1.33,2.11,1.9l1.11.9c.38.28.78.54,1.18.81a33.46,33.46,0,0,0,10.48,4.59l2.85.56a7.89,7.89,0,0,0,1.45.19l1.45.13a44,44,0,0,0,5.86.14,24.11,24.11,0,0,0,2.93-.24l2.94-.31,5.82-1.13-5.72,1.64-2.94.54a24.61,24.61,0,0,1-3,.46,41.5,41.5,0,0,1-6,.27l-1.51,0a9.38,9.38,0,0,1-1.5-.11l-3-.41a33.62,33.62,0,0,1-11.39-4.31c-.44-.27-.89-.53-1.32-.81l-1.24-.92a29.73,29.73,0,0,1-2.39-2,25,25,0,0,1-4.1-4.8l-3.71-5.82,5.78,4a32.41,32.41,0,0,0,8.3,4.24,19.26,19.26,0,0,0,8.92.79,21.19,21.19,0,0,0,8.33-3.34,38.75,38.75,0,0,0,7-6.16,92.46,92.46,0,0,0,11-15.7c1.66-2.8,3.21-5.64,5-8.49a60.71,60.71,0,0,1,6-8.13,52.52,52.52,0,0,1,7.37-7,48,48,0,0,1,8.69-5.34,47.13,47.13,0,0,1,9.66-3.25,49.74,49.74,0,0,1,10.09-1,35.16,35.16,0,0,1,10.11,1.74,42.24,42.24,0,0,1,9.09,4.42,57.85,57.85,0,0,1,14.54,13.58l-.89-.2,2.13-1,2.19-.88a37.81,37.81,0,0,1,4.52-1.35,22.92,22.92,0,0,1,4.66-.63A13.16,13.16,0,0,1,1521.8,1138.78Z"/><g class="cls-22"><path class="cls-29" d="M1423.74,1197.63s29.69,2.33,47-42.86C1470.79,1154.77,1464.52,1205.16,1423.74,1197.63Z"/></g><path class="cls-30" d="M1448.94,1102.3a45,45,0,0,0-5.16-1.53c-1.73-.4-3.46-.7-5.2-1s-3.51-.48-5.28-.7c-.89-.1-1.79-.18-2.69-.3s-1.8-.19-2.72-.37c.89-.26,1.79-.44,2.7-.61s1.83-.24,2.75-.28a27.75,27.75,0,0,1,5.54.28,24,24,0,0,1,5.38,1.48A13.77,13.77,0,0,1,1448.94,1102.3Z"/><path class="cls-8" d="M1730.43,1406.74l-127.27-20.12a3.43,3.43,0,0,0-3.83,2.41l-58.09,192.9a4.27,4.27,0,0,0,.57,3.67l3.59,5.18,1.76-5.85,125.6,19.86,57.79-191.9,6.52,1-3.67-5.32A4.46,4.46,0,0,0,1730.43,1406.74Z"/><path class="cls-15" d="M1674.67,1611.22l-129.27-20.44,58.68-194.87a3.45,3.45,0,0,1,3.84-2.41l129.15,20.42-58.72,195A3.31,3.31,0,0,1,1674.67,1611.22Z"/><path class="cls-8" d="M1625.55,1412.43c-1,4.17-4.79,6.83-8.45,5.94s-5.79-5-4.77-9.16,4.79-6.83,8.44-5.94S1626.56,1408.26,1625.55,1412.43Z"/><path class="cls-8" d="M1633.44,1414.34a2.11,2.11,0,1,1-1.47-2.81A2.25,2.25,0,0,1,1633.44,1414.34Z"/><path class="cls-3" d="M1510.23,1583.07s27.28-61,37.92-78.44,20.52-23.37,28.32-21.55,11.68,10.9,8,22.33-9.35,25.4-3.38,27.51,23.64-10.62,36.62-27,19.22-24.67,19.22-24.67,7-10.91,16.63-7.8,8.57,16.37,4.67,25.46a15.35,15.35,0,0,1,12.73,7.27c4.67,7.53,1,23.12-3.38,30.91,0,0,12.47,1.82,9.09,18.44s-15.84,29.35-15.84,29.35,7.27,4.16,2.08,17.92-56.11,52.73-100,66.24Z"/><g class="cls-31"><path class="cls-10" d="M1515.69,1578.66s27.48,3.1,69.68,81.69l-16.82,22.48-58.32-71Z"/></g><path class="cls-10" d="M1617.77,1555.32l-2.09-2.15c.32-.32,32.59-32,41.2-54.78l2.81,1.06C1650.84,1522.87,1619.12,1554,1617.77,1555.32Z"/><path class="cls-10" d="M1633.27,1579.29l-1.93-2.3c.23-.19,23.06-19.56,35-40.63l2.61,1.48C1656.74,1559.38,1633.51,1579.09,1633.27,1579.29Z"/><path class="cls-10" d="M1640.2,1606.12a.6.6,0,0,0,.11-.14l-2.5-1.66a12.35,12.35,0,0,1,2.42-2c4-3,13.28-10.15,19.45-18.29l2.39,1.81c-6.41,8.46-16,15.75-20,18.87C1641.22,1605.3,1640.37,1606,1640.2,1606.12Z"/><path class="cls-1" d="M1379.59,1353.6s-5.65-7.79-2.15-11.69c2.66-3,15.29-1.43,21.24-.52q2.07-2,4.16-4.43h0s-17.8-6.11-31.31,0c-10.49,4.76-23.81,17.81-29.23,23.4a7.76,7.76,0,0,0-2.14,6.27c1.4,12.76,9,56.54,49,96.75a2.47,2.47,0,0,0,3.94-.62c5.65-11,27.36-48,61.25-39.56h0C1440.67,1416.08,1414.46,1398,1379.59,1353.6Z"/><path class="cls-14" d="M1481.08,1585.7s21.62-9.9,34.61-7,30.65,23.92,38.44,40,14,43.1,11.17,54-23.38,35.33-51.69,53.51Z"/><path class="cls-1" d="M1548.93,1361.26a7.65,7.65,0,0,0-3.89-4.78,119.68,119.68,0,0,0-27.53-10.29,54,54,0,0,0-25.89.9,34.13,34.13,0,0,0,2.93,3.89c4.08-.55,10.57-1,15.75.67,6.88,2.21,3.89,9.74,3.89,9.74s-18.19,49.56-39.5,62.94c18.64-10.83,55.79,15.31,64.12,21.5a1.55,1.55,0,0,0,2.39-.75C1556.83,1399.61,1551.49,1370.57,1548.93,1361.26Z"/><path class="cls-1" d="M1262.8,1375.08s-58.9,10.89-85.78,93.45c-25.18,77.35-40.32,136.58-49.67,216.06s18.7,139.08,63.11,161.29,117.46,21.62,173,2.33,147.26-76,161.29-142-23.38-117.46-57.27-126.22-83.51-5.93-140.81,30c0,0,18.76-91.78,13.46-145.94S1289,1370.61,1262.8,1375.08Z"/><g class="cls-32"><path class="cls-16" d="M1158.36,1819.9s36.56-162.36,168.29-209.86l49.82-31.9s5.45,132.72,92.72,234l-97.4,59.22L1170,1872.94Z"/><polygon class="cls-16" points="1133.36 1601.77 1354.65 1554.24 1354.65 1488.79 1148.16 1464.1 1133.36 1601.77"/></g><path class="cls-33" d="M1239.72,1639.08a40.13,40.13,0,0,1,8.12-8.55c1.5-1.3,3.16-2.37,4.76-3.54s3.37-2.08,5.06-3.12,3.5-1.84,5.28-2.72,3.64-1.57,5.46-2.35a23.2,23.2,0,0,1,2.78-1l2.81-1,2.82-.93,2.86-.77a125.76,125.76,0,0,1,23.3-3.84c3.92-.25,7.86-.27,11.77-.33,3.92.2,7.83.4,11.72.77-3.9.52-7.77.85-11.63,1.19l-11.52,1.47q-2.86.51-5.71.95l-2.85.45c-1,.16-1.89.4-2.83.6-1.88.4-3.76.77-5.64,1.15s-3.71,1-5.57,1.45l-2.79.7-2.74.86c-1.81.61-3.67,1.11-5.45,1.8s-3.6,1.3-5.38,2-3.51,1.53-5.27,2.29-3.43,1.69-5.13,2.59-3.38,1.83-5,2.9A55.51,55.51,0,0,0,1239.72,1639.08Z"/><path class="cls-33" d="M1658.28,1628.66c2.9-5.5,7.24-10.15,12-14.22a78.73,78.73,0,0,1,15.58-10.32,90.44,90.44,0,0,1,8.6-3.69c1.47-.51,2.91-1.12,4.41-1.53s3-.84,4.49-1.24c.76-.19,1.5-.42,2.26-.58l2.28-.45,4.57-.82c3.07-.39,6.16-.64,9.24-.79-2.94,1-5.89,1.79-8.8,2.7l-4.33,1.45c-.72.24-1.45.46-2.17.69s-1.42.52-2.13.78c-1.41.55-2.83,1.08-4.25,1.59s-2.78,1.16-4.17,1.73c-2.81,1.09-5.48,2.48-8.2,3.73a132,132,0,0,0-15.47,9.21A91.72,91.72,0,0,0,1658.28,1628.66Z"/><path class="cls-2" d="M2951.09,1079l-18.59-25s-5.81-8.26-5.6-14.7-2.69-33.29-29.25-47.31l-174.08-19.86,67.27,66c3.93,3.87,7.74,7.85,11.32,12,3.38,3.92,9.31,9.69,16.24,11.67,10.85,3.09,40.14,17.87,40.14,17.87s11.93,4.43,18.57,15.88,25.73,42.7,25.73,42.7Z"/><path class="cls-4" d="M3696.75,2599.06s8.16,54.8,4.1,57.5c-3.64,2.43-216.78,4.85-260.6,5.33a8.4,8.4,0,0,1-8.5-8.62c.26-8.92,3.37-23.08,18.26-34.57,23.67-18.26,109.67-56.47,109.67-56.47l-.14-34.81Z"/><g class="cls-34"><path class="cls-8" d="M3702,2647.76H3504s-18.8-36.5-54-29.06l-41.92,16.9,3.38,64.91,330.63-31.1Z"/></g><path class="cls-8" d="M3506.81,2610.59a45.18,45.18,0,0,0-5.81-3.7,64.55,64.55,0,0,0-6-2.82c-1-.4-2.06-.82-3.12-1.17s-2.13-.71-3.2-1.1-2.18-.66-3.28-1.07-2.23-.67-3.37-1.16a27.17,27.17,0,0,1,3.59-.49,31.18,31.18,0,0,1,3.61.12,24.27,24.27,0,0,1,3.57.63c.58.15,1.18.29,1.75.48l1.72.63a23.4,23.4,0,0,1,6.26,3.78A14.37,14.37,0,0,1,3506.81,2610.59Z"/><path class="cls-8" d="M3527.32,2600.16a45.08,45.08,0,0,0-5.81-3.69,64.55,64.55,0,0,0-6-2.82c-1-.4-2.06-.82-3.12-1.17s-2.12-.71-3.19-1.1-2.18-.66-3.28-1.07-2.24-.67-3.37-1.16a27,27,0,0,1,3.58-.49,31.11,31.11,0,0,1,3.61.12,24,24,0,0,1,3.57.63c.59.15,1.18.28,1.76.48l1.72.63a23.14,23.14,0,0,1,6.26,3.78A14.38,14.38,0,0,1,3527.32,2600.16Z"/><path class="cls-8" d="M3547.39,2590.47a44,44,0,0,0-5.81-3.69,59.82,59.82,0,0,0-6-2.82c-1-.41-2.06-.83-3.12-1.18s-2.13-.71-3.2-1.1-2.18-.66-3.27-1.07a33.66,33.66,0,0,1-3.37-1.16,27,27,0,0,1,3.58-.48,29,29,0,0,1,3.61.11,25.67,25.67,0,0,1,3.57.63c.59.15,1.18.29,1.76.49l1.71.62a23.3,23.3,0,0,1,6.27,3.78A14.35,14.35,0,0,1,3547.39,2590.47Z"/><path class="cls-8" d="M3568,2580.9a45.18,45.18,0,0,0-5.81-3.7,62,62,0,0,0-6-2.81c-1-.41-2.06-.83-3.12-1.18s-2.13-.71-3.2-1.1-2.18-.66-3.27-1.07-2.24-.67-3.37-1.16a27,27,0,0,1,3.58-.48,29,29,0,0,1,3.61.11,24,24,0,0,1,3.57.63c.59.15,1.18.29,1.76.49l1.71.62a23.3,23.3,0,0,1,6.27,3.78A14.35,14.35,0,0,1,3568,2580.9Z"/><path class="cls-4" d="M3299.2,2587.34s11.3,66.52,7.25,69.22c-3.64,2.43-216.79,4.85-260.6,5.33a8.4,8.4,0,0,1-8.51-8.62c.26-8.92,3.37-23.08,18.26-34.57,23.67-18.26,109.67-56.47,109.67-56.47l45.84-40.89Z"/><g class="cls-35"><path class="cls-8" d="M3307.56,2647.76h-198s-18.8-36.5-54-29.06l-41.92,16.9,3.38,64.91,330.63-31.1Z"/></g><path class="cls-8" d="M3112.4,2610.59a45.18,45.18,0,0,0-5.81-3.7,64.55,64.55,0,0,0-6-2.82c-1-.4-2.06-.82-3.12-1.17s-2.13-.71-3.2-1.1-2.18-.66-3.27-1.07-2.24-.67-3.37-1.16a27,27,0,0,1,3.58-.49,31.11,31.11,0,0,1,3.61.12,24.27,24.27,0,0,1,3.57.63c.59.15,1.18.29,1.76.48l1.71.63a23.3,23.3,0,0,1,6.27,3.78A14.35,14.35,0,0,1,3112.4,2610.59Z"/><path class="cls-8" d="M3132.91,2600.16a44.41,44.41,0,0,0-5.81-3.69,65.6,65.6,0,0,0-6-2.82c-1-.4-2.06-.82-3.13-1.17s-2.12-.71-3.19-1.1-2.18-.66-3.28-1.07-2.23-.67-3.37-1.16a27.17,27.17,0,0,1,3.59-.49,30.93,30.93,0,0,1,3.6.12,24,24,0,0,1,3.57.63c.59.15,1.18.28,1.76.48l1.72.63a23.14,23.14,0,0,1,6.26,3.78A14.29,14.29,0,0,1,3132.91,2600.16Z"/><path class="cls-8" d="M3153,2590.47a44,44,0,0,0-5.81-3.69,59.82,59.82,0,0,0-6-2.82c-1-.41-2.06-.83-3.12-1.18s-2.12-.71-3.19-1.1-2.18-.66-3.28-1.07a33.66,33.66,0,0,1-3.37-1.16,27,27,0,0,1,3.58-.48,29,29,0,0,1,3.61.11,25.41,25.41,0,0,1,3.57.63c.59.15,1.18.29,1.76.49l1.72.62a23.4,23.4,0,0,1,6.26,3.78A14.26,14.26,0,0,1,3153,2590.47Z"/><path class="cls-8" d="M3173.57,2580.9a45.18,45.18,0,0,0-5.81-3.7,63,63,0,0,0-6-2.81c-1-.41-2.06-.83-3.13-1.18s-2.12-.71-3.19-1.1-2.18-.66-3.28-1.07-2.23-.67-3.37-1.16a26.93,26.93,0,0,1,3.59-.48,28.87,28.87,0,0,1,3.6.11,24,24,0,0,1,3.57.63c.59.15,1.18.29,1.76.49l1.72.62a23.4,23.4,0,0,1,6.26,3.78A14.26,14.26,0,0,1,3173.57,2580.9Z"/><path class="cls-10" d="M2927.14,1042.1s-37.77,18.65-50,53.48l25.73,42.7,48.25-59.33L2931,1051.67S2927.39,1044.92,2927.14,1042.1Z"/><path class="cls-15" d="M3163.31,1686l10.33-110.55h123l62.59,263.58-25.39,304.67s-6.2,139.48-6.2,184.94-31,197.34-28.93,213.87c1.3,10.38,1,30.92.54,44.79h0s-35.46-11-47.7-17.92-21.89-18.37-32.91-18.83-36.68-2.87-36.68-2.87c-3.1-6.2,12.4-41.33,12.4-41.33s-23.77-367.81-25.83-385.38-10.33-36.16-12.4-54.76S3163.31,1686,3163.31,1686Z"/><path class="cls-14" d="M3304.49,1602.17l208.7-35.13L3539,1765.41s27.89,258.29,27.89,272.76-6.19,28.93-6.19,28.93,8.26,6.2,13.43,12.4-1,28.93-1,28.93,10.34,11.36,24.8,45.46S3679.53,2469,3685.73,2500s3.1,59.93,3.1,59.93c7.18,12.76,13.12,31.67,15.46,39.64,0,0-11.17-.73-24.51-1.69-17.8-1.28-39.48-3-43.68-3.88-2.17-.46-4.5-3.16-6.94-6.89-5.83-8.9-12.3-23.68-18.77-28.21-7.2-5-37.8.64-50.71,3.33v-16.77s-5.16-2.06-14.46-12.4,14.46-30,14.46-30S3420.2,2153.89,3413,2134.26s-87.82-420.51-87.82-420.51C3297.25,1691,3304.49,1602.17,3304.49,1602.17Z"/><path class="cls-18" d="M3415,1735.45c18.47,73.35,36.18,146.86,53.61,220.43q6.57,27.58,13,55.19l6.46,27.6,1.62,6.9.8,3.45.41,1.72c.15.49.27,1,.43,1.45a22,22,0,0,0,2.7,5.4,32.75,32.75,0,0,0,4.14,4.81c1.57,1.54,3.33,3,5.13,4.7a41.6,41.6,0,0,1,5.34,5.66,24.58,24.58,0,0,1,2.23,3.64,20.34,20.34,0,0,1,1.46,4.16,21.3,21.3,0,0,1,.51,4.31c0,1.34,0,2.55-.08,3.8-.26,5-1,9.74-1.56,14.4a81.5,81.5,0,0,0-1,13.44,16.32,16.32,0,0,0,1.07,5.56,10.47,10.47,0,0,0,.53,1.06l.32.46c.12.17.31.38.46.57a31.09,31.09,0,0,0,2.1,2.33c1.55,1.57,3.39,3.25,5.09,5.12.87.91,1.67,1.9,2.49,2.86s1.59,2,2.28,3a88.07,88.07,0,0,1,7.46,12.8c1.11,2.18,2,4.41,3.06,6.61s1.86,4.45,2.74,6.69,1.7,4.49,2.51,6.75l2.34,6.78q2.25,6.66,4.61,13.33,4.72,13.34,9.59,26.66l19.46,53.26,19.39,53.3,9.67,26.66L3615,2377c12.73,35.62,25.41,71.25,37.19,107.25,1.45,4.5,2.86,9,4.2,13.6.35,1.13.64,2.3,1,3.45l.46,1.74.4,1.81c.52,2.4.82,4.65,1.29,7,.85,4.64,1.88,9.23,2.69,13.95a33.45,33.45,0,0,1,.6,7.34,12.48,12.48,0,0,1-2.57,7.21c-.41.48-.83,1-1.25,1.44l-1.37,1.26a6.46,6.46,0,0,0-1.62,2.52,22.84,22.84,0,0,0-1,6.69,86.9,86.9,0,0,0,1,14,246,246,0,0,0,5.66,27.73,246.4,246.4,0,0,1-6.86-27.55,87.23,87.23,0,0,1-1.5-14.21,24.94,24.94,0,0,1,.89-7.31,8.44,8.44,0,0,1,2.09-3.43l1.2-1.19,1-1.27c2.66-3.51,2-8.22,1.11-12.75s-2.1-9.17-3.09-13.81c-.54-2.29-.94-4.71-1.49-6.92l-.41-1.64-.5-1.67c-.35-1.12-.65-2.23-1-3.35-1.45-4.47-3-8.93-4.56-13.37-6.26-17.81-12.85-35.53-19.45-53.24l-19.88-53.1L3569.24,2273q-9.94-26.56-19.7-53.2-4.89-13.32-9.69-26.69-2.4-6.69-4.71-13.46l-2.3-6.61c-.79-2.19-1.65-4.35-2.45-6.54s-1.75-4.29-2.61-6.44-1.85-4.23-2.88-6.27a80.84,80.84,0,0,0-6.75-11.7c-.62-.93-1.33-1.76-2-2.64s-1.39-1.69-2.16-2.49c-1.47-1.64-3.12-3.16-4.89-5a36.64,36.64,0,0,1-2.63-2.94c-.21-.27-.42-.51-.64-.81l-.68-1a16,16,0,0,1-1.07-2.1,23.79,23.79,0,0,1-1.66-8.28,87.66,87.66,0,0,1,1.13-14.8c.63-4.71,1.3-9.3,1.54-13.78.06-1.1.1-2.26.09-3.29a14.25,14.25,0,0,0-.31-2.72,13,13,0,0,0-2.34-4.91c-2.34-3.16-6.08-6-9.63-9.59a39.38,39.38,0,0,1-5-6,28.88,28.88,0,0,1-3.54-7.28c-.22-.64-.38-1.3-.56-1.95l-.39-1.74-.78-3.46-1.55-6.92-6.18-27.69q-6.22-27.67-12.28-55.39C3446.31,1883.47,3430.29,1809.54,3415,1735.45Z"/><path class="cls-2" d="M3583.79,1768.34s-16.76,65.1-16.76,85.75,12,22.14,12,22.14,9,2.7,15.26-14.36,8.08-20.35,12.27-16.16,10.18,34.42,8.08,59,5.09,25.14,8.38,25.14,13.17-3,18.56-22.45c0,0,17.36.3,23.64-31.42,0,0,16.16-5.09,19.46-41.6s-16.76-81.11-16.76-81.11Z"/><path d="M3642.21,1907.5l-1.32-.28c6.19-28.87,2.13-57.54,2.09-57.82l1.33-.2C3644.35,1849.49,3648.45,1878.39,3642.21,1907.5Z"/><path d="M3665.86,1876l-1.34-.15a146.23,146.23,0,0,0-1.18-39.89l1.32-.27A147.86,147.86,0,0,1,3665.86,1876Z"/><path class="cls-10" d="M3581.65,1776.86s39.76,29.16,99.21,16.08c0,0-6.39-26.24-10.58-34.32l-86.49,9.72Z"/><path class="cls-14" d="M3568.53,1719.86s-2.25,41.75,11.22,51.63,59.7,17.06,86.64,6.73,19.3-70.93,19.3-70.93Z"/><path class="cls-14" d="M2893.8,1141.65s-20.2-31.85-17.06-43.76,40.85-40.18,53.42-42.88,39.06,42.88,39.06,42.88Z"/><path d="M3209.88,1084.12h0c-11.59,9.35-19.34,28.66-19.34,28.66l29-7.44S3216.05,1080.9,3209.88,1084.12Z"/><path class="cls-4" d="M3226.45,1097.89s-35.46,4.26-62.4,43.32-53.87,90.23-53.87,90.23S2986.73,1084.18,2959.34,1086s-72.27,32.78-70,58.82,95.26,196.44,134.31,237.51,82.82,49.16,103,47.14,62.62-34.35,87.54-90.23l34.42-216Z"/><g class="cls-36"><path class="cls-8" d="M3222.42,1124.67s7.62,233.81-91.59,277.81-241.52-257.68-241.52-257.68l-.08,91.13,190,286.86,178.67-139.48V1106Z"/></g><path d="M3596.81,1152s-1.18-11.22-4-12.57-18.86,7.86-18.86,7.86l22.9,9.2Z"/><path class="cls-4" d="M3569.7,1143.27s72.05,6.74,90.23,95,25.59,152.06,31.65,191.51,14.14,110.82,16.16,147.85c0,0,10.77,111.1-18.85,143.42s-98.31,34.34-127.94-2.69-5.39-171-4-204,2.69-62.62,2.69-62.62L3518.53,1317Z"/><g class="cls-37"><path class="cls-8" d="M3582.21,1150.6s-66.54,152.73-22.61,301.07L3512,1397.09V1217.87l70.25-94.62Z"/></g><path class="cls-12" d="M3508.77,1129.14l-192.11-19.81s-74-27.83-92.9-30.07c-5-.6-9.69,1.48-13.88,4.86h0c6.17-3.22,9.69,21.22,9.69,21.22,15.48,79.22-10.78,226.47-14.82,244.65s-60.1,268.85-60.1,268.85c81.47,47.8,165.5,51.42,165.5,51.42l1.35,17.51c111.1,21.55,233-26.26,233-26.26-5.39-48.48-39.44-226.11-39.44-226.11,20.88-148.24,60.32-247.51,69.3-269.5s18.41-26.49,18.41-26.49C3578.4,1130.88,3508.77,1129.14,3508.77,1129.14Z"/><path class="cls-15" d="M3312.75,897.9c.27,8.71,3.29,19.09,13.36,28.12l26-36.21s-.49-14.4-14.79-15.66C3323.74,873,3312.32,884.24,3312.75,897.9Z"/><g class="cls-38"><path class="cls-39" d="M3294,1101s-23.54,10.85-54.36,43.47c0,0,21.85,57.16,30.23,65.84a150.79,150.79,0,0,0,18,15.56s.3,19.46,3.59,24.24,59.26,47.89,59.26,47.89l.67-2L3370,1143.15Z"/></g><path class="cls-14" d="M3352.15,889.81s-3.29-11.37-15.86-10.17-20.95,27.83-10.18,46.38c0,0-38-6.28-33.82-41.89s38.31-34.42,53.27-26c0,0,5.09-21.85,23.35-29s51.47,2.69,80.2,37.11,38.61,42.5,47,41.9c0,0-12.57,2.39-20.65-3.59,0,0,29.63,21.84,10.18,66.44,0,0-25.44,48.48-71.83,43.69Z"/><g class="cls-38"><path class="cls-39" d="M3455.4,1248.35a126,126,0,0,0,5.24-17.36s15.71-1.8,31.87-15.86,39.5-46.09,46.09-62.85c0,0-13.58-16-29.83-23.14L3374,1145.4l-4.05-2.25-18.64,152.93a424.26,424.26,0,0,0,54.25-17.73C3428.5,1268.93,3452.7,1255.6,3455.4,1248.35Z"/></g><path class="cls-2" d="M3352.15,889.81s-13.47-4.49-25.44,23.64-21.65,79-18.61,105,30.28,36.21,47.34,30.53c0,0,14.36,67-43.7,59.85,0,0,.3,39.21,6.89,69.44s33.22,111.93,33.22,111.93,94.57-76.77,119.26-164.76c0,0-45.34-12.57-51.63-58.36-5.07-37-2.54-57-1.37-63.29a2.57,2.57,0,0,1,2.61-2.1,37.07,37.07,0,0,0,29.54-13.14,22.9,22.9,0,0,0,5.44-13.91c.15-4.75-1.2-10.21-7.18-13.05-12-5.69-25.22,4.49-27.69,8.53s-5.39,9.2-8.3,8.75-.45-12.79,2.47-20.42c0,0-29-7-31.13-48S3358.43,882,3352.15,889.81Z"/><g class="cls-40"><path class="cls-10" d="M3388.06,1030.32s-15.26,14.07-32.62,18.26l-8.08,20.65S3370.7,1069.53,3388.06,1030.32Z"/></g><path class="cls-4" d="M3307.54,1106l110.75,5,42.38-1.29s21.62-.22,24.87,19.45c10.56,64-133.6,161-133.6,161l-66.39-161Z"/><path d="M3390.52,939.25s-11.38-16.71-25-2.21C3365.49,937,3378.89,933.74,3390.52,939.25Z"/><path d="M3382.9,951.18s-10.52-13.07-18.6,1C3364.3,952.18,3375.7,948.67,3382.9,951.18Z"/><path d="M3340,934.34s-5.62-15.45-17.09-3.92C3322.91,930.42,3332.67,928.61,3340,934.34Z"/><path d="M3336.34,950s-4.65-13.49-14.48-3.75C3321.86,946.29,3331.49,946.17,3336.34,950Z"/><path class="cls-41" d="M3351.85,1290.25s-26.64-81.71-33.22-111.93c-5.34-24.51-6.55-54.91-6.81-65.54h0s-.67-14.07,1-14.82c1.48-.67,8.94,3.82,15,10.88.78-.12,1.55-.26,2.29-.42-3.61-4.33-11-12.43-16.69-13.3-7.78-1.2-37.26,9.57-64.79,47.88,0,0,19.45,56,29.33,65.54s15.86,14.67,15.86,14.67-.3,18.55,3.89,23.94,53,50.88,53,50.88l.67-4.08h0l.62-3.78Z"/><path class="cls-27" d="M3312.79,1098c-1.64.75-1.05,10.92-1.05,10.92a57.48,57.48,0,0,0,16.05,0C3321.73,1101.78,3314.27,1097.29,3312.79,1098Z"/><path class="cls-41" d="M3475.9,1112.18c-9.23-3.46-24.18-2.66-32.31-1.87,1.32,1.1,2.65,2.13,4,3.09,8.08-.47,22-.79,23.56,2.37,2.25,4.49-1.06,13.37-1.06,13.37h0c-25.74,84.87-114.85,158.37-118.1,161l-.62,3.78c45.86-9.77,96.6-43.81,99.59-48.89,1.36-2.31,5.93-19.16,5.93-19.16,41.24-2.39,77.57-74.37,77.57-74.37C3521.69,1133.57,3489.07,1117.11,3475.9,1112.18Z"/><path class="cls-27" d="M3471.11,1115.77c-1.58-3.16-15.48-2.84-23.56-2.37a80.93,80.93,0,0,0,23.56,12.09C3470.77,1126.71,3473.36,1120.26,3471.11,1115.77Z"/><path class="cls-8" d="M3370.82,1134.52c-.37,10.4-1.08,20.77-1.92,31.12-.39,5.18-.9,10.35-1.35,15.52l-1.56,15.5-1.74,15.48c-.65,5.15-1.24,10.31-1.95,15.45-1.37,10.3-2.85,20.58-4.7,30.83.36-10.41,1.07-20.77,1.91-31.13.39-5.18.9-10.34,1.36-15.51l1.55-15.5,1.75-15.48c.65-5.15,1.24-10.31,1.95-15.45C3367.49,1155.05,3369,1144.77,3370.82,1134.52Z"/><path class="cls-7" d="M3348.56,1309.1l-21.67,180.39c-1.74,15-3.56,30.06-5.18,45.11-.84,7.52-1.75,15-2.52,22.56s-1.58,15-2.42,22.57l-2.23,22.59L3314,1608l-.47,5.66-.92,11.31c-.75,7.53-1.13,15.08-1.63,22.63l-.36,5.67-.14,5.67-.32,11.35c-1-30.3,1.5-60.6,3.87-90.78,2.54-30.2,5.84-60.32,9.31-90.41s7.42-60.13,11.65-90.12q3.2-22.5,6.48-45C3343.8,1339,3346,1324,3348.56,1309.1Z"/><path class="cls-8" d="M3641.75,1467.83a95.72,95.72,0,0,0-16.21-8.72,92.82,92.82,0,0,0-17.36-5.48,77.71,77.71,0,0,0-9-1.44c-3-.41-6.06-.46-9.1-.57a124.23,124.23,0,0,0-18.38,1.39,65.82,65.82,0,0,1,18.31-3.84c1.57-.07,3.15-.18,4.72-.13l2.36,0,2.36.14a73.76,73.76,0,0,1,9.36,1.34,79.27,79.27,0,0,1,9.1,2.57,70.7,70.7,0,0,1,8.65,3.77A57.36,57.36,0,0,1,3641.75,1467.83Z"/><path class="cls-8" d="M3112,1235.93a45.81,45.81,0,0,1,8.09,9.62,67.39,67.39,0,0,1,9.54,23.22,55.34,55.34,0,0,1,1.22,12.5c-.69-2-1.13-4-1.76-6s-1.16-4-1.83-5.88c-1.22-3.91-2.7-7.71-4.21-11.5s-3.25-7.47-5.08-11.13S3114.14,1239.51,3112,1235.93Z"/><path d="M3350.65,940.39a51.87,51.87,0,0,1-4.44,12.26,47.35,47.35,0,0,1-7.41,10.86c-.79.78-1.57,1.56-2.39,2.31s-1.68,1.45-2.6,2.08l-1.4.91-.7.45a4.7,4.7,0,0,0-.55.38,3,3,0,0,0-1,2.27,37.91,37.91,0,0,0,1,6.27,18.35,18.35,0,0,0,2.44,5.9,15.54,15.54,0,0,1-3.28-5.65,31.41,31.41,0,0,1-1.52-6.45,4.31,4.31,0,0,1,1.4-3.52,8.29,8.29,0,0,1,.75-.57l.65-.45,1.28-.92c.85-.62,1.62-1.34,2.44-2s1.5-1.49,2.25-2.23A58.06,58.06,0,0,0,3345,952,89.46,89.46,0,0,0,3350.65,940.39Z"/><path d="M3341.6,1008.55a27.75,27.75,0,0,0,6.74-.6,16.66,16.66,0,0,0,6-2.57,7.26,7.26,0,0,0,.68-.45l.61-.53a8.78,8.78,0,0,0,1.17-1.11l1.09-1.22c.31-.45.61-.91.93-1.36l.48-.68.38-.75.79-1.49c.48-1,.85-2.1,1.37-3.16a31.47,31.47,0,0,1-.54,3.46l-.55,1.69-.3.84-.41.79a14,14,0,0,1-4.68,5.45,14.59,14.59,0,0,1-6.75,2.46A15.76,15.76,0,0,1,3341.6,1008.55Z"/><ellipse class="cls-26" cx="3431.16" cy="985.99" rx="13.69" ry="8.64" transform="translate(-33.31 1847.68) rotate(-30)"/><path class="cls-16" d="M3365.81,1095.45s-29.41-18.68-37.2-15.69-6.58,44.6-1.19,44.9,33.16-6.21,40.1-13.17Z"/><path class="cls-16" d="M3378.29,1098.32s44.6-21.9,56.87-18.88,6,59.69-6.59,59.19-46.9-19.06-54.56-28.64Z"/><rect class="cls-16" x="3364.21" y="1095.03" width="16.38" height="16.38" rx="3.25" transform="translate(67.5 -188.22) rotate(3.23)"/><ellipse class="cls-4" cx="2831.91" cy="996.14" rx="179.62" ry="34"/><ellipse class="cls-6" cx="2831.91" cy="992.84" rx="179.62" ry="30.7"/><path class="cls-42" d="M2953.93,832.14a16.75,16.75,0,0,0-1.24-2.33h0a16.86,16.86,0,0,0-7.71-6.54c-12.66-5.3-24.92,6.54-24.92,6.54s-15.3,15.89-27.94,22-44.9,9-44.9,9c-67.2,7.22-75.11,39.34-76,46.56v0a1,1,0,0,0,1.3,1l17.64-4.59,92.55-24.11,13.41-3.49a1,1,0,0,0,.58-.39c1.67-2.3,12.79-17.6,17.25-22,4.07-4,11.36-4.19,13.52-4.14.71,0,1.43,0,2.15,0h14.91a14.27,14.27,0,0,0,5.65-1.11C2958,845.15,2956.1,837.14,2953.93,832.14Z"/><path class="cls-43" d="M2896.66,875.78c1.67-2.3,12.79-17.6,17.25-22,4.07-4,11.36-4.19,13.52-4.14.71,0,1.43,0,2.15,0h14.91a14.27,14.27,0,0,0,5.65-1.11c7.87-3.39,6-11.4,3.79-16.4a16.75,16.75,0,0,0-1.24-2.33c3.36,18.55-16.33,16.52-32,15.41s-38.06,34.44-38.06,34.44l13.41-3.49A1,1,0,0,0,2896.66,875.78Z"/><path class="cls-44" d="M2860.86,865.15s32.26-1.76,58.54-28.53c0,0,18.19-21,33.29-6.81a16.86,16.86,0,0,0-7.71-6.54c-12.66-5.3-24.92,6.54-24.92,6.54s-15.3,15.89-27.94,22-44.9,9-44.9,9c-67.2,7.22-75.11,39.34-76,46.56v0a1,1,0,0,0,1.3,1l17.64-4.59,2-10.21S2803.85,866.44,2860.86,865.15Z"/><g class="cls-45"><path class="cls-7" d="M2826.27,868.24s-30.26,5.62-34.59,19.41,34.59-1.24,34.59-1.24,17.13-6.83,17-13.36S2830.2,867.37,2826.27,868.24Z"/></g><path class="cls-46" d="M3017,846.94a22.88,22.88,0,0,0-1.92-1.72c-12.49-10-26,.89-26,.89s-5.48,6.68-24.44,18.42-64.36,8.52-64.36,8.52c-69.34,3.36-95.14,15.1-95.14,15.1-59.72,22.2-66,58.1-66,58.1a42.68,42.68,0,0,0,0,16.81c4.22,20.36,22.79,30.72,22.79,30.72s25.62,16.75,89.88,16.75c69.22,0,100.78-38,100.78-38,24.94-32.25,8.64-67.95,5.32-71.14a4.17,4.17,0,0,1-1.57-3,2.34,2.34,0,0,1,0-.38,3.14,3.14,0,0,1,1.21-1.89l7.31-9.71c13-17.85,24.61-20,34.59-17.54a30,30,0,0,0,17.49-.63C3029,859.74,3017,846.94,3017,846.94Zm-182.51,98.49-.12-.15A.32.32,0,0,1,2834.53,945.43Z"/><path class="cls-43" d="M3015.85,862c-5.66,3.76-14.64,2.51-19.62,1.57s-23.95-2.19-48.23,25.36c0,0-19.44,45.54-71.36,56a.6.6,0,0,0,.06,1.2c11.61,1.24,46.43,2.61,63-22.43,0,0-9,24.74-49.89,33.19-38.82,8-53.83-9.6-55.27-11.43,1.69,2.72,13.71,36.69,74.22,19.14,0,0,42.65-8.89,47.66-66.18a2.34,2.34,0,0,1,0-.38h0a3.14,3.14,0,0,1,1.21-1.89l7.31-9.71c13-17.85,24.61-20,34.59-17.54a30,30,0,0,0,17.49-.63c12-8.5,0-21.3,0-21.3a22.88,22.88,0,0,0-1.92-1.72h0S3021.5,858.23,3015.85,862Z"/><path class="cls-43" d="M2878.27,997.88c-95.22,17.45-138.65-34.33-139.06-34.82,4.22,20.36,22.79,30.72,22.79,30.72s25.62,16.75,89.88,16.75c69.22,0,100.78-38,100.78-38,24.94-32.25,8.64-67.95,5.32-71.14C2964.88,917.21,2973.94,980.35,2878.27,997.88Z"/><g class="cls-45"><path class="cls-7" d="M2765.07,979.73s-19.72-43.75,12.69-68.59,61.81-23.48,61.81-23.48,15,.86,10.65,3.88S2820,903,2806.65,911.14s-27,14.54-28.89,34.14-2,28.18-2,28.18.35,8.63-2,10.73S2767,984.79,2765.07,979.73Z"/></g><g class="cls-45"><path class="cls-7" d="M2863.51,896.12s-22.27,21.29-20.28,33.81,21.62-10.64,23.28-16.91,3.71-9.24,8.65-10.33,31-7.75,30.27-17.22S2873.67,884.82,2863.51,896.12Z"/></g><path class="cls-47" d="M2756.47,966.45l-4.41.07-18.22.27-12.14.18-18.8.28h0l-2.8,0-2.21,0c1.22,12,5.81,19.61,10.79,24.35a28.66,28.66,0,0,0,30.46,5.45c18.17-7.58,19.28-30.71,19.28-30.71Z"/><path class="cls-48" d="M2756.47,966.45c-1.23,28.12-30.09,34.65-43.81,24.72s-12.56-23.88-12.56-23.88l-2.21,0c1.22,12,5.81,19.61,10.79,24.35a28.66,28.66,0,0,0,30.46,5.45c18.17-7.58,19.28-30.71,19.28-30.71l-2,0Z"/><path class="cls-49" d="M2702.9,967.25s-.92,3.61,1.67,9.31l18.45-7.35L2721.7,967Z"/><path class="cls-49" d="M2706.55,978.57l17.86-8.07,1.16,1.09-7.05,16.83a1.88,1.88,0,0,1-2.74.78,33.51,33.51,0,0,1-9.67-9.27A1,1,0,0,1,2706.55,978.57Z"/><path class="cls-49" d="M2726.84,971.77l-6,17.09a2.08,2.08,0,0,0,1.67,2.71c3,.58,8.33,1.19,12.63-.37a2.06,2.06,0,0,0,1.24-2.78l-7.74-17.21Z"/><path class="cls-49" d="M2730.13,970.31l9,17.45a2,2,0,0,0,2.91.72c2.47-1.59,6.63-4.77,8.74-9.18a1.82,1.82,0,0,0-1.08-2.48l-18.84-7.21Z"/><path class="cls-49" d="M2732.15,968.39l18.52,6.1a1.85,1.85,0,0,0,2.34-1.15,16.71,16.71,0,0,0,.66-6.85l-19.83.3Z"/><path class="cls-50" d="M2721.7,967a5.25,5.25,0,0,0,.35,2c1.85,5,9.46,4.94,11.31,0a8.79,8.79,0,0,0,.48-2.14Z"/><path class="cls-47" d="M2801.48,998.36l-4.24-3.9-17.52-16.09-11.67-10.72L2750,951h0l-2.7-2.48-2.12-1.95c-11,12.49-14.37,23.78-14.45,32.74-.13,14.28,9.17,27.29,23.31,32.49,24.87,9.13,49.34-11.75,49.34-11.75Z"/><path class="cls-48" d="M2801.48,998.36c-29.64,25.51-63.57,5.78-66.49-15.93a38.27,38.27,0,0,1,12.29-33.87l-2.12-1.95c-11,12.49-14.37,23.78-14.45,32.74-.13,14.28,9.17,27.29,23.31,32.49,24.87,9.13,49.34-11.75,49.34-11.75l-1.88-1.73Z"/><path class="cls-49" d="M2750,951s-4.53,2.59-7.85,10.31L2767,971l1-3.3Z"/><path class="cls-49" d="M2742,965l25.06,8.39v2.07l-23.71,9.59a2.46,2.46,0,0,1-3.38-1.71c-.72-3.78-1.56-10.79.23-17.45A1.4,1.4,0,0,1,2742,965Z"/><path class="cls-49" d="M2768.05,976.8l-23,10.75a2.73,2.73,0,0,0-1.16,4.07c2.28,3.27,6.68,8.6,12.33,11a3.05,3.05,0,0,0,4-1.51l10.1-23.24Z"/><path class="cls-49" d="M2772.64,978.37l-9.14,24.6a2.51,2.51,0,0,0,2,3.3c3.94.7,11.1,1.43,17.56-.85a2.46,2.46,0,0,0,1.5-3.31l-10.54-23.74Z"/><path class="cls-49" d="M2776.49,978.37l11.36,22.39a2.51,2.51,0,0,0,3.38,1,25.09,25.09,0,0,0,7.56-5.88l-19.07-17.52Z"/><path class="cls-50" d="M2768.05,967.65a7.3,7.3,0,0,0-1.67,2.18c-3.27,6.35,3.94,13.17,10.71,10.13a13.75,13.75,0,0,0,2.63-1.59Z"/><rect class="cls-8" x="2528.58" y="1768.89" width="57.75" height="865.06"/><rect class="cls-4" x="1646.31" y="1709.91" width="1816.14" height="58.98"/><rect class="cls-8" x="1646.31" y="1768.89" width="1816.14" height="31.95"/><rect class="cls-8" x="2103.42" y="2633.95" width="904.39" height="27.03"/><rect class="cls-51" x="1826.94" y="1709.91" width="1438.91" height="401.66"/><polygon class="cls-6" points="1826.94 1709.91 2557.45 2053.97 2557.45 1709.91 1826.94 1709.91"/><polygon class="cls-52" points="2557.45 2053.97 3265.85 1709.91 2557.45 1709.91 2557.45 2053.97"/><rect class="cls-51" x="2530.42" y="1163.71" width="39.32" height="19.87"/><path class="cls-14" d="M2594.86,1356.2a68.19,68.19,0,0,1-17.74-45.69v-98.26h-52.84v98.26a68.19,68.19,0,0,1-17.74,45.69c-12.08,13.36-25.88,34.38-25.88,60.64v278.7a15,15,0,0,0,15,15h110.13a15,15,0,0,0,15-15v-278.7C2620.74,1390.58,2606.94,1369.56,2594.86,1356.2Z"/><rect class="cls-4" x="2509.53" y="1430.36" width="84.17" height="184.93"/><rect class="cls-14" x="2521.21" y="1195.05" width="58.78" height="17.2"/><rect class="cls-14" x="2525.1" y="1181.73" width="50.38" height="13.31"/><path class="cls-52" d="M2339.35,1662v-79.26s0-25.19,25.8-40.55,46.69-44.24,35.63-106.91S2384.2,1356,2384.2,1356h-98.31s-5.53,16.59-16.59,79.25,9.84,91.55,35.64,106.91,25.8,40.55,25.8,40.55V1662c0,29.49-12.28,35.63-25.8,38.09s-30.11,10.44-30.11,10.44h120.43s-16.59-8-30.11-10.44S2339.35,1691.48,2339.35,1662Z"/><path class="cls-16" d="M2287,1435.89h99a5.79,5.79,0,0,1,5.74,5c2.64,19.95,7.68,92.35-58.54,92.35,0,0-68.95.89-51.92-92.62A5.8,5.8,0,0,1,2287,1435.89Z"/><polygon class="cls-14" points="2211.84 1682.46 1926.35 1682.46 1926.35 1689.02 1950.72 1689.02 1967.72 1709.91 2172.11 1709.91 2186.62 1689.02 2211.84 1689.02 2211.84 1682.46"/><polygon class="cls-53" points="2528.58 2111.57 2586.33 2111.57 2586.33 2121.51 2528.58 2134.36 2528.58 2111.57"/><circle class="cls-12" cx="2363.19" cy="890.88" r="29.65" transform="translate(62.22 1931.96) rotate(-45)"/><path class="cls-8" d="M2363.19,360l.28,16,.2,16,.41,32,.51,64c.34,42.67.38,85.35.43,128l-.1,64c-.11,21.34-.11,42.67-.32,64l-.51,64-.41,32-.21,16-.28,16-.27-16-.21-16-.41-32-.51-64c-.21-21.34-.22-42.67-.33-64l-.09-64c0-42.67.09-85.35.42-128l.51-64,.41-32,.21-16Z"/><path class="cls-8" d="M2376,788.11h-25.1a6.9,6.9,0,0,1-6.9-6.9h0a6.9,6.9,0,0,1,6.9-6.91H2376a6.91,6.91,0,0,1,6.91,6.91h0A6.9,6.9,0,0,1,2376,788.11Z"/><path class="cls-1" d="M2363.19,783c-74.15,0-134.27,43.37-134.27,96.87h268.54C2497.46,826.36,2437.35,783,2363.19,783Z"/><circle class="cls-12" cx="1216.21" cy="765.47" r="22.65" transform="translate(191.8 1773.28) rotate(-76.72)"/><path class="cls-8" d="M1216.21,360c.32,16.3.45,32.59.68,48.89l.39,48.89c.17,16.29.14,32.59.2,48.89l.13,48.88-.13,48.89c-.06,16.3,0,32.6-.19,48.89l-.39,48.89c-.23,16.3-.37,32.59-.69,48.89-.31-16.3-.45-32.59-.68-48.89l-.39-48.89c-.17-16.29-.13-32.59-.2-48.89l-.12-48.89.13-48.88c.06-16.3,0-32.6.19-48.89l.39-48.89C1215.76,392.59,1215.9,376.3,1216.21,360Z"/><path class="cls-8" d="M1226,687h-19.17a5.27,5.27,0,0,1-5.28-5.28h0a5.27,5.27,0,0,1,5.28-5.27H1226a5.27,5.27,0,0,1,5.27,5.27h0A5.27,5.27,0,0,1,1226,687Z"/><path class="cls-1" d="M1216.21,683.07c-56.63,0-102.55,33.12-102.55,74h205.1C1318.76,716.19,1272.85,683.07,1216.21,683.07Z"/><circle class="cls-12" cx="3559.26" cy="765.47" r="22.65" transform="translate(501.22 2740.97) rotate(-45)"/><path class="cls-8" d="M3559.26,360c.31,16.3.45,32.59.68,48.89l.39,48.89c.16,16.29.13,32.59.19,48.89l.13,48.88-.12,48.89c-.07,16.3,0,32.6-.2,48.89l-.39,48.89c-.23,16.3-.37,32.59-.68,48.89-.32-16.3-.46-32.59-.69-48.89l-.39-48.89c-.17-16.29-.13-32.59-.19-48.89l-.13-48.89.13-48.88c.06-16.3,0-32.6.2-48.89l.39-48.89C3558.81,392.59,3558.94,376.3,3559.26,360Z"/><path class="cls-8" d="M3569.07,687H3549.9a5.28,5.28,0,0,1-5.28-5.28h0a5.28,5.28,0,0,1,5.28-5.27h19.17a5.28,5.28,0,0,1,5.28,5.27h0A5.28,5.28,0,0,1,3569.07,687Z"/><path class="cls-1" d="M3559.26,683.07c-56.64,0-102.55,33.12-102.55,74h205.1C3661.81,716.19,3615.89,683.07,3559.26,683.07Z"/><path class="cls-51" d="M2208.65,1085.3h-564.6a16.83,16.83,0,0,0-16.83,16.83v141.25a16.82,16.82,0,0,0,16.83,16.83h47.38v107.88l45.92-107.88h471.3a16.83,16.83,0,0,0,16.83-16.83V1102.13A16.84,16.84,0,0,0,2208.65,1085.3Z"/><g class="cls-22"><rect class="cls-54" x="1715.79" y="1111.47" width="428.78" height="70.45"/></g><rect class="cls-7" x="1710.12" y="1104.53" width="428.78" height="70.45"/><polygon class="cls-55" points="1799.35 1116.99 1806.99 1132.43 1824.04 1134.88 1811.72 1146.92 1814.65 1163.89 1799.4 1155.9 1784.16 1163.93 1787.05 1146.95 1774.7 1134.95 1791.74 1132.45 1799.35 1116.99"/><polygon class="cls-55" points="1862.35 1116.9 1869.99 1132.34 1887.04 1134.79 1874.72 1146.83 1877.66 1163.8 1862.4 1155.81 1847.17 1163.85 1850.06 1146.87 1837.71 1134.86 1854.75 1132.36 1862.35 1116.9"/><polygon class="cls-55" points="1925.36 1116.82 1933 1132.25 1950.05 1134.7 1937.73 1146.74 1940.66 1163.72 1925.41 1155.72 1910.17 1163.76 1913.06 1146.78 1900.71 1134.77 1917.75 1132.27 1925.36 1116.82"/><polygon class="cls-55" points="1988.36 1116.73 1996 1132.16 2013.05 1134.62 2000.73 1146.66 2003.67 1163.63 1988.41 1155.63 1973.18 1163.67 1976.07 1146.69 1963.72 1134.69 1980.76 1132.19 1988.36 1116.73"/><polygon class="cls-55" points="2051.36 1116.64 2059.01 1132.08 2076.06 1134.53 2063.74 1146.57 2066.68 1163.54 2051.42 1155.55 2036.18 1163.58 2039.07 1146.6 2026.72 1134.6 2043.76 1132.1 2051.36 1116.64"/><path class="cls-8" d="M1697.6,1204.62c18.9-.27,37.79-.38,56.68-.58l56.68-.32c18.89-.14,37.79-.11,56.68-.16l56.68-.1,113.36.3,56.68.34c18.89.21,37.78.33,56.67.6-18.89.27-37.78.39-56.67.58l-56.68.33-113.36.25-56.68-.12c-18.89,0-37.79,0-56.68-.18l-56.68-.34C1735.39,1205,1716.5,1204.89,1697.6,1204.62Z"/><path class="cls-8" d="M1697.6,1234.79c15.28-.27,30.56-.38,45.84-.57l45.85-.33c15.28-.14,30.56-.11,45.85-.16l45.84-.1,45.85.11c15.28.06,30.56,0,45.84.18l45.85.34c15.28.21,30.57.33,45.85.6-15.28.27-30.57.39-45.85.58l-45.85.33c-15.28.14-30.56.11-45.84.16l-45.85.1-45.84-.12c-15.29-.06-30.57,0-45.85-.18l-45.85-.34C1728.16,1235.19,1712.88,1235.07,1697.6,1234.79Z"/><path class="cls-8" d="M2208.65,1289.54h-38.43a2.63,2.63,0,1,1,0-5.26h38.43a40.94,40.94,0,0,0,40.9-40.9V1204.7a2.63,2.63,0,1,1,5.26,0v38.68A46.22,46.22,0,0,1,2208.65,1289.54Z"/><path class="cls-8" d="M2252.18,1190.19a2.63,2.63,0,0,1-2.63-2.63v-14.8a2.63,2.63,0,0,1,5.26,0v14.8A2.63,2.63,0,0,1,2252.18,1190.19Z"/><path class="cls-8" d="M1714.39,1061.23H1697.6a2.63,2.63,0,1,1,0-5.26h16.79a2.63,2.63,0,1,1,0,5.26Z"/><path class="cls-8" d="M1600.52,1142.13a2.63,2.63,0,0,1-2.63-2.63v-37.37a46.22,46.22,0,0,1,46.16-46.16h37.57a2.63,2.63,0,0,1,0,5.26h-37.57a41,41,0,0,0-40.91,40.9v37.37A2.62,2.62,0,0,1,1600.52,1142.13Z"/><circle class="cls-27" cx="2061.11" cy="1051.53" r="7.25" transform="translate(693 2917.59) rotate(-80.78)"/><circle class="cls-27" cx="2096.22" cy="1051.53" r="7.25" transform="translate(-129.58 1790.24) rotate(-45)"/><circle class="cls-27" cx="2131.34" cy="1051.53" r="7.25" transform="translate(751.98 2986.91) rotate(-80.78)"/><circle class="cls-27" cx="2166.45" cy="1051.53" r="7.25" transform="translate(781.47 3021.57) rotate(-80.78)"/><circle class="cls-27" cx="2201.57" cy="1051.53" r="7.25" transform="translate(810.96 3056.24) rotate(-80.78)"/><path class="cls-8" d="M1232.89,1254.94l-146.79.21-146.79.52-4.59,0h-2.29c-.77,0-1.55-.06-2.33-.09l-2.33-.11-2.31-.35c-.77-.13-1.55-.19-2.3-.38l-2.27-.58a42.1,42.1,0,0,1-16.45-8.58,43.65,43.65,0,0,1-11.28-14.77,42.63,42.63,0,0,1-4-18.18l-.25-73.39-.11-73.4v-4.59c0-1.52,0-3,.09-4.64l.12-2.37c.07-.78.22-1.56.33-2.34s.22-1.57.37-2.34l.59-2.3a43.07,43.07,0,0,1,8.63-16.7,44.2,44.2,0,0,1,14.93-11.46,43.52,43.52,0,0,1,18.37-4.14l146.79.21,146.79.52,4.59,0h2.29c.77,0,1.55.07,2.32.11l2.33.13,2.3.36c.77.14,1.55.2,2.3.4l2.25.59a41.93,41.93,0,0,1,16.32,8.66,43.39,43.39,0,0,1,11.09,14.74,42.28,42.28,0,0,1,3.85,18l-.25,73.39-.11,73.4v4.58c0,1.53,0,3.06-.1,4.59l-.12,2.3c-.08.76-.23,1.51-.33,2.27s-.22,1.52-.37,2.27l-.58,2.23a41.79,41.79,0,0,1-8.41,16.16,42.76,42.76,0,0,1-14.48,11.06A42.12,42.12,0,0,1,1232.89,1254.94Zm0,0a42.19,42.19,0,0,0,17.75-4,42.72,42.72,0,0,0,14.42-11.08,41.57,41.57,0,0,0,8.34-16.14l.57-2.21c.14-.75.23-1.51.35-2.26s.25-1.51.33-2.27l.11-2.28c.1-1.53.09-3.06.08-4.59v-4.58l-.11-73.4-.25-73.39a41.25,41.25,0,0,0-3.9-17.56,42.21,42.21,0,0,0-10.89-14.27,40.65,40.65,0,0,0-15.89-8.28l-2.19-.56c-.72-.19-1.48-.24-2.22-.37l-2.23-.33-2.25-.11c-.76,0-1.5-.08-2.26-.09h-6.88l-146.79.53-146.79.2a40.8,40.8,0,0,0-17.15,3.82,41.22,41.22,0,0,0-14,10.66A40.16,40.16,0,0,0,893,1048l-.56,2.15c-.14.72-.23,1.46-.35,2.19s-.25,1.46-.32,2.19l-.12,2.22c-.1,1.45-.1,3-.09,4.52v4.59l-.11,73.4-.25,73.39a40.72,40.72,0,0,0,3.72,17.39,41.81,41.81,0,0,0,10.71,14.23,40.36,40.36,0,0,0,15.74,8.37l2.18.56c.72.2,1.48.26,2.21.39l2.23.35,2.25.12c.75,0,1.49.1,2.25.12h2.29l4.59,0,146.79.52Z"/><path class="cls-51" d="M949,999.66h300.7a42.06,42.06,0,0,1,42.06,42.06v154.37a42.06,42.06,0,0,1-42.06,42.06h-18.08v71.73l-43.46-71.73H949a42.05,42.05,0,0,1-42-42.06V1041.72A42.05,42.05,0,0,1,949,999.66Z"/><path class="cls-8" d="M1250.59,1118.05c-12.6.22-25.2.32-37.81.49l-37.8.27c-25.21.17-50.41.15-75.62.24-25.2-.08-50.41-.08-75.62-.23l-37.8-.28c-12.61-.17-25.21-.26-37.81-.49,12.6-.23,25.2-.32,37.81-.49l37.8-.28c25.21-.16,50.42-.15,75.62-.23,25.21.09,50.41.07,75.62.24l37.8.27C1225.39,1117.73,1238,1117.83,1250.59,1118.05Z"/><path class="cls-8" d="M1250.59,1148.92c-12.6.22-25.2.32-37.81.48l-37.8.28c-25.21.16-50.41.15-75.62.23-25.2-.07-50.41-.07-75.62-.23l-37.8-.27c-12.61-.17-25.21-.27-37.81-.49,12.6-.23,25.2-.33,37.81-.49l37.8-.28c25.21-.16,50.42-.15,75.62-.23,25.21.09,50.41.07,75.62.23l37.8.28C1225.39,1148.6,1238,1148.69,1250.59,1148.92Z"/><path class="cls-8" d="M1250.59,1179.79c-12.6.22-25.2.32-37.81.48l-37.8.28c-25.21.16-50.41.15-75.62.23-25.2-.08-50.41-.07-75.62-.23l-37.8-.28c-12.61-.16-25.21-.26-37.81-.48,12.6-.23,25.2-.33,37.81-.49l37.8-.28c25.21-.16,50.42-.15,75.62-.23,25.21.08,50.41.07,75.62.23l37.8.28C1225.39,1179.46,1238,1179.56,1250.59,1179.79Z"/><polygon class="cls-55" points="1216.21 1042.94 1209.65 1056.24 1194.97 1058.38 1205.59 1068.73 1203.08 1083.35 1216.21 1076.45 1229.35 1083.35 1226.84 1068.73 1237.46 1058.38 1222.78 1056.24 1216.21 1042.94"/><polygon class="cls-55" points="1157.79 1042.94 1151.22 1056.24 1136.54 1058.38 1147.16 1068.73 1144.66 1083.35 1157.79 1076.45 1170.92 1083.35 1168.41 1068.73 1179.03 1058.38 1164.35 1056.24 1157.79 1042.94"/><polygon class="cls-55" points="1099.36 1042.94 1092.8 1056.24 1078.11 1058.38 1088.74 1068.73 1086.23 1083.35 1099.36 1076.45 1112.49 1083.35 1109.98 1068.73 1120.61 1058.38 1105.93 1056.24 1099.36 1042.94"/><polygon class="cls-55" points="1040.93 1042.94 1034.37 1056.24 1019.69 1058.38 1030.31 1068.73 1027.8 1083.35 1040.93 1076.45 1054.07 1083.35 1051.56 1068.73 1062.18 1058.38 1047.5 1056.24 1040.93 1042.94"/><polygon class="cls-55" points="982.51 1042.94 975.94 1056.24 961.26 1058.38 971.88 1068.73 969.38 1083.35 982.51 1076.45 995.64 1083.35 993.13 1068.73 1003.75 1058.38 989.07 1056.24 982.51 1042.94"/><path class="cls-51" d="M1703.09,716.36H1561.52a19.79,19.79,0,0,0-19.79,19.8v72.67a19.79,19.79,0,0,0,19.79,19.8H1570V862.4l20.46-33.77h112.59a19.79,19.79,0,0,0,19.8-19.8V736.16A19.79,19.79,0,0,0,1703.09,716.36Z"/><circle class="cls-8" cx="1593.02" cy="772.98" r="9.89"/><circle class="cls-8" cx="1632.31" cy="772.98" r="9.89"/><circle class="cls-8" cx="1671.6" cy="772.98" r="9.89"/><path class="cls-51" d="M1327.54,863.64h111a15.52,15.52,0,0,1,15.53,15.52v57a15.53,15.53,0,0,1-15.53,15.53h-6.67v26.48l-16.05-26.48h-88.29A15.52,15.52,0,0,1,1312,936.15v-57A15.52,15.52,0,0,1,1327.54,863.64Z"/><circle class="cls-8" cx="1413.86" cy="908.04" r="7.76"/><circle class="cls-8" cx="1383.05" cy="908.04" r="7.76"/><circle class="cls-8" cx="1352.24" cy="908.04" r="7.76"/><path class="cls-51" d="M1865.71,925.76h-98.88A13.83,13.83,0,0,0,1753,939.59v50.76a13.83,13.83,0,0,0,13.83,13.83h6v23.59l14.29-23.59h78.64a13.83,13.83,0,0,0,13.83-13.83V939.59A13.83,13.83,0,0,0,1865.71,925.76Z"/><path class="cls-8" d="M1795.74,965.31a6.91,6.91,0,1,1-6.91-6.91A6.91,6.91,0,0,1,1795.74,965.31Z"/><path class="cls-8" d="M1823.18,965.31a6.91,6.91,0,1,1-6.91-6.91A6.91,6.91,0,0,1,1823.18,965.31Z"/><path class="cls-8" d="M1850.63,965.31a6.91,6.91,0,1,1-6.91-6.91A6.92,6.92,0,0,1,1850.63,965.31Z"/><path class="cls-51" d="M3646.25,869.9h-98.88a13.83,13.83,0,0,0-13.83,13.82v50.77a13.83,13.83,0,0,0,13.83,13.83h5.94V971.9l14.29-23.58h78.65a13.83,13.83,0,0,0,13.83-13.83V883.72A13.83,13.83,0,0,0,3646.25,869.9Z"/><circle class="cls-8" cx="3569.36" cy="909.44" r="6.91"/><circle class="cls-8" cx="3596.81" cy="909.44" r="6.91"/><circle class="cls-8" cx="3624.25" cy="909.44" r="6.91"/><circle class="cls-16" cx="1231.3" cy="931.12" r="45.01" transform="translate(-262.6 542.08) rotate(-22.5)"/><path class="cls-7" d="M1267.24,917.53a18.15,18.15,0,0,0-21.1-12.25c-8.49,1.82-12.78,9.55-14.25,12.81a.64.64,0,0,1-1.17,0c-1.5-3.35-6-11.43-14.86-13a18.17,18.17,0,0,0-20.52,12.46c-1.41,4.62-1.27,10.77,3,18.5,9.54,17.41,27.82,25.76,32.09,27.52a2.35,2.35,0,0,0,1.82,0c4.28-1.75,22.56-10.05,32.09-27.46C1268.56,928.34,1268.67,922.17,1267.24,917.53Z"/><circle class="cls-16" cx="3133.47" cy="934.34" r="57.07"/><path class="cls-7" d="M3179,917.1a23,23,0,0,0-26.75-15.54c-10.76,2.31-16.21,12.12-18.07,16.25a.81.81,0,0,1-1.49,0c-1.89-4.25-7.56-14.5-18.84-16.49a23,23,0,0,0-26,15.8c-1.79,5.86-1.61,13.66,3.75,23.46,12.09,22.07,35.27,32.67,40.69,34.9a3,3,0,0,0,2.31,0c5.42-2.22,28.6-12.74,40.69-34.82C3180.71,930.81,3180.85,923,3179,917.1Z"/><circle class="cls-16" cx="1677.97" cy="678.02" r="25.14" transform="translate(409.43 1968.79) rotate(-67.5)"/><path class="cls-7" d="M1698,670.42a10.13,10.13,0,0,0-11.78-6.84c-4.74,1-7.14,5.33-8,7.16a.36.36,0,0,1-.66,0c-.83-1.88-3.33-6.39-8.3-7.27a10.16,10.16,0,0,0-11.46,7c-.78,2.58-.71,6,1.66,10.34,5.32,9.72,15.53,14.39,17.92,15.37a1.29,1.29,0,0,0,1,0c2.39-1,12.6-5.61,17.92-15.33C1698.78,676.46,1698.84,673,1698,670.42Z"/><circle class="cls-16" cx="3225.3" cy="705.74" r="34.76"/><path class="cls-7" d="M3253.06,695.25a14,14,0,0,0-16.3-9.47c-6.55,1.41-9.87,7.38-11,9.9a.5.5,0,0,1-.91,0c-1.15-2.59-4.6-8.83-11.47-10a14,14,0,0,0-15.85,9.62c-1.08,3.57-1,8.32,2.29,14.29,7.36,13.44,21.48,19.89,24.78,21.26a1.91,1.91,0,0,0,1.41,0c3.3-1.35,17.42-7.76,24.78-21.21C3254.08,703.6,3254.16,698.83,3253.06,695.25Z"/><circle class="cls-16" cx="1852.01" cy="893.47" r="16.72"/><path class="cls-7" d="M1865.35,888.42a6.74,6.74,0,0,0-7.83-4.55c-3.15.68-4.75,3.55-5.29,4.76a.24.24,0,0,1-.44,0c-.56-1.24-2.21-4.24-5.52-4.83a6.75,6.75,0,0,0-7.62,4.63c-.52,1.72-.47,4,1.1,6.87,3.54,6.47,10.33,9.57,11.92,10.22a.86.86,0,0,0,.67,0c1.59-.65,8.38-3.73,11.92-10.19C1865.84,892.44,1865.88,890.15,1865.35,888.42Z"/><circle class="cls-16" cx="1428.89" cy="826.86" r="20.15" transform="translate(-166.16 1252.56) rotate(-45)"/><path class="cls-7" d="M1445,820.77a8.13,8.13,0,0,0-9.45-5.49c-3.8.82-5.72,4.28-6.38,5.74a.28.28,0,0,1-.52,0c-.67-1.5-2.67-5.12-6.66-5.82a8.13,8.13,0,0,0-9.18,5.58c-.63,2.07-.57,4.82,1.33,8.28,4.26,7.8,12.45,11.54,14.36,12.33a1.16,1.16,0,0,0,.82,0c1.91-.79,10.1-4.5,14.36-12.3C1445.57,825.61,1445.62,822.85,1445,820.77Z"/><circle class="cls-8" cx="2087.2" cy="1309.88" r="38.56" transform="translate(332.82 3040.29) rotate(-76.72)"/><path class="cls-7" d="M2065.57,1329.84h0a5.69,5.69,0,0,1-5.69-5.69v-16.52a5.7,5.7,0,0,1,5.69-5.7h0a5.7,5.7,0,0,1,5.7,5.7v16.52A5.7,5.7,0,0,1,2065.57,1329.84Z"/><path class="cls-7" d="M2075.51,1304.15v23.32a2.37,2.37,0,0,0,2.37,2.37h28.89s5.13.9,4.46-6a4.12,4.12,0,0,1,1.12-3.57c1.56-1.56,3.35-4.45,1.12-9.37a5.89,5.89,0,0,1-.23-4c.64-2.11.07-10.44-13.1-9a2.2,2.2,0,0,1-2.43-2c-.36-3.8-1.68-11.08-6.64-12.33a3.69,3.69,0,0,0-4.51,3.64,10.59,10.59,0,0,0,.12,1.39c.61,4.34-1,12.12-9.07,13.26A2.39,2.39,0,0,0,2075.51,1304.15Z"/><circle class="cls-8" cx="2928.45" cy="555.55" r="38.56" transform="translate(1910.98 3357.2) rotate(-80.78)"/><path class="cls-7" d="M2906.82,575.52h0a5.69,5.69,0,0,1-5.69-5.69V553.3a5.69,5.69,0,0,1,5.69-5.69h0a5.69,5.69,0,0,1,5.69,5.69v16.53A5.69,5.69,0,0,1,2906.82,575.52Z"/><path class="cls-7" d="M2916.76,549.82v23.33a2.37,2.37,0,0,0,2.37,2.37H2948s5.13.89,4.46-6a4.12,4.12,0,0,1,1.12-3.57c1.56-1.57,3.35-4.46,1.12-9.37a5.9,5.9,0,0,1-.23-4c.64-2.12.07-10.45-13.1-9a2.2,2.2,0,0,1-2.43-2c-.36-3.8-1.68-11.08-6.64-12.33a3.69,3.69,0,0,0-4.51,3.63,10.46,10.46,0,0,0,.11,1.4c.62,4.34-1,12.12-9.06,13.26A2.38,2.38,0,0,0,2916.76,549.82Z"/><path class="cls-51" d="M2938.52,2504.67a4.8,4.8,0,1,1-4.79-4.8A4.79,4.79,0,0,1,2938.52,2504.67Z"/><path class="cls-51" d="M2960.23,2504.67a4.8,4.8,0,1,1-4.8-4.8A4.8,4.8,0,0,1,2960.23,2504.67Z"/><path class="cls-51" d="M2981.93,2504.67a4.8,4.8,0,1,1-4.8-4.8A4.8,4.8,0,0,1,2981.93,2504.67Z"/><path class="cls-51" d="M3003.63,2504.67a4.8,4.8,0,1,1-4.8-4.8A4.8,4.8,0,0,1,3003.63,2504.67Z"/><path class="cls-51" d="M2938.52,2524.18a4.8,4.8,0,1,1-4.79-4.79A4.79,4.79,0,0,1,2938.52,2524.18Z"/><path class="cls-51" d="M2960.23,2524.18a4.8,4.8,0,1,1-4.8-4.79A4.8,4.8,0,0,1,2960.23,2524.18Z"/><path class="cls-51" d="M2981.93,2524.18a4.8,4.8,0,1,1-4.8-4.79A4.8,4.8,0,0,1,2981.93,2524.18Z"/><path class="cls-51" d="M3003.63,2524.18a4.8,4.8,0,1,1-4.8-4.79A4.8,4.8,0,0,1,3003.63,2524.18Z"/><circle class="cls-51" cx="2933.73" cy="2543.7" r="4.8"/><circle class="cls-51" cx="2955.43" cy="2543.7" r="4.8"/><path class="cls-51" d="M2981.93,2543.7a4.8,4.8,0,1,1-4.8-4.8A4.8,4.8,0,0,1,2981.93,2543.7Z"/><path class="cls-51" d="M3003.63,2543.7a4.8,4.8,0,1,1-4.8-4.8A4.8,4.8,0,0,1,3003.63,2543.7Z"/><circle class="cls-51" cx="2933.73" cy="2563.21" r="4.8"/><circle class="cls-51" cx="2955.43" cy="2563.21" r="4.8"/><path class="cls-51" d="M2981.93,2563.21a4.8,4.8,0,1,1-4.8-4.79A4.8,4.8,0,0,1,2981.93,2563.21Z"/><path class="cls-51" d="M3003.63,2563.21a4.8,4.8,0,1,1-4.8-4.79A4.8,4.8,0,0,1,3003.63,2563.21Z"/><path class="cls-8" d="M3724.76,1222.64a4.8,4.8,0,1,1-4.8-4.8A4.8,4.8,0,0,1,3724.76,1222.64Z"/><path class="cls-8" d="M3746.46,1222.64a4.8,4.8,0,1,1-4.8-4.8A4.8,4.8,0,0,1,3746.46,1222.64Z"/><path class="cls-8" d="M3768.16,1222.64a4.8,4.8,0,1,1-4.79-4.8A4.79,4.79,0,0,1,3768.16,1222.64Z"/><path class="cls-8" d="M3789.87,1222.64a4.8,4.8,0,1,1-4.8-4.8A4.8,4.8,0,0,1,3789.87,1222.64Z"/><circle class="cls-8" cx="3719.96" cy="1242.15" r="4.8"/><circle class="cls-8" cx="3741.66" cy="1242.15" r="4.8"/><path class="cls-8" d="M3768.16,1242.15a4.8,4.8,0,1,1-4.79-4.79A4.79,4.79,0,0,1,3768.16,1242.15Z"/><path class="cls-8" d="M3789.87,1242.15a4.8,4.8,0,1,1-4.8-4.79A4.8,4.8,0,0,1,3789.87,1242.15Z"/><circle class="cls-8" cx="3719.96" cy="1261.67" r="4.8"/><circle class="cls-8" cx="3741.66" cy="1261.67" r="4.8"/><path class="cls-8" d="M3768.16,1261.67a4.8,4.8,0,1,1-4.79-4.8A4.79,4.79,0,0,1,3768.16,1261.67Z"/><path class="cls-8" d="M3789.87,1261.67a4.8,4.8,0,1,1-4.8-4.8A4.8,4.8,0,0,1,3789.87,1261.67Z"/><circle class="cls-8" cx="3719.96" cy="1281.18" r="4.8"/><circle class="cls-8" cx="3741.66" cy="1281.18" r="4.8"/><path class="cls-8" d="M3768.16,1281.18a4.8,4.8,0,1,1-4.79-4.79A4.79,4.79,0,0,1,3768.16,1281.18Z"/><path class="cls-8" d="M3789.87,1281.18a4.8,4.8,0,1,1-4.8-4.79A4.8,4.8,0,0,1,3789.87,1281.18Z"/><circle class="cls-6" cx="2294.64" cy="2246.62" r="7.28"/><circle class="cls-6" cx="2327.57" cy="2246.62" r="7.28"/><circle class="cls-6" cx="2360.5" cy="2246.62" r="7.28"/><circle class="cls-6" cx="2393.43" cy="2246.62" r="7.28"/><circle class="cls-6" cx="2294.64" cy="2276.23" r="7.28"/><circle class="cls-6" cx="2327.57" cy="2276.23" r="7.28"/><circle class="cls-6" cx="2360.5" cy="2276.23" r="7.28"/><circle class="cls-6" cx="2393.43" cy="2276.23" r="7.28"/><circle class="cls-6" cx="2294.64" cy="2305.85" r="7.28"/><circle class="cls-6" cx="2327.57" cy="2305.85" r="7.28"/><circle class="cls-6" cx="2360.5" cy="2305.85" r="7.28"/><circle class="cls-6" cx="2393.43" cy="2305.85" r="7.28"/><circle class="cls-6" cx="2294.64" cy="2335.46" r="7.28" transform="translate(-378.23 4226.37) rotate(-80.78)"/><circle class="cls-6" cx="2327.57" cy="2335.46" r="7.28" transform="translate(-350.57 4258.88) rotate(-80.78)"/><circle class="cls-6" cx="2360.5" cy="2335.46" r="7.28" transform="translate(-960.05 2353.17) rotate(-45)"/><circle class="cls-6" cx="2393.43" cy="2335.46" r="7.28" transform="translate(-429.45 4128.29) rotate(-76.72)"/><circle class="cls-51" cx="925.92" cy="1298.99" r="6.26"/><circle class="cls-51" cx="954.21" cy="1298.99" r="6.26"/><path class="cls-51" d="M988.76,1299a6.26,6.26,0,1,1-6.25-6.26A6.25,6.25,0,0,1,988.76,1299Z"/><path class="cls-51" d="M1017.06,1299a6.26,6.26,0,1,1-6.26-6.26A6.25,6.25,0,0,1,1017.06,1299Z"/><circle class="cls-51" cx="925.92" cy="1324.43" r="6.26"/><circle class="cls-51" cx="954.21" cy="1324.43" r="6.26"/><path class="cls-51" d="M988.76,1324.43a6.26,6.26,0,1,1-6.25-6.26A6.25,6.25,0,0,1,988.76,1324.43Z"/><path class="cls-51" d="M1017.06,1324.43a6.26,6.26,0,1,1-6.26-6.26A6.26,6.26,0,0,1,1017.06,1324.43Z"/><path class="cls-51" d="M932.17,1349.87a6.26,6.26,0,1,1-6.25-6.25A6.25,6.25,0,0,1,932.17,1349.87Z"/><path class="cls-51" d="M960.47,1349.87a6.26,6.26,0,1,1-6.26-6.25A6.26,6.26,0,0,1,960.47,1349.87Z"/><path class="cls-51" d="M988.76,1349.87a6.26,6.26,0,1,1-6.25-6.25A6.25,6.25,0,0,1,988.76,1349.87Z"/><path class="cls-51" d="M1017.06,1349.87a6.26,6.26,0,1,1-6.26-6.25A6.26,6.26,0,0,1,1017.06,1349.87Z"/><path class="cls-51" d="M932.17,1375.32a6.26,6.26,0,1,1-6.25-6.26A6.25,6.25,0,0,1,932.17,1375.32Z"/><path class="cls-51" d="M960.47,1375.32a6.26,6.26,0,1,1-6.26-6.26A6.25,6.25,0,0,1,960.47,1375.32Z"/><path class="cls-51" d="M988.76,1375.32a6.26,6.26,0,1,1-6.25-6.26A6.25,6.25,0,0,1,988.76,1375.32Z"/><path class="cls-51" d="M1017.06,1375.32a6.26,6.26,0,1,1-6.26-6.26A6.25,6.25,0,0,1,1017.06,1375.32Z"/></g></svg>