<svg id="Layer_1" data-name="Layer 1" xmlns="http://www.w3.org/2000/svg" xmlns:xlink="http://www.w3.org/1999/xlink" viewBox="0 0 3869.9 3455.42"><defs><style>.cls-1{fill:none;}.cls-2{fill:#bf775e;}.cls-3{fill:#2e232b;}.cls-4{fill:#1e131c;}.cls-5{fill:#985b47;}.cls-6{fill:#fffaf0;}.cls-7{fill:#ef7946;}.cls-8{clip-path:url(#clip-path);}.cls-9{fill:#f4e1be;}.cls-10{fill:#ffbe21;}.cls-11{fill:#2440a8;}.cls-12{fill:#3c53c6;}.cls-13{fill:#63c0ed;}.cls-14{clip-path:url(#clip-path-2);}.cls-15{fill:#485cd6;}.cls-16{fill:#465cd6;}.cls-17{fill:#ff7235;}.cls-18{fill:#ed5d2b;}.cls-19{fill:#fff;}.cls-20{clip-path:url(#clip-path-3);}.cls-21{fill:#e8d8c1;}.cls-22{fill:#f3ebde;}.cls-23{fill:#fff8ee;}.cls-24{fill:#4756df;}.cls-25{fill:#364cce;}.cls-26{fill:#fbffff;}.cls-27{fill:#3a2e33;}.cls-28{fill:#f3bbd4;}.cls-29{fill:#db643b;}.cls-30{opacity:0.48;}.cls-31{clip-path:url(#clip-path-4);}.cls-32{fill:#e8a91c;}.cls-33{fill:#a15842;}.cls-34{fill:#eaacca;}</style><clipPath id="clip-path" transform="translate(-52 -256.58)"><path class="cls-1" d="M2989.52,3526.39c-8.56-34.24-17.87-68.2-26.71-98.94-40.64,2.23-168.9,9.26-199.82,10.84l2,47.27a76,76,0,0,1-3.11,21.14l9.2,113,232,1.8Z"/></clipPath><clipPath id="clip-path-2" transform="translate(-52 -256.58)"><path class="cls-1" d="M2604.08,3562.36c8.21-34.34,15.61-68.76,22-100.11-37.08-16.77-154.11-69.72-182.26-82.59l-20.06,42.85a76.18,76.18,0,0,1-12.52,17.32l-44,104.45,205,108.67Z"/></clipPath><clipPath id="clip-path-3" transform="translate(-52 -256.58)"><path class="cls-1" d="M3257.79,1782.54c5.47,0,150.41-17.43,209.41-24.55a34.54,34.54,0,0,1,35.38,19.44c28.47,60.08,55.11,121.09,80.61,182.45,83.4,200.7,135.16,397.34,123,616.26-2.62,47.19,15.08,108.22-76.7,103.63-110.87-5.55-70.37-133.09-160.63-134.62-110.67-1.88-247.83-16.83-270.78-88-11-34.09-14.08-66.6-14.32-91.21-.09-8.9-11.84-12-16.33-4.36-13.86,23.66-34.4,49.53-58.84,52-45.89,4.59-284.54-211.11-257-247.82S3161.41,1782.54,3257.79,1782.54Z"/></clipPath><clipPath id="clip-path-4" transform="translate(-52 -256.58)"><rect class="cls-1" x="1051.23" y="1993.52" width="230.27" height="411.88" rx="6.63"/></clipPath></defs><g id="Man"><g id="Head"><path class="cls-2" d="M3457.63,1284.62c-82-36.57-163.13-26.41-209,74.55-27.25,59.95-53.41,125.83-55.63,192.54-.86,26,2.71,55.15,16.92,77.49,15,23.54,38.92,28.83,65.27,27.86,57-2.1,114.58-27.34,162.61-56.45,45.49-27.57,91-64.79,113.74-114.1C3592.33,1398,3534.44,1318.87,3457.63,1284.62Z" transform="translate(-52 -256.58)"/><path class="cls-3" d="M3377.91,1415.8c-3.17-2.59-6.24-5-9.14-7.32a636.47,636.47,0,0,0-70.78-48.41c-29.43-17.32-61.82-21.09-94.2-30.92-63.78-19.37-30.22-90.65-10.26-131.75,21.92-45.13,68.59-79.19,118.74-55.4,52.32,24.82,82.64,81.66,138.27,101.29,78,27.54,234.06,174.4,151.45,257-53,53-104.13,98-133.95,123.41-15.38,13.11-39.54,4.75-42.82-15.19-2.94-17.84-10.13-64.38-8-96.34C3420.71,1457.85,3413.13,1444.58,3377.91,1415.8Z" transform="translate(-52 -256.58)"/><path class="cls-4" d="M3602,1500.3c82.61-82.61-73.43-229.47-151.45-257a129.21,129.21,0,0,1-21.58-10.06c-4.19,40.49,3.17,99.44,61.35,152.33,80.81,73.46-25.47,150.54-71.16,178.42,1.92,18.51,4.56,35.35,6.07,44.55,3.28,19.93,27.44,28.29,42.82,15.18C3497.86,1598.28,3549,1553.31,3602,1500.3Z" transform="translate(-52 -256.58)"/><path class="cls-2" d="M3269.26,1658.63c22.72,33.91,37.47,88.41,48.11,138.47,4.07,19.16,20.81,33,40.38,32.22,31.05-1.2,74.64-5.3,101.91-18.2a39.73,39.73,0,0,0,21.74-44.57l-39.26-176.2a39.67,39.67,0,0,0-48.6-29.86c-35.73,9.18-88.06,23.83-124.73,39.36C3246,1609.52,3255.45,1638,3269.26,1658.63Z" transform="translate(-52 -256.58)"/><path class="cls-2" d="M3417.17,1512.18c11.49-29.65,40.64-37.51,57.85-27.18,33.58,20.15,31.74,110.53-50.87,119.71,0,0-31,1.14-24.09-29.84C3402.49,1563.91,3407.78,1536.42,3417.17,1512.18Z" transform="translate(-52 -256.58)"/><path class="cls-5" d="M3445,1561.5a4,4,0,0,1-2.61-.94,4.11,4.11,0,0,1-.56-5.79c15.26-18.52,13.67-25.18,12.82-26.78-1.83-3.46-8.89-3.61-11.23-3.39a4.18,4.18,0,0,1-4.48-3.7,4.1,4.1,0,0,1,3.68-4.48c1.46-.18,14.54-1.18,19.28,7.69,4.19,7.86-.3,19.6-13.73,35.9A4.11,4.11,0,0,1,3445,1561.5Z" transform="translate(-52 -256.58)"/><path class="cls-3" d="M3254,1396.27a34,34,0,0,1,17.65-3.78,34.41,34.41,0,0,1,17.88,5.86c5.17,3.75,9.7,8.71,11.9,14.57,1.5,2.74,1.86,5.89,2.67,8.77a53.44,53.44,0,0,1,.38,9c-1.66-2.59-2.81-5.2-4.19-7.67-1.62-2.34-2.7-4.9-4.46-7a41.09,41.09,0,0,0-10.92-10.92C3276.51,1399.24,3265.77,1397.19,3254,1396.27Z" transform="translate(-52 -256.58)"/><ellipse class="cls-3" cx="3257.02" cy="1442.17" rx="18.29" ry="13.77" transform="translate(407.05 3389.99) rotate(-62.12)"/><path class="cls-2" d="M3221.84,1433.75s-52.78,29.83-44.37,47.42,32.89,13,34.42,9.95S3221.84,1433.75,3221.84,1433.75Z" transform="translate(-52 -256.58)"/><path class="cls-5" d="M3253.83,1565.73a41.64,41.64,0,0,1-14.71-2.62c-21.79-8.14-30-32.19-30.37-33.21a4.11,4.11,0,0,1,7.8-2.61c.07.22,7.41,21.42,25.5,28.14,11.66,4.31,25.51,1.84,41.17-7.43a4.12,4.12,0,0,1,4.2,7.08C3275.43,1562.18,3264.19,1565.73,3253.83,1565.73Z" transform="translate(-52 -256.58)"/><path class="cls-5" d="M3289.94,1662.5a112,112,0,0,1-18.05-1.3,4.1,4.1,0,0,1-3.34-4.75,4.05,4.05,0,0,1,4.76-3.34c.4.05,41.43,6.87,73.34-14.28a4.12,4.12,0,0,1,4.55,6.86C3330.09,1659.67,3306,1662.5,3289.94,1662.5Z" transform="translate(-52 -256.58)"/></g><g id="body_2" data-name="body 2"><g id="_2" data-name="2"><path class="cls-2" d="M2760.36,3375.31l4.61,110.25c-.2,28.74-15,51.82-40.32,61.58-35.65,13.76-71.12,28.22-105.57,44.8-22.17,10.67-56.39,23.52-68.93,46.43-23.41,42.76,47,38.88,70.15,40,55.6,2.74,111.74.11,167.35-1.21,29.54-.7,59.09-1,88.62-1.81,24.1-.64,48.57.69,72.34-4.17,16.43-3.36,41.34-10.59,48.86-27.45,11.13-25,6.73-55.45.83-81-18.19-78.72-42.85-161.81-58.45-212.08a63.17,63.17,0,0,0-63.95-44.3l-56,3.19A63.22,63.22,0,0,0,2760.36,3375.31Z" transform="translate(-52 -256.58)"/><path class="cls-6" d="M2989.46,3526.15c-8.22-32.86-17.13-65.45-25.65-95.19a4.57,4.57,0,0,0-4.67-3.31c-42.38,2.28-158,7.89-194.28,9.71a4.59,4.59,0,0,0-4.34,4.74l1,43.68c0,7.48,0,14,.3,20.92l8.85,108.73a4.63,4.63,0,0,0,4.58,4.25l222.42,1.72a4.62,4.62,0,0,0,4.62-5.28l-12.77-89.48A3.86,3.86,0,0,0,2989.46,3526.15Z" transform="translate(-52 -256.58)"/><path class="cls-7" d="M2759.69,3508.07l224.15-9a6.46,6.46,0,0,1,6.59,5.16l25,122.13a6.18,6.18,0,0,1,.13,1.28c0,5.78-2.52,46.86-70.47,49.91-73.1,3.28-370.71,4.95-370.71,4.95s-37.63-.91-32.72-39.17c4.58-35.77,158.5-93.45,196.53-107a15.18,15.18,0,0,0,8.85-8.32l7-16.09A6.46,6.46,0,0,1,2759.69,3508.07Z" transform="translate(-52 -256.58)"/><g class="cls-8"><path class="cls-9" d="M2996.44,3493.92l-.23,0L2756,3507.39a2.41,2.41,0,1,1-.28-4.82l240.25-13.45a2.42,2.42,0,0,1,.51,4.8Zm-6.41-17.48-.24,0L2759,3488.61a2.43,2.43,0,0,1-2.54-2.29,2.35,2.35,0,0,1,2.28-2.54l230.79-12.14a2.42,2.42,0,0,1,.5,4.8Zm-11.66-17-.21,0-219.91,14.71a2.42,2.42,0,0,1-2.57-2.25,2.23,2.23,0,0,1,2.25-2.57l219.91-14.71a2.42,2.42,0,0,1,.53,4.8Zm-6.14-17.45-.22,0-211.26,13.35a2.43,2.43,0,0,1-2.56-2.26,2.38,2.38,0,0,1,2.26-2.56l211.26-13.35a2.41,2.41,0,0,1,.52,4.79Z" transform="translate(-52 -256.58)"/></g><path class="cls-10" d="M2990.43,3504.25a6.46,6.46,0,0,0-6.59-5.16l-224.15,9A6.46,6.46,0,0,0,2754,3512l-7,16.09a15.32,15.32,0,0,1-2.8,4.21c14.19,7.74,43.24,17.91,82.33,2.35,56.46-22.49,101.15-7,124.63,3.63,15,6.82,33.66,2.7,45.43-3.69Z" transform="translate(-52 -256.58)"/><path class="cls-9" d="M2746.14,3608.48a2.4,2.4,0,0,1-2.19-.78l-47.75-54.06a2.42,2.42,0,0,1,3.62-3.2l47.75,54.06a2.41,2.41,0,0,1-1.43,4Zm-26.31,10.78a2.41,2.41,0,0,0,.19-3.41l-48-53.74a2.41,2.41,0,0,0-3.6,3.22l48,53.74a2.43,2.43,0,0,0,3.41.19Zm-30.23,12.95a2.4,2.4,0,0,0,.22-3.4l-47.46-54.12a2.41,2.41,0,0,0-3.63,3.18L2686.2,3632a2.38,2.38,0,0,0,2.19.79A2.3,2.3,0,0,0,2689.6,3632.21Z" transform="translate(-52 -256.58)"/><path class="cls-11" d="M2973.43,3632.23s-356.61,12.28-382.73,10.93c-16.93-.89-26.55-13.78-31.24-22.75-10.29,8.15-16.91,16-17.8,22.94-4.91,38.26,32.72,39.17,32.72,39.17s297.61-1.67,370.71-4.95c67.95-3.05,70.46-44.13,70.47-49.91a6.18,6.18,0,0,0-.13-1.28l-1.16-5.65C2999.07,3633.08,2973.43,3632.23,2973.43,3632.23Z" transform="translate(-52 -256.58)"/><path class="cls-5" d="M2939.85,3350.67a63.17,63.17,0,0,0-63.95-44.3l-56,3.19a63.22,63.22,0,0,0-59.58,65.75l.34,7.94c23.79,9.75,57.68,18.5,87.52,6.86,48.33-18.83,85.13-8.33,103.32-1.05C2947.31,3374.92,2943.34,3361.94,2939.85,3350.67Z" transform="translate(-52 -256.58)"/><path class="cls-12" d="M3204.75,2445.53a29.34,29.34,0,0,1-20.82,13.42c-78.55,10.29-457.5,66.77-488.34,202.46-28.43,125.06-2.08,523.93,8,659.15a54,54,0,0,0,49.58,49.86c78.22,6.24,230.09,11.32,245.36-41.26,14.16-48.77,2.43-243.18-6.35-360.58a77.44,77.44,0,0,1,81.6-83.06c47.65,2.67,95.56,2.61,142.85.53,121.81-5.36,280.52-23.42,361.37-126.78,38.67-49.43,92.26-168.16,86.41-258.07-2.79-42.94-33.39-79-74.77-90.81C3493.11,2382.9,3275.28,2335.77,3204.75,2445.53Z" transform="translate(-52 -256.58)"/><path class="cls-13" d="M2888.34,3363.92a4.93,4.93,0,0,1-4.92-4.56c-.3-3.94-29.84-396.36-29.84-525.85,0-123.62,33.05-127.27,216.47-147.48,18-2,37.53-4.14,58.67-6.57,232.94-26.88,346-297.14,347.09-299.86a4.93,4.93,0,1,1,9.13,3.72c-1.14,2.79-116.31,278.39-355.1,305.94-21.15,2.44-40.68,4.59-58.72,6.58-184,20.28-207.68,22.89-207.68,137.67,0,129.12,29.53,521.16,29.83,525.11a5,5,0,0,1-4.56,5.3Z" transform="translate(-52 -256.58)"/></g><g id="_1" data-name="1"><path class="cls-2" d="M2470.5,3322.57l-46.79,99.94c-13.45,25.41-37.26,39-64.19,36-38-4.24-76.12-7.78-114.33-9-24.6-.77-60.88-5.16-82.58,9.38-40.5,27.13,23.77,56.18,43.77,67.87,48.06,28.09,99.08,51.66,149,76.16,26.52,13,52.89,26.35,79.46,39.28,21.67,10.55,42.76,23,66.09,29.68,16.13,4.6,41.57,9.69,56-1.8,21.39-17,31.56-46.09,38.11-71.49,20.18-78.22,36.66-163.31,46-215.11a63.16,63.16,0,0,0-36.29-68.81l-51.12-23A63.22,63.22,0,0,0,2470.5,3322.57Z" transform="translate(-52 -256.58)"/><path class="cls-6" d="M2604.21,3561.82c7.46-31.25,14.26-62.56,20.19-91.55a10.25,10.25,0,0,0-5.86-11.41c-39.3-17.78-129.39-58.55-165.51-75a10.29,10.29,0,0,0-13.6,5l-15.72,33.59a75.88,75.88,0,0,1-11.32,16,9.94,9.94,0,0,0-1.88,2.88l-39.61,94.13a10.31,10.31,0,0,0,4.68,13.13l186.08,98.63a10.34,10.34,0,0,0,14.58-5.7l27.66-78.75A9.88,9.88,0,0,0,2604.21,3561.82Z" transform="translate(-52 -256.58)"/><path class="cls-7" d="M2413.47,3440.06l203,95.46a6.46,6.46,0,0,1,3.46,7.62L2585.76,3663a6.09,6.09,0,0,1-.47,1.2c-2.68,5.12-23.86,40.4-85.55,11.76-66.37-30.83-331.17-166.68-331.17-166.68s-33-18.18-11-49.85c20.57-29.61,183.74-9.77,223.72-4.22A15.2,15.2,0,0,0,2393,3452l13.62-11.06A6.46,6.46,0,0,1,2413.47,3440.06Z" transform="translate(-52 -256.58)"/><g class="cls-14"><path class="cls-9" d="M2625.21,3536.74l-.22-.09-219.35-98.93a2.42,2.42,0,0,1,2-4.41L2627,3532.24a2.42,2.42,0,0,1-1.75,4.5Zm2.37-18.47-.23-.09L2417,3422.46a2.43,2.43,0,0,1-1.21-3.2,2.35,2.35,0,0,1,3.2-1.2l210.35,95.72a2.42,2.42,0,0,1-1.77,4.49Zm-2.48-20.49-.2-.08L2423,3409.27a2.41,2.41,0,0,1-1.24-3.18,2.23,2.23,0,0,1,3.18-1.24l201.88,88.43a2.41,2.41,0,0,1-1.74,4.5Zm2.6-18.31-.21-.08-193.58-85.64a2.42,2.42,0,0,1-1.23-3.19,2.38,2.38,0,0,1,3.19-1.22L2629.45,3475a2.41,2.41,0,0,1-1.75,4.49Z" transform="translate(-52 -256.58)"/></g><path class="cls-10" d="M2615.11,3543.13a6.46,6.46,0,0,0-3.47-7.62l-203-95.46a6.45,6.45,0,0,0-6.83.83l-13.62,11a15.34,15.34,0,0,1-4.42,2.44c9,13.42,30.09,35.85,71.95,40.08,60.47,6.1,93,40.46,108.89,60.73,10.21,13,28.62,17.93,42,17.69Z" transform="translate(-52 -256.58)"/><path class="cls-9" d="M2350.28,3522.87a2.42,2.42,0,0,1-1.58-1.7l-17.42-70A2.42,2.42,0,0,1,2336,3450l17.42,70a2.42,2.42,0,0,1-1.76,2.93A2.46,2.46,0,0,1,2350.28,3522.87Zm-28.31-2.58a2.41,2.41,0,0,0,1.74-2.93l-17.78-69.82a2.41,2.41,0,1,0-4.68,1.19l17.78,69.82a2.39,2.39,0,0,0,1.57,1.69A2.36,2.36,0,0,0,2322,3520.29Zm-32.8-2.45a2.42,2.42,0,0,0,1.77-2.92L2273.8,3445a2.41,2.41,0,1,0-4.68,1.16l17.14,69.91a2.36,2.36,0,0,0,1.57,1.71A2.43,2.43,0,0,0,2289.17,3517.84Z" transform="translate(-52 -256.58)"/><path class="cls-12" d="M2541,3648.83s-322-153.67-344.59-166.92c-14.62-8.6-17.2-24.48-17.22-34.6-12.89,2.49-22.37,6.36-26.38,12.13-22,31.68,10.95,49.86,10.95,49.86S2428.54,3645.15,2494.9,3676c61.69,28.65,82.87-6.64,85.55-11.76a5.65,5.65,0,0,0,.47-1.2l1.59-5.55C2563.32,3661.41,2541,3648.83,2541,3648.83Z" transform="translate(-52 -256.58)"/><path class="cls-5" d="M2641.1,3383.54a63.16,63.16,0,0,0-36.29-68.81l-51.12-23a63.22,63.22,0,0,0-83.19,30.84l-3.37,7.2c16.6,19.63,42.64,43,74.48,46.48,51.57,5.59,79.37,31.89,92.15,46.74C2636.53,3408.49,2639,3395.14,2641.1,3383.54Z" transform="translate(-52 -256.58)"/><path class="cls-15" d="M3276,2444.72a64.84,64.84,0,0,1-18.37,3.68c-60.33,2.78-397.76,21.77-566.62,105.16-185.87,91.79-284.54,559.9-284.54,559.9l-37.76,166.75a63.76,63.76,0,0,0,60.4,77.8c65.58,1.9,158.56,6.53,221.29,17.85,34.54,6.23,67.48-17.05,73.65-51.6,26.23-146.75,25.59-408.15,212.49-488.45,79.62-34.21,208.51,18.78,308.68,26.64,83.64,6.56,187.41,16.69,262.7-28.94,140.26-85,184.08-148.36,177-272.1a64.09,64.09,0,0,0-28-49.43C3598,2472,3443.87,2386.15,3276,2444.72Z" transform="translate(-52 -256.58)"/><path class="cls-13" d="M2590,3366.22a4.94,4.94,0,0,1-4.89-4.31c-.36-2.93-36-295.15,39.23-520.78,29-87.11,95.78-150.7,183.11-174.45,58.55-15.93,121-16.79,181.34-17.64,48.83-.67,99.33-1.38,147.32-10.07,117.62-21.32,210.65-62.48,276.54-122.32,32.82-29.83,51.65-59.35,55.93-87.74a5,5,0,0,1,5.62-4.14,4.94,4.94,0,0,1,4.14,5.62c-4.63,30.69-24.51,62.17-59.06,93.56-67.27,61.11-162,103.07-281.4,124.73-48.8,8.84-99.72,9.55-149,10.23-59.75.83-121.54,1.69-178.89,17.29-84.09,22.87-148.36,84.12-176.34,168.05-74.48,223.47-39.16,513.52-38.79,516.42a5,5,0,0,1-4.28,5.52Q2590.34,3366.22,2590,3366.22Z" transform="translate(-52 -256.58)"/></g></g><g id="Body_1" data-name="Body 1"><path class="cls-16" d="M2393.42,1801.08,2549,1645.46c11.65-11.65,3.4-31.58-13.08-31.58H2236.28c-16.14,0-24.53,19.22-13.57,31.07l144.05,155.61A18.51,18.51,0,0,0,2393.42,1801.08Z" transform="translate(-52 -256.58)"/><rect class="cls-16" x="2318.82" y="1505.32" width="30.6" height="318.2" rx="1.86"/><rect class="cls-3" x="2214.79" y="1812.8" width="238.65" height="36.72" rx="2.23"/><path class="cls-2" d="M2335.27,1796c40.25-7.47,112.12,16.29,137.26,22.64,48.92,12.37,106.31,28.29,133.56,74,.1.15,187.6,314.63,286.65,301,15.24-2.1,30.46,4.12,41.57,14.76l100.89,96.63c23.62,22.62,22,61.22-3.95,81.12-28.43,21.77-70.06,42.35-122.26,36.55-103.26-11.47-296-215.7-358-362.56,0,0-39-80.31-55.07-82.61s-169.81-6.88-185.87-101c-3.1-18.17-9.49-48.64.64-66.09C2315.34,1802.6,2324.08,1798.11,2335.27,1796Z" transform="translate(-52 -256.58)"/><path class="cls-17" d="M3257.79,1782.54c5.47,0,150.41-17.43,209.41-24.55a34.54,34.54,0,0,1,35.38,19.44c28.47,60.08,55.11,121.09,80.61,182.45,83.4,200.7,135.16,397.34,123,616.26-2.62,47.19,15.08,108.22-76.7,103.63-110.87-5.55-70.37-133.09-160.63-134.62-110.67-1.88-247.83-16.83-270.78-88-11-34.09-14.08-66.6-14.32-91.21-.09-8.9-11.84-12-16.33-4.36-13.86,23.66-34.4,49.53-58.84,52-45.89,4.59-284.54-211.11-257-247.82S3161.41,1782.54,3257.79,1782.54Z" transform="translate(-52 -256.58)"/><path class="cls-18" d="M3472,1717a13.08,13.08,0,0,1,17.55,7.78c5.63,17.11,12.05,43,2.3,49.73-14.91,10.33-206.52,16.07-213.4,9.18-3-3-5.12-8.79-6.56-14.4a13,13,0,0,1,10.9-16C3321.89,1748.12,3434.68,1732.34,3472,1717Z" transform="translate(-52 -256.58)"/><circle class="cls-19" cx="3239.06" cy="1511.05" r="6.88"/><path class="cls-19" d="M3115.52,2394.75a4.11,4.11,0,0,1-1.74-.38c-117.44-54.91-236.79-224.55-238-226.26a4.12,4.12,0,1,1,6.75-4.71c1.18,1.69,119.28,169.54,234.72,223.51a4.11,4.11,0,0,1-1.74,7.84Z" transform="translate(-52 -256.58)"/><path class="cls-18" d="M3183.8,2366c.24,24.61,3.33,57.12,14.32,91.21a68.82,68.82,0,0,0,3.33,8.19c123.72-154,52-382.35,7.63-488.35-4.2-10-19.11-6.51-18.4,4.34,8.12,124-15.43,319.82-21.72,368.84-.49,3.89,2.63,6.84,6.54,7.08A8.69,8.69,0,0,1,3183.8,2366Z" transform="translate(-52 -256.58)"/><path class="cls-5" d="M2403.22,1839.26c-60.49,0-89.62-20.62-90.87-21.52a4.11,4.11,0,0,1,4.82-6.66c.29.22,30.57,21.24,92.35,19.87a4.09,4.09,0,0,1,4.21,4,4.13,4.13,0,0,1-4,4.21C2407.51,1839.22,2405.34,1839.26,2403.22,1839.26Zm1.14,28.22a4.1,4.1,0,0,0,4-4.21,4,4,0,0,0-4.21-4c-61.66,1.27-89.65-19.57-89.92-19.79a4.11,4.11,0,0,0-5.07,6.48c1.16.91,28.28,21.6,88.75,21.6Q2401.07,1867.55,2404.36,1867.48Zm6.88,28.3a4.11,4.11,0,0,0,4-4.21c-.05-2.27-2-3.67-4.21-4-61.81,1.5-89.65-19.57-89.92-19.79a4.11,4.11,0,0,0-5.07,6.48c1.17.91,28.28,21.61,88.72,21.61Q2408,1895.86,2411.24,1895.78Zm6.88,32.89a4.11,4.11,0,0,0,4-4.21,4.16,4.16,0,0,0-4.2-4c-61.8,1.43-89.65-19.57-89.92-19.79a4.11,4.11,0,0,0-5.07,6.48c1.16.91,28.27,21.61,88.71,21.61Q2414.83,1928.75,2418.12,1928.67Z" transform="translate(-52 -256.58)"/><g class="cls-20"><path class="cls-18" d="M3673.21,2715.42a4.11,4.11,0,0,1-4.08-3.7c-77.46-759.6-222.61-959.44-224.06-961.37a4.11,4.11,0,1,1,6.55-5c1.47,1.93,147.91,202.74,225.69,965.5a4.1,4.1,0,0,1-3.67,4.5A3.11,3.11,0,0,1,3673.21,2715.42Zm-57.62,4.89a4.1,4.1,0,0,0,3.58-4.58c-93.88-775-227.36-966.78-228.69-968.63a4.11,4.11,0,0,0-6.67,4.82c1.33,1.84,133.68,192.88,227.2,964.81a4.11,4.11,0,0,0,4.08,3.61Zm-72-73.85a4.1,4.1,0,0,0,3.67-4.51c-56-552.32-203.85-881-205.33-884.3a4.12,4.12,0,0,0-7.49,3.42c.37.81,37.49,82.69,81.08,231.69,40.25,137.6,94.36,362.07,123.57,650a4.11,4.11,0,0,0,4.08,3.69Zm-74.47-63.72a4.11,4.11,0,0,0,3.87-4.34c-23.38-414.69-182.93-808.47-184.54-812.39a4.11,4.11,0,1,0-7.61,3.11c1.6,3.92,160.64,396.47,184,809.75a4.11,4.11,0,0,0,4.1,3.88ZM3405,2570.36c12.14-250.68-180.33-792.17-182.28-797.61a4.11,4.11,0,1,0-7.74,2.76c1.94,5.43,193.87,545.4,181.82,794.45a4.09,4.09,0,0,0,3.9,4.3h.2A4.1,4.1,0,0,0,3405,2570.36Zm-67.85-1.05a4.11,4.11,0,0,0,3.57-4.59c-69.67-560.6-175.4-744.92-176.46-746.72a4.11,4.11,0,0,0-7.08,4.18c1.05,1.78,105.93,184.63,175.38,743.55a4.13,4.13,0,0,0,4.08,3.61Zm-63.11-16.39a4.1,4.1,0,0,0,4-4.23c-9.1-312.26-159.41-682.16-160.93-685.85a4.11,4.11,0,1,0-7.61,3.12c1.52,3.68,151.27,372.22,160.32,683a4.11,4.11,0,0,0,4.11,4Zm-64.32-41a4.12,4.12,0,0,0,4.07-4.16c-3-240.93-148.78-590.55-150.24-594a4.11,4.11,0,0,0-7.59,3.18c1.47,3.5,146.59,351.65,149.6,591a4.12,4.12,0,0,0,4.11,4.06Zm-62.43-103.42a4.1,4.1,0,0,0,3.76-4.43c-15.2-182.57-143-424.27-144.27-426.7a4.12,4.12,0,0,0-7.26,3.88c1.29,2.4,128.29,242.64,143.34,423.49a4.1,4.1,0,0,0,4.08,3.78ZM3076.12,2421c6.1-127.59-111.64-375.53-116.66-386a4.11,4.11,0,0,0-7.42,3.55c1.22,2.55,121.87,256.57,115.87,382.1a4.1,4.1,0,0,0,3.91,4.29h.19A4.11,4.11,0,0,0,3076.12,2421Zm-69.76-48.6a4.11,4.11,0,0,0,4-4.24c-3.06-96.81-103.41-262.54-107.69-269.54a4.1,4.1,0,1,0-7,4.27c1,1.7,103.49,170.87,106.48,265.52a4.12,4.12,0,0,0,4.11,4Z" transform="translate(-52 -256.58)"/></g></g></g><g id="Element"><g id="window"><rect class="cls-21" x="700.49" width="2125.51" height="1071.52"/><rect class="cls-22" x="728.2" width="2125.51" height="1071.52"/><rect class="cls-23" x="777.97" y="50.24" width="2026.02" height="970.95"/><polygon class="cls-19" points="928.02 1021.24 1477.51 50.28 1734.97 50.28 1185.56 1021.24 928.02 1021.24"/><polygon class="cls-19" points="1271.99 1021.24 1821.48 50.28 2078.94 50.28 1529.53 1021.24 1271.99 1021.24"/><polygon class="cls-19" points="1987.71 1021.24 2537.12 50.28 2643.15 50.28 2093.74 1021.24 1987.71 1021.24"/><rect class="cls-21" x="2069.5" y="50.23" width="74.93" height="970.95"/><rect class="cls-21" x="1382.23" y="50.23" width="74.93" height="970.95"/><rect class="cls-22" x="2095.85" y="12.86" width="74.93" height="1040.26"/><rect class="cls-22" x="1408.57" y="12.86" width="74.93" height="1040.26"/><rect class="cls-21" x="2783.08" y="50.23" width="20.92" height="970.95"/></g><g id="Plant"><g id="_2-2" data-name="2"><path class="cls-10" d="M704.85,3342.62S595,2642.55,287,2617.27s-248.91,460.34,42.84,690.78C634,3548.3,746.72,3537.16,704.85,3342.62Z" transform="translate(-52 -256.58)"/><path class="cls-19" d="M686.21,3469.41a3.36,3.36,0,0,1-1.65-.85c-4.7-4.35-469.95-440.13-483.54-808a3.43,3.43,0,1,1,6.85-.25c13.5,365.08,476.68,798.91,481.36,803.25a3.43,3.43,0,0,1-3,5.87Z" transform="translate(-52 -256.58)"/><path class="cls-19" d="M524.87,3411.61c-13.24-2.7-25.1-7.34-33.44-14.87a3.43,3.43,0,1,1,4.59-5.09c29.62,26.68,112.57,13.22,126.11,10.8,5-13.52,35.43-100.92,21.72-167.47a3.43,3.43,0,0,1,6.72-1.38c15.24,74-21.15,169.1-22.71,173.12l-.68,1.75-1.85.37C622.27,3409.44,566.64,3420.16,524.87,3411.61Zm99.79-6.14.07,0Z" transform="translate(-52 -256.58)"/><path class="cls-19" d="M436,3308.87l-3.33-.69c-79-16.64-126.79-43.27-142.17-79.16a3.43,3.43,0,0,1,6.31-2.71c33.38,78,231.67,88.51,248.34,89.24,35.64-25.65,34.55-219.88,31.08-293.15a3.43,3.43,0,1,1,6.85-.33c.53,11,12.22,269.85-35.11,299.86l-.89.56-1.06,0A753.56,753.56,0,0,1,436,3308.87ZM546.18,3319h0Z" transform="translate(-52 -256.58)"/><path class="cls-19" d="M389.88,3196.29C325,3183,227.41,3155.62,191.49,3106.45a3.43,3.43,0,1,1,5.54-4c51,69.88,239.87,95.45,254.18,97.28,30.12-12.27,48.68-81.3,53.67-199.8,3.85-91.23-1.91-180.05-2-180.93a3.43,3.43,0,1,1,6.85-.45c1,14.61,22.75,358.18-56.92,387.9l-.78.3-.83-.1C448.38,3206.25,423.53,3203.17,389.88,3196.29Zm61.76,6.9.07,0Z" transform="translate(-52 -256.58)"/><path class="cls-19" d="M296,3081.6q-5.64-1.16-11.4-2.48c-64.87-14.88-109.78-38.79-133.49-71.09a3.43,3.43,0,1,1,5.53-4.06c52.43,71.4,205.32,80.37,217.59,81,43.83-20.44,41.67-252.61,37.1-340.81a3.43,3.43,0,0,1,6.86-.35c.68,13.21,16.08,323.79-42,347.78l-1.43.27A544.77,544.77,0,0,1,296,3081.6Zm78.87,6.8h0Z" transform="translate(-52 -256.58)"/><path class="cls-19" d="M226.79,2912c-44.28-9.06-106.54-29.61-121.34-74.72a3.43,3.43,0,1,1,6.52-2.14c20.86,63.6,150.12,75.77,160.61,76.64,69.91-24,37.34-249.25,37-251.53a3.43,3.43,0,0,1,6.79-1c1.42,9.57,33.91,234.6-42.31,259.28l-1.3.16A386,386,0,0,1,226.79,2912Zm46.21,3.26h0Z" transform="translate(-52 -256.58)"/></g><g id="_1-2" data-name="1"><path class="cls-24" d="M576.07,3527.52c-8.26-.16-21.35,7-30.14,8.94a162.65,162.65,0,0,1-38.7,4.31c-25.21-.55-40.94-15.62-64-20.45-36.47-7.64-74.75,24.56-47.64,59.73,34.16,44.34,134.14,63.42,172.19,5.74S576.09,3527.52,576.07,3527.52Z" transform="translate(-52 -256.58)"/><path class="cls-24" d="M612.89,3446.17s-67.81-7-94.76-94.92,20.35-140.37,82.81-46S612.89,3446.17,612.89,3446.17Z" transform="translate(-52 -256.58)"/><path class="cls-24" d="M287.9,3001.27c27.37,68.63-31.56,156.61-31.56,156.61s-103.29-23.3-130.66-91.94-13.23-138.76,31.56-156.62S260.54,2932.63,287.9,3001.27Z" transform="translate(-52 -256.58)"/><path class="cls-24" d="M422.3,3124.84c-17.55,51.79-90.39,73.91-90.39,73.91s-44.38-61.85-26.83-113.64,58-84.89,90.4-73.91S439.85,3073.05,422.3,3124.84Z" transform="translate(-52 -256.58)"/><path class="cls-24" d="M107.87,3231.74c69,42.68,116.74,2.26,116.74,2.26s-3.32-76.05-49.12-105.93-98.07-30.89-116.74-2.26S61.35,3203,107.87,3231.74Z" transform="translate(-52 -256.58)"/><path class="cls-25" d="M757.47,3514.69a6.48,6.48,0,0,1-1.15.48c-3.5,1-86.86,24.83-200.07-28.1-66.1-30.9-128.6-81.79-185.77-151.26-71.18-86.47-134.28-202.2-187.58-344a6.06,6.06,0,0,1,11.35-4.26c65.78,175,182.72,401.71,366.21,488.08,109.24,51.42,191.59,28.13,192.41,27.89a6.06,6.06,0,0,1,4.6,11.14Z" transform="translate(-52 -256.58)"/><path class="cls-25" d="M540.71,3560.23c-29.18,15.74-64.09,22.84-99.33,2.67a4,4,0,0,1,4-7c78.25,44.8,156.63-57.89,162.73-66.11,2-6.93,20.42-80.82-62.43-185.91a4,4,0,0,1,6.35-5c89.61,113.67,64.67,190.82,63.56,194l-.53,1C614.56,3494.66,583.92,3536.91,540.71,3560.23Zm71.07-68.63,0,0Z" transform="translate(-52 -256.58)"/><path class="cls-24" d="M306.85,3464.8c75.6,11.59,102.77-44.4,102.77-44.4s-30.16-68.3-80.88-77.42S232,3353.75,226,3387.39,255.91,3457,306.85,3464.8Z" transform="translate(-52 -256.58)"/><path class="cls-24" d="M505.22,3265c7.51,54.16-47.7,106.57-47.7,106.57s-67.38-35.41-74.89-89.57,13.84-101.89,47.7-106.58S497.71,3210.82,505.22,3265Z" transform="translate(-52 -256.58)"/><path class="cls-25" d="M419.55,3419.06c-18.72,10.1-46.88,21.31-73.86,16.66-19.12-3.3-34.77-14.13-46.48-32.18a4,4,0,0,1,1.19-5.59,4.09,4.09,0,0,1,5.59,1.19c10.43,16.07,24.25,25.7,41.05,28.61,39.22,6.78,83.43-24.49,88.8-28.42,4.92-7.73,57.86-94.88,3.84-181.84a4,4,0,1,1,6.86-4.26c59.12,95.15-3.72,190.22-4.36,191.17l-.37.55-.52.4A176.59,176.59,0,0,1,419.55,3419.06Zm19.28-16.92,0,0Z" transform="translate(-52 -256.58)"/><path class="cls-25" d="M303.45,3229.61l-.83.16a366.11,366.11,0,0,1-78.87,5.27c-55.07-2.71-90.9-20.92-103.6-52.64a4,4,0,1,1,7.5-3c26.83,67,160.51,44.77,172.57,42.61,7.41-5.49,73.2-57,63.09-145.07a4,4,0,0,1,8-.92c11.22,97.79-66.41,152.58-67.19,153.12Z" transform="translate(-52 -256.58)"/></g></g><g id="Mobile"><path class="cls-4" d="M1883.05,3648.13H716.63c-51.06,0-95-34.68-104.71-82.71L139.06,965.73c-14.45-79.41,49.34-152.09,133.46-152.09H1338.1c74.14,0,138.06,49.92,153,119.49l545,2535.1C2056,3561.1,1982,3648.13,1883.05,3648.13Z" transform="translate(-52 -256.58)"/><path class="cls-3" d="M304.09,862.37H1337.85c44.5,0,82.91,29.9,92,71.64l554.89,2542.55c12.13,55.56-31.76,107.89-91,108.5L756.87,3596.81c-46.23.48-86-31.33-93.69-75L211.41,967.49C201.69,912.52,245.9,862.37,304.09,862.37Z" transform="translate(-52 -256.58)"/><path class="cls-22" d="M1861.07,3555.77l-1073,5.16c-45.91.16-85.22-31.29-92.86-74.46L251.38,995.86c-9.78-54.55,34.33-104.43,92.34-104.43H597.39c10.74,0,20.31,6.5,23.82,16.18L626,920.75c3.52,9.83,13.21,16.38,24.11,16.3l401.63-2.7c32.41.9,18.21-20.56,19.64-33.2a11.19,11.19,0,0,1,11.3-9.73q88.46,0,176.92,0h46.85c44.2,0,82.47,29.57,91.66,70.85L1952.3,3447.65C1964.66,3503.18,1920.46,3555.44,1861.07,3555.77Z" transform="translate(-52 -256.58)"/><path class="cls-7" d="M1546.83,3303.16H983.19a95.42,95.42,0,0,1-94.06-79.38l-8.55-50.08a95.43,95.43,0,0,1,94.07-111.48h563.63a95.43,95.43,0,0,1,94.07,79.37l8.55,50.09A95.44,95.44,0,0,1,1546.83,3303.16Z" transform="translate(-52 -256.58)"/><path class="cls-26" d="M1120.16,3224.82q-11.73,12.07-33.91,12.07t-33.9-12.07q-15.74-14.82-15.72-42.68,0-28.42,15.72-42.68,11.72-12.06,33.9-12.07t33.91,12.07q15.64,14.25,15.65,42.68Q1135.81,3210,1120.16,3224.82Zm-13.52-15.72q7.54-9.48,7.55-27t-7.55-26.91q-7.55-9.53-20.39-9.52t-20.5,9.48q-7.63,9.46-7.64,26.95t7.64,27q7.66,9.46,20.5,9.47T1106.64,3209.1Z" transform="translate(-52 -256.58)"/><path class="cls-26" d="M1218.61,3133.22a25.43,25.43,0,0,1,9.69,7.23,32.25,32.25,0,0,1,5.2,8.7,29,29,0,0,1,1.91,10.88,31.14,31.14,0,0,1-3.71,14.5q-3.72,7.13-12.29,10.07,7.15,2.88,10.15,8.17t3,16.18v7a52.38,52.38,0,0,0,.57,9.61,8.65,8.65,0,0,0,4,5.9v2.6h-23.86c-.66-2.29-1.13-4.15-1.41-5.55a50.42,50.42,0,0,1-.91-8.92l-.14-9.61q-.13-9.9-3.42-13.2t-12.32-3.3h-21.11V3234H1152.8V3130.55h49.49Q1212.9,3130.76,1218.61,3133.22Zm-44.68,15.3v27.79h23.26c4.62,0,8.09-.55,10.4-1.68q6.14-2.94,6.14-11.65,0-9.41-5.94-12.64-3.33-1.82-10-1.82Z" transform="translate(-52 -256.58)"/><path class="cls-26" d="M1316.75,3132.8a34.2,34.2,0,0,1,17.63,13.12,46.13,46.13,0,0,1,7.37,16.71,79.61,79.61,0,0,1,2,17.13q0,20.63-8.28,34.95-11.25,19.3-34.71,19.31h-44.61V3130.55h44.61A54.46,54.46,0,0,1,1316.75,3132.8Zm-39.64,15.72V3216h20q15.32,0,21.37-15.08a53.3,53.3,0,0,0,3.3-19.73q0-15.8-5-24.25t-19.72-8.46Z" transform="translate(-52 -256.58)"/><path class="cls-26" d="M1436.45,3148.87H1381.7v22H1432v18H1381.7v26.6H1439V3234h-78.41V3130.55h75.88Z" transform="translate(-52 -256.58)"/><path class="cls-26" d="M1522.13,3133.22a25.43,25.43,0,0,1,9.69,7.23,32.25,32.25,0,0,1,5.2,8.7,29,29,0,0,1,1.91,10.88,31.14,31.14,0,0,1-3.71,14.5q-3.73,7.13-12.29,10.07,7.15,2.88,10.15,8.17t3,16.18v7a52.38,52.38,0,0,0,.57,9.61,8.65,8.65,0,0,0,4,5.9v2.6h-23.86c-.66-2.29-1.13-4.15-1.41-5.55a50.42,50.42,0,0,1-.91-8.92l-.14-9.61q-.13-9.9-3.42-13.2t-12.32-3.3h-21.12V3234h-21.12V3130.55h49.49Q1516.42,3130.76,1522.13,3133.22Zm-44.69,15.3v27.79h23.27c4.62,0,8.09-.55,10.4-1.68q6.14-2.94,6.14-11.65,0-9.41-5.94-12.64-3.33-1.82-10-1.82Z" transform="translate(-52 -256.58)"/><path class="cls-23" d="M1699.79,2982.22H770.44a8.22,8.22,0,0,1,0-16.44h929.35a8.22,8.22,0,1,1,0,16.44Zm-30.6-174.39H739.84a8.23,8.23,0,0,1,0-16.45h929.35a8.23,8.23,0,0,1,0,16.45Zm-30.59-174.41H709.25a8.22,8.22,0,0,1,0-16.44H1638.6a8.22,8.22,0,1,1,0,16.44Z" transform="translate(-52 -256.58)"/><path class="cls-23" d="M551.88,1244.88l712.62-12.65c36.86-.65,69.49,27.69,79.18,68.77l189.74,804.28c13.57,57.51-22.64,114.37-74.19,116.55l-754.58,31.78c-39.32,1.65-74-29.79-82-74.29L474.83,1355.91C464.63,1299.07,501.62,1245.77,551.88,1244.88Z" transform="translate(-52 -256.58)"/></g><g id="Flower"><ellipse class="cls-27" cx="1210.99" cy="1794.97" rx="44.2" ry="10.08" transform="translate(-654.59 355.46) rotate(-22.88)"/><ellipse class="cls-27" cx="1096.73" cy="1763.21" rx="62.71" ry="11.03" transform="translate(-780.54 2496.65) rotate(-86.59)"/><path class="cls-27" d="M1219,2044.21h-.32a4.92,4.92,0,0,1-4.61-5.23c.06-.91,6.09-92.22,34.55-181.86,38.15-120.17,99.25-182.9,176.42-181.24a4.93,4.93,0,0,1-.1,9.86h-.11l-2.72,0c-173.79,0-198,350.33-198.19,353.88A4.94,4.94,0,0,1,1219,2044.21Z" transform="translate(-52 -256.58)"/><path class="cls-27" d="M1146.57,2067.1a4.93,4.93,0,0,1-4.92-4.62c-.23-3.56-24.44-353.9-198.2-353.9-.91,0-1.8,0-2.71,0h-.11a4.93,4.93,0,0,1-.1-9.86c77.43-1.82,138.26,61.06,176.42,181.25,28.46,89.64,34.49,180.95,34.54,181.85a4.92,4.92,0,0,1-4.61,5.24Z" transform="translate(-52 -256.58)"/><circle class="cls-28" cx="863.21" cy="1439.48" r="73.73"/><path class="cls-7" d="M915.21,1717.66a77.23,77.23,0,0,0,18.12,49.79,73.64,73.64,0,0,0,34.39-123.12A77.51,77.51,0,0,0,915.21,1717.66Z" transform="translate(-52 -256.58)"/><path class="cls-22" d="M942.41,1714.22a3.4,3.4,0,0,0,1.14-4.69c-23.94-39.35-70.94-33.61-101.13-24.67a73.14,73.14,0,0,0-.75,7.32c28.14-8.86,73.68-15.84,96.05,20.9a3.41,3.41,0,0,0,4.69,1.14Z" transform="translate(-52 -256.58)"/><path class="cls-22" d="M864.54,1642.58a75.52,75.52,0,0,0-7.76,8.62c28-7,66.16-8.87,86,23.75a3.41,3.41,0,1,0,5.83-3.55C928.85,1638.88,893.32,1637.16,864.54,1642.58Z" transform="translate(-52 -256.58)"/><path class="cls-7" d="M915.21,1717.66a77.23,77.23,0,0,0,18.12,49.79,73.64,73.64,0,0,0,34.39-123.12A77.51,77.51,0,0,0,915.21,1717.66Z" transform="translate(-52 -256.58)"/><path class="cls-27" d="M1177.08,2036.58a4.94,4.94,0,0,1-4.91-4.43c-1.25-12.36-29.9-304.2,34.8-437.41a4.93,4.93,0,0,1,8.87,4.31c-63.48,130.71-34.15,429.11-33.85,432.11a4.93,4.93,0,0,1-4.41,5.4A4.26,4.26,0,0,1,1177.08,2036.58Z" transform="translate(-52 -256.58)"/><circle class="cls-28" cx="1166.4" cy="1288.84" r="73.73"/><path class="cls-7" d="M1196.79,1545.35a77.22,77.22,0,0,0-49.83,18,73.63,73.63,0,0,0,123,34.7A77.52,77.52,0,0,0,1196.79,1545.35Z" transform="translate(-52 -256.58)"/><path class="cls-22" d="M1200.15,1572.57a3.43,3.43,0,0,0,4.7,1.15c39.41-23.84,33.79-70.86,24.93-101.07a70.4,70.4,0,0,0-7.31-.76c8.78,28.15,15.64,73.72-21.16,96a3.4,3.4,0,0,0-1.65,2.91A3.49,3.49,0,0,0,1200.15,1572.57Z" transform="translate(-52 -256.58)"/><path class="cls-22" d="M1272,1494.88a73.75,73.75,0,0,0-8.6-7.78c6.95,28,8.7,66.18-24,86a3.43,3.43,0,0,0-1.65,2.91,3.42,3.42,0,0,0,5.19,2.93C1275.53,1559.2,1277.35,1523.68,1272,1494.88Z" transform="translate(-52 -256.58)"/><path class="cls-7" d="M1196.79,1545.35a77.22,77.22,0,0,0-49.83,18,73.63,73.63,0,0,0,123,34.7A77.52,77.52,0,0,0,1196.79,1545.35Z" transform="translate(-52 -256.58)"/><circle class="cls-28" cx="1416.19" cy="1426.13" r="73.73"/><path class="cls-7" d="M1463.57,1703.82a77.26,77.26,0,0,1-28.35,44.75,73.64,73.64,0,0,1-7.25-127.63A77.52,77.52,0,0,1,1463.57,1703.82Z" transform="translate(-52 -256.58)"/><path class="cls-22" d="M1437.73,1694.64a3.42,3.42,0,0,1-.11-4.83c31.81-33.32,76.5-17.66,104.08-2.46-.16,2.42-.44,4.86-.84,7.3-25.59-14.67-68.59-31.23-98.3-.13a3.39,3.39,0,0,1-3.2,1A3.49,3.49,0,0,1,1437.73,1694.64Z" transform="translate(-52 -256.58)"/><path class="cls-22" d="M1529.13,1641.31a73.7,73.7,0,0,1,5.73,10.08c-25.84-12.85-62.72-22.82-89.11,4.79a3.41,3.41,0,1,1-4.93-4.71C1467.1,1623.94,1502.17,1629.86,1529.13,1641.31Z" transform="translate(-52 -256.58)"/><path class="cls-7" d="M1463.57,1703.82a77.26,77.26,0,0,1-28.35,44.75,73.64,73.64,0,0,1-7.25-127.63A77.52,77.52,0,0,1,1463.57,1703.82Z" transform="translate(-52 -256.58)"/><ellipse class="cls-27" cx="1313.85" cy="1898.4" rx="100.33" ry="22.88" transform="translate(-881.01 782.6) rotate(-33.46)"/><ellipse class="cls-27" cx="1220.45" cy="1809.84" rx="14.59" ry="63.96" transform="translate(-774.25 557.81) rotate(-28.88)"/><ellipse class="cls-27" cx="1349.48" cy="1762.8" rx="63.96" ry="14.59" transform="translate(-407.85 84.81) rotate(-12.75)"/><ellipse class="cls-27" cx="1228.35" cy="1890.69" rx="56.35" ry="12.85" transform="translate(-690.44 369.74) rotate(-22.88)"/><ellipse class="cls-27" cx="1149.26" cy="1870.22" rx="14.59" ry="63.96" transform="translate(-516.26 125.33) rotate(-15.74)"/><ellipse class="cls-27" cx="1079.98" cy="1891.83" rx="14.59" ry="63.96" transform="translate(-1073.41 1061.19) rotate(-45)"/><ellipse class="cls-27" cx="1021.39" cy="1784.43" rx="13.79" ry="49.15" transform="translate(-906.73 2369.04) rotate(-84.36)"/><ellipse class="cls-27" cx="1141.94" cy="1666.72" rx="18.96" ry="86.08" transform="translate(-589.18 286.52) rotate(-21.79)"/><path class="cls-27" d="M1120.58,2176.67a4,4,0,0,1-.6,0,4.93,4.93,0,0,1-4.31-5.48c1.48-12.34,37.34-303.38,129.61-419.22a4.93,4.93,0,1,1,7.71,6.15c-90.52,113.64-127.16,411.25-127.52,414.24A4.93,4.93,0,0,1,1120.58,2176.67Z" transform="translate(-52 -256.58)"/><circle class="cls-28" cx="1215.21" cy="1449.73" r="73.73"/><path class="cls-7" d="M1246.14,1701.52a77.28,77.28,0,0,0-52.56,6.66A73.63,73.63,0,0,0,1306,1769,77.53,77.53,0,0,0,1246.14,1701.52Z" transform="translate(-52 -256.58)"/><path class="cls-22" d="M1243.47,1728.81a3.42,3.42,0,0,0,4.33,2.15c43.67-14.64,48.47-61.75,46.43-93.17a72.14,72.14,0,0,0-7-2.34c2.41,29.39-.86,75.36-41.63,89a3.43,3.43,0,0,0-2.25,2.48A3.5,3.5,0,0,0,1243.47,1728.81Z" transform="translate(-52 -256.58)"/><path class="cls-22" d="M1330.57,1668.72a74.53,74.53,0,0,0-6.69-9.47c.65,28.86-6,66.48-42.19,78.64a3.4,3.4,0,0,0-2.24,2.48,3.31,3.31,0,0,0,.09,1.84,3.42,3.42,0,0,0,4.33,2.15C1320,1732.26,1329.49,1698,1330.57,1668.72Z" transform="translate(-52 -256.58)"/><path class="cls-7" d="M1246.14,1701.52a77.28,77.28,0,0,0-52.56,6.66A73.63,73.63,0,0,0,1306,1769,77.53,77.53,0,0,0,1246.14,1701.52Z" transform="translate(-52 -256.58)"/><rect class="cls-7" x="999.23" y="1736.94" width="230.27" height="411.88" rx="6.63"/><path class="cls-29" d="M1236.19,1993.52H1096.54a45.32,45.32,0,0,0-45.31,45.31v23c31.49-10.26,119.83-30,160.18,53.78,23.26,48.31,48.19,70.59,70.09,73.55V2038.83A45.32,45.32,0,0,0,1236.19,1993.52Z" transform="translate(-52 -256.58)"/><rect class="cls-7" x="999.23" y="1736.94" width="230.27" height="411.88" rx="6.63"/><path class="cls-29" d="M1236.19,1993.52H1096.54a45.32,45.32,0,0,0-45.31,45.31v23c31.49-10.26,119.83-30,160.18,53.78,23.26,48.31,48.19,70.59,70.09,73.55V2038.83A45.32,45.32,0,0,0,1236.19,1993.52Z" transform="translate(-52 -256.58)"/><g class="cls-30"><g class="cls-31"><path class="cls-28" d="M1018.81,2318a4.1,4.1,0,0,1-1.52-7.91c.94-.37,58.26-23.56,108.27-59.31-20.14-19.5-25-44.21-25.75-60.75-1.87-43.73,23.12-92.52,52.43-102.37,14.92-5,29,.68,39.65,16.06,15,21.61,19,44.4,11.95,67.73-9,30-35.08,57.21-64.84,79.85,9.37,7,21.49,12.86,37.14,16.66,134.23,32.65,158.45,18,158.69,17.85a4,4,0,0,1,5.68.64,4.17,4.17,0,0,1-.66,5.83c-2.3,1.9-26.57,17.49-165.64-16.35-18-4.38-31.71-11.27-42.15-19.48-50.22,36.4-107.8,59.69-111.72,61.26A4.11,4.11,0,0,1,1018.81,2318ZM1162.74,2094a24.52,24.52,0,0,0-7.88,1.36c-23.2,7.8-48.72,50.66-46.85,94.25.65,15.27,5.25,38.21,24.38,56.1,29.34-22,55-48.29,63.61-76.71,6.27-20.81,2.62-41.23-10.85-60.68C1178.55,2098.83,1171,2094,1162.74,2094Zm-52.39,335.71c.84-2.17,84-214.86,193.93-214.86,1.38,0,2.78,0,4.18.1a4.09,4.09,0,1,0,.4-8.18c-49.69-2.42-99.7,34-148.32,108.39-35.82,54.79-57.62,111.05-57.84,111.61a4.11,4.11,0,0,0,2.35,5.3,4.29,4.29,0,0,0,1.48.27A4.09,4.09,0,0,0,1110.35,2429.75Zm183.65-9.66a4.11,4.11,0,0,0,.74-5.76c-103.58-134.25-269.88-78.22-271.56-77.63a4.1,4.1,0,0,0,2.7,7.74c1.61-.56,162.45-54.6,262.37,74.91a4.11,4.11,0,0,0,5.75.74Zm-287.11-285.43c1.57-.58,157.25-59.69,147.58-181.51a4.1,4.1,0,1,0-8.17.65c9.18,115.62-140.74,172.61-142.26,173.17a4.1,4.1,0,0,0,1.43,7.94A4.17,4.17,0,0,0,1006.89,2134.66Zm294.29,6.72a4.1,4.1,0,0,0-2.94-5c-106-27.42-100-171.71-99.9-173.16a4.1,4.1,0,0,0-3.89-4.3,4.4,4.4,0,0,0-4.31,3.88c-.07,1.52-6.49,152.41,106,181.52a4,4,0,0,0,1,.13A4.11,4.11,0,0,0,1301.18,2141.38Z" transform="translate(-52 -256.58)"/></g></g></g><g id="Food"><path class="cls-10" d="M1452.63,2318.74s-49-82.61,73.43-217.24c159.67-175.63,547.55-115.42,643.08,103.47,15.09,34.58,15.48,60.23,8.61,95.41,0,0-12.24,62.72-99.43,74.19C2003.2,2384.46,1526.83,2437.3,1452.63,2318.74Z" transform="translate(-52 -256.58)"/><path class="cls-32" d="M1740.44,2289.38c7.75-60,48.76-193.17,261.69-156.64a13.59,13.59,0,0,0,9.37-1.76l89.31-54.8a13.56,13.56,0,0,0,6.4-12.67c-1.22-15.34-1-46.91,21.59-46.91,24.86,0,29,30.28,28.36,49.67a13.61,13.61,0,0,0,9,13.09c13.29,4.93,34.25,15.87,24.57,33.62-10.33,18.93-51.63,22.37-71.64,22.91a13.5,13.5,0,0,0-13,10.85c-7.12,36.06-33.87,152.28-89.79,193.41-43.54,32-101.87,37.54-153.91,29.59C1823.17,2363.74,1733.39,2343.89,1740.44,2289.38Z" transform="translate(-52 -256.58)"/><path class="cls-33" d="M1298.79,2016.27H2331.62a2.18,2.18,0,0,1,2.18,2.18v115.87a13.51,13.51,0,0,1-13.51,13.51H1310.42a13.82,13.82,0,0,1-13.82-13.82V2018.45a2.18,2.18,0,0,1,2.18-2.18Z"/></g><g id="Table"><rect class="cls-34" x="420.54" y="2143.24" width="2656.75" height="73.43" rx="4.47"/></g></g><g id="Chair"><path class="cls-4" d="M3023.73,3712a16.45,16.45,0,0,1-5.21-32.06l43.9-14.63,4.52-763.82a16.45,16.45,0,1,1,32.89.19l-4.59,775.61a16.43,16.43,0,0,1-11.24,15.5l-55.07,18.36A16.32,16.32,0,0,1,3023.73,3712Z" transform="translate(-52 -256.58)"/><path class="cls-4" d="M3170.6,3574.31a16.44,16.44,0,0,1-7.35-31.16l36.9-18.4v-623.4a16.45,16.45,0,1,1,32.89,0v633.57a16.44,16.44,0,0,1-9.1,14.72l-46,22.94A16.32,16.32,0,0,1,3170.6,3574.31Z" transform="translate(-52 -256.58)"/><path class="cls-4" d="M3478.08,3712a16.45,16.45,0,0,1-5.21-32.06l43.9-14.63,4.52-763.82a16.45,16.45,0,0,1,16.45-16.35h.1a16.44,16.44,0,0,1,16.34,16.54l-4.59,775.61a16.43,16.43,0,0,1-11.24,15.5l-55.07,18.36A16.32,16.32,0,0,1,3478.08,3712Z" transform="translate(-52 -256.58)"/><path class="cls-4" d="M3625,3574.31a16.44,16.44,0,0,1-7.35-31.16l36.89-18.4v-623.4a16.45,16.45,0,1,1,32.9,0v633.57a16.45,16.45,0,0,1-9.11,14.72l-46,22.94A16.32,16.32,0,0,1,3625,3574.31Z" transform="translate(-52 -256.58)"/><rect class="cls-4" x="2997.35" y="2645.11" width="649.87" height="54.98" rx="3.34"/><path class="cls-28" d="M3726.2,2906.18h0c20.77,0,38.27-16.12,40.72-37.53l154.69-1348.3c2.91-25.32-16.15-47.59-40.73-47.59h0c-20.77,0-38.27,16.12-40.72,37.53l-154.69,1348.3C3682.56,2883.91,3701.62,2906.18,3726.2,2906.18Z" transform="translate(-52 -256.58)"/><rect class="cls-34" x="2927.92" y="2550.35" width="791.87" height="111.49" rx="6.78"/></g></svg>