<svg id="Smooth" xmlns="http://www.w3.org/2000/svg" xmlns:xlink="http://www.w3.org/1999/xlink" viewBox="0 0 128 128"><defs><linearGradient id="linear-gradient" x1="72.747" y1="38.97" x2="62.372" y2="50.657" gradientUnits="userSpaceOnUse"><stop offset="0" stop-color="#ffd3bd"/><stop offset="1" stop-color="#fff"/></linearGradient><linearGradient id="linear-gradient-2" x1="64" y1="76.75" x2="64" y2="114.96" gradientUnits="userSpaceOnUse"><stop offset="0" stop-color="#ffd177"/><stop offset="1" stop-color="#ed7c38"/></linearGradient><linearGradient id="linear-gradient-3" x1="86.77" y1="76.75" x2="86.77" y2="114.96" xlink:href="#linear-gradient-2"/><linearGradient id="linear-gradient-4" x1="106.123" y1="76.75" x2="106.123" y2="114.96" xlink:href="#linear-gradient-2"/><linearGradient id="linear-gradient-5" x1="41.23" y1="76.75" x2="41.23" y2="114.96" xlink:href="#linear-gradient-2"/><linearGradient id="linear-gradient-6" x1="21.877" y1="76.75" x2="21.877" y2="114.96" xlink:href="#linear-gradient-2"/><linearGradient id="linear-gradient-7" x1="88.924" y1="21.293" x2="63.049" y2="54.793" xlink:href="#linear-gradient"/><linearGradient id="linear-gradient-8" x1="80.565" y1="30.763" x2="41.815" y2="70.763" gradientTransform="translate(-24.243 55.655) rotate(-45)" gradientUnits="userSpaceOnUse"><stop offset="0" stop-color="#315b42"/><stop offset="0.177" stop-color="#3c6b55"/><stop offset="0.537" stop-color="#589586"/><stop offset="1" stop-color="#81d1ce"/></linearGradient><linearGradient id="linear-gradient-9" x1="55.625" y1="38.704" x2="66.937" y2="51.579" xlink:href="#linear-gradient"/><linearGradient id="linear-gradient-10" x1="33.552" y1="16.084" x2="61.302" y2="45.709" xlink:href="#linear-gradient"/><linearGradient id="linear-gradient-11" x1="38.935" y1="22.399" x2="85.935" y2="69.399" gradientTransform="translate(61.661 -35.227) rotate(45)" gradientUnits="userSpaceOnUse"><stop offset="0" stop-color="#315b42"/><stop offset="0.004" stop-color="#325c43"/><stop offset="0.163" stop-color="#4a806d"/><stop offset="0.326" stop-color="#5e9d90"/><stop offset="0.489" stop-color="#6db4ab"/><stop offset="0.655" stop-color="#78c4bf"/><stop offset="0.824" stop-color="#7fceca"/><stop offset="1" stop-color="#81d1ce"/></linearGradient></defs><title>food, restaurant, cooking, meal, feedback, stars, rating</title><path d="M66.411,47.2a1.5,1.5,0,0,1-1.06-2.561l6.395-6.4a1.5,1.5,0,0,1,2.121,2.121l-6.4,6.4A1.5,1.5,0,0,1,66.411,47.2Z" style="fill:url(#linear-gradient)"/><path d="M69.854,96.1l-2.01-.292a.155.155,0,0,1-.116-.086l-.9-1.82a3.155,3.155,0,0,0-5.658,0l-.9,1.82a.155.155,0,0,1-.117.086l-2.009.292a3.155,3.155,0,0,0-1.749,5.382l1.454,1.415a.16.16,0,0,1,.045.139l-.343,2a3.151,3.151,0,0,0,4.578,3.327l1.8-.944a.155.155,0,0,1,.145,0l1.8.945a3.155,3.155,0,0,0,4.578-3.326l-.343-2a.154.154,0,0,1,.044-.135l1.455-1.418A3.155,3.155,0,0,0,69.854,96.1Z" style="fill:url(#linear-gradient-2)"/><path d="M90.358,92.247l-.936-.136L89,91.262a2.49,2.49,0,0,0-4.467,0h0l-.418.849-.937.136A2.49,2.49,0,0,0,81.8,96.5l.679.661-.161.934a2.492,2.492,0,0,0,3.615,2.625l.838-.441.837.441a2.492,2.492,0,0,0,3.615-2.625l-.16-.934.677-.661a2.49,2.49,0,0,0-1.381-4.248Z" style="fill:url(#linear-gradient-3)"/><path d="M111.724,87.941a2.477,2.477,0,0,0-2.012-1.694l-.937-.136-.42-.849a2.489,2.489,0,0,0-4.465,0l-.42.85-.937.136a2.491,2.491,0,0,0-1.381,4.248l.679.662-.16.931a2.491,2.491,0,0,0,3.614,2.627l.838-.441.838.441a2.491,2.491,0,0,0,3.614-2.626l-.161-.933.679-.661A2.479,2.479,0,0,0,111.724,87.941Z" style="fill:url(#linear-gradient-4)"/><path d="M44.819,92.247l-.936-.136-.418-.849h0a2.491,2.491,0,0,0-4.468,0l-.418.849-.937.136A2.49,2.49,0,0,0,36.26,96.5l.678.661-.16.934a2.492,2.492,0,0,0,3.615,2.625l.837-.441.838.441a2.492,2.492,0,0,0,3.615-2.625l-.161-.934L46.2,96.5a2.49,2.49,0,0,0-1.381-4.248Z" style="fill:url(#linear-gradient-5)"/><path d="M25.466,86.247l-.936-.136-.42-.85a2.489,2.489,0,0,0-4.465,0l-.42.85-.938.136a2.49,2.49,0,0,0-1.38,4.248l.679.661-.161.934a2.491,2.491,0,0,0,3.614,2.625l.838-.441.839.442a2.491,2.491,0,0,0,3.613-2.626l-.16-.933.679-.662a2.49,2.49,0,0,0-1.382-4.248Z" style="fill:url(#linear-gradient-6)"/><path d="M93.793,26.384a2.206,2.206,0,0,0-2.815.312l-5.136,5.137a.905.905,0,0,1-1.28-1.281L89.81,25.3a2.122,2.122,0,0,0-3-3l-5.249,5.249a.905.905,0,0,1-1.28-1.28l5.136-5.136a2.206,2.206,0,0,0,.312-2.816,2.128,2.128,0,0,0-3.24-.273L71.132,29.4c-3.081,3.081-2.414,7.966.6,10.979h0c3.012,3.012,7.9,3.679,10.979.6L94.067,29.624A2.129,2.129,0,0,0,93.793,26.384Z" style="fill:url(#linear-gradient-7)"/><rect x="50.571" y="39.486" width="8.977" height="35.212" rx="4.488" ry="4.488" transform="translate(56.496 -22.211) rotate(45)" style="fill:url(#linear-gradient-8)"/><path d="M61.739,46.74a1.493,1.493,0,0,1-1.06-.439l-6.125-6.125a1.5,1.5,0,1,1,2.121-2.121L62.8,44.18a1.5,1.5,0,0,1-1.061,2.56Z" style="fill:url(#linear-gradient-9)"/><path d="M53.592,41.9a6.754,6.754,0,0,0,4.847-4.847c1-3.788.729-8.827-3.936-13.492a16.29,16.29,0,0,0-6.865-3.884A9.309,9.309,0,0,0,36.215,31.1,16.3,16.3,0,0,0,40.1,37.967C44.764,42.632,49.8,42.907,53.592,41.9Z" style="fill:url(#linear-gradient-10)"/><rect x="68.865" y="39.212" width="8.977" height="35.212" rx="4.488" ry="4.488" transform="translate(-18.691 68.51) rotate(-45)" style="fill:url(#linear-gradient-11)"/></svg>