<svg id="Smooth" xmlns="http://www.w3.org/2000/svg" xmlns:xlink="http://www.w3.org/1999/xlink" viewBox="0 0 128 128"><defs><linearGradient id="linear-gradient" x1="64.029" y1="16.083" x2="64.029" y2="6.311" gradientUnits="userSpaceOnUse"><stop offset="0" stop-color="#b33468"/><stop offset="1" stop-color="#ff6363"/></linearGradient><linearGradient id="linear-gradient-2" x1="64.001" y1="94" x2="64.001" y2="9.712" gradientUnits="userSpaceOnUse"><stop offset="0" stop-color="#ffa489"/><stop offset="1" stop-color="#ff6363"/></linearGradient><linearGradient id="linear-gradient-3" x1="33.76" y1="53.578" x2="33.76" y2="28.632" gradientUnits="userSpaceOnUse"><stop offset="0" stop-color="#473051"/><stop offset="1" stop-color="#6fa4c0"/></linearGradient><linearGradient id="linear-gradient-4" x1="94.025" y1="52.861" x2="94.025" y2="30.136" xlink:href="#linear-gradient-3"/><linearGradient id="linear-gradient-5" x1="64" y1="133.522" x2="64" y2="82.395" gradientUnits="userSpaceOnUse"><stop offset="0" stop-color="#ffd6c5"/><stop offset="0.437" stop-color="#ffa6a3"/><stop offset="1" stop-color="#ff6d7a"/></linearGradient><linearGradient id="linear-gradient-6" x1="64" y1="131.25" x2="64" y2="83.857" xlink:href="#linear-gradient-5"/><linearGradient id="linear-gradient-7" x1="64" y1="77.833" x2="64" y2="116.041" xlink:href="#linear-gradient-2"/><linearGradient id="linear-gradient-8" x1="56.804" y1="87.788" x2="56.638" y2="111.622" gradientUnits="userSpaceOnUse"><stop offset="0" stop-color="#ffd3bd"/><stop offset="1" stop-color="#fff"/></linearGradient><linearGradient id="linear-gradient-9" x1="71.429" y1="87.891" x2="71.263" y2="111.724" xlink:href="#linear-gradient-8"/><linearGradient id="linear-gradient-10" x1="64" y1="99.688" x2="64" y2="82.757" gradientUnits="userSpaceOnUse"><stop offset="0" stop-color="#ff6b89"/><stop offset="1" stop-color="#e73d4f"/></linearGradient><linearGradient id="linear-gradient-11" x1="27.567" y1="57.831" x2="43.317" y2="65.206" gradientUnits="userSpaceOnUse"><stop offset="0" stop-color="#ffcab8"/><stop offset="0.368" stop-color="#ffa6a0"/><stop offset="1" stop-color="#ff6d7a"/></linearGradient><linearGradient id="linear-gradient-12" x1="107.6" y1="54.25" x2="77.6" y2="68.75" xlink:href="#linear-gradient-11"/><linearGradient id="linear-gradient-13" x1="100.792" y1="52.042" x2="84.376" y2="68.459" xlink:href="#linear-gradient-10"/><linearGradient id="linear-gradient-14" x1="32.301" y1="61.352" x2="40.666" y2="61.352" xlink:href="#linear-gradient-10"/><linearGradient id="linear-gradient-15" x1="64" y1="36" x2="64" y2="128.812" xlink:href="#linear-gradient-5"/><linearGradient id="linear-gradient-16" y1="61.875" x2="64" y2="71.063" xlink:href="#linear-gradient-10"/><linearGradient id="linear-gradient-17" x1="77.105" y1="43.75" x2="77.105" y2="84.519" xlink:href="#linear-gradient-3"/><linearGradient id="linear-gradient-18" x1="50.895" y1="43.75" x2="50.895" y2="84.519" xlink:href="#linear-gradient-3"/><linearGradient id="linear-gradient-19" x1="51.672" y1="55.75" x2="51.672" y2="78.591" xlink:href="#linear-gradient-3"/><linearGradient id="linear-gradient-20" x1="50.89" y1="53.583" x2="50.89" y2="79.959" xlink:href="#linear-gradient-3"/><linearGradient id="linear-gradient-21" x1="76.328" y1="55.75" x2="76.328" y2="78.591" xlink:href="#linear-gradient-3"/><linearGradient id="linear-gradient-22" x1="77.11" y1="53.583" x2="77.11" y2="79.959" xlink:href="#linear-gradient-3"/><linearGradient id="linear-gradient-23" x1="63.992" y1="60.5" x2="63.992" y2="37.443" xlink:href="#linear-gradient-2"/></defs><title>delivery, Courier, man, postman, shipping, male, career</title><path d="M67.4,8.013a3.629,3.629,0,0,0-6.731,0,2.8,2.8,0,0,0,.012,2.032,8.574,8.574,0,0,1,.481,2.94H66.9a8.569,8.569,0,0,1,.482-2.94A2.81,2.81,0,0,0,67.4,8.013Z" style="fill:url(#linear-gradient)"/><path d="M99.7,50.26a34,34,0,0,1-1.08,5.44H88.35l-49.12.01H29.38a34.038,34.038,0,0,1-1.09-5.55C26.14,31.45,39.05,11.54,64,11.54,89,11.54,101.91,31.53,99.7,50.26Z" style="fill:url(#linear-gradient-2)"/><path d="M39.23,55.71H29.38a34.038,34.038,0,0,1-1.09-5.55,27.068,27.068,0,0,1,8.72-4.64Z" style="fill:url(#linear-gradient-3)"/><path d="M99.7,50.17v.09a34,34,0,0,1-1.08,5.44H88.35l2.62-10.18A27.03,27.03,0,0,1,99.7,50.17Z" style="fill:url(#linear-gradient-4)"/><path d="M89.04,115.93c-3.68,3.03-12.54,5.96-25.04,5.96s-21.36-2.93-25.04-5.96c-2.11-1.73-3.49-4.16-2.06-6.49,1.89-3.11,5.43-6.26,9.41-8.6,5.14-3.03,9.73-4.28,11.41-8.09a15.5,15.5,0,0,0,.65-3.74H69.63a15.5,15.5,0,0,0,.65,3.74c1.68,3.81,6.27,5.06,11.41,8.09,3.98,2.34,7.52,5.49,9.41,8.6C92.53,111.77,91.15,114.2,89.04,115.93Z" style="fill:url(#linear-gradient-5)"/><path d="M89.04,115.93c-3.68,3.03-12.54,5.96-25.04,5.96s-21.36-2.93-25.04-5.96c-2.11-1.73-3.49-4.16-2.06-6.49,1.89-3.11,5.43-6.26,9.41-8.6,5.14-3.03,9.73-4.28,11.41-8.09a15.5,15.5,0,0,0,.65-3.74H69.63a15.5,15.5,0,0,0,.65,3.74c1.68,3.81,6.27,5.06,11.41,8.09,3.98,2.34,7.52,5.49,9.41,8.6C92.53,111.77,91.15,114.2,89.04,115.93Z" style="fill:url(#linear-gradient-6)"/><path d="M91.1,109.44c-1.89-3.11-5.43-6.26-9.41-8.6-1.91-1.13-3.75-2.01-5.38-2.86a19.614,19.614,0,0,1-4.22-2.75,6.676,6.676,0,0,1-4.23,5.72,2.42,2.42,0,0,0-1.63,1.67c-.02.07-.04.15-.06.23-.235.9-.736,2.408-1.2,3.74a1,1,0,0,1-1.89,0c-.459-1.332-.96-2.844-1.2-3.74-.02-.08-.04-.16-.06-.23a2.42,2.42,0,0,0-1.63-1.67,6.678,6.678,0,0,1-4.23-5.77,19.182,19.182,0,0,1-4.21,2.76c-1.65.87-3.51,1.75-5.45,2.9-3.98,2.34-7.52,5.49-9.41,8.6-1.43,2.33-.05,4.76,2.06,6.49,3.68,3.03,12.54,5.96,25.04,5.96s21.36-2.93,25.04-5.96C91.15,114.2,92.53,111.77,91.1,109.44Z" style="fill:url(#linear-gradient-7)"/><path d="M60.2,100.95c-1.876-.7-3.484-3.136-4.03-5.3a1,1,0,0,0-1.516-.6l-2.433,1.595a.993.993,0,0,0-.452.859c.043,1.606.281,6.229,1.611,7.813,1.734,2.074,5.523-.694,7.858-2.292a1,1,0,0,0-.215-1.756Z" style="fill:url(#linear-gradient-8)"/><path d="M73.387,95.064a.992.992,0,0,0-1.5.6c-.552,2.161-2.15,4.6-4.025,5.286l-.821.311a1,1,0,0,0-.214,1.758c2.343,1.6,6.131,4.364,7.865,2.291,1.316-1.572,1.566-6.175,1.611-7.793a.968.968,0,0,0-.437-.84C75.276,96.288,74.23,95.609,73.387,95.064Z" style="fill:url(#linear-gradient-9)"/><path d="M70.28,92.75A12.16,12.16,0,0,1,64,94.81a12.16,12.16,0,0,1-6.28-2.06,15.5,15.5,0,0,0,.65-3.74H69.63A15.5,15.5,0,0,0,70.28,92.75Z" style="fill:url(#linear-gradient-10)"/><path d="M30.2,54.917c-2.634,1.995-2.5,5.944-1.16,9.1,1.459,3.438,5.882,6.83,10.124,4.933L36.945,54.106C35.638,53.852,32.307,53.323,30.2,54.917Z" style="fill:url(#linear-gradient-11)"/><path d="M97.8,54.917c-2.105-1.594-5.436-1.065-6.743-.811L88.834,68.953c4.242,1.9,8.665-1.5,10.124-4.933C100.3,60.861,100.432,56.912,97.8,54.917Z" style="fill:url(#linear-gradient-12)"/><path d="M88.833,63.867A1.5,1.5,0,0,1,87.6,61.51c2.129-3.059,6.553-2.665,6.741-2.648a1.5,1.5,0,0,1-.291,2.987c-.02,0-2.885-.208-3.988,1.376A1.5,1.5,0,0,1,88.833,63.867Z" style="fill:url(#linear-gradient-13)"/><path d="M39.167,63.867a1.5,1.5,0,0,1-1.232-.642c-1.1-1.581-3.962-1.383-3.988-1.376a1.5,1.5,0,0,1-.291-2.987c.19-.015,4.612-.411,6.741,2.648a1.5,1.5,0,0,1-1.23,2.357Z" style="fill:url(#linear-gradient-14)"/><path d="M80.748,39.536h-33.5A10.4,10.4,0,0,0,36.868,49.86c-.015,1.442.007,2.879.077,4.246.226,4.409,1.4,20.493,9.071,28.582,4.448,4.689,10.807,6.99,15.127,8.1a9.5,9.5,0,0,0,5.714,0c4.32-1.113,10.679-3.414,15.127-8.1,7.674-8.089,8.845-24.173,9.071-28.582.07-1.367.092-2.8.077-4.246A10.4,10.4,0,0,0,80.748,39.536Z" style="fill:url(#linear-gradient-15)"/><path d="M65.6,63.867a1.5,1.5,0,0,0-1.225.634,1.759,1.759,0,0,1-.361.087,1.8,1.8,0,0,1-.382-.087,1.5,1.5,0,0,0-2.724.866c0,1.661,2.126,2.221,3.1,2.221s3.1-.56,3.1-2.221A1.5,1.5,0,0,0,65.6,63.867Z" style="fill:url(#linear-gradient-16)"/><path d="M82.966,47.441c-2.618-1.209-8.535-1.258-11.6.178a1.4,1.4,0,0,0-.7,1.71h0a1.4,1.4,0,0,0,1.679.919,34.346,34.346,0,0,1,8.731-.794c1.656.2,2.269-.252,2.472-.746A1.011,1.011,0,0,0,82.966,47.441Z" style="fill:url(#linear-gradient-17)"/><path d="M64,79.145c4.317,0,6.476-2.436,6.919-5.659a1.222,1.222,0,0,0-1.2-1.4H58.283a1.222,1.222,0,0,0-1.2,1.4C57.524,76.709,59.683,79.145,64,79.145Z" style="fill:#fff"/><path d="M45.034,47.441c2.618-1.209,8.535-1.258,11.6.178a1.4,1.4,0,0,1,.7,1.71h0a1.4,1.4,0,0,1-1.679.919,34.346,34.346,0,0,0-8.731-.794c-1.656.2-2.269-.252-2.472-.746A1.011,1.011,0,0,1,45.034,47.441Z" style="fill:url(#linear-gradient-18)"/><circle cx="51.672" cy="58.834" r="2.865" style="fill:url(#linear-gradient-19)"/><path d="M54.538,58.69a1.5,1.5,0,0,1-1.38-.909,2.465,2.465,0,0,0-1.71-.889,3.284,3.284,0,0,0-3.068,1.171,1.5,1.5,0,0,1-2.275-1.958,6.258,6.258,0,0,1,5.8-2.178A5.142,5.142,0,0,1,55.916,56.6a1.5,1.5,0,0,1-1.378,2.09Z" style="fill:url(#linear-gradient-20)"/><circle cx="76.328" cy="58.834" r="2.865" style="fill:url(#linear-gradient-21)"/><path d="M73.462,58.69a1.5,1.5,0,0,1-1.378-2.09A5.142,5.142,0,0,1,76.1,53.927a6.261,6.261,0,0,1,5.8,2.178,1.5,1.5,0,0,1-2.275,1.958,3.278,3.278,0,0,0-3.068-1.171,2.465,2.465,0,0,0-1.71.889A1.5,1.5,0,0,1,73.462,58.69Z" style="fill:url(#linear-gradient-22)"/><path d="M63.992,48.082c8.321,0,16.951,2.041,22.592,5.492a5.729,5.729,0,0,0,8.755-4.855h0a5.765,5.765,0,0,0-1.555-3.93C88.405,39.011,78.143,33.4,63.992,33.4S39.579,39.011,34.2,44.789a5.766,5.766,0,0,0-1.556,3.93h0A5.729,5.729,0,0,0,41.4,53.574C47.042,50.123,55.672,48.082,63.992,48.082Z" style="fill:url(#linear-gradient-23)"/></svg>