<svg id="Smooth" xmlns="http://www.w3.org/2000/svg" xmlns:xlink="http://www.w3.org/1999/xlink" viewBox="0 0 128 128"><defs><linearGradient id="linear-gradient" x1="60.109" y1="75.25" x2="60.109" y2="43.663" gradientUnits="userSpaceOnUse"><stop offset="0" stop-color="#450922"/><stop offset="1" stop-color="#757777"/></linearGradient><linearGradient id="linear-gradient-2" x1="60.08" y1="133.25" x2="60.08" y2="43.249" gradientUnits="userSpaceOnUse"><stop offset="0" stop-color="#450922"/><stop offset="0.335" stop-color="#542b3c"/><stop offset="1" stop-color="#757777"/></linearGradient><linearGradient id="linear-gradient-3" x1="60.109" y1="84.25" x2="60.109" y2="131.153" gradientUnits="userSpaceOnUse"><stop offset="0" stop-color="#450922"/><stop offset="0.045" stop-color="#49132a"/><stop offset="0.236" stop-color="#593745"/><stop offset="0.427" stop-color="#65535b"/><stop offset="0.618" stop-color="#6e676b"/><stop offset="0.809" stop-color="#737374"/><stop offset="1" stop-color="#757777"/></linearGradient><linearGradient id="linear-gradient-4" x1="102.682" y1="83.25" x2="102.682" y2="121.536" gradientUnits="userSpaceOnUse"><stop offset="0" stop-color="#e7ce75"/><stop offset="1" stop-color="#bda413"/></linearGradient><linearGradient id="linear-gradient-5" x1="110.072" y1="111.409" x2="98.655" y2="96.409" gradientUnits="userSpaceOnUse"><stop offset="0" stop-color="#ffd3bd"/><stop offset="0.326" stop-color="#ffe1d2"/><stop offset="1" stop-color="#fff"/></linearGradient></defs><title>food, cooking, verify, restaurant, complete, order</title><path d="M65.09,47.884a5.371,5.371,0,0,0-9.962,0,4.152,4.152,0,0,0,.018,3.008,12.674,12.674,0,0,1,.712,4.35h8.5a12.669,12.669,0,0,1,.713-4.35A4.163,4.163,0,0,0,65.09,47.884Z" style="fill:url(#linear-gradient)"/><path d="M60.08,54.193A43.845,43.845,0,0,0,16.235,98.039h87.691A43.846,43.846,0,0,0,60.08,54.193Z" style="fill:url(#linear-gradient-2)"/><rect x="12.151" y="97.039" width="95.916" height="9.438" rx="4.719" ry="4.719" style="fill:url(#linear-gradient-3)"/><circle cx="102.682" cy="103.059" r="12.882" style="fill:url(#linear-gradient-4)"/><path d="M100.44,107.628a2.934,2.934,0,0,1-2.08-.859l-1.445-1.446a1.5,1.5,0,0,1,2.121-2.121l1.444,1.445,6.126-6.206a1.5,1.5,0,1,1,2.122,2.121l-6.207,6.206A2.93,2.93,0,0,1,100.44,107.628Z" style="fill:url(#linear-gradient-5)"/></svg>