<svg id="Smooth" xmlns="http://www.w3.org/2000/svg" xmlns:xlink="http://www.w3.org/1999/xlink" viewBox="0 0 128 128"><defs><linearGradient id="linear-gradient" x1="64.032" y1="-14.667" x2="64.032" y2="118.76" gradientUnits="userSpaceOnUse"><stop offset="0" stop-color="#ffe0e3"/><stop offset="1" stop-color="#ffc9ae"/></linearGradient><linearGradient id="linear-gradient-2" x1="84.356" y1="28.795" x2="90.856" y2="62.795" gradientUnits="userSpaceOnUse"><stop offset="0" stop-color="#ffa489"/><stop offset="1" stop-color="#ff6363"/></linearGradient><linearGradient id="linear-gradient-3" x1="100.683" y1="67.257" x2="80.433" y2="107.632" xlink:href="#linear-gradient-2"/><linearGradient id="linear-gradient-4" x1="59.428" y1="52.53" x2="84.928" y2="108.863" gradientUnits="userSpaceOnUse"><stop offset="0" stop-color="#fff4ff"/><stop offset="1" stop-color="#ffd3bd"/></linearGradient><linearGradient id="linear-gradient-5" x1="71.221" y1="48.875" x2="71.221" y2="61.006" xlink:href="#linear-gradient-2"/><linearGradient id="linear-gradient-6" x1="45.573" y1="55.918" x2="44.698" y2="32.168" gradientUnits="userSpaceOnUse"><stop offset="0" stop-color="#31477c"/><stop offset="1" stop-color="#81d187"/></linearGradient><linearGradient id="linear-gradient-7" x1="40.056" y1="25.586" x2="48.723" y2="46.753" gradientUnits="userSpaceOnUse"><stop offset="0" stop-color="#450922"/><stop offset="1" stop-color="#754d5b"/></linearGradient><linearGradient id="linear-gradient-8" x1="37.038" y1="71.747" x2="26.038" y2="44.997" xlink:href="#linear-gradient-6"/><linearGradient id="linear-gradient-9" x1="35.382" y1="41.307" x2="28.132" y2="66.474" xlink:href="#linear-gradient-7"/><linearGradient id="linear-gradient-10" x1="32.378" y1="71.719" x2="38.711" y2="89.135" gradientUnits="userSpaceOnUse"><stop offset="0" stop-color="#ffa6a4"/><stop offset="0.507" stop-color="#f58490"/><stop offset="1" stop-color="#ed687f"/></linearGradient><linearGradient id="linear-gradient-11" x1="39.307" y1="88.188" x2="31.89" y2="79.521" gradientUnits="userSpaceOnUse"><stop offset="0" stop-color="#dd3152"/><stop offset="1" stop-color="#ed849f"/></linearGradient><linearGradient id="linear-gradient-12" x1="38.431" y1="83.237" x2="48.181" y2="93.987" xlink:href="#linear-gradient-10"/><linearGradient id="linear-gradient-13" x1="75.241" y1="91.36" x2="49.241" y2="101.776" xlink:href="#linear-gradient-10"/><linearGradient id="linear-gradient-14" x1="50.567" y1="96.118" x2="40.9" y2="87.368" xlink:href="#linear-gradient-11"/><linearGradient id="linear-gradient-15" x1="63.243" y1="99.135" x2="52.243" y2="93.218" xlink:href="#linear-gradient-11"/><linearGradient id="linear-gradient-16" x1="75.455" y1="26.015" x2="94.788" y2="47.182" xlink:href="#linear-gradient-2"/><linearGradient id="linear-gradient-17" x1="76.702" y1="24.876" x2="96.035" y2="46.043" xlink:href="#linear-gradient-2"/><linearGradient id="linear-gradient-18" x1="77.053" y1="24.555" x2="96.387" y2="45.722" xlink:href="#linear-gradient-2"/><linearGradient id="linear-gradient-19" x1="76.335" y1="25.211" x2="95.668" y2="46.378" xlink:href="#linear-gradient-2"/><linearGradient id="linear-gradient-20" x1="97.751" y1="61.467" x2="99.626" y2="84.967" xlink:href="#linear-gradient-2"/><linearGradient id="linear-gradient-21" x1="95.245" y1="61.667" x2="97.12" y2="85.167" xlink:href="#linear-gradient-2"/><linearGradient id="linear-gradient-22" x1="92.132" y1="61.916" x2="94.007" y2="85.416" xlink:href="#linear-gradient-2"/><linearGradient id="linear-gradient-23" x1="87.503" y1="62.285" x2="89.378" y2="85.785" xlink:href="#linear-gradient-2"/></defs><title>food, delivery, breakfast, egg, eat, restaurant, sausage</title><circle cx="64.032" cy="64.032" r="48.074" style="fill:url(#linear-gradient)"/><path d="M100.4,50.348A28.208,28.208,0,0,0,78.216,27.435a4.328,4.328,0,0,0-5.181,4.115,4.242,4.242,0,0,0,3.355,4.163,21.206,21.206,0,0,1,10.081,5.924h0a21.021,21.021,0,0,1,5.595,10.268,4.242,4.242,0,0,0,4.052,3.488A4.327,4.327,0,0,0,100.4,50.348Z" style="fill:url(#linear-gradient-2)"/><path d="M87.109,96.009a28.208,28.208,0,0,0,16.248-27.442,4.329,4.329,0,0,0-5.336-3.912,4.242,4.242,0,0,0-3.13,4.334,21.191,21.191,0,0,1-3.055,11.287h0a21.013,21.013,0,0,1-8.428,8.105,4.242,4.242,0,0,0-2.3,4.829A4.329,4.329,0,0,0,87.109,96.009Z" style="fill:url(#linear-gradient-3)"/><path d="M52.815,52.815C50.167,59.482,42.188,59.482,41.162,67c-1,7.361,5.418,9.89,9.525,10.311,4.238.434,7.992,1.212,11.653,4.279,4.625,3.875,13.379,4.138,17.035.783C84.688,77.5,82.014,71.96,85,64c3.685-9.825-.884-20.15-11-22.938C66.063,38.875,57.042,42.176,52.815,52.815Z" style="fill:url(#linear-gradient-4)"/><circle cx="71.221" cy="57.182" r="8.332" style="fill:url(#linear-gradient-5)"/><path d="M37.97,35.846A4.512,4.512,0,0,1,44.894,30.7a2.456,2.456,0,0,0,2.155.411,4.505,4.505,0,1,1,.974,8.825A2.081,2.081,0,0,0,45.9,41.513a4.506,4.506,0,1,1-8.162-3.491A2.45,2.45,0,0,0,37.97,35.846Z" style="fill:url(#linear-gradient-6)"/><path d="M48.553,45.955a1.5,1.5,0,0,1-1.434-1.062c-.995-3.261-4.678-7.749-4.715-7.794a1.5,1.5,0,1,1,2.314-1.909c.167.2,4.1,5,5.27,8.827a1.5,1.5,0,0,1-1.435,1.938Z" style="fill:url(#linear-gradient-7)"/><path d="M37.06,53.154A4.512,4.512,0,0,0,29.074,49.9a2.455,2.455,0,0,1-1.985.935,4.5,4.5,0,1,0,1.254,8.789,2.083,2.083,0,0,1,2.449,1A4.506,4.506,0,1,0,37.827,55.2,2.452,2.452,0,0,1,37.06,53.154Z" style="fill:url(#linear-gradient-8)"/><path d="M28.955,65.627h-.068a1.5,1.5,0,0,1-1.432-1.565c.178-4,2.8-9.624,2.907-9.862a1.5,1.5,0,0,1,2.717,1.273c-.025.053-2.476,5.325-2.627,8.722A1.5,1.5,0,0,1,28.955,65.627Z" style="fill:url(#linear-gradient-9)"/><circle cx="37.672" cy="86.277" r="7.52" style="fill:url(#linear-gradient-10)"/><circle cx="37.672" cy="86.277" r="4.603" style="fill:url(#linear-gradient-11)"/><circle cx="48.04" cy="93.831" r="7.52" style="fill:url(#linear-gradient-12)"/><circle cx="60.08" cy="97.433" r="7.52" style="fill:url(#linear-gradient-13)"/><circle cx="48.04" cy="93.831" r="4.603" style="fill:url(#linear-gradient-14)"/><circle cx="60.08" cy="97.433" r="4.603" style="fill:url(#linear-gradient-15)"/><path d="M80.786,34.914A1.5,1.5,0,0,1,79.777,32.3a5,5,0,0,1,2.714-1.355,1.5,1.5,0,0,1,.5,2.959,2.037,2.037,0,0,0-1.194.619A1.5,1.5,0,0,1,80.786,34.914Z" style="fill:url(#linear-gradient-16)"/><path d="M85.705,37.712a1.5,1.5,0,0,1-.859-2.731,5.78,5.78,0,0,1,2.927-.964,1.5,1.5,0,0,1,0,3,3,3,0,0,0-1.213.426A1.491,1.491,0,0,1,85.705,37.712Z" style="fill:url(#linear-gradient-17)"/><path d="M89.767,41.47a1.5,1.5,0,0,1-.833-2.748,5.333,5.333,0,0,1,2.933-.91,1.5,1.5,0,0,1,.066,3,2.365,2.365,0,0,0-1.335.407A1.49,1.49,0,0,1,89.767,41.47Z" style="fill:url(#linear-gradient-18)"/><path d="M93.251,46.455a1.5,1.5,0,0,1-.414-2.942,7.244,7.244,0,0,1,2.662-.241,1.5,1.5,0,0,1-.386,2.976,4.247,4.247,0,0,0-1.446.148A1.5,1.5,0,0,1,93.251,46.455Z" style="fill:url(#linear-gradient-19)"/><path d="M99.5,76.859a1.5,1.5,0,0,1-1.385-.923,2.027,2.027,0,0,0-.873-1.021,1.5,1.5,0,1,1,1.7-2.469,4.993,4.993,0,0,1,1.938,2.335A1.5,1.5,0,0,1,99.5,76.859Z" style="fill:url(#linear-gradient-20)"/><path d="M97.283,82.464a1.5,1.5,0,0,1-1.459-1.158,2.985,2.985,0,0,0-.691-1.084,1.5,1.5,0,0,1,2.006-2.231,5.789,5.789,0,0,1,1.606,2.63,1.5,1.5,0,0,1-1.462,1.843Z" style="fill:url(#linear-gradient-21)"/><path d="M94.527,87.346a1.5,1.5,0,0,1-1.452-1.127,2.373,2.373,0,0,0-.7-1.208,1.5,1.5,0,0,1,2.053-2.187,5.345,5.345,0,0,1,1.553,2.648A1.5,1.5,0,0,1,94.9,87.3,1.465,1.465,0,0,1,94.527,87.346Z" style="fill:url(#linear-gradient-22)"/><path d="M90,91.9a1.5,1.5,0,0,1-1.491-1.35,4.247,4.247,0,0,0-.473-1.373,1.5,1.5,0,1,1,2.618-1.465,7.214,7.214,0,0,1,.84,2.538A1.5,1.5,0,0,1,90.146,91.9C90.1,91.9,90.045,91.9,90,91.9Z" style="fill:url(#linear-gradient-23)"/></svg>