<svg id="Smooth" xmlns="http://www.w3.org/2000/svg" xmlns:xlink="http://www.w3.org/1999/xlink" viewBox="0 0 128 128"><defs><linearGradient id="linear-gradient" x1="64" y1="8.25" x2="64" y2="104.749" gradientUnits="userSpaceOnUse"><stop offset="0" stop-color="#ffd1cc"/><stop offset="1" stop-color="#ff3d63"/></linearGradient><linearGradient id="linear-gradient-2" x1="64" y1="-2.087" x2="64" y2="105.06" xlink:href="#linear-gradient"/><linearGradient id="linear-gradient-3" x1="54.122" y1="41.75" x2="54.122" y2="55.454" gradientUnits="userSpaceOnUse"><stop offset="0" stop-color="#ff6b89"/><stop offset="1" stop-color="#e73d4f"/></linearGradient><linearGradient id="linear-gradient-4" x1="73.878" y1="41.75" x2="73.878" y2="55.454" xlink:href="#linear-gradient-3"/><linearGradient id="linear-gradient-5" x1="64.003" y1="46.958" x2="64.003" y2="59.704" xlink:href="#linear-gradient-3"/></defs><title>food, squid, tako, street food, cooking, meal</title><path d="M106.463,81.2c-8.281,2.775-21.4-4.389-18.622-18.229,2.4-11.958,2.537-15.937,2.428-21.046-.3-14.22-11.652-26.056-25.875-26.264-14.694-.216-26.35,11.63-26.663,26.266-.109,5.107.026,9.087,2.428,21.044,2.781,13.84-10.341,21-18.622,18.229a2.652,2.652,0,0,0-3.478,2.957c.995,5.81,7.116,14.329,25.036,13.251h41.81c17.92,1.078,24.041-7.441,25.036-13.251A2.652,2.652,0,0,0,106.463,81.2Z" style="fill:url(#linear-gradient)"/><path d="M92.215,107.836c-3.029-3.3-7.4-9.44-7.561-17.5L64,91.224l-20.654-.892c-.159,8.064-4.532,14.2-7.561,17.5a2.941,2.941,0,0,0,1.209,4.788c8.432,2.788,20.726-.788,27.006-12.869,6.28,12.081,18.574,15.657,27.006,12.869A2.941,2.941,0,0,0,92.215,107.836Z" style="fill:url(#linear-gradient-2)"/><circle cx="54.122" cy="44.41" r="1.656" style="fill:url(#linear-gradient-3)"/><circle cx="73.878" cy="44.41" r="1.656" style="fill:url(#linear-gradient-4)"/><path d="M73.775,49.543a.2.2,0,0,1,.158.325c-.768.893-3.445,3.317-9.905,3.317s-9.172-2.421-9.955-3.316a.2.2,0,0,1,.157-.326Z" style="fill:url(#linear-gradient-5)"/><circle cx="25.938" cy="89.692" r="2.02" style="fill:#ea2f5c"/><circle cx="22.459" cy="84.357" r="1.233" style="fill:#ea2f5c"/><circle cx="41.064" cy="107.252" r="2.02" style="fill:#ea2f5c"/><circle cx="48.381" cy="108.406" r="1.71" style="fill:#ea2f5c"/><circle cx="28.631" cy="85.296" r="1.209" style="fill:#ea2f5c"/><circle cx="47.172" cy="102.46" r="1.209" style="fill:#ea2f5c"/><circle cx="102.062" cy="89.692" r="2.02" style="fill:#ea2f5c"/><circle cx="105.541" cy="84.357" r="1.233" style="fill:#ea2f5c"/><circle cx="86.936" cy="107.252" r="2.02" style="fill:#ea2f5c"/><circle cx="79.619" cy="108.406" r="1.71" style="fill:#ea2f5c"/><circle cx="99.369" cy="85.296" r="1.209" style="fill:#ea2f5c"/><circle cx="80.828" cy="102.46" r="1.209" style="fill:#ea2f5c"/></svg>