<svg id="Smooth" xmlns="http://www.w3.org/2000/svg" xmlns:xlink="http://www.w3.org/1999/xlink" viewBox="0 0 128 128"><defs><linearGradient id="linear-gradient" x1="64" y1="44.552" x2="64" y2="4.192" gradientUnits="userSpaceOnUse"><stop offset="0" stop-color="#450922"/><stop offset="0.335" stop-color="#542b3c"/><stop offset="1" stop-color="#757777"/></linearGradient><linearGradient id="linear-gradient-2" x1="34" y1="74.625" x2="94.5" y2="74.625" gradientUnits="userSpaceOnUse"><stop offset="0" stop-color="#ffc2a1"/><stop offset="1" stop-color="#ffddd4"/></linearGradient><linearGradient id="linear-gradient-3" x1="64" y1="51.385" x2="64" y2="16.076" xlink:href="#linear-gradient"/><linearGradient id="linear-gradient-4" x1="64.25" y1="144.667" x2="64.25" y2="36.593" gradientUnits="userSpaceOnUse"><stop offset="0" stop-color="#450922"/><stop offset="1" stop-color="#757777"/></linearGradient><linearGradient id="linear-gradient-5" x1="65.332" y1="59.749" x2="65.332" y2="110.75" xlink:href="#linear-gradient-4"/><linearGradient id="linear-gradient-6" x1="65.33" y1="74.265" x2="65.33" y2="102.502" xlink:href="#linear-gradient-4"/></defs><title>hot, coffee, cup, drink, food, breakfast, caffeine</title><path d="M93.5,32.885h-59l2.259-12.552a5,5,0,0,1,4.921-4.114H86.32a5,5,0,0,1,4.921,4.114Z" style="fill:url(#linear-gradient)"/><path d="M94.5,37.25l-.85,12.7L90.31,99.9l-.44,6.5a5.993,5.993,0,0,1-5.98,5.6H44.61a5.993,5.993,0,0,1-5.98-5.6l-.44-6.5L34.85,49.95,34,37.25Z" style="fill:url(#linear-gradient-2)"/><rect x="28.625" y="27.885" width="70.75" height="9.584" rx="4.792" ry="4.792" style="fill:url(#linear-gradient-3)"/><polygon points="93.65 49.95 90.31 99.9 38.19 99.9 34.85 49.95 93.65 49.95" style="fill:url(#linear-gradient-4)"/><path d="M73.11,82.36c-4.82,4.83-11.69,5.93-16.12,2.88a9,9,0,0,1-1.26-1.05,8.815,8.815,0,0,1-.97-1.15c-3.16-4.43-2.07-11.37,2.8-16.23,4.82-4.83,11.68-5.94,16.12-2.88a9,9,0,0,1,1.26,1.05,8.53,8.53,0,0,1,.96,1.14C79.06,70.55,77.98,77.5,73.11,82.36Z" style="fill:url(#linear-gradient-5)"/><path d="M75.9,66.12a1.183,1.183,0,0,1-.32.21c-5.05,2.41-7.58,6.25-10.02,9.96-2.23,3.37-4.52,6.84-8.57,8.95a9,9,0,0,1-1.26-1.05,8.815,8.815,0,0,1-.97-1.15,1.629,1.629,0,0,1,.34-.21c3.68-1.7,5.66-4.71,7.95-8.19,2.46-3.73,5.23-7.94,10.63-10.71a9,9,0,0,1,1.26,1.05A8.53,8.53,0,0,1,75.9,66.12Z" style="fill:url(#linear-gradient-6)"/></svg>