<svg id="Smooth" xmlns="http://www.w3.org/2000/svg" xmlns:xlink="http://www.w3.org/1999/xlink" viewBox="0 0 128 128"><defs><linearGradient id="linear-gradient" x1="23.453" y1="32.25" x2="23.453" y2="87.096" gradientUnits="userSpaceOnUse"><stop offset="0" stop-color="#ffd3bd"/><stop offset="1" stop-color="#fff"/></linearGradient><linearGradient id="linear-gradient-2" x1="22.174" y1="59.125" x2="22.174" y2="99.745" gradientUnits="userSpaceOnUse"><stop offset="0" stop-color="#4f866e"/><stop offset="0.181" stop-color="#5f9f8d"/><stop offset="0.386" stop-color="#6eb5aa"/><stop offset="0.592" stop-color="#79c4be"/><stop offset="0.797" stop-color="#7fceca"/><stop offset="1" stop-color="#81d1ce"/></linearGradient><linearGradient id="linear-gradient-3" x1="101.931" y1="97.5" x2="101.931" y2="51.266" gradientUnits="userSpaceOnUse"><stop offset="0" stop-color="#ffc2a1"/><stop offset="1" stop-color="#ffddd4"/></linearGradient><linearGradient id="linear-gradient-4" x1="63.961" y1="97.5" x2="63.961" y2="51.266" xlink:href="#linear-gradient-3"/><linearGradient id="linear-gradient-5" x1="101.931" y1="23.375" x2="101.931" y2="82.296" xlink:href="#linear-gradient"/><linearGradient id="linear-gradient-6" x1="101.959" y1="56" x2="101.959" y2="104.01" xlink:href="#linear-gradient-2"/><linearGradient id="linear-gradient-7" x1="63.99" y1="18.667" x2="63.99" y2="71.49" xlink:href="#linear-gradient"/><linearGradient id="linear-gradient-8" x1="63.99" y1="46.5" x2="63.99" y2="105.463" xlink:href="#linear-gradient-2"/></defs><title>knife, spoon, folk, food, restaurant, meal, dinner</title><path d="M18.592,27.734a1.144,1.144,0,0,0-1.144,1.144V71.471l4.9-.054a6.932,6.932,0,0,1,3.437-6.106,7.107,7.107,0,0,0,3.673-6.226V38.6A10.866,10.866,0,0,0,18.592,27.734Z" style="fill:url(#linear-gradient)"/><path d="M17.448,67.411h7.165A2.288,2.288,0,0,1,26.9,69.7V95.54a4.727,4.727,0,0,1-4.727,4.727h0a4.727,4.727,0,0,1-4.727-4.727V67.411A0,0,0,0,1,17.448,67.411Z" style="fill:url(#linear-gradient-2)"/><path d="M101.931,67.688a1.5,1.5,0,0,1-1.5-1.5V54.872a1.5,1.5,0,0,1,3,0V66.188A1.5,1.5,0,0,1,101.931,67.688Z" style="fill:url(#linear-gradient-3)"/><path d="M63.961,66.688a1.5,1.5,0,0,1-1.5-1.5V54.872a1.5,1.5,0,0,1,3,0V65.188A1.5,1.5,0,0,1,63.961,66.688Z" style="fill:url(#linear-gradient-4)"/><path d="M107.936,31.02a2.322,2.322,0,0,0-1.864,2.329V41a.953.953,0,0,1-1.906,0V33.181a2.235,2.235,0,0,0-4.469,0V41a.953.953,0,0,1-1.906,0V33.349a2.323,2.323,0,0,0-1.864-2.329,2.242,2.242,0,0,0-2.617,2.209V50.142c0,4.588,4.135,7.73,8.621,7.73h0c4.486,0,8.621-3.142,8.621-7.73V33.229A2.241,2.241,0,0,0,107.936,31.02Z" style="fill:url(#linear-gradient-5)"/><rect x="97.233" y="63.187" width="9.453" height="37.079" rx="4.727" ry="4.727" style="fill:url(#linear-gradient-6)"/><path d="M60.381,56.906a7.109,7.109,0,0,0,7.217,0c3.569-2.073,7.117-6.03,7.117-12.977a17.166,17.166,0,0,0-2.22-8,9.8,9.8,0,0,0-17.01,0,17.154,17.154,0,0,0-2.22,8C53.265,50.876,56.812,54.833,60.381,56.906Z" style="fill:url(#linear-gradient-7)"/><rect x="59.263" y="63.187" width="9.453" height="37.079" rx="4.727" ry="4.727" style="fill:url(#linear-gradient-8)"/></svg>