<svg id="Smooth" xmlns="http://www.w3.org/2000/svg" xmlns:xlink="http://www.w3.org/1999/xlink" viewBox="0 0 128 128"><defs><linearGradient id="linear-gradient" x1="62.07" y1="23.184" x2="62.07" y2="54.502" gradientUnits="userSpaceOnUse"><stop offset="0" stop-color="#ffc988"/><stop offset="0.145" stop-color="#fcc283"/><stop offset="0.354" stop-color="#f5af77"/><stop offset="0.602" stop-color="#e99062"/><stop offset="0.877" stop-color="#d96545"/><stop offset="1" stop-color="#d14f36"/></linearGradient><linearGradient id="linear-gradient-2" x1="73.89" y1="-3.06" x2="88.677" y2="135.237" xlink:href="#linear-gradient"/><linearGradient id="linear-gradient-3" x1="55.149" y1="16.336" x2="55.149" y2="171.762" xlink:href="#linear-gradient"/><linearGradient id="linear-gradient-4" x1="59.603" y1="24.888" x2="59.603" y2="73.183" xlink:href="#linear-gradient"/><linearGradient id="linear-gradient-5" x1="64" y1="-5.875" x2="64" y2="23.078" gradientUnits="userSpaceOnUse"><stop offset="0" stop-color="#ffb8ae"/><stop offset="0.665" stop-color="#ff759a"/><stop offset="1" stop-color="#ff5991"/></linearGradient><linearGradient id="linear-gradient-6" x1="54.25" y1="78.223" x2="56.719" y2="85.379" gradientUnits="userSpaceOnUse"><stop offset="0" stop-color="#ffd3bd"/><stop offset="1" stop-color="#fff"/></linearGradient><linearGradient id="linear-gradient-7" x1="62.054" y1="67.349" x2="39.721" y2="95.016" xlink:href="#linear-gradient"/><linearGradient id="linear-gradient-8" x1="53.592" y1="78.769" x2="70.03" y2="63.332" xlink:href="#linear-gradient-6"/><linearGradient id="linear-gradient-9" x1="49.887" y1="79.728" x2="52.355" y2="86.884" xlink:href="#linear-gradient-6"/><linearGradient id="linear-gradient-10" x1="45.297" y1="65.322" x2="63.047" y2="98.572" xlink:href="#linear-gradient"/><linearGradient id="linear-gradient-11" x1="49.214" y1="79.848" x2="34.464" y2="59.661" xlink:href="#linear-gradient-6"/></defs><title>meal, food, take home, delivery, shipping, package, care</title><path d="M38.748,34.954c4.432,0,3.93-4,7.5-4,3.732,0,3.342,4,7.754,4,4.432,0,4.368-4,8.039-4,4.435,0,3.611,4,8.045,4s4.375-4,8.085-4c3.492,0,3.508,3.94,7.217,3.94v7.773H71.669l-.116-4.479-23.386.229.083,4.25h-9.5Z" style="fill:url(#linear-gradient)"/><path d="M65.5,112.006H100.83a3.47,3.47,0,0,0,3.465-3.157c1.124-13.021-.468-39.786-6.863-56.1C96.74,50.979,95.65,37.9,92.979,32.338a2.922,2.922,0,0,0-4.326-.673c-.705.685-1.76,2.383-3.5,2.383L65.5,112.006" style="fill:url(#linear-gradient-2)"/><path d="M87.75,33.54a3.267,3.267,0,0,0-4.13-2.49c-2.67.76-2.19,4.13-5.02,4.13-3.91,0-3.32-4.22-8-4.22-3.96,0-4.08,4.22-8.76,4.22s-3.29-4.22-7.97-4.22c-3.81,0-3.76,4.22-7.86,4.22-3.33,0-2.9-3.61-6.34-4.19a2.767,2.767,0,0,0-2.95,1.95c-.92,3.26-1.5,9.46-2,13.75a18.019,18.019,0,0,1-1.94,6.27c-11.04,21.38-10.6,46.47-10.17,55.72a3.5,3.5,0,0,0,3.49,3.33H76.14a3.481,3.481,0,0,0,3.47-3.69c-.61-9.93-1.52-37.71,5.77-55.37a19.248,19.248,0,0,0,1.39-5.32C87.18,43.65,88.18,36.84,87.75,33.54ZM69.44,44.7a2.6,2.6,0,0,1-1.85.77H53.68a2.612,2.612,0,0,1-2.61-2.61,2.629,2.629,0,0,1,2.61-2.61H67.59a2.609,2.609,0,0,1,1.85,4.45Z" style="fill:url(#linear-gradient-3)"/><path d="M81.62,51.718H37.587a1.3,1.3,0,1,1,0-2.609H81.62a1.3,1.3,0,0,1,0,2.609Z" style="fill:url(#linear-gradient-4)"/><path d="M63.37,9.292a.857.857,0,0,0,1.254,0c2.184-2.346,6.754-1.625,8.45.818,2.937,4.257.9,10.72-8.163,14.233a2.557,2.557,0,0,1-1.827,0c-9.062-3.513-11.1-9.976-8.149-14.233C56.618,7.667,61.187,6.946,63.37,9.292Z" style="fill:url(#linear-gradient-5)"/><path d="M53.171,81.007a1.5,1.5,0,0,1-1.061-2.561l2.264-2.264A1.5,1.5,0,0,1,56.5,78.3l-2.264,2.264A1.494,1.494,0,0,1,53.171,81.007Z" style="fill:url(#linear-gradient-6)"/><path d="M54.031,78.733a3.037,3.037,0,0,0-4.289,0l-7.81,7.811a3.033,3.033,0,0,0,4.289,4.289l7.81-7.811A3.035,3.035,0,0,0,54.031,78.733Z" style="fill:url(#linear-gradient-7)"/><path d="M65.171,71.468a1.067,1.067,0,0,0-1.363.151l-2.486,2.486a.438.438,0,0,1-.62-.619l2.541-2.541a1.027,1.027,0,0,0-1.453-1.452l-2.54,2.54a.438.438,0,1,1-.62-.619l2.486-2.487a1.067,1.067,0,0,0,.151-1.363,1.03,1.03,0,0,0-1.568-.132l-5.5,5.5a3.756,3.756,0,0,0,.29,5.314h0a3.757,3.757,0,0,0,5.315.29l5.5-5.5A1.03,1.03,0,0,0,65.171,71.468Z" style="fill:url(#linear-gradient-8)"/><path d="M50.59,81.013a1.5,1.5,0,0,1-1.06-.439L47.155,78.2a1.5,1.5,0,1,1,2.121-2.121l2.375,2.375a1.5,1.5,0,0,1-1.061,2.56Z" style="fill:url(#linear-gradient-9)"/><path d="M61.656,86.363,53.773,78.48a3.033,3.033,0,1,0-4.289,4.289l7.883,7.884a3.033,3.033,0,1,0,4.289-4.29Z" style="fill:url(#linear-gradient-10)"/><path d="M47.534,78.8a3.271,3.271,0,0,0,2.346-2.346,6.517,6.517,0,0,0-1.905-6.531,7.89,7.89,0,0,0-3.324-1.881,4.506,4.506,0,0,0-5.529,5.529A7.89,7.89,0,0,0,41,76.9,6.517,6.517,0,0,0,47.534,78.8Z" style="fill:url(#linear-gradient-11)"/></svg>