<svg id="Smooth" xmlns="http://www.w3.org/2000/svg" xmlns:xlink="http://www.w3.org/1999/xlink" viewBox="0 0 128 128"><defs><linearGradient id="linear-gradient" x1="65.638" y1="-25.256" x2="65.638" y2="96.911" gradientUnits="userSpaceOnUse"><stop offset="0" stop-color="#ffbf47"/><stop offset="1" stop-color="#ff6363"/></linearGradient><linearGradient id="linear-gradient-2" x1="63.092" y1="155.333" x2="63.092" y2="31.289" gradientUnits="userSpaceOnUse"><stop offset="0" stop-color="#652247"/><stop offset="1" stop-color="#c96955"/></linearGradient><linearGradient id="linear-gradient-3" x1="63.488" y1="166.13" x2="63.488" y2="-49.681" xlink:href="#linear-gradient-2"/></defs><title>meat, beef, grill, roast, protein, food, meal</title><path d="M27.5,90.3c-13.088-7.84-12.208-23.577-11-29.357a.98.98,0,0,1,1.753-.44A10.641,10.641,0,0,0,20.6,62.844a2.93,2.93,0,0,0,4.536-2.606c-.03-4.108.721-10.512,5.083-14.593,2.972-2.782,9.531-8.989,7.947-15.142a1.515,1.515,0,0,1,1.885-1.871A15.475,15.475,0,0,1,46.94,33.21,3.732,3.732,0,0,0,52.748,33c1.334-1.632,3.649-7.876,7.94-10.66C64.762,19.7,71.135,17.432,69.049,11a1.759,1.759,0,0,1,2.306-2.258c14.181,6.45,21.779,18.529,22.162,26.148a4.842,4.842,0,0,0,6.608,4.509c3.812-1.582,8.829-2.06,14.741,1.074a1.108,1.108,0,0,1,.04,1.888c-4.289,2.645-4.239,4.852-3.1,8.793,1.936,6.679-2.044,12.481-4.924,20.548a3.1,3.1,0,0,0,2.625,4.227,10.345,10.345,0,0,0,2.725-.708,1.715,1.715,0,0,1,2.178,2.05c-1.775,8.93-17.6,21.207-33.257,20.786Z" style="fill:url(#linear-gradient)"/><path d="M87.5,93.4c-15,15.844-37.167,24.1-54.162,7.89C20.5,89.047,25.75,69.693,41.176,54.267S75.007,34.381,88.5,43.833C106.167,56.209,101.833,78.257,87.5,93.4Z" style="fill:url(#linear-gradient-2)"/><path d="M90.718,79.026c-.049-.031-1.21-.79-3.23-2.055,1.146-1.28,2.068-2.327,2.607-2.969a1.5,1.5,0,1,0-2.3-1.929c-.572.681-1.612,1.856-2.9,3.292-2.113-1.3-4.726-2.873-7.725-4.624,2.489-2.6,4.831-5.008,6.844-7.012,2.263,1.086,3.754,1.786,3.8,1.808a1.5,1.5,0,1,0,1.275-2.716c-.039-.018-1.107-.52-2.791-1.325,1.217-1.163,2.236-2.088,2.964-2.665A1.5,1.5,0,0,0,87.4,56.48c-.943.748-2.322,2.018-3.982,3.631-3.425-1.656-7.879-3.843-11.851-5.9,1.222-1.141,2.353-2.145,3.362-2.971a1.5,1.5,0,1,0-1.9-2.321c-1.265,1.035-2.709,2.336-4.266,3.815-.73-.392-1.429-.773-2.078-1.136a1.5,1.5,0,1,0-1.464,2.618c.409.229.841.466,1.284.707-2,1.977-4.131,4.169-6.305,6.466-2.472-1.28-5.018-2.559-7.611-3.813.833-.865,1.655-1.7,2.449-2.48a1.5,1.5,0,1,0-2.1-2.139c-1.033,1.014-2.111,2.117-3.2,3.262q-1.5-.7-3.006-1.39a1.5,1.5,0,0,0-1.239,2.733q1.047.474,2.089.959c-2.484,2.692-4.915,5.452-6.911,7.763q-1.257-.654-2.547-1.317a1.5,1.5,0,0,0-1.372,2.668c.646.332,1.28.661,1.913.989-1.657,1.948-2.712,3.225-2.744,3.263a1.5,1.5,0,0,0,2.316,1.908c.034-.041,1.265-1.532,3.158-3.75q3.836,2.008,7.327,3.893c-2.413,2.711-4.622,5.231-6.464,7.349q-1.528-.837-3.116-1.687a1.5,1.5,0,1,0-1.416,2.644q1.278.685,2.522,1.363c-1.872,2.168-3.085,3.595-3.3,3.845a1.5,1.5,0,1,0,2.288,1.94c.058-.068,1.462-1.721,3.7-4.306,4.265,2.362,8.056,4.552,10.953,6.257-1.979,2.167-3.283,3.606-3.523,3.87A1.5,1.5,0,0,0,52.6,97.225c.066-.073,1.568-1.73,3.936-4.32,2.014,1.2,3.191,1.93,3.225,1.95A1.5,1.5,0,0,0,61.333,92.3c-.031-.019-1.02-.63-2.734-1.658,1.979-2.157,4.317-4.7,6.817-7.393,3.175,1.838,5.845,3.426,7.983,4.719-1.56,1.7-2.609,2.833-2.647,2.875a1.5,1.5,0,0,0,2.2,2.035c.163-.177,1.357-1.471,3.054-3.317,2.264,1.394,3.476,2.178,3.519,2.206a1.5,1.5,0,0,0,1.635-2.516c-.041-.026-1.1-.711-3.088-1.94,2.32-2.528,5.05-5.514,7.372-8.081,2.267,1.414,3.572,2.267,3.623,2.3a1.5,1.5,0,1,0,1.646-2.508ZM69.284,56.4c3.867,2.023,8.307,4.217,11.873,5.947C79.15,64.362,76.881,66.7,74.5,69.194c-3.483-2-7.373-4.161-11.524-6.358C65.168,60.526,67.306,58.337,69.284,56.4Zm3.086,15.03c-2.506,2.644-5.071,5.382-7.531,8.028-3.322-1.905-7.115-4.036-11.34-6.344,2.375-2.64,4.868-5.371,7.339-8.013C64.977,67.279,68.873,69.434,72.37,71.431ZM43.4,67.709c2.062-2.38,4.536-5.174,7.022-7.846,2.6,1.245,5.157,2.519,7.642,3.8-2.47,2.649-4.944,5.365-7.289,7.977Q47.268,69.739,43.4,67.709ZM55.963,89.078c-2.858-1.687-6.676-3.9-11.01-6.309,1.87-2.145,4.086-4.666,6.489-7.359,4.2,2.29,7.98,4.406,11.3,6.306C60.237,84.423,57.911,86.953,55.963,89.078ZM75.47,85.719c-2.105-1.277-4.775-2.87-7.961-4.719,2.476-2.661,5.046-5.4,7.536-8.026,3.013,1.751,5.653,3.337,7.808,4.656C80.489,80.239,77.747,83.237,75.47,85.719Z" style="fill:url(#linear-gradient-3)"/></svg>