<svg id="Smooth" xmlns="http://www.w3.org/2000/svg" xmlns:xlink="http://www.w3.org/1999/xlink" viewBox="0 0 128 128"><defs><linearGradient id="linear-gradient" x1="59.62" y1="156" x2="59.62" y2="-15.146" gradientUnits="userSpaceOnUse"><stop offset="0" stop-color="#313b42"/><stop offset="1" stop-color="#81d1ce"/></linearGradient><linearGradient id="linear-gradient-2" x1="59.62" y1="147" x2="59.62" y2="-10.189" gradientUnits="userSpaceOnUse"><stop offset="0" stop-color="#ffd3bd"/><stop offset="1" stop-color="#fff"/></linearGradient><linearGradient id="linear-gradient-3" x1="59.466" y1="-32.333" x2="59.466" y2="164.351" xlink:href="#linear-gradient"/><linearGradient id="linear-gradient-4" x1="87.347" y1="18" x2="87.347" y2="191.416" gradientUnits="userSpaceOnUse"><stop offset="0" stop-color="#ffa489"/><stop offset="1" stop-color="#ff2240"/></linearGradient><linearGradient id="linear-gradient-5" x1="87.347" y1="73.417" x2="87.347" y2="65.142" xlink:href="#linear-gradient-2"/><linearGradient id="linear-gradient-6" x1="87.336" y1="92" x2="87.336" y2="65.278" xlink:href="#linear-gradient-2"/><linearGradient id="linear-gradient-7" x1="87.347" y1="95.417" x2="87.347" y2="83.202" xlink:href="#linear-gradient-2"/></defs><title>order, shopping, online, phone, food, delivery, meal</title><rect x="33" y="17.744" width="53.241" height="89.256" rx="9.988" ry="9.988" style="fill:url(#linear-gradient)"/><rect x="39.233" y="23.873" width="40.775" height="75.994" rx="3.029" ry="3.029" style="fill:url(#linear-gradient-2)"/><path d="M51.161,23.873H67.77a0,0,0,0,1,0,0v1.346a5.195,5.195,0,0,1-5.195,5.195H56.356a5.195,5.195,0,0,1-5.195-5.195V23.873A0,0,0,0,1,51.161,23.873Z" style="fill:url(#linear-gradient-3)"/><path d="M65.36,57.662,60.379,54.94a1.541,1.541,0,0,0-2.186,1.88l2.382,6.531a4.553,4.553,0,0,1-.432,4.006,32.322,32.322,0,1,0,9.922-9.886A4.622,4.622,0,0,1,65.36,57.662Z" style="fill:url(#linear-gradient-4)"/><path d="M89.213,70.451a2.012,2.012,0,0,0-3.733,0,1.56,1.56,0,0,0,.007,1.127,4.741,4.741,0,0,1,.267,1.63h3.185a4.741,4.741,0,0,1,.267-1.63A1.554,1.554,0,0,0,89.213,70.451Z" style="fill:url(#linear-gradient-5)"/><path d="M87.336,72.815A16.428,16.428,0,0,0,70.907,89.244h32.858A16.428,16.428,0,0,0,87.336,72.815Z" style="fill:url(#linear-gradient-6)"/><rect x="69.376" y="89.244" width="35.94" height="3.537" rx="1.768" ry="1.768" style="fill:url(#linear-gradient-7)"/><path d="M96.029,51.625l-.661-.136a2.014,2.014,0,0,1-1.6-2.1l.639-7.046A2.014,2.014,0,0,1,96.821,40.5l2.227.46a2.013,2.013,0,0,1,1.487,2.65l-2.2,6.723A2.013,2.013,0,0,1,96.029,51.625Z" style="fill:#ffb95c"/><path d="M104.9,55.2l-.454-.26A1.561,1.561,0,0,1,103.766,53l2.169-5.041a1.561,1.561,0,0,1,2.225-.778l1.531.875a1.562,1.562,0,0,1,.459,2.312L106.905,54.8A1.562,1.562,0,0,1,104.9,55.2Z" style="fill:#ffb95c"/></svg>