<svg id="Smooth" xmlns="http://www.w3.org/2000/svg" xmlns:xlink="http://www.w3.org/1999/xlink" viewBox="0 0 128 128"><defs><linearGradient id="linear-gradient" x1="47.931" y1="83.789" x2="23.151" y2="36.962" gradientTransform="translate(-15.413 15.033) rotate(-18.658)" gradientUnits="userSpaceOnUse"><stop offset="0" stop-color="#31477c"/><stop offset="1" stop-color="#81d187"/></linearGradient><linearGradient id="linear-gradient-2" x1="88.517" y1="80.014" x2="100.38" y2="39.628" gradientTransform="matrix(0.994, -0.106, 0.106, 0.994, -5.357, 10.35)" xlink:href="#linear-gradient"/><linearGradient id="linear-gradient-3" x1="66.716" y1="99.212" x2="50.347" y2="35.131" gradientTransform="matrix(1, 0, 0, 1, 0, 0)" xlink:href="#linear-gradient"/><linearGradient id="linear-gradient-4" x1="82.56" y1="41.037" x2="78.115" y2="22.638" gradientUnits="userSpaceOnUse"><stop offset="0" stop-color="#7ec27c"/><stop offset="1" stop-color="#495b51"/></linearGradient><linearGradient id="linear-gradient-5" x1="80.404" y1="35.866" x2="74.615" y2="5.063" gradientTransform="matrix(1, 0, 0, 1, 0, 0)" xlink:href="#linear-gradient"/><linearGradient id="linear-gradient-6" x1="38.13" y1="5.069" x2="38.13" y2="45.518" gradientUnits="userSpaceOnUse"><stop offset="0" stop-color="#e7e09c"/><stop offset="1" stop-color="#c7b65f"/></linearGradient><linearGradient id="linear-gradient-7" x1="52.767" y1="2.812" x2="52.767" y2="43.261" xlink:href="#linear-gradient-6"/><linearGradient id="linear-gradient-8" x1="40.384" y1="65.108" x2="38.158" y2="53.69" gradientUnits="userSpaceOnUse"><stop offset="0" stop-color="#dd3152"/><stop offset="1" stop-color="#ed845e"/></linearGradient><linearGradient id="linear-gradient-9" x1="89.619" y1="67.381" x2="77.994" y2="55.756" gradientUnits="userSpaceOnUse"><stop offset="0" stop-color="#ffddd4"/><stop offset="1" stop-color="#ffa489"/></linearGradient><linearGradient id="linear-gradient-10" x1="76.69" y1="44.535" x2="74.065" y2="73.285" gradientUnits="userSpaceOnUse"><stop offset="0" stop-color="#ffe0e3"/><stop offset="1" stop-color="#ffc9ae"/></linearGradient><linearGradient id="linear-gradient-11" x1="104.344" y1="29.799" x2="99.577" y2="39.3" gradientTransform="translate(-31.007 37.621) rotate(-11.268)" gradientUnits="userSpaceOnUse"><stop offset="0" stop-color="#ffa489"/><stop offset="1" stop-color="#ff6363"/></linearGradient><linearGradient id="linear-gradient-12" x1="93.959" y1="61.679" x2="99.43" y2="41.487" gradientTransform="translate(-6.569 11.901) rotate(-6.951)" xlink:href="#linear-gradient"/><linearGradient id="linear-gradient-13" x1="58.749" y1="62.738" x2="55.015" y2="39.116" gradientTransform="matrix(1, 0, 0, 1, 0, 0)" xlink:href="#linear-gradient"/><linearGradient id="linear-gradient-14" x1="39.446" y1="58.643" x2="38.632" y2="55.061" xlink:href="#linear-gradient-8"/><linearGradient id="linear-gradient-15" x1="64" y1="52.5" x2="64" y2="136.073" xlink:href="#linear-gradient-10"/></defs><title>salad, vegetable, vegan, healthy, food, salad, diet</title><path d="M46.479,48.574A11.7,11.7,0,0,1,40.6,44.411c-3.389-5.116-8.46-7.9-13.217-5.688-5.014,2.334-5.333,8.64-4.266,13.315.5,2.208.547,4.536-.727,6.409-3.922,5.759-1.5,12.277,6.327,13.218H53.579C58.294,63.6,54.881,51.141,46.479,48.574Z" style="fill:url(#linear-gradient)"/><path d="M103.524,41.678a3.616,3.616,0,0,0-4.42-1.246C95.56,41.983,80.21,48.353,82.932,65.419l22.128-.97C110.247,57.628,106.53,46,103.524,41.678Z" style="fill:url(#linear-gradient-2)"/><path d="M66.721,45.517a5.344,5.344,0,0,1-2.833-3.951c-1.216-5.7-5.366-10.21-10.887-9.625-4.98.528-7.6,4.415-8.02,8.8-.266,2.754-.123,4.759-2.146,6.646-5.379,5.016-7.066,14.841-.373,18.035H70.079C77.4,59.047,73.523,49.1,66.721,45.517Z" style="fill:url(#linear-gradient-3)"/><path d="M86.291,36.168l-.1-.56a48.167,48.167,0,0,1-.939-7.862,1.488,1.488,0,0,0-.423-1.079,1.507,1.507,0,0,0-1.07-.451,1.477,1.477,0,0,0-.271.025l-1.4.254a1.508,1.508,0,0,0-1.224,1.323l-.351,3.441a.263.263,0,0,1-.319.1l-2.2-2.668a1.5,1.5,0,0,0-1.753-.421l-1.306.566a1.493,1.493,0,0,0-.632,2.231,48.122,48.122,0,0,1,3.581,7.06l.229.522a2.371,2.371,0,0,0,2.169,1.41,2.4,2.4,0,0,0,.693-.1l3.663-1.11A2.376,2.376,0,0,0,86.291,36.168Z" style="fill:url(#linear-gradient-4)"/><path d="M91.508,21.6a6.069,6.069,0,0,0-5.791-5.556,1.8,1.8,0,0,1-1.407-.557,8.8,8.8,0,0,0-7.323-3.823,8.5,8.5,0,0,0-2.475.363,8.844,8.844,0,0,0-6.231,8.316,1.8,1.8,0,0,1-.862,1.244,6.07,6.07,0,0,0-1.734,7.836A5.973,5.973,0,0,0,70.9,32.483c.065,0,.13,0,.2,0a6.1,6.1,0,0,0,4.991-2.858,1.938,1.938,0,0,1,1.534-.751,8.357,8.357,0,0,0,3.654-1.107,2.358,2.358,0,0,1,1.148-.336,1.3,1.3,0,0,1,.545.109,6,6,0,0,0,2.5.542,6.151,6.151,0,0,0,3.239-.934A6.017,6.017,0,0,0,91.508,21.6Z" style="fill:url(#linear-gradient-5)"/><path d="M40.778,30.9c-1.379,1.379-3.589,1.609-5.1,1.579A1.756,1.756,0,0,1,33.9,30.7c-.029-1.509.2-3.718,1.58-5.1s3.589-1.609,5.1-1.579A1.756,1.756,0,0,1,42.358,25.8C42.387,27.312,42.158,29.522,40.778,30.9Z" style="fill:url(#linear-gradient-6)"/><path d="M49.515,19.348c-.967-1.694-.607-3.886-.181-5.334a1.755,1.755,0,0,1,2.183-1.247c1.464.368,3.535,1.172,4.5,2.866s.607,3.886.181,5.334a1.757,1.757,0,0,1-2.184,1.247C52.554,21.845,50.483,21.041,49.515,19.348Z" style="fill:url(#linear-gradient-7)"/><circle cx="39.455" cy="60.343" r="7.311" style="fill:url(#linear-gradient-8)"/><path d="M84.944,44.916,66.827,61.5c4.048,7.693,12.508,7.972,17.658,3.471a14.076,14.076,0,0,0,4.623-8.986C89.544,52.032,88.435,48.437,84.944,44.916Z" style="fill:url(#linear-gradient-9)"/><path d="M84.944,44.916c2.7,2.617,2.1,9.255-2.106,14.214-4.579,5.4-11.438,7.556-16.011,2.366-3.095-3.513-1.628-10.322,3.327-14.6C75.377,42.387,81.648,41.726,84.944,44.916Z" style="fill:url(#linear-gradient-10)"/><path d="M79.65,48.93c1.278,1.237.991,4.372-1,6.715-2.163,2.551-5.4,3.569-7.563,1.117-1.462-1.659-.769-4.876,1.571-6.9C75.131,47.736,78.093,47.423,79.65,48.93Z" style="fill:url(#linear-gradient-11)"/><path d="M93.28,64.142a1.567,1.567,0,0,1-1.71-1.918,86.937,86.937,0,0,1,3.505-10.812,1.563,1.563,0,0,1,2.9,1.176A85.4,85.4,0,0,0,94.61,62.955,1.565,1.565,0,0,1,93.28,64.142Z" style="fill:url(#linear-gradient-12)"/><path d="M58.528,64.844a1.562,1.562,0,0,1-1.56-1.483,158.366,158.366,0,0,0-2.061-16.673,1.563,1.563,0,1,1,3.075-.56A158.2,158.2,0,0,1,60.09,63.2a1.563,1.563,0,0,1-1.482,1.641C58.582,64.844,58.554,64.844,58.528,64.844Z" style="fill:url(#linear-gradient-13)"/><circle cx="39.162" cy="57.394" r="1.379" style="fill:url(#linear-gradient-14)"/><path d="M22.78,60.343h82.44a5.211,5.211,0,0,1,5.211,5.211v.016A46.431,46.431,0,0,1,64,112h0A46.431,46.431,0,0,1,17.569,65.569v-.016a5.211,5.211,0,0,1,5.211-5.211Z" style="fill:url(#linear-gradient-15)"/></svg>