<svg id="Smooth" xmlns="http://www.w3.org/2000/svg" xmlns:xlink="http://www.w3.org/1999/xlink" viewBox="0 0 128 128"><defs><linearGradient id="linear-gradient" x1="60.218" y1="88.833" x2="60.218" y2="118.338" gradientUnits="userSpaceOnUse"><stop offset="0" stop-color="#ffd9c6"/><stop offset="1" stop-color="#ffc29a"/></linearGradient><linearGradient id="linear-gradient-2" x1="68.717" y1="61.778" x2="87.467" y2="35.278" gradientUnits="userSpaceOnUse"><stop offset="0" stop-color="#ff9b6d"/><stop offset="1" stop-color="#ff6363"/></linearGradient><linearGradient id="linear-gradient-3" x1="72.468" y1="54.488" x2="65.843" y2="62.988" gradientUnits="userSpaceOnUse"><stop offset="0" stop-color="#450922"/><stop offset="1" stop-color="#754d5b"/></linearGradient><linearGradient id="linear-gradient-4" x1="47.736" y1="62.047" x2="40.861" y2="71.797" xlink:href="#linear-gradient-3"/><linearGradient id="linear-gradient-5" x1="62.929" y1="80.951" x2="56.804" y2="89.326" xlink:href="#linear-gradient-3"/><linearGradient id="linear-gradient-6" x1="39.455" y1="88.097" x2="30.767" y2="97.222" xlink:href="#linear-gradient-3"/><linearGradient id="linear-gradient-7" x1="55.103" y1="46.412" x2="34.712" y2="69.171" gradientTransform="translate(6.446 0.371)" gradientUnits="userSpaceOnUse"><stop offset="0" stop-color="#dd3152"/><stop offset="1" stop-color="#ed845e"/></linearGradient><linearGradient id="linear-gradient-8" x1="51.276" y1="84.087" x2="39.484" y2="100.462" gradientUnits="userSpaceOnUse"><stop offset="0" stop-color="#31477c"/><stop offset="1" stop-color="#81d187"/></linearGradient><linearGradient id="linear-gradient-9" x1="93.974" y1="67.926" x2="80.307" y2="85.343" xlink:href="#linear-gradient-8"/><linearGradient id="linear-gradient-10" x1="53.616" y1="34.372" x2="45.179" y2="47.122" xlink:href="#linear-gradient-8"/><linearGradient id="linear-gradient-11" x1="41.496" y1="78.35" x2="29.455" y2="86.683" xlink:href="#linear-gradient-8"/><linearGradient id="linear-gradient-12" x1="56.389" y1="63.108" x2="49.627" y2="72.929" gradientTransform="translate(6.446 0.371)" xlink:href="#linear-gradient-8"/><linearGradient id="linear-gradient-13" x1="73.63" y1="64.939" x2="53.239" y2="87.698" xlink:href="#linear-gradient-7"/><linearGradient id="linear-gradient-14" x1="48.601" y1="71.441" x2="28.21" y2="94.2" xlink:href="#linear-gradient-7"/></defs><title>pizza, fastfood, food, cheese, unhealthy, restaurant, pepperoni</title><path d="M95.947,83.821S94.56,63.255,79.572,48.266C64.458,33.153,44.017,31.891,44.017,31.891L24.78,94a7.332,7.332,0,0,0,9.062,9.062l5.62-1.741a5.153,5.153,0,0,1,6.678,4.923v5.421a6.905,6.905,0,0,0,6.512,7,6.718,6.718,0,0,0,6.926-6.716V99.62a6.15,6.15,0,0,1,4.331-5.875h0a6.15,6.15,0,0,1,7.97,5.875v4.889a6.906,6.906,0,0,0,6.513,7,6.72,6.72,0,0,0,6.926-6.716V93.16a8.2,8.2,0,0,1,5.776-7.836Z" style="fill:url(#linear-gradient)"/><path d="M105.589,88.9a9.02,9.02,0,0,1-11.153-5.69A80.477,80.477,0,0,0,75.223,52.528,80.676,80.676,0,0,0,44.6,33.313,9.02,9.02,0,0,1,38.933,22.15h0a9.046,9.046,0,0,1,11.516-5.93A96.547,96.547,0,0,1,88.173,39.578a96.335,96.335,0,0,1,23.364,37.816A9.048,9.048,0,0,1,105.589,88.9Z" style="fill:url(#linear-gradient-2)"/><circle cx="69.591" cy="58.179" r="2.381" style="fill:url(#linear-gradient-3)"/><circle cx="44.248" cy="66.994" r="2.381" style="fill:url(#linear-gradient-4)"/><circle cx="60.934" cy="83.68" r="2.381" style="fill:url(#linear-gradient-5)"/><circle cx="34.731" cy="93.059" r="2.381" style="fill:url(#linear-gradient-6)"/><circle cx="53.707" cy="55.536" r="8.137" style="fill:url(#linear-gradient-7)"/><path d="M41.984,94.418a3.323,3.323,0,0,0,.973,2.3.82.82,0,0,0,1.171.1,2.676,2.676,0,0,0,.374-4.4.821.821,0,0,0-1.172-.1A3.327,3.327,0,0,0,41.984,94.418Z" style="fill:url(#linear-gradient-8)"/><path d="M84.733,78.145a3.325,3.325,0,0,0-2.3.973.821.821,0,0,0-.1,1.172,2.677,2.677,0,0,0,4.4.373.82.82,0,0,0,.1-1.171A3.325,3.325,0,0,0,84.733,78.145Z" style="fill:url(#linear-gradient-9)"/><path d="M49.568,42.98a3.321,3.321,0,0,1-.973,2.3.821.821,0,0,1-1.172.1,3.327,3.327,0,0,1-1.346-2.1,3.325,3.325,0,0,1,.973-2.3.82.82,0,0,1,1.171-.1A3.325,3.325,0,0,1,49.568,42.98Z" style="fill:url(#linear-gradient-10)"/><path d="M33.38,85.814a3.324,3.324,0,0,1-2.3-.972.822.822,0,0,1-.1-1.172,3.324,3.324,0,0,1,2.1-1.346,3.325,3.325,0,0,1,2.3.973.821.821,0,0,1,.1,1.171A3.32,3.32,0,0,1,33.38,85.814Z" style="fill:url(#linear-gradient-11)"/><path d="M58.633,71.542a3.321,3.321,0,0,1-2.3-.973.821.821,0,0,1-.1-1.172,3.327,3.327,0,0,1,2.1-1.346,3.325,3.325,0,0,1,2.3.973.821.821,0,0,1,.1,1.172A3.324,3.324,0,0,1,58.633,71.542Z" style="fill:url(#linear-gradient-12)"/><circle cx="72.234" cy="74.063" r="8.137" style="fill:url(#linear-gradient-13)"/><circle cx="47.205" cy="80.565" r="8.137" style="fill:url(#linear-gradient-14)"/></svg>