<svg id="Smooth" xmlns="http://www.w3.org/2000/svg" xmlns:xlink="http://www.w3.org/1999/xlink" viewBox="0 0 128 128"><defs><linearGradient id="linear-gradient" x1="53.963" y1="69.269" x2="51.165" y2="81.393" gradientUnits="userSpaceOnUse"><stop offset="0" stop-color="#ffa6a4"/><stop offset="0.507" stop-color="#f58490"/><stop offset="1" stop-color="#ed687f"/></linearGradient><linearGradient id="linear-gradient-2" x1="60.697" y1="99.635" x2="60.697" y2="66.838" xlink:href="#linear-gradient"/><linearGradient id="linear-gradient-3" x1="64.109" y1="45.25" x2="64.109" y2="13.663" gradientUnits="userSpaceOnUse"><stop offset="0" stop-color="#450922"/><stop offset="1" stop-color="#757777"/></linearGradient><linearGradient id="linear-gradient-4" x1="64.08" y1="103.25" x2="64.08" y2="13.249" gradientUnits="userSpaceOnUse"><stop offset="0" stop-color="#450922"/><stop offset="0.335" stop-color="#542b3c"/><stop offset="1" stop-color="#757777"/></linearGradient><linearGradient id="linear-gradient-5" x1="64.109" y1="54.25" x2="64.109" y2="101.153" gradientUnits="userSpaceOnUse"><stop offset="0" stop-color="#450922"/><stop offset="0.045" stop-color="#49132a"/><stop offset="0.236" stop-color="#593745"/><stop offset="0.427" stop-color="#65535b"/><stop offset="0.618" stop-color="#6e676b"/><stop offset="0.809" stop-color="#737374"/><stop offset="1" stop-color="#757777"/></linearGradient></defs><title>service, serve, food, restaurant, carry, delivery, order</title><path d="M52.13,73.959c-3.28,3.2-5.338,11.066-7.486,15.678l9.985-4.423c-.165-1.781-1.063-2.874,1.943-8.126C58.7,73.367,53.984,72.154,52.13,73.959Z" style="fill:url(#linear-gradient)"/><path d="M80.757,74.04c-1.52-.155-3.457.648-5.99,2.709a2.212,2.212,0,0,0-1.479-3.59c-1.5-.172-3.25.853-4.222,1.428-1.272.751-4.652,3.586-4.652,3.586a21.9,21.9,0,0,1-10.8,4.937,21.489,21.489,0,0,0-7.106,2.273c-5.2,2.922-7.942,8.884-7.942,14.85v9.082A1.684,1.684,0,0,0,40.253,111h11.31a1.684,1.684,0,0,0,1.684-1.685v-8.244a4.153,4.153,0,0,1,2.537-3.825S66.49,93.9,69.533,91.805c3.87-2.669,12.68-13.885,12.68-13.885A2.323,2.323,0,0,0,80.757,74.04Z" style="fill:url(#linear-gradient-2)"/><path d="M65.92,86.524a1.2,1.2,0,0,1-.835-2.06l8.847-8.577A1.2,1.2,0,1,1,75.6,77.61l-8.847,8.576A1.194,1.194,0,0,1,65.92,86.524Z" style="fill:#ed687f"/><path d="M69.09,17.884a5.371,5.371,0,0,0-9.962,0,4.152,4.152,0,0,0,.018,3.008,12.674,12.674,0,0,1,.712,4.35h8.5a12.669,12.669,0,0,1,.713-4.35A4.163,4.163,0,0,0,69.09,17.884Z" style="fill:url(#linear-gradient-3)"/><path d="M64.08,24.193A43.845,43.845,0,0,0,20.235,68.039h87.691A43.846,43.846,0,0,0,64.08,24.193Z" style="fill:url(#linear-gradient-4)"/><rect x="16.151" y="67.039" width="95.916" height="9.438" rx="4.719" ry="4.719" style="fill:url(#linear-gradient-5)"/></svg>