<svg id="Smooth" xmlns="http://www.w3.org/2000/svg" xmlns:xlink="http://www.w3.org/1999/xlink" viewBox="0 0 128 128"><defs><linearGradient id="linear-gradient" x1="63.969" y1="-8.149" x2="63.969" y2="108.327" gradientUnits="userSpaceOnUse"><stop offset="0" stop-color="#313b42"/><stop offset="1" stop-color="#81d187"/></linearGradient><linearGradient id="linear-gradient-2" x1="63.969" y1="39.382" x2="63.969" y2="125.827" xlink:href="#linear-gradient"/><linearGradient id="linear-gradient-3" x1="63.969" y1="35.078" x2="63.969" y2="116.907" gradientUnits="userSpaceOnUse"><stop offset="0" stop-color="#ffe0e3"/><stop offset="1" stop-color="#ffc9ae"/></linearGradient><linearGradient id="linear-gradient-4" x1="64" y1="16.429" x2="64" y2="58.197" xlink:href="#linear-gradient-3"/><linearGradient id="linear-gradient-5" x1="46.522" y1="87.486" x2="46.522" y2="73.045" gradientUnits="userSpaceOnUse"><stop offset="0" stop-color="#ffa489"/><stop offset="1" stop-color="#ff6363"/></linearGradient><linearGradient id="linear-gradient-6" x1="81.415" y1="87.486" x2="81.415" y2="73.045" xlink:href="#linear-gradient-5"/><linearGradient id="linear-gradient-8" x1="64" y1="32.974" x2="64" y2="50.493" gradientUnits="userSpaceOnUse"><stop offset="0" stop-color="#ffd3bd"/><stop offset="1" stop-color="#ffc9ae"/></linearGradient></defs><title>shop, restaurant, deliver, store, open, building</title><rect x="23.888" y="32.45" width="80.161" height="71.645" style="fill:url(#linear-gradient)"/><path d="M36.208,39.834H91.73a0,0,0,0,1,0,0V84.848a3.938,3.938,0,0,1-3.938,3.938H40.146a3.938,3.938,0,0,1-3.938-3.938V39.834A0,0,0,0,1,36.208,39.834Z" style="fill:url(#linear-gradient-2)"/><rect x="16.876" y="104.095" width="94.185" height="7.876" rx="3.938" ry="3.938" style="fill:url(#linear-gradient-3)"/><path d="M112.659,48.3a8.62,8.62,0,0,1-2.158,4.946,9.888,9.888,0,0,1-15.034-1.194,2.264,2.264,0,0,0-3.718,0,9.873,9.873,0,0,1-16.032,0,2.286,2.286,0,0,0-3.73,0,9.871,9.871,0,0,1-8.022,4.109,9.76,9.76,0,0,1-7.953-4.109,2.287,2.287,0,0,0-3.718,0,9.884,9.884,0,0,1-16.043,0,2.265,2.265,0,0,0-3.719,0A9.887,9.887,0,0,1,17.5,53.245,8.613,8.613,0,0,1,15.341,48.3a36.981,36.981,0,0,1,.987-6.312c1.079-4.958,2.812-11.465,4.154-16.285a9.166,9.166,0,0,1,8.837-6.713H98.681a9.189,9.189,0,0,1,8.848,6.713c1.343,4.82,3.075,11.327,4.143,16.285A37.084,37.084,0,0,1,112.659,48.3Z" style="fill:url(#linear-gradient-4)"/><path d="M47.3,90.508a1.723,1.723,0,0,1-1.677-1.339L44.07,82.386a1.722,1.722,0,1,1,3.357-.765L48.975,88.4a1.723,1.723,0,0,1-1.3,2.061A1.754,1.754,0,0,1,47.3,90.508Z" style="fill:url(#linear-gradient-5)"/><path d="M80.642,90.508a1.752,1.752,0,0,1-.384-.043,1.723,1.723,0,0,1-1.3-2.061l1.548-6.783a1.722,1.722,0,0,1,3.358.765L82.32,89.169A1.724,1.724,0,0,1,80.642,90.508Z" style="fill:url(#linear-gradient-6)"/><rect x="29.716" y="74.702" width="68.506" height="7.302" rx="3.651" ry="3.651" style="fill:url(#linear-gradient-3)"/><path d="M112.659,48.3a8.62,8.62,0,0,1-2.158,4.946,9.888,9.888,0,0,1-15.034-1.194,2.264,2.264,0,0,0-3.718,0,9.873,9.873,0,0,1-16.032,0,2.286,2.286,0,0,0-3.73,0,9.871,9.871,0,0,1-8.022,4.109,9.76,9.76,0,0,1-7.953-4.109,2.287,2.287,0,0,0-3.718,0,9.884,9.884,0,0,1-16.043,0,2.265,2.265,0,0,0-3.719,0A9.887,9.887,0,0,1,17.5,53.245,8.613,8.613,0,0,1,15.341,48.3a36.981,36.981,0,0,1,.987-6.312h95.344A37.084,37.084,0,0,1,112.659,48.3Z" style="fill:url(#linear-gradient-8)"/></svg>