<svg id="Smooth" xmlns="http://www.w3.org/2000/svg" xmlns:xlink="http://www.w3.org/1999/xlink" viewBox="0 0 128 128"><defs><linearGradient id="linear-gradient" x1="64" y1="105" x2="64" y2="59.038" gradientUnits="userSpaceOnUse"><stop offset="0" stop-color="#ffc2a1"/><stop offset="1" stop-color="#ffddd4"/></linearGradient><linearGradient id="linear-gradient-2" x1="64" y1="29.999" x2="64" y2="74.747" gradientUnits="userSpaceOnUse"><stop offset="0" stop-color="#ff9295"/><stop offset="0.978" stop-color="#ff6318"/></linearGradient><linearGradient id="linear-gradient-3" x1="24.363" y1="69.333" x2="24.363" y2="36.665" gradientUnits="userSpaceOnUse"><stop offset="0" stop-color="#ffd3bd"/><stop offset="1" stop-color="#fff"/></linearGradient><linearGradient id="linear-gradient-4" x1="46.949" y1="69.333" x2="46.949" y2="36.665" xlink:href="#linear-gradient-3"/><linearGradient id="linear-gradient-5" x1="97.31" y1="67.732" x2="97.31" y2="40.302" xlink:href="#linear-gradient-3"/><linearGradient id="linear-gradient-6" x1="74.897" y1="67.844" x2="74.897" y2="39.979" xlink:href="#linear-gradient-3"/></defs><title>sushi, japanese, food, salmon, eat, asian, rice</title><path d="M64,57.625c-33.75,0-51.252,12.763-51.252,12.763v9.368A21.364,21.364,0,0,0,34.112,101.12h8.07a5.834,5.834,0,0,1,3.281.981,33.088,33.088,0,0,0,37.074,0,5.834,5.834,0,0,1,3.281-.981h8.07a21.364,21.364,0,0,0,21.364-21.364V70.388S97.75,57.625,64,57.625Z" style="fill:url(#linear-gradient)"/><path d="M117.41,66.62c0,4.29-5.13,6.65-8.92,4.66a47.787,47.787,0,0,0-6.6-2.81c-1.65-.57-3.42-1.1-5.27-1.58h-.01c-.97-.25-1.95-.49-2.97-.72-.68-.15-1.38-.3-2.08-.44a123.668,123.668,0,0,0-13.82-1.9c-.14-.02-4.34-.32-6.35-.4-.56-.03-5.47-.16-7.39-.16-4.13,0-8.16.14-12.03.42-.04,0-.09.01-.13.01-2.1.16-4.14.35-6.14.59,0,0-.58.06-.86.1a125.89,125.89,0,0,0-14.417,2.756c-1.025.259-2.143.6-3.113.924-.32.1-.63.2-.94.31-.75.25-1.48.52-2.19.8a45.114,45.114,0,0,0-4.67,2.1c-3.79,1.99-8.92-.37-8.92-4.66,0-5.41,2.48-12.06,7.8-18.12.8-.91,1.66-1.81,2.59-2.68.87-.82,1.8-1.63,2.79-2.41.48-.39.98-.77,1.49-1.13a90.061,90.061,0,0,1,8.72-5.07,61.668,61.668,0,0,1,12.41-4.06v-.01c.77-.16,1.54-.32,2.34-.46h.01c1.53-.28,3.11-.52,4.75-.71.28-.03.57-.07.85-.1A89.639,89.639,0,0,1,64,31.36a87.409,87.409,0,0,1,11.44.72c.84.11,1.67.23,2.48.37,1.07.17,2.12.36,3.14.58.62.13,1.21.27,1.81.41h.01a54.877,54.877,0,0,1,19.78,8.77l.57.42c.66.49,1.29.99,1.9,1.5.69.58,1.36,1.17,1.99,1.77C114.16,52.61,117.41,60.43,117.41,66.62Z" style="fill:url(#linear-gradient-2)"/><path d="M30.32,67.17c-1.02.28-2.04.58-3.01.9-.32.1-.63.2-.94.31-2.47-1.02-6.33-3.32-7.15-5.3-2.11-5.04.39-13.53,1.76-17.26.87-.82,1.8-1.63,2.79-2.41.48-.39.98-.77,1.49-1.13-3.3,6.54-3.98,15.29-2.2,19.16C24.07,63.67,27.76,65.91,30.32,67.17Z" style="fill:url(#linear-gradient-3)"/><path d="M46.12,57.17c-1.8-4.8,2.18-18.41,8.22-25.3-.28.03-.57.07-.85.1-1.64.19-3.22.43-4.75.71h-.01C42.86,40.19,37.84,51.93,40.12,58c.68,1.84,3.63,4.96,5.57,6.29l6.15-.59A15.523,15.523,0,0,1,46.12,57.17Z" style="fill:url(#linear-gradient-4)"/><path d="M94.06,59.31c-.21,2.36,1.17,5.55,2.55,7.58-.97-.25-1.95-.49-2.97-.72-.68-.15-1.38-.3-2.08-.44a15.824,15.824,0,0,1-2.07-6.33c-.05-3.63,6.8-12.9,13.17-17.19l.57.42c.66.49,1.29.99,1.9,1.5C100.92,47.07,94.36,55.92,94.06,59.31Z" style="fill:url(#linear-gradient-5)"/><path d="M72.58,54.63c.08,3.73,2.53,7.26,5.16,9.2-.14-.02-.29-.03-.44-.04q-2.895-.24-5.91-.36c-1.76-2.26-4.11-5.53-4.39-8.18-.68-6.36,3.2-15.54,10.92-22.8,1.07.17,2.12.36,3.14.58.62.13,1.21.27,1.81.41C76.42,38.47,72.45,47.72,72.58,54.63Z" style="fill:url(#linear-gradient-6)"/></svg>