<svg id="Smooth" xmlns="http://www.w3.org/2000/svg" xmlns:xlink="http://www.w3.org/1999/xlink" viewBox="0 0 128 128"><defs><linearGradient id="linear-gradient" x1="35.188" y1="35.312" x2="21.588" y2="21.711" gradientTransform="matrix(0.707, -0.707, -0.707, -0.707, 94.669, 80.887)" gradientUnits="userSpaceOnUse"><stop offset="0" stop-color="#ff8e81"/><stop offset="1" stop-color="#ffc9ae"/></linearGradient><linearGradient id="linear-gradient-2" x1="34.412" y1="35.968" x2="28.162" y2="27.593" gradientTransform="matrix(0.707, -0.707, -0.707, -0.707, 97.889, 73.115)" gradientUnits="userSpaceOnUse"><stop offset="0" stop-color="#ff9c93"/><stop offset="1" stop-color="#ffc9ae"/></linearGradient><linearGradient id="linear-gradient-3" x1="35.188" y1="35.312" x2="21.588" y2="21.711" gradientTransform="translate(33.505 -13.806) rotate(45)" xlink:href="#linear-gradient"/><linearGradient id="linear-gradient-4" x1="34.412" y1="35.968" x2="28.162" y2="27.593" gradientTransform="translate(30.285 -12.473) rotate(45)" xlink:href="#linear-gradient-2"/><linearGradient id="linear-gradient-5" x1="64" y1="17.667" x2="64" y2="34.687" gradientTransform="matrix(1, 0, 0, 1, 0, 0)" xlink:href="#linear-gradient"/><linearGradient id="linear-gradient-6" x1="64" y1="132.333" x2="64" y2="-6.757" gradientTransform="matrix(1, 0, 0, 1, 0, 0)" xlink:href="#linear-gradient-2"/><linearGradient id="linear-gradient-7" x1="64" y1="136.5" x2="64" y2="7.984" gradientUnits="userSpaceOnUse"><stop offset="0" stop-color="#ffd3bd"/><stop offset="1" stop-color="#fff"/></linearGradient><linearGradient id="linear-gradient-8" x1="51.873" y1="23.627" x2="67.049" y2="38.804" gradientTransform="translate(-26.51 64) rotate(-45)" gradientUnits="userSpaceOnUse"><stop offset="0" stop-color="#81b3ce"/><stop offset="1" stop-color="#904d5b"/></linearGradient><linearGradient id="linear-gradient-9" x1="38.125" y1="93.585" x2="44.688" y2="82.897" gradientTransform="matrix(1, 0, 0, 1, 0, 0)" xlink:href="#linear-gradient-8"/><linearGradient id="linear-gradient-10" x1="51.873" y1="23.627" x2="67.049" y2="38.804" gradientTransform="matrix(-0.707, -0.707, -0.707, 0.707, 154.51, 64)" xlink:href="#linear-gradient-8"/><linearGradient id="linear-gradient-11" x1="38.125" y1="93.585" x2="44.688" y2="82.897" gradientTransform="matrix(-1, 0, 0, 1, 128, 0)" xlink:href="#linear-gradient-8"/><linearGradient id="linear-gradient-12" x1="64" y1="67.563" x2="64" y2="43.04" gradientTransform="matrix(1, 0, 0, 1, 0, 0)" xlink:href="#linear-gradient-2"/><linearGradient id="linear-gradient-13" x1="64.334" y1="61.188" x2="47.834" y2="83.188" gradientTransform="translate(146.554 83.254) rotate(135)" xlink:href="#linear-gradient-2"/><linearGradient id="linear-gradient-14" x1="64" y1="20.25" x2="64" y2="5.766" gradientTransform="matrix(1, 0, 0, 1, 0, 0)" xlink:href="#linear-gradient-2"/><linearGradient id="linear-gradient-15" x1="64" y1="65.25" x2="64" y2="50.29" gradientTransform="matrix(1, 0, 0, 1, 0, 0)" xlink:href="#linear-gradient"/><linearGradient id="linear-gradient-16" x1="64" y1="114.333" x2="64" y2="23.222" gradientUnits="userSpaceOnUse"><stop offset="0" stop-color="#ffc2a1"/><stop offset="1" stop-color="#ffddd4"/></linearGradient><linearGradient id="linear-gradient-17" x1="43.848" y1="43.818" x2="53.749" y2="53.719" gradientTransform="translate(63.994 -26.525) rotate(45)" xlink:href="#linear-gradient-2"/><linearGradient id="linear-gradient-18" x1="85.098" y1="85.068" x2="72.508" y2="72.478" gradientTransform="translate(63.994 -26.525) rotate(45)" xlink:href="#linear-gradient-2"/><linearGradient id="linear-gradient-19" x1="43.494" y1="86.344" x2="51.494" y2="71.511" gradientTransform="translate(63.994 -26.525) rotate(45)" xlink:href="#linear-gradient-2"/><linearGradient id="linear-gradient-20" x1="86.792" y1="41.208" x2="72.449" y2="55.551" gradientTransform="translate(63.994 -26.525) rotate(45)" xlink:href="#linear-gradient-2"/></defs><title>times, delivery, fast, destination, shipping, clock</title><rect x="91.641" y="29.401" width="5.882" height="8.279" transform="translate(137.745 124.137) rotate(-135)" style="fill:url(#linear-gradient)"/><rect x="90.614" y="26.216" width="14.375" height="8.212" rx="4.106" ry="4.106" transform="translate(145.517 120.918) rotate(-135)" style="fill:url(#linear-gradient-2)"/><rect x="30.477" y="29.401" width="5.882" height="8.279" transform="translate(-13.929 33.454) rotate(-45)" style="fill:url(#linear-gradient-3)"/><rect x="23.011" y="26.216" width="14.375" height="8.212" rx="4.106" ry="4.106" transform="translate(-12.596 30.234) rotate(-45)" style="fill:url(#linear-gradient-4)"/><rect x="58.802" y="15.125" width="10.396" height="8.945" style="fill:url(#linear-gradient-5)"/><circle cx="64" cy="64" r="41.292" style="fill:url(#linear-gradient-6)"/><circle cx="64" cy="64" r="32.158" style="fill:url(#linear-gradient-7)"/><path d="M47.855,47.855a1.5,1.5,0,0,1-2.122,0L40.2,42.321A1.5,1.5,0,0,1,42.321,40.2l5.534,5.533A1.5,1.5,0,0,1,47.855,47.855Z" style="fill:url(#linear-gradient-8)"/><path d="M47.854,82.267,42.321,87.8A1.5,1.5,0,0,1,40.2,85.679l5.533-5.533a1.5,1.5,0,0,1,2.121,2.121Z" style="fill:url(#linear-gradient-9)"/><path d="M80.145,47.855a1.5,1.5,0,0,0,2.122,0L87.8,42.321A1.5,1.5,0,0,0,85.679,40.2l-5.534,5.533A1.5,1.5,0,0,0,80.145,47.855Z" style="fill:url(#linear-gradient-10)"/><path d="M80.146,82.267,85.679,87.8A1.5,1.5,0,0,0,87.8,85.679l-5.533-5.533a1.5,1.5,0,0,0-2.121,2.121Z" style="fill:url(#linear-gradient-11)"/><path d="M64,46.9h0a2.519,2.519,0,0,1,2.519,2.519V61.187a0,0,0,0,1,0,0H61.481a0,0,0,0,1,0,0V49.42A2.519,2.519,0,0,1,64,46.9Z" style="fill:url(#linear-gradient-12)"/><path d="M56.034,62.972h0a2.519,2.519,0,0,1,2.519,2.519V80.986a0,0,0,0,1,0,0H53.515a0,0,0,0,1,0,0V65.492A2.519,2.519,0,0,1,56.034,62.972Z" transform="translate(44.76 162.498) rotate(-135)" style="fill:url(#linear-gradient-13)"/><rect x="52.375" y="8.583" width="23.25" height="10.198" rx="5.099" ry="5.099" style="fill:url(#linear-gradient-14)"/><circle cx="64" cy="64" r="3.813" style="fill:url(#linear-gradient-15)"/><path d="M64,97.658A33.658,33.658,0,1,1,97.658,64,33.7,33.7,0,0,1,64,97.658Zm0-64.316A30.658,30.658,0,1,0,94.658,64,30.693,30.693,0,0,0,64,33.342Z" style="fill:url(#linear-gradient-16)"/><circle cx="64.015" cy="38.009" r="2.5" style="fill:url(#linear-gradient-17)"/><circle cx="64.015" cy="89.962" r="2.5" style="fill:url(#linear-gradient-18)"/><circle cx="38.038" cy="63.985" r="2.5" style="fill:url(#linear-gradient-19)"/><circle cx="89.991" cy="63.985" r="2.5" style="fill:url(#linear-gradient-20)"/></svg>