<svg id="Smooth" xmlns="http://www.w3.org/2000/svg" xmlns:xlink="http://www.w3.org/1999/xlink" viewBox="0 0 128 128"><defs><linearGradient id="linear-gradient" x1="63.806" y1="16.076" x2="63.806" y2="91.001" gradientUnits="userSpaceOnUse"><stop offset="0" stop-color="#31477c"/><stop offset="1" stop-color="#60a4e3"/></linearGradient><linearGradient id="linear-gradient-2" x1="38.945" y1="43.333" x2="38.945" y2="111.95" xlink:href="#linear-gradient"/><linearGradient id="linear-gradient-3" x1="54.937" y1="43.333" x2="54.938" y2="111.95" xlink:href="#linear-gradient"/><linearGradient id="linear-gradient-4" x1="89.055" y1="43.333" x2="89.055" y2="111.95" xlink:href="#linear-gradient"/><linearGradient id="linear-gradient-5" x1="73.062" y1="43.333" x2="73.063" y2="111.95" xlink:href="#linear-gradient"/><linearGradient id="linear-gradient-6" x1="102.682" y1="81.75" x2="102.682" y2="141.927" gradientUnits="userSpaceOnUse"><stop offset="0" stop-color="#ffd160"/><stop offset="1" stop-color="#ed7c38"/></linearGradient><linearGradient id="linear-gradient-7" x1="108.883" y1="117.058" x2="98.445" y2="93.495" gradientUnits="userSpaceOnUse"><stop offset="0" stop-color="#ffd3bd"/><stop offset="1" stop-color="#fff"/></linearGradient><linearGradient id="linear-gradient-8" x1="39.932" y1="49.25" x2="39.932" y2="24.858" gradientUnits="userSpaceOnUse"><stop offset="0" stop-color="#ffd3bd"/><stop offset="1" stop-color="#ffddd4"/></linearGradient><linearGradient id="linear-gradient-9" x1="88.068" y1="49.25" x2="88.068" y2="24.858" xlink:href="#linear-gradient-8"/><linearGradient id="linear-gradient-10" x1="64" y1="-12.333" x2="64" y2="70.067" xlink:href="#linear-gradient"/></defs><title>basket, add, cart, shopping, buy, web, online</title><path d="M96.25,106.866H31.362a4.985,4.985,0,0,1-4.956-4.451L21.9,59.681h83.812l-4.505,42.734A4.985,4.985,0,0,1,96.25,106.866Z" style="fill:url(#linear-gradient)"/><path d="M39.883,100.5a1.5,1.5,0,0,1-1.5-1.4L36.509,70.5a1.5,1.5,0,1,1,2.993-.2l1.879,28.6a1.5,1.5,0,0,1-1.4,1.595C39.95,100.5,39.917,100.5,39.883,100.5Z" style="fill:url(#linear-gradient-2)"/><path d="M55.17,100.5a1.5,1.5,0,0,1-1.5-1.476l-.467-28.6a1.5,1.5,0,1,1,3-.049l.467,28.6A1.5,1.5,0,0,1,55.2,100.5Z" style="fill:url(#linear-gradient-3)"/><path d="M88.117,100.5c-.034,0-.067,0-.1,0a1.5,1.5,0,0,1-1.4-1.595L88.5,70.3a1.5,1.5,0,1,1,2.993.2L89.612,99.1A1.5,1.5,0,0,1,88.117,100.5Z" style="fill:url(#linear-gradient-4)"/><path d="M72.83,100.5h-.025a1.5,1.5,0,0,1-1.476-1.524l.467-28.6A1.533,1.533,0,0,1,73.32,68.9,1.5,1.5,0,0,1,74.8,70.426l-.467,28.6A1.5,1.5,0,0,1,72.83,100.5Z" style="fill:url(#linear-gradient-5)"/><circle cx="102.682" cy="103.059" r="12.882" style="fill:url(#linear-gradient-6)"/><path d="M108.6,101.56h-4.422V97.137a1.5,1.5,0,0,0-3,0v4.423H96.76a1.5,1.5,0,1,0,0,3h4.422v4.422a1.5,1.5,0,0,0,3,0V104.56H108.6a1.5,1.5,0,0,0,0-3Z" style="fill:url(#linear-gradient-7)"/><path d="M20.378,45.208,30.594,55.425,58.286,25.418a4.586,4.586,0,0,0-.143-6.337L56.721,17.66a4.585,4.585,0,0,0-6.336-.144Z" style="fill:url(#linear-gradient-8)"/><path d="M107.622,45.208,97.406,55.425,69.714,25.418a4.587,4.587,0,0,1,.143-6.337l1.422-1.421a4.585,4.585,0,0,1,6.336-.144Z" style="fill:url(#linear-gradient-9)"/><path d="M106.1,60.681H21.9a5.069,5.069,0,0,1-5.034-4.476l-.832-7.052a5.069,5.069,0,0,1,5.035-5.663h85.862a5.069,5.069,0,0,1,5.035,5.663l-.832,7.052A5.069,5.069,0,0,1,106.1,60.681Z" style="fill:url(#linear-gradient-10)"/></svg>