<svg id="Smooth" xmlns="http://www.w3.org/2000/svg" xmlns:xlink="http://www.w3.org/1999/xlink" viewBox="0 0 128 128"><defs><linearGradient id="linear-gradient" x1="63.806" y1="21.076" x2="63.806" y2="96.001" gradientUnits="userSpaceOnUse"><stop offset="0" stop-color="#31477c"/><stop offset="1" stop-color="#60a4e3"/></linearGradient><linearGradient id="linear-gradient-2" x1="38.945" y1="48.333" x2="38.945" y2="116.95" xlink:href="#linear-gradient"/><linearGradient id="linear-gradient-3" x1="54.937" y1="48.333" x2="54.938" y2="116.95" xlink:href="#linear-gradient"/><linearGradient id="linear-gradient-4" x1="89.055" y1="48.333" x2="89.055" y2="116.95" xlink:href="#linear-gradient"/><linearGradient id="linear-gradient-5" x1="73.062" y1="48.333" x2="73.063" y2="116.95" xlink:href="#linear-gradient"/><linearGradient id="linear-gradient-6" x1="34.964" y1="46.25" x2="34.964" y2="21.858" gradientTransform="translate(2.147 80.834) rotate(-90)" gradientUnits="userSpaceOnUse"><stop offset="0" stop-color="#ffd3bd"/><stop offset="1" stop-color="#ffddd4"/></linearGradient><linearGradient id="linear-gradient-7" x1="93.099" y1="46.25" x2="93.099" y2="21.858" gradientTransform="translate(125.916 -47.229) rotate(90)" xlink:href="#linear-gradient-6"/><linearGradient id="linear-gradient-8" x1="64" y1="-7.333" x2="64" y2="75.067" xlink:href="#linear-gradient"/><linearGradient id="linear-gradient-9" x1="64" y1="11.75" x2="64" y2="56.647" gradientUnits="userSpaceOnUse"><stop offset="0" stop-color="#ffd160"/><stop offset="1" stop-color="#ed7c38"/></linearGradient></defs><title>basket, add, cart, shopping, buy, online, order</title><path d="M96.25,111.866H31.362a4.985,4.985,0,0,1-4.956-4.451L21.9,64.681h83.812l-4.505,42.734A4.985,4.985,0,0,1,96.25,111.866Z" style="fill:url(#linear-gradient)"/><path d="M39.883,105.5a1.5,1.5,0,0,1-1.5-1.4L36.509,75.5a1.5,1.5,0,1,1,2.993-.2l1.879,28.6a1.5,1.5,0,0,1-1.4,1.595C39.95,105.5,39.917,105.5,39.883,105.5Z" style="fill:url(#linear-gradient-2)"/><path d="M55.17,105.5a1.5,1.5,0,0,1-1.5-1.476l-.467-28.6a1.5,1.5,0,1,1,3-.049l.467,28.6A1.5,1.5,0,0,1,55.2,105.5Z" style="fill:url(#linear-gradient-3)"/><path d="M88.117,105.5c-.034,0-.067,0-.1,0a1.5,1.5,0,0,1-1.4-1.595L88.5,75.3a1.5,1.5,0,1,1,2.993.2l-1.879,28.6A1.5,1.5,0,0,1,88.117,105.5Z" style="fill:url(#linear-gradient-4)"/><path d="M72.83,105.5h-.025a1.5,1.5,0,0,1-1.476-1.524l.467-28.6A1.533,1.533,0,0,1,73.32,73.9,1.5,1.5,0,0,1,74.8,75.426l-.467,28.6A1.5,1.5,0,0,1,72.83,105.5Z" style="fill:url(#linear-gradient-5)"/><path d="M44.356,65.425,54.572,55.208,24.565,27.516a4.585,4.585,0,0,0-6.336.144l-1.422,1.421a4.587,4.587,0,0,0-.143,6.337Z" style="fill:url(#linear-gradient-6)"/><path d="M83.708,65.425,73.491,55.208,103.5,27.516a4.586,4.586,0,0,1,6.337.144l1.422,1.421a4.587,4.587,0,0,1,.143,6.337Z" style="fill:url(#linear-gradient-7)"/><path d="M106.1,65.681H21.9a5.069,5.069,0,0,1-5.034-4.476l-.832-7.052a5.069,5.069,0,0,1,5.035-5.663h85.862a5.069,5.069,0,0,1,5.035,5.663l-.832,7.052A5.069,5.069,0,0,1,106.1,65.681Z" style="fill:url(#linear-gradient-8)"/><path d="M61.1,14.592a1.262,1.262,0,0,0-1.262,1.254L59.8,21.77a.5.5,0,0,1-.5.5h-.561a2.06,2.06,0,0,0-1.727.853,1.95,1.95,0,0,0,.067,2.3l4.977,6.439a2.452,2.452,0,0,0,3.882,0l4.977-6.439a1.95,1.95,0,0,0,.067-2.3,2.06,2.06,0,0,0-1.727-.853H68.7a.5.5,0,0,1-.5-.5l-.039-5.924A1.262,1.262,0,0,0,66.9,14.592Z" style="fill:url(#linear-gradient-9)"/></svg>