<svg id="Smooth" xmlns="http://www.w3.org/2000/svg" xmlns:xlink="http://www.w3.org/1999/xlink" viewBox="0 0 128 128"><defs><linearGradient id="linear-gradient" x1="70.093" y1="74.912" x2="60.218" y2="36.787" gradientTransform="translate(22.335 -19.034) rotate(20.098)" gradientUnits="userSpaceOnUse"><stop offset="0" stop-color="#313b42"/><stop offset="1" stop-color="#81d187"/></linearGradient><linearGradient id="linear-gradient-2" x1="59.34" y1="56.333" x2="59.34" y2="17.685" gradientTransform="translate(25.264 -16.895) rotate(20.098)" xlink:href="#linear-gradient"/><linearGradient id="linear-gradient-3" x1="109.674" y1="106.554" x2="17.174" y2="53.304" gradientUnits="userSpaceOnUse"><stop offset="0" stop-color="#9c4247"/><stop offset="1" stop-color="#ec8468"/></linearGradient><linearGradient id="linear-gradient-4" x1="113.833" y1="80.038" x2="63.587" y2="80.038" xlink:href="#linear-gradient-3"/><linearGradient id="linear-gradient-5" x1="31.199" y1="1" x2="31.199" y2="65.623" gradientUnits="userSpaceOnUse"><stop offset="0" stop-color="#ffd160"/><stop offset="1" stop-color="#ed7c38"/></linearGradient><linearGradient id="linear-gradient-6" x1="31.199" y1="10.875" x2="31.199" y2="38.659" xlink:href="#linear-gradient-5"/><linearGradient id="linear-gradient-7" x1="59.34" x2="59.34" y2="65.623" xlink:href="#linear-gradient-5"/><linearGradient id="linear-gradient-8" x1="105.375" y1="80.038" x2="59.043" y2="80.038" gradientUnits="userSpaceOnUse"><stop offset="0" stop-color="#ffd3bd"/><stop offset="1" stop-color="#fff"/></linearGradient></defs><title>payment, money, cash, coin, paid, banking, wallet</title><path d="M31.9,38.2h63.66a2.29,2.29,0,0,1,2.29,2.29v21.5A6.816,6.816,0,0,1,91.032,68.8H38.713A6.816,6.816,0,0,1,31.9,61.987V38.2a0,0,0,0,1,0,0Z" transform="translate(-14.434 25.55) rotate(-20.098)" style="fill:url(#linear-gradient)"/><path d="M27.328,47.533h63.66a2.29,2.29,0,0,1,2.29,2.29v21.5a6.816,6.816,0,0,1-6.816,6.816H34.143a6.816,6.816,0,0,1-6.816-6.816V47.533a0,0,0,0,1,0,0Z" transform="translate(-17.92 24.548) rotate(-20.098)" style="fill:url(#linear-gradient-2)"/><path d="M30.313,48.139h68.1a3.738,3.738,0,0,1,3.738,3.738V108.2a3.738,3.738,0,0,1-3.738,3.738h-68.1a9.345,9.345,0,0,1-9.345-9.345V57.484A9.345,9.345,0,0,1,30.313,48.139Z" style="fill:url(#linear-gradient-3)"/><path d="M101.483,90.394H85.518a4.674,4.674,0,0,1-3.88-2.069l-3.814-5.683a4.672,4.672,0,0,1,0-5.207l3.814-5.683a4.674,4.674,0,0,1,3.88-2.069h15.965a5.608,5.608,0,0,1,5.607,5.607v9.5A5.608,5.608,0,0,1,101.483,90.394Z" style="fill:url(#linear-gradient-4)"/><circle cx="31.199" cy="29.839" r="10.689" style="fill:url(#linear-gradient-5)"/><circle cx="31.199" cy="29.839" r="6.606" style="fill:url(#linear-gradient-6)"/><circle cx="59.34" cy="22.251" r="6.259" style="fill:url(#linear-gradient-7)"/><circle cx="89.689" cy="80.038" r="4.366" style="fill:url(#linear-gradient-8)"/></svg>