<svg id="Smooth" xmlns="http://www.w3.org/2000/svg" xmlns:xlink="http://www.w3.org/1999/xlink" viewBox="0 0 128 128"><defs><linearGradient id="linear-gradient" x1="32.218" y1="33.583" x2="32.218" y2="52.498" gradientUnits="userSpaceOnUse"><stop offset="0" stop-color="#ffb8ae"/><stop offset="0.665" stop-color="#ff759a"/><stop offset="1" stop-color="#ff5991"/></linearGradient><linearGradient id="linear-gradient-2" x1="47.833" y1="15.667" x2="97.695" y2="15.667" gradientUnits="userSpaceOnUse"><stop offset="0" stop-color="#541d37"/><stop offset="1" stop-color="#754d5b"/></linearGradient><linearGradient id="linear-gradient-3" x1="87.91" y1="56.935" x2="78.197" y2="47.221" gradientTransform="translate(13.747)" gradientUnits="userSpaceOnUse"><stop offset="0" stop-color="#ffddd4"/><stop offset="1" stop-color="#ffa489"/></linearGradient><linearGradient id="linear-gradient-4" x1="90.684" y1="44.499" x2="79.398" y2="63.353" gradientUnits="userSpaceOnUse"><stop offset="0" stop-color="#ffe0e3"/><stop offset="1" stop-color="#ffc9ae"/></linearGradient><linearGradient id="linear-gradient-5" x1="80.572" y1="-91.638" x2="75.955" y2="-82.438" gradientTransform="translate(30.348 144.204) rotate(-11.268)" gradientUnits="userSpaceOnUse"><stop offset="0" stop-color="#ffa489"/><stop offset="1" stop-color="#ff6363"/></linearGradient><linearGradient id="linear-gradient-6" x1="47.229" y1="27.375" x2="47.229" y2="63.755" gradientUnits="userSpaceOnUse"><stop offset="0" stop-color="#ffb048"/><stop offset="1" stop-color="#ffe59a"/></linearGradient><linearGradient id="linear-gradient-7" x1="54.62" y1="27.375" x2="54.62" y2="63.755" xlink:href="#linear-gradient-6"/><linearGradient id="linear-gradient-8" x1="62.248" y1="27.375" x2="62.248" y2="63.755" xlink:href="#linear-gradient-6"/><linearGradient id="linear-gradient-9" x1="69.731" y1="27.375" x2="69.731" y2="63.755" xlink:href="#linear-gradient-6"/><linearGradient id="linear-gradient-10" x1="63.956" y1="106.875" x2="63.956" y2="129.558" gradientUnits="userSpaceOnUse"><stop offset="0" stop-color="#450922"/><stop offset="1" stop-color="#754d5b"/></linearGradient><linearGradient id="linear-gradient-11" x1="63.955" y1="140.333" x2="63.955" y2="47.386" xlink:href="#linear-gradient-10"/><linearGradient id="linear-gradient-12" x1="77.079" y1="36.134" x2="82.891" y2="36.134" gradientUnits="userSpaceOnUse"><stop offset="0" stop-color="#64863b"/><stop offset="0.168" stop-color="#728e3e"/><stop offset="0.486" stop-color="#97a444"/><stop offset="0.918" stop-color="#d3c74f"/><stop offset="1" stop-color="#dfce51"/></linearGradient><linearGradient id="linear-gradient-13" x1="82.018" y1="27.636" x2="86" y2="27.636" xlink:href="#linear-gradient-12"/><linearGradient id="linear-gradient-14" x1="89.236" y1="32.038" x2="94.076" y2="32.038" xlink:href="#linear-gradient-12"/><linearGradient id="linear-gradient-15" x1="96.95" y1="10.262" x2="112.775" y2="10.262" gradientUnits="userSpaceOnUse"><stop offset="0" stop-color="#ffd3bd"/><stop offset="1" stop-color="#ffddd4"/></linearGradient><linearGradient id="linear-gradient-16" x1="50.903" y1="26.394" x2="115.653" y2="14.394" xlink:href="#linear-gradient-2"/><linearGradient id="linear-gradient-17" x1="98.631" y1="15.945" x2="114.456" y2="15.945" gradientTransform="translate(1.425 -4.51) rotate(3.561)" xlink:href="#linear-gradient-15"/><linearGradient id="linear-gradient-18" x1="63.955" y1="75.437" x2="63.955" y2="61.491" xlink:href="#linear-gradient-15"/><linearGradient id="linear-gradient-19" x1="77.079" y1="37.22" x2="82.891" y2="37.22" xlink:href="#linear-gradient-4"/><linearGradient id="linear-gradient-20" x1="91.165" y1="32.038" x2="94.076" y2="32.038" xlink:href="#linear-gradient-4"/><linearGradient id="linear-gradient-21" x1="82.018" y1="27.636" x2="83.919" y2="27.636" xlink:href="#linear-gradient-4"/><linearGradient id="linear-gradient-22" x1="72.89" y1="43.062" x2="76.872" y2="43.062" gradientTransform="matrix(0.136, 0.991, -0.991, 0.136, 107.366, -36.977)" xlink:href="#linear-gradient-12"/><linearGradient id="linear-gradient-23" x1="72.89" y1="43.062" x2="74.792" y2="43.062" gradientTransform="matrix(0.136, 0.991, -0.991, 0.136, 107.366, -36.977)" xlink:href="#linear-gradient-4"/><linearGradient id="linear-gradient-24" x1="63.96" y1="53" x2="63.96" y2="64.95" gradientTransform="matrix(1, 0, 0, 1, 0, 0)" xlink:href="#linear-gradient-5"/></defs><title>bowl, noodles, ramen, japanese, food, chopsticks, asian</title><path d="M41.991,46.675c0,1.012-.919,1.867-1.216,2.78-.307.947-.076,2.177-.65,2.965s-1.824.953-2.62,1.533-1.32,1.712-2.266,2.019c-.914.3-2.009-.3-3.021-.3s-2.108.6-3.022.3c-.946-.307-1.478-1.446-2.266-2.019s-2.041-.737-2.62-1.533-.342-2.018-.65-2.965c-.3-.913-1.216-1.768-1.216-2.78s.92-1.868,1.216-2.781c.308-.947.077-2.177.65-2.965s1.825-.953,2.62-1.533,1.32-1.712,2.267-2.019c.913-.3,2.008.3,3.021.3s2.107-.6,3.021-.3c.947.307,1.478,1.446,2.266,2.02s2.041.736,2.62,1.532.343,2.018.65,2.965C41.072,44.807,41.991,45.662,41.991,46.675Z" style="fill:url(#linear-gradient)"/><path d="M111.55,10.44,97.47,13.06,39.5,23.85a2.458,2.458,0,0,1-.28.02,1.5,1.5,0,0,1-.27-2.97l58-10.8L111,7.49a1.5,1.5,0,0,1,.55,2.95Z" style="fill:url(#linear-gradient-2)"/><path d="M97.751,38.164,82.614,52.017a9.3,9.3,0,0,0,14.754,2.9,11.762,11.762,0,0,0,3.863-7.508C101.6,44.11,100.668,41.106,97.751,38.164Z" style="fill:url(#linear-gradient-3)"/><path d="M97.751,38.164c2.26,2.186,1.753,7.733-1.759,11.876-3.826,4.514-9.557,6.313-13.378,1.977-2.586-2.935-1.36-8.625,2.78-12.2C89.758,36.051,95,35.5,97.751,38.164Z" style="fill:url(#linear-gradient-4)"/><path d="M93.883,40.983c1.237,1.2.959,4.234-.964,6.5-2.094,2.471-5.232,3.456-7.324,1.082-1.415-1.606-.744-4.722,1.522-6.678C89.506,39.826,92.375,39.524,93.883,40.983Z" style="fill:url(#linear-gradient-5)"/><path d="M46.261,62.424a1.5,1.5,0,0,1-1.5-1.5,7.906,7.906,0,0,1,1.739-5.05,4.949,4.949,0,0,0,1.2-3.328,4.145,4.145,0,0,0-1.561-3.162,6.914,6.914,0,0,1,0-10.43,3.979,3.979,0,0,0,0-6.319,7,7,0,0,1-2.374-5.215A7.9,7.9,0,0,1,45.5,22.374a4.946,4.946,0,0,0,1.2-3.326,1.5,1.5,0,0,1,3,0A7.9,7.9,0,0,1,47.957,24.1a4.943,4.943,0,0,0-1.2,3.325,4.143,4.143,0,0,0,1.561,3.161,6.912,6.912,0,0,1,0,10.428,3.981,3.981,0,0,0,0,6.321A7,7,0,0,1,50.7,52.546a7.909,7.909,0,0,1-1.739,5.05,4.945,4.945,0,0,0-1.2,3.328A1.5,1.5,0,0,1,46.261,62.424Z" style="fill:url(#linear-gradient-6)"/><path d="M53.652,62.424a1.5,1.5,0,0,1-1.5-1.5,8.222,8.222,0,0,1,1.727-5.155A5.3,5.3,0,0,0,55.087,52.3,4.357,4.357,0,0,0,53.512,49a7.181,7.181,0,0,1,0-10.644,4.24,4.24,0,0,0,0-6.6,7.231,7.231,0,0,1-2.36-5.322,8.211,8.211,0,0,1,1.728-5.152,5.3,5.3,0,0,0,1.207-3.465,1.5,1.5,0,1,1,3,0,8.212,8.212,0,0,1-1.728,5.153,5.3,5.3,0,0,0-1.207,3.464,4.354,4.354,0,0,0,1.576,3.3,7.181,7.181,0,0,1,0,10.642,4.241,4.241,0,0,0,0,6.6A7.237,7.237,0,0,1,58.087,52.3a8.225,8.225,0,0,1-1.728,5.157,5.3,5.3,0,0,0-1.207,3.467A1.5,1.5,0,0,1,53.652,62.424Z" style="fill:url(#linear-gradient-7)"/><path d="M61.281,62.424a1.5,1.5,0,0,1-1.5-1.5A8.543,8.543,0,0,1,61.5,55.662a5.609,5.609,0,0,0,1.218-3.607,4.577,4.577,0,0,0-1.59-3.439,7.458,7.458,0,0,1,0-10.858,4.511,4.511,0,0,0,0-6.873,7.473,7.473,0,0,1-2.345-5.428A8.541,8.541,0,0,1,60.5,20.2a5.6,5.6,0,0,0,1.218-3.6,1.5,1.5,0,0,1,3,0A8.547,8.547,0,0,1,63,21.854a5.589,5.589,0,0,0-1.218,3.6,4.575,4.575,0,0,0,1.589,3.437,7.455,7.455,0,0,1,0,10.856,4.513,4.513,0,0,0,0,6.875,7.476,7.476,0,0,1,2.345,5.43A8.551,8.551,0,0,1,64,57.317a5.6,5.6,0,0,0-1.218,3.607A1.5,1.5,0,0,1,61.281,62.424Z" style="fill:url(#linear-gradient-8)"/><path d="M68.764,62.424a1.5,1.5,0,0,1-1.5-1.5,8.879,8.879,0,0,1,1.706-5.369A5.919,5.919,0,0,0,70.2,51.809a4.808,4.808,0,0,0-1.6-3.577,7.728,7.728,0,0,1-2.332-5.538,8.871,8.871,0,0,1,1.706-5.366,6.318,6.318,0,0,0,0-7.486,8.872,8.872,0,0,1-1.706-5.367,8.875,8.875,0,0,1,1.706-5.367A5.906,5.906,0,0,0,69.2,15.367a1.5,1.5,0,0,1,3,0,8.871,8.871,0,0,1-1.706,5.366,5.909,5.909,0,0,0-1.228,3.742,5.912,5.912,0,0,0,1.228,3.743,9.3,9.3,0,0,1,0,10.735,5.906,5.906,0,0,0-1.228,3.741,4.81,4.81,0,0,0,1.6,3.578A7.731,7.731,0,0,1,73.2,51.809a8.885,8.885,0,0,1-1.706,5.37,5.916,5.916,0,0,0-1.228,3.745A1.5,1.5,0,0,1,68.764,62.424Z" style="fill:url(#linear-gradient-9)"/><path d="M46.855,105v3.688a7.035,7.035,0,0,0,5.243,6.783,46.783,46.783,0,0,0,23.714,0,7.035,7.035,0,0,0,5.244-6.784v-3.815Z" style="fill:url(#linear-gradient-10)"/><path d="M106.82,64.37V68.9c0,.62-.01,1.24-.04,1.85-.03.79-.09,1.58-.16,2.36-.03.28-.05.55-.08.83C104.19,95.29,87.37,112,63.96,112S23.72,95.29,21.37,73.94c-.03-.28-.05-.55-.08-.83-.07-.78-.13-1.57-.16-2.36-.03-.61-.04-1.23-.04-1.85V64.37a4.338,4.338,0,0,1,4.33-4.33h77.07A4.332,4.332,0,0,1,106.82,64.37Z" style="fill:url(#linear-gradient-11)"/><path d="M82.8,35.4a2.905,2.905,0,0,0-5.623,0,3.05,3.05,0,0,0-.1.733,2.906,2.906,0,0,0,5.812,0A3.049,3.049,0,0,0,82.8,35.4Zm-2.812,2.457a1.733,1.733,0,0,1-1.724-1.724.673.673,0,0,1,.023-.213,1.713,1.713,0,0,1,3.4,0,.647.647,0,0,1,.024.213A1.726,1.726,0,0,1,79.985,37.858Z" style="fill:url(#linear-gradient-12)"/><path d="M84.009,25.65a1.9,1.9,0,0,0-.962.258,1.938,1.938,0,0,0-1.029,1.722,1.968,1.968,0,0,0,1.029,1.734,1.9,1.9,0,0,0,.962.257,1.986,1.986,0,1,0,0-3.971Zm0,2.853a.253.253,0,0,1-.09-.011.865.865,0,0,1-.783-.862.854.854,0,0,1,.783-.85.253.253,0,0,1,.09-.011.863.863,0,0,1,.872.861A.874.874,0,0,1,84.009,28.5Z" style="fill:url(#linear-gradient-13)"/><path d="M93.806,30.921a2.433,2.433,0,0,0-2.26-1.3,2.274,2.274,0,0,0-1,.27,2.407,2.407,0,0,0-1.044,3.255,2.375,2.375,0,0,0,2.039,1.3.344.344,0,0,0,.11.012,2.339,2.339,0,0,0,1.106-.27A2.424,2.424,0,0,0,93.806,30.921ZM92.786,32.4a1.128,1.128,0,0,1-.577.7,1.181,1.181,0,0,1-.909.074.465.465,0,0,1-.135-.062,1.126,1.126,0,0,1-.565-.528,1.172,1.172,0,0,1-.074-.909,1.112,1.112,0,0,1,.59-.7c.024-.012.037-.025.061-.025a1.1,1.1,0,0,1,.479-.1,1.19,1.19,0,0,1,1.057.639A1.168,1.168,0,0,1,92.786,32.4Z" style="fill:url(#linear-gradient-14)"/><path d="M111.55,10.44,97.47,13.06l-.52-2.96L111,7.49a1.5,1.5,0,0,1,.55,2.95Z" style="fill:url(#linear-gradient-15)"/><path d="M113.436,18.615,99.22,20.355,40.692,27.524a2.616,2.616,0,0,1-.281,0,1.5,1.5,0,0,1-.085-2.981l58.559-7.177,14.185-1.732a1.5,1.5,0,0,1,.366,2.979Z" style="fill:url(#linear-gradient-16)"/><path d="M113.436,18.615,99.22,20.355l-.335-2.987,14.185-1.732a1.5,1.5,0,0,1,.366,2.979Z" style="fill:url(#linear-gradient-17)"/><path d="M106.78,70.75c-.03.79-.09,1.58-.16,2.36-.03.28-.05.55-.08.83H21.37c-.03-.28-.05-.55-.08-.83-.07-.78-.13-1.57-.16-2.36Z" style="fill:url(#linear-gradient-18)"/><path d="M82.891,36.134a2.906,2.906,0,0,1-5.812,0,3.05,3.05,0,0,1,.1-.733l1.11.52a.673.673,0,0,0-.023.213,1.725,1.725,0,0,0,3.449,0,.647.647,0,0,0-.024-.213L82.8,35.4A3.049,3.049,0,0,1,82.891,36.134Z" style="fill:url(#linear-gradient-19)"/><path d="M31.6,53.663a1.042,1.042,0,0,1-.268-.037,7.18,7.18,0,0,1-4.553-3.5,6.675,6.675,0,0,1-.627-4.987,6.889,6.889,0,0,1,3.476-4.049,5.736,5.736,0,0,1,4.623-.247,5.609,5.609,0,0,1,3.27,3.037,4.881,4.881,0,0,1,.035,3.877c-.7,1.631-2.952,3.457-5.367,2.655A3.468,3.468,0,0,1,29.8,46.251a2.685,2.685,0,0,1,1.738-1.794,2.385,2.385,0,0,1,2.242.4,1,1,0,0,1-1.237,1.572.383.383,0,0,0-.39-.07.684.684,0,0,0-.43.441,1.482,1.482,0,0,0,1.1,1.711c1.3.433,2.557-.756,2.895-1.544a2.891,2.891,0,0,0-.034-2.3,3.626,3.626,0,0,0-2.126-1.951,3.791,3.791,0,0,0-3.047.167,4.909,4.909,0,0,0-2.449,2.849,4.654,4.654,0,0,0,.474,3.434A5.223,5.223,0,0,0,31.87,51.7a1,1,0,0,1-.266,1.965Z" style="fill:#fff"/><path d="M92.762,34.188a2.339,2.339,0,0,1-1.106.27.344.344,0,0,1-.11-.012l-.381-1.339a.465.465,0,0,0,.135.062,1.181,1.181,0,0,0,.909-.074,1.128,1.128,0,0,0,.577-.7,1.168,1.168,0,0,0-.073-.909,1.19,1.19,0,0,0-1.057-.639,1.1,1.1,0,0,0-.479.1l.369-1.326a2.419,2.419,0,0,1,1.216,4.569Z" style="fill:url(#linear-gradient-20)"/><path d="M83.919,28.492l-.872.872a1.968,1.968,0,0,1-1.029-1.734,1.938,1.938,0,0,1,1.029-1.722l.872.872a.854.854,0,0,0-.783.85A.865.865,0,0,0,83.919,28.492Z" style="fill:url(#linear-gradient-21)"/><path d="M76.848,42.792a1.9,1.9,0,0,0-.386-.918,1.938,1.938,0,0,0-1.846-.786,1.97,1.97,0,0,0-1.578,1.256,1.9,1.9,0,0,0-.124.988,1.985,1.985,0,1,0,3.934-.54Zm-2.826.388a.272.272,0,0,1,0-.09.864.864,0,0,1,.747-.893.853.853,0,0,1,.949.66.274.274,0,0,1,.023.087.865.865,0,0,1-.735.982A.875.875,0,0,1,74.022,43.18Z" style="fill:url(#linear-gradient-22)"/><path d="M74.021,43.09l-.983-.746a1.97,1.97,0,0,1,1.578-1.256,1.938,1.938,0,0,1,1.846.786l-.745.983a.853.853,0,0,0-.949-.66A.864.864,0,0,0,74.021,43.09Z" style="fill:url(#linear-gradient-23)"/><path d="M106.39,62.49H21.53a4.31,4.31,0,0,1,3.89-2.45h77.07A4.325,4.325,0,0,1,106.39,62.49Z" style="fill:url(#linear-gradient-24)"/></svg>