<svg id="Smooth" xmlns="http://www.w3.org/2000/svg" xmlns:xlink="http://www.w3.org/1999/xlink" viewBox="0 0 128 128"><defs><linearGradient id="linear-gradient" x1="64" y1="34.067" x2="64" y2="67.535" gradientUnits="userSpaceOnUse"><stop offset="0" stop-color="#ffddd4"/><stop offset="1" stop-color="#ffbfba"/></linearGradient><linearGradient id="linear-gradient-2" x1="64" y1="-35.667" x2="64" y2="137.139" gradientUnits="userSpaceOnUse"><stop offset="0" stop-color="#ffd1cc"/><stop offset="1" stop-color="#ff3d63"/></linearGradient><linearGradient id="linear-gradient-3" x1="37.624" y1="18.333" x2="37.624" y2="98.337" xlink:href="#linear-gradient-2"/><linearGradient id="linear-gradient-4" x1="54.608" y1="18.333" x2="54.608" y2="98.337" xlink:href="#linear-gradient-2"/><linearGradient id="linear-gradient-5" x1="90.376" y1="18.333" x2="90.376" y2="98.337" xlink:href="#linear-gradient-2"/><linearGradient id="linear-gradient-6" x1="73.392" y1="18.333" x2="73.392" y2="98.337" xlink:href="#linear-gradient-2"/><linearGradient id="linear-gradient-7" x1="85.76" y1="20.776" x2="68.135" y2="49.276" xlink:href="#linear-gradient-2"/><linearGradient id="linear-gradient-8" x1="82.945" y1="2.25" x2="82.945" y2="35.11" xlink:href="#linear-gradient-2"/><linearGradient id="linear-gradient-9" x1="80.454" y1="2.25" x2="80.454" y2="35.11" xlink:href="#linear-gradient-2"/></defs><title>cupcake, food, bakery, fastfood, eat, cherry, dessert</title><path d="M64,26.884c-38.282,0-40.925,35.788-40.925,35.788q40.881,40.691,81.849,0S102.281,26.884,64,26.884Z" style="fill:url(#linear-gradient)"/><path d="M83.688,112.183H44.311a15,15,0,0,1-14.472-11.056L20.307,66.148a3,3,0,0,1,4.662-3.219c2.5,1.818,4.26,4.245,8.961,4.245,7.514,0,7.514-6.2,15.029-6.2s7.517,6.2,15.034,6.2,7.515-6.2,15.03-6.2,7.52,6.2,15.04,6.2c4.706,0,6.467-2.429,8.968-4.247a3,3,0,0,1,4.662,3.218L98.16,101.127A15,15,0,0,1,83.688,112.183Z" style="fill:url(#linear-gradient-2)"/><path d="M40.592,104.092a1.5,1.5,0,0,1-1.466-1.189L33.187,74.871a1.5,1.5,0,1,1,2.934-.622l5.94,28.032a1.5,1.5,0,0,1-1.157,1.778A1.452,1.452,0,0,1,40.592,104.092Z" style="fill:url(#linear-gradient-3)"/><path d="M55.4,105.927a1.5,1.5,0,0,1-1.5-1.424L52.313,73.195a1.5,1.5,0,1,1,3-.152L56.9,104.351a1.5,1.5,0,0,1-1.422,1.574Z" style="fill:url(#linear-gradient-4)"/><path d="M87.407,104.092a1.452,1.452,0,0,1-.312-.033,1.5,1.5,0,0,1-1.156-1.778l5.939-28.032a1.5,1.5,0,1,1,2.935.622L88.873,102.9A1.5,1.5,0,0,1,87.407,104.092Z" style="fill:url(#linear-gradient-5)"/><path d="M72.6,105.927l-.078,0a1.5,1.5,0,0,1-1.422-1.574l1.595-31.308a1.5,1.5,0,1,1,3,.152L74.092,104.5A1.5,1.5,0,0,1,72.6,105.927Z" style="fill:url(#linear-gradient-6)"/><circle cx="77.273" cy="34.5" r="14.567" style="fill:url(#linear-gradient-7)"/><path d="M86.22,15.92a1.482,1.482,0,0,0-1.979,1.042c-.88,3.636-2.329,6.979-5,9.158a1.5,1.5,0,1,0,1.9,2.324c3.294-2.687,5.01-6.594,6.018-10.758a1.5,1.5,0,0,0-.908-1.755Z" style="fill:url(#linear-gradient-8)"/><path d="M82.735,29.954a7.224,7.224,0,0,1-6.223-3.18,1.5,1.5,0,0,1,2.547-1.586,4.395,4.395,0,0,0,3.927,1.758,1.5,1.5,0,0,1,.294,2.986C83.244,29.936,83.046,29.954,82.735,29.954Z" style="fill:url(#linear-gradient-9)"/></svg>