<svg id="Smooth" xmlns="http://www.w3.org/2000/svg" xmlns:xlink="http://www.w3.org/1999/xlink" viewBox="0 0 128 128"><defs><linearGradient id="linear-gradient" x1="49.257" y1="44.908" x2="58.57" y2="44.908" gradientUnits="userSpaceOnUse"><stop offset="0" stop-color="#450922"/><stop offset="1" stop-color="#754d5b"/></linearGradient><linearGradient id="linear-gradient-2" x1="30.678" y1="80.193" x2="30.678" y2="117.295" xlink:href="#linear-gradient"/><linearGradient id="linear-gradient-3" x1="92.067" y1="80.193" x2="92.067" y2="117.295" xlink:href="#linear-gradient"/><linearGradient id="linear-gradient-4" x1="16.154" y1="88.747" x2="47.781" y2="88.747" gradientUnits="userSpaceOnUse"><stop offset="0" stop-color="#ffd160"/><stop offset="1" stop-color="#ed7c38"/></linearGradient><linearGradient id="linear-gradient-5" x1="100.971" y1="78.296" x2="110.798" y2="78.296" gradientUnits="userSpaceOnUse"><stop offset="0" stop-color="#ffa489"/><stop offset="1" stop-color="#ff6363"/></linearGradient><linearGradient id="linear-gradient-6" x1="73.53" y1="68.362" x2="73.53" y2="119.273" xlink:href="#linear-gradient-4"/><linearGradient id="linear-gradient-7" x1="80.895" y1="73.86" x2="80.895" y2="67.929" gradientUnits="userSpaceOnUse"><stop offset="0" stop-color="#ffd3bd"/><stop offset="1" stop-color="#ffddd4"/></linearGradient><linearGradient id="linear-gradient-8" x1="56.261" y1="41.151" x2="62.513" y2="41.151" xlink:href="#linear-gradient-7"/><linearGradient id="linear-gradient-9" x1="68.794" y1="31.176" x2="92.996" y2="31.176" gradientUnits="userSpaceOnUse"><stop offset="0" stop-color="#5652af"/><stop offset="1" stop-color="#90a9db"/></linearGradient><linearGradient id="linear-gradient-10" x1="35.335" y1="46.05" x2="41.784" y2="46.05" xlink:href="#linear-gradient-5"/></defs><title>delivery, shipping, direction, destination, motorcycle, transportation</title><path d="M50.758,49a1.5,1.5,0,0,1-.952-2.66l6.313-5.178a1.5,1.5,0,1,1,1.9,2.319l-6.313,5.179A1.489,1.489,0,0,1,50.758,49Z" style="fill:url(#linear-gradient)"/><circle cx="30.678" cy="100.031" r="12.006" style="fill:url(#linear-gradient-2)"/><circle cx="92.067" cy="100.031" r="12.006" style="fill:url(#linear-gradient-3)"/><circle cx="30.678" cy="100.031" r="4.535" style="fill:#fff"/><circle cx="92.067" cy="100.031" r="4.535" style="fill:#fff"/><path d="M35.333,82.062a18.874,18.874,0,0,0-4.572-.595,17.836,17.836,0,0,0-14.219,7.048,1.869,1.869,0,0,0,1.019,2.952l30.22,4.559Z" style="fill:url(#linear-gradient-4)"/><path d="M109.9,75.966a5.691,5.691,0,0,0-6.434-2.552l-2.494,1.022,8.384,8.977C110.243,81.527,111.792,78.667,109.9,75.966Z" style="fill:url(#linear-gradient-5)"/><path d="M95.705,71.776H67.325a17.394,17.394,0,0,1,3.33,10.65,8.211,8.211,0,0,1-8.21,8.19H51.835c-1.03,0-8.43-6.8-3.241-23.1,3.111-9.77,4.351-18.1,3.01-22.38a9.026,9.026,0,0,0-8.479-6.51c-.511,0-3.31.05-3.98.14-1.75.29-3.81,3.3-3.81,7.37,0,3.63,2.4,6.93,4.339,7.24.021,0,.05.01.071.01a12.465,12.465,0,0,0,3.929-.21,1.807,1.807,0,0,1,2,2.51c-2.719,6.16-8.219,20.29-10.459,26.34,1.05,2.32,7.75,10.19,9.579,13.12a4.324,4.324,0,0,0,3.651,2.01H109.5a2.317,2.317,0,0,0,2.33-2.22C112.034,89.956,110.875,77.846,95.705,71.776Z" style="fill:url(#linear-gradient-6)"/><path d="M95.709,71.772H67.328c-1.587,0-3.928-2.139-3.928-5.519,0-2.332,1.962-4.394,3.9-4.394l25.081-.838a6.4,6.4,0,0,1,4.745,1.991C100.64,66.849,95.709,71.772,95.709,71.772Z" style="fill:url(#linear-gradient-7)"/><ellipse cx="59.387" cy="41.151" rx="3.125" ry="5.787" style="fill:url(#linear-gradient-8)"/><path d="M68.794,29.086c0-7.551,5.562-13.06,12.1-13.06S93,21.535,93,29.086C93,36.8,86.122,42.5,82.04,45.909a1.783,1.783,0,0,1-2.29,0C75.668,42.5,68.794,36.8,68.794,29.086Z" style="fill:url(#linear-gradient-9)"/><circle cx="80.919" cy="28.681" r="6.136" style="fill:#fff"/><path d="M41.784,46.326A12.194,12.194,0,0,1,40.151,52.7a1.015,1.015,0,0,1-1.364.347c-1.714-.971-3.452-3.822-3.452-6.912,0-3.47,1.5-6.17,3.024-7.07a1,1,0,0,1,1.32.248A13.847,13.847,0,0,1,41.784,46.326Z" style="fill:url(#linear-gradient-10)"/></svg>