<svg id="Smooth" xmlns="http://www.w3.org/2000/svg" xmlns:xlink="http://www.w3.org/1999/xlink" viewBox="0 0 128 128"><defs><linearGradient id="linear-gradient" x1="64" y1="32.5" x2="64" y2="129.532" gradientUnits="userSpaceOnUse"><stop offset="0" stop-color="#ffd160"/><stop offset="1" stop-color="#ed7c38"/></linearGradient><linearGradient id="linear-gradient-2" x1="64" y1="63.667" x2="64" y2="112.059" gradientUnits="userSpaceOnUse"><stop offset="0" stop-color="#4a1a4c"/><stop offset="0.006" stop-color="#4d1b4c"/><stop offset="0.102" stop-color="#722352"/><stop offset="0.203" stop-color="#932b58"/><stop offset="0.313" stop-color="#ad315c"/><stop offset="0.434" stop-color="#c2355f"/><stop offset="0.569" stop-color="#d03861"/><stop offset="0.733" stop-color="#d83a63"/><stop offset="1" stop-color="#db3b63"/></linearGradient><linearGradient id="linear-gradient-3" x1="79.468" y1="55" x2="79.468" y2="18.975" gradientUnits="userSpaceOnUse"><stop offset="0" stop-color="#473051"/><stop offset="1" stop-color="#6fa4c0"/></linearGradient><linearGradient id="linear-gradient-4" x1="48.532" y1="55" x2="48.532" y2="18.975" xlink:href="#linear-gradient-3"/><linearGradient id="linear-gradient-5" x1="76.497" y1="98.5" x2="76.497" y2="61.87" gradientUnits="userSpaceOnUse"><stop offset="0" stop-color="#ffd3bd"/><stop offset="1" stop-color="#fff"/></linearGradient></defs><title>delicious, hungry, emoji, emotion, happy, food, need</title><circle cx="64" cy="64" r="45.272" style="fill:url(#linear-gradient)"/><path d="M64,83.382a60.487,60.487,0,0,1-24.992-5.605,6.144,6.144,0,0,1-2.891-8.6h0a6.135,6.135,0,0,1,7.9-2.556c13.4,6.034,26.568,6.034,39.972,0a6.135,6.135,0,0,1,7.9,2.556h0a6.144,6.144,0,0,1-2.891,8.6A60.487,60.487,0,0,1,64,83.382Z" style="fill:url(#linear-gradient-2)"/><path d="M85.561,56.252a1.5,1.5,0,0,1-1.309-.765c-.754-1.341-4.758-4.5-10.315-2.258a1.5,1.5,0,1,1-1.123-2.781c6.937-2.8,12.576.943,14.053,3.569a1.5,1.5,0,0,1-1.306,2.235Z" style="fill:url(#linear-gradient-3)"/><path d="M42.439,56.252a1.5,1.5,0,0,1-1.306-2.235c1.477-2.627,7.114-6.371,14.053-3.569a1.5,1.5,0,1,1-1.124,2.781c-5.555-2.241-9.559.917-10.314,2.258A1.5,1.5,0,0,1,42.439,56.252Z" style="fill:url(#linear-gradient-4)"/><path d="M88.992,78.528v13.21A4.762,4.762,0,0,1,84.23,96.5h0a4.762,4.762,0,0,1-4.762-4.762V86.216a2.8,2.8,0,0,0-3.289-2.753h0a2.8,2.8,0,0,0-2.3,2.753v10.1a4.934,4.934,0,0,1-4.933,4.933h0a4.934,4.934,0,0,1-4.934-4.942L64,82.737a2.552,2.552,0,0,1,2.425-2.56,59.9,59.9,0,0,0,19.006-4.066A2.605,2.605,0,0,1,88.992,78.528Z" style="fill:url(#linear-gradient-5)"/></svg>