<svg id="Smooth" xmlns="http://www.w3.org/2000/svg" xmlns:xlink="http://www.w3.org/1999/xlink" viewBox="0 0 128 128"><defs><linearGradient id="linear-gradient" x1="50.797" y1="7.355" x2="50.797" y2="27.392" gradientUnits="userSpaceOnUse"><stop offset="0" stop-color="#ffe0e3"/><stop offset="1" stop-color="#ffc9ae"/></linearGradient><linearGradient id="linear-gradient-2" x1="64" y1="47.875" x2="64" y2="30.991" gradientUnits="userSpaceOnUse"><stop offset="0" stop-color="#ffddd4"/><stop offset="1" stop-color="#ffa489"/></linearGradient><linearGradient id="linear-gradient-3" x1="64.005" y1="60.006" x2="64.005" y2="114.749" gradientUnits="userSpaceOnUse"><stop offset="0" stop-color="#ffa489"/><stop offset="1" stop-color="#ff6363"/></linearGradient><linearGradient id="linear-gradient-4" x1="64" y1="15.909" x2="64" y2="39.314" gradientUnits="userSpaceOnUse"><stop offset="0" stop-color="#450922"/><stop offset="1" stop-color="#754d5b"/></linearGradient><linearGradient id="linear-gradient-5" x1="70.794" y1="89.109" x2="64.754" y2="74.798" gradientUnits="userSpaceOnUse"><stop offset="0" stop-color="#b8505c"/><stop offset="1" stop-color="#d86868"/></linearGradient><linearGradient id="linear-gradient-6" x1="91.286" y1="80.478" x2="81.045" y2="60.783" gradientUnits="userSpaceOnUse"><stop offset="0" stop-color="#cc665e"/><stop offset="1" stop-color="#d85e68"/></linearGradient><linearGradient id="linear-gradient-7" x1="65.027" y1="52.259" x2="65.027" y2="70.779" gradientUnits="userSpaceOnUse"><stop offset="0" stop-color="#e57f6d"/><stop offset="1" stop-color="#d85e68"/></linearGradient><linearGradient id="linear-gradient-8" x1="48.319" y1="97.598" x2="47.444" y2="78.603" gradientUnits="userSpaceOnUse"><stop offset="0" stop-color="#b8505c"/><stop offset="1" stop-color="#d85e68"/></linearGradient><linearGradient id="linear-gradient-9" x1="77.344" y1="101.14" x2="77.344" y2="84.246" xlink:href="#linear-gradient-8"/><linearGradient id="linear-gradient-10" x1="33.621" y1="52.019" x2="74.717" y2="99.944" xlink:href="#linear-gradient-7"/></defs><title>drink, milk tea, sweet, sugar, food, hungry</title><path d="M60.8,26.918H47.758L40.845,5.356a1.05,1.05,0,0,1,1-1.371H52.682a1.05,1.05,0,0,1,1,.729Z" style="fill:url(#linear-gradient)"/><path d="M97.329,36.907s-.084,2.584-.221,6.639c-.388,11.848-1.281,36.27-2.1,45.587C93.947,101.275,85.974,112,71.174,112H56.826c-14.8,0-22.773-10.725-23.834-22.867-.808-9.2-1.691-33.171-2.09-45.167-.147-4.3-.231-7.059-.231-7.059Z" style="fill:url(#linear-gradient-2)"/><path d="M97.108,43.546c-.388,11.848-1.281,36.27-2.1,45.587C93.947,101.275,85.974,112,71.174,112H56.826c-14.8,0-22.773-10.725-23.834-22.867-.808-9.2-1.691-33.171-2.09-45.167l.053-.536c8.266,0,8.266,4.359,16.522,4.359S55.744,43.43,64,43.43s8.267,4.359,16.523,4.359,8.266-4.359,16.522-4.359Z" style="fill:url(#linear-gradient-3)"/><path d="M96.475,40.054H31.525a5.164,5.164,0,0,1-5.02-5.629l.171-2.475A7.381,7.381,0,0,1,33.9,24.931H94.1a7.381,7.381,0,0,1,7.227,7.019l.171,2.475A5.164,5.164,0,0,1,96.475,40.054Z" style="fill:url(#linear-gradient-4)"/><circle cx="65.659" cy="76.943" r="6.19" style="fill:url(#linear-gradient-5)"/><circle cx="85.402" cy="69.161" r="4.226" style="fill:url(#linear-gradient-6)"/><circle cx="65.027" cy="56.329" r="3.282" style="fill:url(#linear-gradient-7)"/><circle cx="47.986" cy="90.366" r="6.099" style="fill:url(#linear-gradient-8)"/><circle cx="77.344" cy="95.226" r="4.86" style="fill:url(#linear-gradient-9)"/><circle cx="44.696" cy="64.935" r="4.226" style="fill:url(#linear-gradient-10)"/></svg>