<svg id="Smooth" xmlns="http://www.w3.org/2000/svg" xmlns:xlink="http://www.w3.org/1999/xlink" viewBox="0 0 128 128"><defs><linearGradient id="linear-gradient" x1="64" y1="71.769" x2="64" y2="88.173" gradientUnits="userSpaceOnUse"><stop offset="0" stop-color="#652247"/><stop offset="1" stop-color="#c96955"/></linearGradient><linearGradient id="linear-gradient-2" x1="41" y1="64.902" x2="22.951" y2="64.902" gradientUnits="userSpaceOnUse"><stop offset="0" stop-color="#dd3152"/><stop offset="1" stop-color="#ed845e"/></linearGradient><linearGradient id="linear-gradient-3" x1="90.375" y1="64.902" x2="107.632" y2="64.902" gradientTransform="translate(170.171 129.804) rotate(-180)" xlink:href="#linear-gradient-2"/><linearGradient id="linear-gradient-4" x1="64" y1="76.25" x2="64" y2="140.022" gradientUnits="userSpaceOnUse"><stop offset="0" stop-color="#ffc988"/><stop offset="0.145" stop-color="#fcc283"/><stop offset="0.354" stop-color="#f5af77"/><stop offset="0.602" stop-color="#e99062"/><stop offset="0.877" stop-color="#d96545"/><stop offset="1" stop-color="#d14f36"/></linearGradient><linearGradient id="linear-gradient-5" x1="64" y1="77.333" x2="64" y2="63.833" gradientUnits="userSpaceOnUse"><stop offset="0" stop-color="#ffd160"/><stop offset="1" stop-color="#ed7c38"/></linearGradient><linearGradient id="linear-gradient-6" x1="64" y1="62.625" x2="64" y2="73.628" xlink:href="#linear-gradient-2"/><linearGradient id="linear-gradient-7" x1="64" y1="42.708" x2="64" y2="63.584" gradientUnits="userSpaceOnUse"><stop offset="0" stop-color="#31477c"/><stop offset="1" stop-color="#81d187"/></linearGradient><linearGradient id="linear-gradient-8" x1="64" y1="14.833" x2="64" y2="76.153" gradientTransform="translate(128 70.43) rotate(-180)" xlink:href="#linear-gradient-4"/><linearGradient id="linear-gradient-9" x1="64" y1="25.5" x2="64" y2="17.04" gradientUnits="userSpaceOnUse"><stop offset="0" stop-color="#ffc97c"/><stop offset="0.517" stop-color="#ed9961"/><stop offset="1" stop-color="#db6945"/></linearGradient><linearGradient id="linear-gradient-10" x1="73.348" y1="31.188" x2="73.348" y2="22.309" xlink:href="#linear-gradient-9"/><linearGradient id="linear-gradient-11" x1="82.265" y1="26.938" x2="82.265" y2="17.17" xlink:href="#linear-gradient-9"/><linearGradient id="linear-gradient-12" x1="54.652" y1="31.187" x2="54.652" y2="22.309" xlink:href="#linear-gradient-9"/><linearGradient id="linear-gradient-13" x1="45.735" y1="26.937" x2="45.735" y2="17.17" xlink:href="#linear-gradient-9"/></defs><title>food, delivery, breakfast, fastfood, eat, restaurant, hamburger</title><rect x="21.621" y="71.736" width="84.757" height="15.863" rx="7.932" ry="7.932" style="fill:url(#linear-gradient)"/><rect x="21.829" y="60.676" width="42.171" height="8.452" rx="4.226" ry="4.226" style="fill:url(#linear-gradient-2)"/><rect x="64" y="60.676" width="42.171" height="8.452" rx="4.226" ry="4.226" transform="translate(170.171 129.804) rotate(180)" style="fill:url(#linear-gradient-3)"/><path d="M25.908,86.891h76.184a4.287,4.287,0,0,1,4.287,4.287v2.679a18.218,18.218,0,0,1-18.218,18.218H39.839A18.218,18.218,0,0,1,21.621,93.856V91.177a4.287,4.287,0,0,1,4.287-4.287Z" style="fill:url(#linear-gradient-4)"/><path d="M61.071,73.305H24.05a2.18,2.18,0,0,1-2.217-1.956,2.084,2.084,0,0,1,2.084-2.221H103.95a2.18,2.18,0,0,1,2.217,1.955,2.114,2.114,0,0,1-.606,1.612,2.054,2.054,0,0,1-1.478.61H97.9c-2.968,0-10.491,5.488-13.672,7.915a3,3,0,0,1-3.133.316L66.663,74.523A13.439,13.439,0,0,0,61.071,73.305Z" style="fill:url(#linear-gradient-5)"/><rect x="42.915" y="60.676" width="42.171" height="8.452" rx="4.226" ry="4.226" style="fill:url(#linear-gradient-6)"/><path d="M106.974,62.122l-.013-.083a11.337,11.337,0,0,0-11.222-9.568H32.261a11.337,11.337,0,0,0-11.222,9.568l-.013.083a2.075,2.075,0,0,0,2.434,2.341c4.776-.873,6.386-2.92,12.415-2.933,7.026-.014,7.035,4.121,14.061,4.107S56.971,61.487,64,61.473c7.029.014,7.035,4.15,14.064,4.164S85.1,61.516,92.125,61.53c6.029.013,7.639,2.06,12.415,2.933A2.075,2.075,0,0,0,106.974,62.122Z" style="fill:url(#linear-gradient-7)"/><path d="M25.908,15.926h76.184a4.287,4.287,0,0,1,4.287,4.287v0A34.292,34.292,0,0,1,72.086,54.5H55.914A34.292,34.292,0,0,1,21.621,20.212v0a4.287,4.287,0,0,1,4.287-4.287Z" transform="translate(128 70.43) rotate(180)" style="fill:url(#linear-gradient-8)"/><circle cx="64" cy="21.784" r="1.508" style="fill:url(#linear-gradient-9)"/><circle cx="73.348" cy="26.523" r="1.508" style="fill:url(#linear-gradient-10)"/><circle cx="82.265" cy="22.818" r="1.508" style="fill:url(#linear-gradient-11)"/><circle cx="54.652" cy="26.523" r="1.508" style="fill:url(#linear-gradient-12)"/><circle cx="45.735" cy="22.818" r="1.508" style="fill:url(#linear-gradient-13)"/></svg>