<svg id="Smooth" xmlns="http://www.w3.org/2000/svg" xmlns:xlink="http://www.w3.org/1999/xlink" viewBox="0 0 128 128"><defs><linearGradient id="linear-gradient" x1="64" y1="190.333" x2="64" y2="38.225" gradientUnits="userSpaceOnUse"><stop offset="0" stop-color="#313b42"/><stop offset="1" stop-color="#81d187"/></linearGradient><linearGradient id="linear-gradient-2" x1="24.167" y1="52.05" x2="8.559" y2="52.05" gradientUnits="userSpaceOnUse"><stop offset="0" stop-color="#ffd3bd"/><stop offset="1" stop-color="#fff"/></linearGradient><linearGradient id="linear-gradient-3" x1="74.91" y1="20.5" x2="74.91" y2="157.515" gradientUnits="userSpaceOnUse"><stop offset="0" stop-color="#450922"/><stop offset="0.126" stop-color="#4e1e32"/><stop offset="0.387" stop-color="#5f4450"/><stop offset="0.629" stop-color="#6b6065"/><stop offset="0.841" stop-color="#727172"/><stop offset="1" stop-color="#757777"/></linearGradient><linearGradient id="linear-gradient-4" x1="74.91" y1="79" x2="74.91" y2="28.706" gradientUnits="userSpaceOnUse"><stop offset="0" stop-color="#450922"/><stop offset="1" stop-color="#757777"/></linearGradient><linearGradient id="linear-gradient-5" x1="10.167" y1="82.615" x2="-3.703" y2="82.615" xlink:href="#linear-gradient-2"/><linearGradient id="linear-gradient-6" x1="27.299" y1="111.833" x2="27.299" y2="81.278" xlink:href="#linear-gradient-4"/><linearGradient id="linear-gradient-7" x1="27.299" y1="105.187" x2="27.299" y2="75.026" xlink:href="#linear-gradient-2"/><linearGradient id="linear-gradient-8" x1="100.697" y1="113" x2="100.697" y2="78.931" xlink:href="#linear-gradient-4"/><linearGradient id="linear-gradient-9" x1="100.697" y1="105.188" x2="100.697" y2="75.026" xlink:href="#linear-gradient-2"/><linearGradient id="linear-gradient-10" x1="48.707" y1="92.167" x2="48.707" y2="67.088" gradientUnits="userSpaceOnUse"><stop offset="0" stop-color="#ffc988"/><stop offset="0.145" stop-color="#fcc283"/><stop offset="0.354" stop-color="#f5af77"/><stop offset="0.602" stop-color="#e99062"/><stop offset="0.877" stop-color="#d96545"/><stop offset="1" stop-color="#d14f36"/></linearGradient><linearGradient id="linear-gradient-11" x1="101.689" y1="92.167" x2="101.689" y2="67.088" xlink:href="#linear-gradient-10"/><linearGradient id="linear-gradient-12" x1="122.5" y1="81.622" x2="131.004" y2="81.622" xlink:href="#linear-gradient-2"/><linearGradient id="linear-gradient-13" x1="75.474" y1="61.333" x2="75.474" y2="85.001" xlink:href="#linear-gradient-10"/><linearGradient id="linear-gradient-14" x1="43.599" y1="53.161" x2="43.599" y2="65.305" gradientUnits="userSpaceOnUse"><stop offset="0" stop-color="#ffa489"/><stop offset="1" stop-color="#ff6363"/></linearGradient><linearGradient id="linear-gradient-15" x1="43.599" y1="54.333" x2="43.599" y2="57.43" gradientUnits="userSpaceOnUse"><stop offset="0" stop-color="#ffe0e3"/><stop offset="1" stop-color="#ffc9ae"/></linearGradient><linearGradient id="linear-gradient-16" x1="43.599" y1="55.778" x2="43.599" y2="59.284" xlink:href="#linear-gradient-15"/><linearGradient id="linear-gradient-17" x1="50.662" y1="53.161" x2="50.662" y2="65.305" gradientUnits="userSpaceOnUse"><stop offset="0" stop-color="#ffd160"/><stop offset="1" stop-color="#ed7c38"/></linearGradient><linearGradient id="linear-gradient-18" x1="50.662" y1="54.333" x2="50.662" y2="57.43" xlink:href="#linear-gradient-15"/><linearGradient id="linear-gradient-19" x1="50.662" y1="55.778" x2="50.662" y2="59.284" xlink:href="#linear-gradient-15"/><linearGradient id="linear-gradient-20" x1="79.466" y1="58.813" x2="79.466" y2="68.657" xlink:href="#linear-gradient-15"/><linearGradient id="linear-gradient-21" x1="79.466" y1="66.906" x2="79.466" y2="65.145" xlink:href="#linear-gradient-15"/><linearGradient id="linear-gradient-22" x1="95.75" y1="60.165" x2="94.875" y2="66.977" xlink:href="#linear-gradient-15"/></defs><title>food, truck, restaurant, cooking, meal, dinner, street food</title><path d="M125.5,38.11V93.05a4.884,4.884,0,0,1-4.96,4.81H8.2a5.618,5.618,0,0,1-5.7-5.53V82.1a23.621,23.621,0,0,1,.75-6.24c1.74-6.43,6.03-8.24,7.62-9.59.53-2.62,3.52-20.03,4.92-27.91v-.02c.1-.52.18-.99.26-1.42a10.052,10.052,0,0,1,9.84-8.44h89.69A9.848,9.848,0,0,1,125.5,38.11Z" style="fill:url(#linear-gradient)"/><path d="M22.54,41.51l-.7,14.41c0,5.71-3.77,10.35-8.43,10.35H10.87c.53-2.62,3.52-20.03,4.92-27.91v-.02l.15-.51h3.6C21.2,37.83,22.54,39.48,22.54,41.51Z" style="fill:url(#linear-gradient-2)"/><rect x="35.069" y="36.14" width="79.682" height="42.982" rx="3.066" ry="3.066" style="fill:url(#linear-gradient-3)"/><path d="M114.041,33.678H35.779c-3.521,0-6.633,7.607-6.633,12.634a8.115,8.115,0,0,0,2.035,4.645,9.294,9.294,0,0,0,14.132-1.118,2.14,2.14,0,0,1,3.5,0,9.294,9.294,0,0,0,15.08,0,2.141,2.141,0,0,1,3.5,0,9.164,9.164,0,0,0,7.478,3.86,9.281,9.281,0,0,0,7.54-3.86,2.141,2.141,0,0,1,3.5,0,9.294,9.294,0,0,0,15.08,0,2.14,2.14,0,0,1,3.5,0,9.293,9.293,0,0,0,14.131,1.118,8.108,8.108,0,0,0,2.035-4.645C120.673,41.285,117.561,33.678,114.041,33.678Z" style="fill:url(#linear-gradient-4)"/><path d="M7.96,84.37a5.281,5.281,0,0,1-5.46,5V82.1a23.621,23.621,0,0,1,.75-6.24h1.8a2.6,2.6,0,0,1,2.3,1.37C8.03,78.5,8.33,80.7,7.96,84.37Z" style="fill:url(#linear-gradient-5)"/><circle cx="27.299" cy="95.878" r="7.935" style="fill:url(#linear-gradient-6)"/><circle cx="27.299" cy="95.878" r="2.359" style="fill:url(#linear-gradient-7)"/><circle cx="100.697" cy="95.878" r="7.935" style="fill:url(#linear-gradient-8)"/><circle cx="100.697" cy="95.878" r="2.359" style="fill:url(#linear-gradient-9)"/><path d="M49.7,80.622a1.5,1.5,0,0,1-1.461-1.166l-1.984-8.69a1.5,1.5,0,0,1,2.925-.668l1.984,8.69a1.5,1.5,0,0,1-1.129,1.8A1.478,1.478,0,0,1,49.7,80.622Z" style="fill:url(#linear-gradient-10)"/><path d="M100.7,80.622a1.5,1.5,0,0,1-1.464-1.834l1.984-8.69a1.5,1.5,0,0,1,2.925.668l-1.984,8.69A1.5,1.5,0,0,1,100.7,80.622Z" style="fill:url(#linear-gradient-11)"/><path d="M125.5,74.778V88.466h-.639a3.139,3.139,0,0,1-3.328-2.906V77.684a3.139,3.139,0,0,1,3.328-2.906Z" style="fill:url(#linear-gradient-12)"/><rect x="31.266" y="66.269" width="88.415" height="4.163" rx="2.082" ry="2.082" style="fill:url(#linear-gradient-13)"/><path d="M45.61,59.125H41.588l-.339,6.563c-.031.441.288.582.694.582h3.312c.406,0,.725-.141.694-.582Z" style="fill:url(#linear-gradient-14)"/><path d="M45.524,57.742l-.994-1.1a2.4,2.4,0,0,1-.593-1.363l-.085-.777h-.506s-.064.582-.085.777a2.4,2.4,0,0,1-.593,1.363l-.994,1.1Z" style="fill:url(#linear-gradient-15)"/><rect x="41.315" y="57.5" width="4.568" height="2.063" rx="0.388" ry="0.388" style="fill:url(#linear-gradient-16)"/><path d="M52.672,59.125H48.651l-.339,6.563c-.032.441.288.582.693.582h3.313c.405,0,.725-.141.693-.582Z" style="fill:url(#linear-gradient-17)"/><path d="M52.587,57.742l-1-1.1A2.4,2.4,0,0,1,51,55.277l-.085-.777h-.505s-.064.582-.085.777a2.418,2.418,0,0,1-.593,1.363l-1,1.1Z" style="fill:url(#linear-gradient-18)"/><rect x="48.378" y="57.5" width="4.568" height="2.063" rx="0.388" ry="0.388" style="fill:url(#linear-gradient-19)"/><path d="M74.872,60.914a.585.585,0,0,0-.593.63,5.225,5.225,0,0,0,10.373,0,.584.584,0,0,0-.592-.63Z" style="fill:url(#linear-gradient-20)"/><path d="M81.777,66.269H77.155c-.335,0-.335-.737,0-.737h4.622C82.111,65.532,82.111,66.269,81.777,66.269Z" style="fill:url(#linear-gradient-21)"/><path d="M95.229,66.336a17.513,17.513,0,0,1-4.778-.671,1.5,1.5,0,1,1,.813-2.886,14.441,14.441,0,0,0,7.93,0,1.5,1.5,0,1,1,.814,2.886A17.52,17.52,0,0,1,95.229,66.336Z" style="fill:url(#linear-gradient-22)"/></svg>