<svg id="Smooth" xmlns="http://www.w3.org/2000/svg" xmlns:xlink="http://www.w3.org/1999/xlink" viewBox="0 0 128 128"><defs><linearGradient id="linear-gradient" x1="64" y1="27" x2="64" y2="114.02" gradientUnits="userSpaceOnUse"><stop offset="0" stop-color="#ffd160"/><stop offset="1" stop-color="#ed7c38"/></linearGradient><linearGradient id="linear-gradient-2" x1="64" y1="12" x2="64" y2="98.186" xlink:href="#linear-gradient"/><linearGradient id="linear-gradient-3" x1="64" y1="56.25" x2="64" y2="43.62" gradientUnits="userSpaceOnUse"><stop offset="0" stop-color="#ffd3bd"/><stop offset="1" stop-color="#fff"/></linearGradient><linearGradient id="linear-gradient-4" x1="64" y1="76.375" x2="64" y2="85.487" gradientUnits="userSpaceOnUse"><stop offset="0" stop-color="#ffd3bd"/><stop offset="0.306" stop-color="#ffd5c0"/><stop offset="0.527" stop-color="#ffdbc9"/><stop offset="0.723" stop-color="#ffe6d9"/><stop offset="0.902" stop-color="#fff5ef"/><stop offset="1" stop-color="#fff"/></linearGradient><linearGradient id="linear-gradient-5" x1="120.115" y1="49.885" x2="83.487" y2="13.256" gradientUnits="userSpaceOnUse"><stop offset="0" stop-color="#64863b"/><stop offset="0.168" stop-color="#728e3e"/><stop offset="0.486" stop-color="#97a444"/><stop offset="0.918" stop-color="#d3c74f"/><stop offset="1" stop-color="#dfce51"/></linearGradient><linearGradient id="linear-gradient-6" x1="59.724" y1="132.526" x2="23.932" y2="96.735" xlink:href="#linear-gradient-5"/><linearGradient id="linear-gradient-7" y1="74.875" x2="64" y2="47.417" xlink:href="#linear-gradient-3"/></defs><title>money, coin, dollar, refund, exchange, change</title><circle cx="64" cy="64" r="37.868" style="fill:url(#linear-gradient)"/><circle cx="64" cy="64" r="26.333" style="fill:url(#linear-gradient-2)"/><path d="M64,91.833A27.833,27.833,0,1,1,91.833,64,27.863,27.863,0,0,1,64,91.833Zm0-52.666A24.833,24.833,0,1,0,88.833,64,24.861,24.861,0,0,0,64,39.167Z" style="fill:#ed7c38"/><path d="M64,54.683a1.5,1.5,0,0,1-1.5-1.5V48.6a1.5,1.5,0,0,1,3,0v4.579A1.5,1.5,0,0,1,64,54.683Z" style="fill:url(#linear-gradient-3)"/><path d="M64,80.9a1.5,1.5,0,0,1-1.5-1.5V74.817a1.5,1.5,0,0,1,3,0V79.4A1.5,1.5,0,0,1,64,80.9Z" style="fill:url(#linear-gradient-4)"/><path d="M102.7,34.281c-1.747-9.05-7.674-16.511-9.633-18.78l.287-.307a1.816,1.816,0,0,0,.329-1.982,1.867,1.867,0,0,0-1.694-1.082,40.7,40.7,0,0,0-11.751,1.919,1.814,1.814,0,0,0-.925,2.76l5.974,8.6a1.817,1.817,0,0,0,3.185-.372l.314-.8c4.3,2.869,8.5,8.383,10.639,11.442a1.8,1.8,0,0,0,1.478.777,1.834,1.834,0,0,0,1.8-2.181Z" style="fill:url(#linear-gradient-5)"/><path d="M40.525,105.593l-5.975-8.6a1.817,1.817,0,0,0-3.183.374l-.314.8c-4.3-2.866-8.5-8.382-10.64-11.441a1.8,1.8,0,0,0-2.192-.631,1.816,1.816,0,0,0-1.082,2.034c1.746,9.044,7.671,16.509,9.632,18.78l-.286.306a1.824,1.824,0,0,0,1.332,3.065h.033A40.748,40.748,0,0,0,39.6,108.353a1.815,1.815,0,0,0,.923-2.76Z" style="fill:url(#linear-gradient-6)"/><path d="M64,76.317c-4.272,0-7.748-3.1-7.748-6.908a1.5,1.5,0,0,1,3,0c0,2.155,2.13,3.908,4.748,3.908s4.748-1.753,4.748-3.908S66.618,65.5,64,65.5c-4.272,0-7.748-3.1-7.748-6.909S59.728,51.683,64,51.683s7.748,3.1,7.748,6.908a1.5,1.5,0,0,1-3,0c0-2.155-2.13-3.908-4.748-3.908s-4.748,1.753-4.748,3.908S61.382,62.5,64,62.5c4.272,0,7.748,3.1,7.748,6.909S68.272,76.317,64,76.317Z" style="fill:url(#linear-gradient-7)"/></svg>