<svg id="Smooth" xmlns="http://www.w3.org/2000/svg" xmlns:xlink="http://www.w3.org/1999/xlink" viewBox="0 0 128 128"><defs><linearGradient id="linear-gradient" x1="53.746" y1="58.344" x2="38.496" y2="74.344" gradientUnits="userSpaceOnUse"><stop offset="0" stop-color="#ffc2a1"/><stop offset="1" stop-color="#ffddd4"/></linearGradient><linearGradient id="linear-gradient-2" x1="38.171" y1="26.545" x2="111.505" y2="129.878" gradientUnits="userSpaceOnUse"><stop offset="0" stop-color="#e7ce75"/><stop offset="1" stop-color="#bda413"/></linearGradient><linearGradient id="linear-gradient-3" x1="98" y1="67.443" x2="19.5" y2="67.443" gradientTransform="translate(150.255 22.723) rotate(106.004)" gradientUnits="userSpaceOnUse"><stop offset="0" stop-color="#ffd3bd"/><stop offset="1" stop-color="#fff"/></linearGradient><linearGradient id="linear-gradient-4" x1="98" y1="56.064" x2="19.5" y2="56.064" gradientTransform="matrix(-0.492, 0.87, 0.87, 0.492, 40.237, -23.398)" xlink:href="#linear-gradient-3"/><linearGradient id="linear-gradient-5" x1="41.489" y1="31.5" x2="41.489" y2="44.552" xlink:href="#linear-gradient-2"/><linearGradient id="linear-gradient-6" x1="97.48" y1="80.796" x2="18.98" y2="80.796" gradientTransform="matrix(-0.492, 0.87, 0.87, 0.492, 40.237, -23.398)" xlink:href="#linear-gradient-3"/><linearGradient id="linear-gradient-7" x1="45.841" y1="46.034" x2="27.929" y2="28.122" xlink:href="#linear-gradient"/></defs><title>percent, reward, discount, shopping, business, marketing</title><path d="M33.866,97.92,16.24,51.57a5.2,5.2,0,0,1,.955-5.28L30.374,31.307a5.2,5.2,0,0,1,4.538-1.726l19.805,2.441a5.2,5.2,0,0,1,4.222,3.311L76.565,81.682a5.2,5.2,0,0,1-3.011,6.706L40.572,100.931A5.2,5.2,0,0,1,33.866,97.92Z" style="fill:url(#linear-gradient)"/><path d="M68.507,110.276,23.226,65a6.711,6.711,0,0,1-1.668-6.726l7.6-24.622a6.715,6.715,0,0,1,4.434-4.434l24.622-7.6a6.711,6.711,0,0,1,6.726,1.668l45.281,45.28a6.712,6.712,0,0,1,0,9.493L78,110.276A6.712,6.712,0,0,1,68.507,110.276Z" style="fill:url(#linear-gradient-2)"/><path d="M59.449,86.089,70.134,48.834A2.374,2.374,0,0,1,74.7,50.143L64.013,87.4a2.374,2.374,0,0,1-4.564-1.309Z" style="fill:url(#linear-gradient-3)"/><path d="M58.678,68.365h0a7.3,7.3,0,1,1,4.391-3.437A7.241,7.241,0,0,1,58.678,68.365Zm-4.4-6.343a2.538,2.538,0,0,0,3.126,1.768h0a2.6,2.6,0,0,0,1.767-3.126,2.539,2.539,0,0,0-4.894,1.358Z" style="fill:url(#linear-gradient-4)"/><circle cx="41.489" cy="41.391" r="4.914" style="fill:url(#linear-gradient-5)"/><path d="M79.231,82.263h0a7.3,7.3,0,1,1,4.392-3.437A7.238,7.238,0,0,1,79.23,82.263Zm-4.4-6.343a2.541,2.541,0,0,0,3.126,1.768h0a2.6,2.6,0,0,0,1.768-3.126,2.539,2.539,0,1,0-4.894,1.358Z" style="fill:url(#linear-gradient-6)"/><path d="M41.492,43.765c-.045,0-.089,0-.134,0C30.316,43.15,29.439,36.6,28.8,31.821c-.618-4.613-1.064-7.947-8.473-8.912a2.374,2.374,0,0,1,.613-4.709c11.019,1.436,11.913,8.114,12.566,12.991.621,4.637,1,7.435,8.116,7.829a2.374,2.374,0,0,1-.129,4.745Z" style="fill:url(#linear-gradient-7)"/><path d="M79.589,20.23l-1.308-.716-.716-1.31a1.237,1.237,0,0,0-2.169,0l-.716,1.31-1.308.715a1.237,1.237,0,0,0,0,2.171l1.309.715.716,1.309a1.236,1.236,0,0,0,2.169,0l.716-1.309L79.59,22.4a1.236,1.236,0,0,0,0-2.169Z" style="fill:#ffbd5c"/><path d="M93.577,28.518l-2.458-1.344-1.346-2.458a1.657,1.657,0,0,0-2.908,0L85.52,27.174l-2.459,1.345a1.658,1.658,0,0,0,0,2.908l2.458,1.344,1.345,2.458a1.657,1.657,0,0,0,2.908,0l1.346-2.459,2.458-1.344a1.658,1.658,0,0,0,0-2.909Z" style="fill:#ffb450"/></svg>