<svg id="Smooth" xmlns="http://www.w3.org/2000/svg" xmlns:xlink="http://www.w3.org/1999/xlink" viewBox="0 0 128 128"><defs><linearGradient id="linear-gradient" x1="64" y1="120.728" x2="64" y2="10.058" gradientUnits="userSpaceOnUse"><stop offset="0" stop-color="#ffd3bd"/><stop offset="1" stop-color="#ffddd4"/></linearGradient><linearGradient id="linear-gradient-2" x1="64" y1="111" x2="64" y2="15.49" gradientUnits="userSpaceOnUse"><stop offset="0" stop-color="#4a1a4c"/><stop offset="0.006" stop-color="#4d1b4c"/><stop offset="0.102" stop-color="#722352"/><stop offset="0.203" stop-color="#932b58"/><stop offset="0.313" stop-color="#ad315c"/><stop offset="0.434" stop-color="#c2355f"/><stop offset="0.569" stop-color="#d03861"/><stop offset="0.733" stop-color="#d83a63"/><stop offset="1" stop-color="#db3b63"/></linearGradient><linearGradient id="linear-gradient-3" y1="24.836" x2="64" y2="8.696" xlink:href="#linear-gradient-2"/><linearGradient id="linear-gradient-4" x1="63.995" y1="41.062" x2="63.995" y2="26.03" xlink:href="#linear-gradient-2"/><linearGradient id="linear-gradient-5" x1="57.925" y1="84.777" x2="60.639" y2="84.777" xlink:href="#linear-gradient"/><linearGradient id="linear-gradient-6" x1="70.935" y1="59.84" x2="73.078" y2="59.84" xlink:href="#linear-gradient"/><linearGradient id="linear-gradient-7" x1="66.842" y1="72.48" x2="68.461" y2="72.48" xlink:href="#linear-gradient"/><linearGradient id="linear-gradient-8" x1="55.67" y1="97.638" x2="57.289" y2="97.638" xlink:href="#linear-gradient"/><linearGradient id="linear-gradient-9" x1="55.457" y1="66.894" x2="57.501" y2="66.894" xlink:href="#linear-gradient"/><linearGradient id="linear-gradient-10" x1="61.881" y1="53.604" x2="63.294" y2="53.604" xlink:href="#linear-gradient"/><linearGradient id="linear-gradient-11" x1="69.961" y1="92.339" x2="71.917" y2="92.339" xlink:href="#linear-gradient"/></defs><title>soda, water, bottle, food, drink, fastfood, sugar</title><path d="M75.05,112.59H52.95a4.129,4.129,0,0,1-4.09-4.77c.61-3.84,2.28-12.49,1.92-17.37-.74-9.91-2.87-19.5-.74-31.6,1.3-7.38,3.97-12.25,5.94-19.84.13-.49.25-.99.37-1.5.11-.49.23-.99.34-1.5a77.888,77.888,0,0,0,1.62-14.4c.01-.68,0-1.73,0-1.73H69.69s-.02.96,0,1.62a79.977,79.977,0,0,0,1.63,14.51q.165.78.33,1.5.18.765.36,1.5c1.97,7.67,4.64,12.41,5.95,19.84,2.13,12.1,0,21.69-.74,31.6-.36,4.88,1.31,13.53,1.92,17.37A4.129,4.129,0,0,1,75.05,112.59Z" style="fill:url(#linear-gradient)"/><path d="M75.05,112.59H52.95a4.129,4.129,0,0,1-4.09-4.77c.61-3.84,2.28-12.49,1.92-17.37-.74-9.91-2.87-19.5-.74-31.6,1.42-8.07,4.31-12.7,6.31-21.34h15.3c2,8.64,4.89,13.27,6.31,21.34,2.13,12.1,0,21.69-.74,31.6-.36,4.88,1.31,13.53,1.92,17.37A4.129,4.129,0,0,1,75.05,112.59Z" style="fill:url(#linear-gradient-2)"/><path d="M70.24,21.553a.672.672,0,0,1-1.034.567,1.675,1.675,0,0,0-1.042-.339c-1.04,0-1.04.673-2.079.673s-1.04-.673-2.079-.673-1.04.673-2.08.673-1.042-.673-2.083-.673a1.687,1.687,0,0,0-1.05.342.672.672,0,0,1-1.033-.568v-.862a3.775,3.775,0,0,1,3.776-3.776h4.928a3.775,3.775,0,0,1,3.776,3.776Z" style="fill:url(#linear-gradient-3)"/><path d="M72.01,39.01H55.98c.13-.49.25-.99.37-1.5.11-.49.23-.99.34-1.5H71.32q.165.78.33,1.5Q71.83,38.275,72.01,39.01Z" style="fill:url(#linear-gradient-4)"/><circle cx="59.282" cy="84.777" r="1.357" style="fill:url(#linear-gradient-5)"/><circle cx="72.006" cy="59.84" r="1.072" style="fill:url(#linear-gradient-6)"/><circle cx="67.651" cy="72.48" r="0.809" style="fill:url(#linear-gradient-7)"/><circle cx="56.479" cy="97.638" r="0.809" style="fill:url(#linear-gradient-8)"/><circle cx="56.479" cy="66.894" r="1.022" style="fill:url(#linear-gradient-9)"/><circle cx="62.587" cy="53.604" r="0.706" style="fill:url(#linear-gradient-10)"/><circle cx="70.939" cy="92.339" r="0.978" style="fill:url(#linear-gradient-11)"/></svg>